<svg width="573" height="904" viewBox="0 0 573 904" fill="none" xmlns="http://www.w3.org/2000/svg">
<g clip-path="url(#clip0_545_4257)">
<path d="M385.204 623.321C315.297 681.197 144.402 657.664 -2.14995 568.608C-104.38 506.494 -172.57 426.079 -180.132 358.742C-183.398 329.91 -174.876 304.747 -155.528 285.987C-89.4995 221.966 86.7604 244.285 237.341 335.771C339.572 397.885 407.762 478.301 415.324 545.637C418.566 574.489 410.043 599.652 390.696 618.412C388.948 620.1 387.094 621.757 385.204 623.321ZM-148.8 282.474C-150.69 284.038 -152.497 285.655 -154.22 287.324C-173.4 305.945 -181.501 329.912 -178.283 358.542C-170.778 425.321 -102.913 505.199 -1.18246 567C144.747 655.644 314.639 679.282 383.948 621.901C385.838 620.337 387.644 618.72 389.368 617.051C408.568 598.454 416.669 574.487 413.43 545.833C405.926 479.054 338.061 399.176 236.33 337.375C90.4449 248.735 -79.4914 225.093 -148.8 282.474Z" fill="url(#paint0_linear_545_4257)"/>
<path d="M403.021 615.183C336.822 669.989 172.128 656.283 19.0373 579.98C-95.0253 523.105 -178.882 442.03 -194.577 373.442C-200.839 346.203 -196.338 322.514 -181.267 303.021C-126.911 232.693 51.3619 242.296 216.103 324.439C330.165 381.314 414.022 462.389 429.741 530.957C436.002 558.197 431.501 581.885 416.407 601.399C412.585 606.377 408.093 610.984 403.021 615.183ZM-166.553 290.597C-171.553 294.736 -175.97 299.24 -179.787 304.175C-194.506 323.216 -198.871 346.388 -192.775 373.039C-177.161 441.089 -93.6963 521.642 19.8818 578.273C172.254 654.243 336.092 668.133 401.693 613.823C406.693 609.683 411.11 605.18 414.927 600.245C429.646 581.203 434.011 558.031 427.914 531.381C412.325 463.311 328.86 382.757 215.282 326.127C62.8663 250.152 -100.929 236.266 -166.553 290.597Z" fill="url(#paint1_linear_545_4257)"/>
<path d="M419.261 605.505C356.101 657.796 198.708 653.248 42.0086 589.975C-83.9799 539.102 -181.523 460.929 -206.495 390.827C-215.625 365.237 -214.713 342.181 -203.778 322.32C-162.09 246.431 16.0049 242.913 193.195 314.426C319.184 365.299 416.726 443.472 441.699 513.574C450.829 539.164 449.897 562.196 438.981 582.081L438.164 581.629L438.981 582.081C434.161 590.871 427.515 598.672 419.261 605.505ZM-182.702 300.193C-190.836 306.927 -197.358 314.586 -202.098 323.228C-212.79 342.605 -213.652 365.136 -204.736 390.177C-179.916 459.801 -82.7938 537.515 42.7062 588.187C198.746 651.2 355.348 655.96 417.929 604.188C426.064 597.454 432.586 589.796 437.326 581.153C447.974 561.772 448.836 539.241 439.919 514.2C415.1 444.576 317.978 366.862 192.478 316.19C36.4379 253.177 -120.164 248.417 -182.702 300.193Z" fill="url(#paint2_linear_545_4257)"/>
<path d="M433.435 594.618C372.859 644.77 223.898 648.606 66.4492 598.454C-69.3863 555.169 -179.912 481.575 -215.156 410.903C-227.296 386.595 -229.846 363.985 -222.754 343.718C-194.542 263.096 -18.89 246.155 168.801 305.951C304.616 349.212 415.138 422.85 450.406 493.502C462.546 517.81 465.096 540.419 458.004 560.687C453.43 573.669 445.062 584.992 433.435 594.618ZM-196.888 311.012C-208.324 320.479 -216.54 331.596 -220.983 344.348C-227.893 364.103 -225.386 386.224 -213.467 410.069C-178.425 480.303 -68.3272 553.526 67.0157 596.654C253.721 656.137 428.31 639.713 456.189 560.053L457.087 560.358L456.189 560.053C463.1 540.298 460.592 518.177 448.673 494.332C413.631 424.098 303.533 350.875 168.191 307.747C11.3857 257.788 -136.91 261.355 -196.888 311.012Z" fill="url(#paint3_linear_545_4257)"/>
<path d="M445.05 583.095C441.915 585.689 438.547 588.196 434.901 590.61C369.657 633.858 235.055 639.598 92.0206 605.298C-103.931 558.269 -251.938 451.384 -237.887 367.001C-234.405 346.173 -221.559 328.278 -199.724 313.79C-134.48 270.542 0.10212 264.778 143.156 299.102C339.132 346.111 487.115 453.016 473.064 537.398C470.174 554.753 460.768 570.081 445.05 583.095ZM-208.664 322.765C-224.024 335.481 -233.218 350.432 -236.019 367.309C-249.892 450.738 -102.546 556.679 92.46 603.442C234.998 637.629 369.019 631.966 433.86 589.012C455.269 574.836 467.811 557.354 471.196 537.09L472.13 537.244L471.196 537.09C485.069 453.661 337.723 347.721 142.717 300.958C0.159565 266.746 -133.842 272.433 -198.683 315.388C-202.257 317.743 -205.578 320.209 -208.664 322.765Z" fill="url(#paint4_linear_545_4257)"/>
<path d="M453.813 571.014C395.844 619.006 264.651 634.466 118.562 610.356C-83.3736 576.993 -248.168 479.005 -248.796 391.894C-248.95 370.326 -239.257 351.009 -220.016 334.556C-162.824 285.674 -30.6399 269.756 116.622 294.064C318.582 327.408 483.376 425.396 483.98 512.527L483.029 512.547L483.98 512.527C484.134 534.095 474.441 553.411 455.2 569.865C454.746 570.241 454.291 570.618 453.813 571.014ZM-217.392 334.803C-217.871 335.199 -218.325 335.575 -218.78 335.952C-237.59 352.049 -247.059 370.857 -246.918 391.872C-246.32 478.12 -82.199 575.295 118.871 608.488C265.611 632.703 397.227 616.974 453.968 568.425C472.798 552.352 482.243 533.563 482.102 512.548C481.504 426.3 317.383 329.126 116.314 295.932C-29.2308 271.897 -159.854 287.167 -217.392 334.803Z" fill="url(#paint5_linear_545_4257)"/>
<path d="M459.429 558.97C403.876 604.961 283.781 626.276 145.689 613.531C-59.8557 594.609 -239.759 506.912 -255.359 418.081C-259.324 395.514 -252.64 374.657 -235.541 356.104C-186.448 302.797 -58.846 277.205 89.5029 290.893C295.024 309.835 474.931 397.489 490.551 486.343C494.516 508.91 487.833 529.768 470.733 548.32C467.321 551.992 463.543 555.563 459.429 558.97ZM-222.976 346.831C-227.067 350.218 -230.773 353.73 -234.137 357.362C-250.822 375.49 -257.344 395.811 -253.496 417.749C-238.045 505.816 -58.8916 592.802 145.866 611.651C283.457 624.326 403.027 603.205 458.172 557.55C462.263 554.163 465.969 550.651 469.333 547.019C486.018 528.891 492.541 508.569 488.693 486.631C473.218 398.585 294.084 311.622 89.3499 292.754C-48.2843 280.075 -167.855 301.196 -222.976 346.831Z" fill="url(#paint6_linear_545_4257)"/>
<path d="M461.741 547.297C408.63 591.269 300.387 617.207 173.04 614.763C-33.5581 610.787 -226.606 534.779 -257.324 445.318C-265.462 421.609 -261.855 398.983 -246.581 378.03C-205.416 321.528 -84.2361 286.814 62.1348 289.639C268.733 293.615 461.781 369.623 492.499 459.084C500.637 482.794 497.03 505.419 481.756 526.372C476.408 533.744 469.684 540.722 461.741 547.297ZM-225.282 358.461C-233.129 364.958 -239.757 371.856 -245.073 379.121C-259.944 399.538 -263.454 421.599 -255.545 444.692C-225.071 533.468 -32.7846 608.896 173.086 612.87C318.864 615.661 439.395 581.284 480.228 525.257C495.099 504.84 498.609 482.779 490.7 459.686L491.612 459.375L490.7 459.686C460.226 370.911 267.94 295.482 62.0693 291.508C-64.7721 289.089 -172.553 314.807 -225.282 358.461Z" fill="url(#paint7_linear_545_4257)"/>
<path d="M460.011 537.206C441.613 552.437 417.12 566.102 387.312 577.633C336.142 597.455 271.492 610.006 200.372 613.961C-4.71603 625.349 -208.813 562.199 -254.577 473.218C-267.388 448.296 -267.032 423.643 -253.491 400.012C-237.099 371.399 -202.066 346.065 -152.11 326.724C-100.94 306.903 -36.2904 294.352 34.8301 290.397C239.918 279.009 444.015 342.159 489.779 431.14C502.59 456.062 502.234 480.714 488.693 504.346C482.091 515.901 472.452 526.906 460.011 537.206ZM-223.904 369.024C-235.938 378.987 -245.393 389.678 -251.84 400.984C-265.041 424.051 -265.403 448.063 -252.888 472.384C-207.42 560.763 -4.16116 623.438 200.282 612.099C341.191 604.284 453.742 561.632 487.058 503.441C500.258 480.374 500.62 456.362 488.106 432.041C442.638 343.662 239.379 280.987 34.9353 292.326C-78.6505 298.612 -173.831 327.568 -223.904 369.024Z" fill="url(#paint8_linear_545_4257)"/>
<path d="M454.309 529.145C407.394 567.986 326.584 597.789 227.249 611.109C26.2997 638.065 -186.479 588.877 -247.067 501.523C-264.918 475.773 -268.195 448.241 -256.583 421.891C-229.637 360.828 -128.264 311.542 7.95637 293.291C208.925 266.359 421.728 315.527 482.292 402.902L481.515 403.424L482.292 402.902C500.143 428.652 503.42 456.183 491.808 482.533C484.518 499.054 471.75 514.705 454.309 529.145ZM-217.888 376.628C-235.089 390.869 -247.685 406.338 -254.867 422.648C-266.387 448.72 -263.225 474.895 -245.509 500.434C-185.293 587.291 26.6837 636.094 227.028 609.235C326.048 595.973 406.512 566.337 453.117 527.753C470.318 513.512 482.914 498.042 490.097 481.732C501.617 455.661 498.454 429.485 480.738 403.946C420.522 317.09 208.545 268.287 8.20107 295.145C-90.7995 308.431 -171.283 338.044 -217.888 376.628Z" fill="url(#paint9_linear_545_4257)"/>
<path d="M444.698 523.499C402.065 558.795 335.092 588.312 253.372 606.204C59.1467 648.685 -159.848 614.442 -234.809 529.793C-258.498 503.029 -265.901 473.145 -256.175 443.397C-236.015 381.541 -144.811 325.913 -18.1568 298.202C176.049 255.698 395.063 289.964 470.024 374.613C493.714 401.377 501.116 431.261 491.39 461.009C484.23 482.947 468.12 504.108 444.698 523.499ZM-208.314 382.319C-231.473 401.492 -247.335 422.368 -254.399 443.984C-263.888 473.092 -256.623 502.323 -233.389 528.537C-158.824 612.708 59.3319 646.716 252.972 604.358C378.974 576.783 469.628 521.612 489.57 460.418C499.06 431.31 491.795 402.078 468.561 375.865C393.996 291.694 175.84 257.685 -17.8007 300.044C-99.2494 317.874 -165.944 347.241 -208.314 382.319Z" fill="url(#paint10_linear_545_4257)"/>
<path d="M430.792 522.319C394.188 552.623 342.041 579.302 278.375 599.226C93.53 657.128 -129.073 638.496 -217.791 557.734C-247.945 530.274 -259.957 498.036 -252.537 464.431C-238.598 401.392 -160.35 341.853 -43.1964 305.15C141.692 247.252 364.275 265.861 452.993 346.622C483.147 374.083 495.159 406.32 487.739 439.926C481.365 468.754 461.582 496.827 430.792 522.319ZM-194.429 383.537C-224.885 408.751 -244.411 436.451 -250.701 464.846C-257.943 497.741 -246.14 529.385 -216.533 556.33C-128.264 636.697 93.5205 655.119 277.796 597.406C394.313 560.908 472.07 501.896 485.879 439.53C493.142 406.659 481.339 375.015 451.712 348.046C363.442 267.679 141.658 249.257 -42.6176 306.97C-106.057 326.827 -158.016 353.39 -194.429 383.537Z" fill="url(#paint11_linear_545_4257)"/>
<path d="M412.7 525.358C383.584 549.463 346.115 571.612 301.963 590.22C128.962 663.158 -94.4876 660.793 -196.178 584.964C-233.303 557.266 -250.521 522.685 -245.932 484.93C-238.297 422.07 -171.314 358.227 -66.748 314.161C106.229 241.243 329.679 243.608 431.349 319.412C468.474 347.111 485.693 381.691 481.103 419.446C476.718 455.742 452.51 492.399 412.7 525.358ZM-176.344 380.498C-215.747 413.12 -239.691 449.317 -244.055 485.151C-248.555 522.187 -231.613 556.19 -195.043 583.461C-93.8254 658.914 128.774 661.177 301.201 588.471C405.126 544.654 471.701 481.39 479.251 419.206C483.75 382.17 466.809 348.167 430.239 320.896C329.041 245.467 106.418 243.224 -66.0297 315.906C-110.046 334.482 -147.371 356.512 -176.344 380.498Z" fill="url(#paint12_linear_545_4257)"/>
<path d="M390.826 534.152C371.447 550.196 348.949 565.394 323.727 579.299C165.077 666.649 -56.4326 680.947 -170.097 611.16C-214.604 583.847 -237.574 547.092 -236.582 504.895C-235.109 442.579 -179.744 375.369 -88.5173 325.127C70.113 237.753 291.623 223.456 405.287 293.243C449.794 320.555 472.764 357.311 471.792 399.532C470.707 444.588 441.473 492.221 390.826 534.152ZM-154.475 371.749C-204.668 413.304 -233.654 460.409 -234.689 504.941C-235.659 546.434 -212.989 582.632 -169.109 609.576C-55.9653 679.027 164.686 664.715 322.802 577.646C413.447 527.724 468.424 461.117 469.899 399.486C470.869 357.992 448.199 321.795 404.319 294.85C291.175 225.399 70.5244 239.711 -87.5919 326.781C-112.786 340.622 -135.192 355.785 -154.475 371.749Z" fill="url(#paint13_linear_545_4257)"/>
<path d="M368.1 547.519C360.301 553.977 352.072 560.305 343.371 566.501C201.413 667.535 -15.33 698.694 -139.806 635.963C-191.051 610.156 -221.206 570.517 -224.72 524.388C-229.458 461.973 -186.996 394.033 -108.191 337.944C33.7673 236.91 250.51 205.75 374.986 268.481C426.231 294.288 456.387 333.927 459.9 380.056C464.119 435.561 430.973 495.467 368.1 547.519ZM-131.731 358.36C-194.102 409.997 -226.996 469.331 -222.83 524.235C-219.337 570.341 -190.333 608.392 -138.941 634.28C-15.0137 696.739 200.842 665.628 342.302 564.966C420.542 509.265 462.727 441.916 458.034 380.189C454.541 334.084 425.538 296.032 374.146 270.145C250.218 207.686 34.3421 238.773 -107.098 339.458C-115.751 345.614 -123.956 351.923 -131.731 358.36Z" fill="url(#paint14_linear_545_4257)"/>
<path d="M343.934 566.554C219.313 669.729 22.525 711.306 -105.555 658.979C-164.016 635.073 -201.238 594.107 -210.385 543.609C-221.49 482.27 -190.536 412.606 -125.466 352.443C-2.38645 238.689 206.766 190.665 340.752 245.402C399.194 269.284 436.416 310.25 445.582 360.772C456.687 422.111 425.734 491.775 360.664 551.938C355.251 556.943 349.652 561.82 343.934 566.554ZM-107.529 339.286C-113.246 344.02 -118.798 348.858 -124.186 353.843C-188.769 413.523 -219.511 482.567 -208.523 543.277C-199.513 593.122 -162.663 633.59 -104.837 657.216C22.6466 709.31 218.607 667.853 342.726 565.095C348.444 560.361 353.995 555.523 359.383 550.538C423.967 490.858 454.708 421.814 443.72 361.104C434.711 311.259 397.884 270.771 340.035 247.165C212.527 195.091 16.5665 236.547 -107.529 339.286Z" fill="url(#paint15_linear_545_4257)"/>
<path d="M322.859 588.239C214.267 678.143 52.8566 718.862 -67.7251 679.926C-132.765 658.886 -177.435 617.351 -193.497 562.98C-211.267 502.844 -191.783 431.989 -140.066 368.605C-37.8243 243.269 160.894 178.6 302.905 224.474C367.95 245.47 412.619 287.005 428.677 341.42C446.447 401.555 426.963 472.41 375.246 535.794C359.811 554.702 342.166 572.255 322.859 588.239ZM-86.4424 317.556C-105.678 333.481 -123.227 350.955 -138.634 369.799C-189.908 432.696 -209.267 502.922 -191.682 562.445C-175.805 616.202 -131.579 657.299 -67.1348 678.106C74.1935 723.74 272 659.381 373.794 534.576C425.112 471.684 444.447 401.477 426.886 341.935C411.008 288.177 366.783 247.081 302.339 226.273C182.357 187.527 21.6473 228.068 -86.4424 317.556Z" fill="url(#paint16_linear_545_4257)"/>
<path d="M306.7 611.094C214.113 687.747 83.5064 725.345 -26.674 698.485C-97.2344 681.249 -149.45 640.194 -173.687 582.913C-198.955 523.219 -191.167 453.336 -151.738 386.213C-72.1328 250.582 113.417 169.715 261.874 205.938C332.414 223.15 384.653 264.185 408.891 321.466C434.159 381.16 426.37 451.043 386.942 518.166C366.422 553.141 338.854 584.473 306.7 611.094ZM-70.2637 294.725C-102.25 321.207 -129.671 352.377 -150.107 387.161C-189.223 453.784 -196.974 523.031 -171.963 582.171C-147.938 638.903 -96.2149 679.558 -26.2346 696.63C83.3615 723.367 213.335 685.931 305.444 609.674C337.43 583.192 364.85 552.022 385.286 517.238C424.403 450.615 432.154 381.368 407.123 322.204C383.098 265.472 331.375 224.817 261.395 207.746C151.818 181.032 21.8446 218.468 -70.2637 294.725Z" fill="url(#paint17_linear_545_4257)"/>
<path d="M296.895 633.489C219.643 697.446 115 730.849 17.127 714.327C-57.3335 701.73 -116.8 662.486 -150.26 603.806C-183.53 545.454 -187.082 474.878 -160.279 405.021C-104.818 260.585 64.9006 164.152 218.035 190.05C292.52 202.626 351.963 241.891 385.422 300.57C418.692 358.922 422.244 429.499 395.441 499.355C375.448 551.477 340.532 597.361 296.895 633.489ZM-60.5002 272.327C-103.899 308.257 -138.614 353.895 -158.516 405.739C-185.11 475.019 -181.616 545.038 -148.607 602.881C-115.452 661.046 -56.461 699.96 17.4352 712.458C169.747 738.19 338.51 642.307 393.674 498.681C420.292 429.381 416.778 359.338 383.789 301.519C350.59 243.35 291.643 204.441 217.747 191.942C120.419 175.493 16.3445 208.707 -60.5002 272.327Z" fill="url(#paint18_linear_545_4257)"/>
<path d="M294.303 654.027C231.024 706.416 147.802 735.351 63.2138 727.228C-13.1763 719.899 -79.0165 683.915 -122.202 625.908C-164.524 569.041 -179.869 497.663 -165.458 424.918C-135.442 273.32 15.9613 162.167 171.998 177.154C248.388 184.482 314.248 220.491 357.41 278.518C399.732 335.385 415.076 406.763 400.665 479.508C386.924 548.874 347.702 609.817 294.303 654.027ZM-57.9032 251.791C-110.991 295.743 -149.934 356.293 -163.593 425.27C-177.912 497.494 -162.673 568.355 -120.683 624.771C-77.8345 682.372 -12.4547 718.092 63.3908 725.348C218.509 740.248 368.944 629.776 398.805 479.112C413.123 406.888 397.861 336.047 355.871 279.63C313.022 222.03 247.642 186.309 171.797 179.054C87.7137 170.956 4.96977 199.738 -57.9032 251.791Z" fill="url(#paint19_linear_545_4257)"/>
<path d="M299.054 671.66C248.072 713.868 182.25 738.641 111.04 736.984C-46.0223 733.373 -170.828 602.641 -167.215 445.6C-163.601 288.558 -32.8863 163.765 124.152 167.396C281.191 171.027 405.997 301.759 402.383 458.8C400.398 544.606 360.468 620.815 299.054 671.66ZM-62.6533 234.18C-123.684 284.708 -163.342 360.369 -165.298 445.626C-168.924 601.63 -44.9187 731.491 111.062 735.111C181.811 736.746 247.198 712.132 297.822 670.22C358.853 619.692 398.511 544.031 400.466 458.774C404.069 302.79 280.087 172.909 124.083 169.309C53.3576 167.654 -12.0296 192.269 -62.6533 234.18Z" fill="url(#paint20_linear_545_4257)"/>
</g>
<defs>
<linearGradient id="paint0_linear_545_4257" x1="-33.9583" y1="577.661" x2="269.128" y2="326.734" gradientUnits="userSpaceOnUse">
<stop stop-color="#83A4D4"/>
<stop offset="0.9543" stop-color="#B4F7FD"/>
<stop offset="0.9994" stop-color="#B6FBFF"/>
</linearGradient>
<linearGradient id="paint1_linear_545_4257" x1="-42.1406" y1="584.434" x2="277.307" y2="319.961" gradientUnits="userSpaceOnUse">
<stop stop-color="#83A4D4"/>
<stop offset="0.9543" stop-color="#B4F7FD"/>
<stop offset="0.9994" stop-color="#B6FBFF"/>
</linearGradient>
<linearGradient id="paint2_linear_545_4257" x1="-52.0714" y1="592.672" x2="287.277" y2="311.724" gradientUnits="userSpaceOnUse">
<stop stop-color="#83A4D4"/>
<stop offset="0.9543" stop-color="#B4F7FD"/>
<stop offset="0.9994" stop-color="#B6FBFF"/>
</linearGradient>
<linearGradient id="paint3_linear_545_4257" x1="-62.9105" y1="601.647" x2="298.119" y2="302.749" gradientUnits="userSpaceOnUse">
<stop stop-color="#83A4D4"/>
<stop offset="0.9543" stop-color="#B4F7FD"/>
<stop offset="0.9994" stop-color="#B6FBFF"/>
</linearGradient>
<linearGradient id="paint4_linear_545_4257" x1="-74.0461" y1="610.854" x2="309.226" y2="293.541" gradientUnits="userSpaceOnUse">
<stop stop-color="#83A4D4"/>
<stop offset="0.9543" stop-color="#B4F7FD"/>
<stop offset="0.9994" stop-color="#B6FBFF"/>
</linearGradient>
<linearGradient id="paint5_linear_545_4257" x1="-85.3323" y1="620.211" x2="320.542" y2="284.185" gradientUnits="userSpaceOnUse">
<stop stop-color="#83A4D4"/>
<stop offset="0.9543" stop-color="#B4F7FD"/>
<stop offset="0.9994" stop-color="#B6FBFF"/>
</linearGradient>
<linearGradient id="paint6_linear_545_4257" x1="-96.2591" y1="629.242" x2="331.434" y2="275.153" gradientUnits="userSpaceOnUse">
<stop stop-color="#83A4D4"/>
<stop offset="0.9543" stop-color="#B4F7FD"/>
<stop offset="0.9994" stop-color="#B6FBFF"/>
</linearGradient>
<linearGradient id="paint7_linear_545_4257" x1="-106.417" y1="637.654" x2="341.594" y2="266.744" gradientUnits="userSpaceOnUse">
<stop stop-color="#83A4D4"/>
<stop offset="0.9543" stop-color="#B4F7FD"/>
<stop offset="0.9994" stop-color="#B6FBFF"/>
</linearGradient>
<linearGradient id="paint8_linear_545_4257" x1="-115.515" y1="645.195" x2="350.714" y2="259.202" gradientUnits="userSpaceOnUse">
<stop stop-color="#83A4D4"/>
<stop offset="0.9543" stop-color="#B4F7FD"/>
<stop offset="0.9994" stop-color="#B6FBFF"/>
</linearGradient>
<linearGradient id="paint9_linear_545_4257" x1="-123.326" y1="651.664" x2="358.533" y2="252.731" gradientUnits="userSpaceOnUse">
<stop stop-color="#83A4D4"/>
<stop offset="0.9543" stop-color="#B4F7FD"/>
<stop offset="0.9994" stop-color="#B6FBFF"/>
</linearGradient>
<linearGradient id="paint10_linear_545_4257" x1="-129.673" y1="656.907" x2="364.847" y2="247.491" gradientUnits="userSpaceOnUse">
<stop stop-color="#83A4D4"/>
<stop offset="0.9543" stop-color="#B4F7FD"/>
<stop offset="0.9994" stop-color="#B6FBFF"/>
</linearGradient>
<linearGradient id="paint11_linear_545_4257" x1="-134.355" y1="660.793" x2="369.555" y2="243.603" gradientUnits="userSpaceOnUse">
<stop stop-color="#83A4D4"/>
<stop offset="0.9543" stop-color="#B4F7FD"/>
<stop offset="0.9994" stop-color="#B6FBFF"/>
</linearGradient>
<linearGradient id="paint12_linear_545_4257" x1="-137.318" y1="663.243" x2="372.511" y2="241.153" gradientUnits="userSpaceOnUse">
<stop stop-color="#83A4D4"/>
<stop offset="0.9543" stop-color="#B4F7FD"/>
<stop offset="0.9994" stop-color="#B6FBFF"/>
</linearGradient>
<linearGradient id="paint13_linear_545_4257" x1="-138.479" y1="664.205" x2="373.671" y2="240.193" gradientUnits="userSpaceOnUse">
<stop stop-color="#83A4D4"/>
<stop offset="0.9543" stop-color="#B4F7FD"/>
<stop offset="0.9994" stop-color="#B6FBFF"/>
</linearGradient>
<linearGradient id="paint14_linear_545_4257" x1="-137.616" y1="663.487" x2="372.803" y2="240.909" gradientUnits="userSpaceOnUse">
<stop stop-color="#83A4D4"/>
<stop offset="0.9543" stop-color="#B4F7FD"/>
<stop offset="0.9994" stop-color="#B6FBFF"/>
</linearGradient>
<linearGradient id="paint15_linear_545_4257" x1="-135.144" y1="661.436" x2="370.319" y2="242.961" gradientUnits="userSpaceOnUse">
<stop stop-color="#83A4D4"/>
<stop offset="0.9543" stop-color="#B4F7FD"/>
<stop offset="0.9994" stop-color="#B6FBFF"/>
</linearGradient>
<linearGradient id="paint16_linear_545_4257" x1="-130.972" y1="657.984" x2="366.154" y2="246.411" gradientUnits="userSpaceOnUse">
<stop stop-color="#83A4D4"/>
<stop offset="0.9543" stop-color="#B4F7FD"/>
<stop offset="0.9994" stop-color="#B6FBFF"/>
</linearGradient>
<linearGradient id="paint17_linear_545_4257" x1="-125.261" y1="653.256" x2="360.443" y2="251.139" gradientUnits="userSpaceOnUse">
<stop stop-color="#83A4D4"/>
<stop offset="0.9543" stop-color="#B4F7FD"/>
<stop offset="0.9994" stop-color="#B6FBFF"/>
</linearGradient>
<linearGradient id="paint18_linear_545_4257" x1="-118.241" y1="647.445" x2="353.424" y2="256.951" gradientUnits="userSpaceOnUse">
<stop stop-color="#83A4D4"/>
<stop offset="0.9543" stop-color="#B4F7FD"/>
<stop offset="0.9994" stop-color="#B6FBFF"/>
</linearGradient>
<linearGradient id="paint19_linear_545_4257" x1="-110.265" y1="640.845" x2="345.455" y2="263.552" gradientUnits="userSpaceOnUse">
<stop stop-color="#83A4D4"/>
<stop offset="0.9543" stop-color="#B4F7FD"/>
<stop offset="0.9994" stop-color="#B6FBFF"/>
</linearGradient>
<linearGradient id="paint20_linear_545_4257" x1="-101.732" y1="633.772" x2="336.903" y2="270.624" gradientUnits="userSpaceOnUse">
<stop stop-color="#83A4D4"/>
<stop offset="0.9543" stop-color="#B4F7FD"/>
<stop offset="0.9994" stop-color="#B6FBFF"/>
</linearGradient>
<clipPath id="clip0_545_4257">
<rect width="664.889" height="622.222" fill="white" transform="translate(-336.891 424.564) rotate(-39.6215)"/>
</clipPath>
</defs>
</svg>
