<svg width="55" height="55" viewBox="0 0 55 55" fill="none" xmlns="http://www.w3.org/2000/svg">
<path d="M49.7122 13.9056C48.0791 14.61 46.3019 15.117 44.4714 15.3145C46.3719 14.1854 47.7951 12.4017 48.474 10.2979C46.6906 11.3588 44.7369 12.1027 42.6996 12.4967C41.8481 11.5864 40.8182 10.8612 39.6742 10.3663C38.5302 9.87137 37.2965 9.61739 36.05 9.62014C31.0067 9.62014 26.9507 13.7081 26.9507 18.7247C26.9507 19.4292 27.0361 20.1336 27.1749 20.8114C19.6233 20.4165 12.8883 16.8088 8.4107 11.2852C7.59484 12.6787 7.1673 14.2654 7.17257 15.8802C7.17257 19.0396 8.77894 21.8254 11.2285 23.4638C9.78495 23.4069 8.37517 23.0102 7.11386 22.3057V22.4178C7.11386 26.842 10.2412 30.5084 14.4093 31.3516C13.6267 31.5549 12.8216 31.6589 12.013 31.6611C11.4207 31.6611 10.8603 31.6024 10.2946 31.5224C11.4473 35.13 14.8042 37.7504 18.8014 37.8358C15.6741 40.2854 11.7569 41.7263 7.50345 41.7263C6.74029 41.7263 6.03583 41.6996 5.30469 41.6142C9.3393 44.2026 14.1264 45.6969 19.2818 45.6969C36.0179 45.6969 45.1759 31.8319 45.1759 19.7974C45.1759 19.4025 45.1759 19.0076 45.1492 18.6126C46.921 17.3158 48.474 15.7094 49.7122 13.9056Z" fill="white"/>
</svg>
