<svg width="56" height="55" viewBox="0 0 56 55" fill="none" xmlns="http://www.w3.org/2000/svg">
<path d="M47.8147 6.31006H8.5359C7.59129 6.31006 6.82812 7.07322 6.82812 8.01783V47.2967C6.82812 48.2413 7.59129 49.0044 8.5359 49.0044H47.8147C48.7593 49.0044 49.5225 48.2413 49.5225 47.2967V8.01783C49.5225 7.07322 48.7593 6.31006 47.8147 6.31006ZM42.8835 18.7715H39.4733C36.7996 18.7715 36.2819 20.0416 36.2819 21.9095V26.0242H42.6647L41.8322 32.4657H36.2819V49.0044H29.6269V32.471H24.0606V26.0242H29.6269V21.2744C29.6269 15.7615 32.9944 12.7569 37.915 12.7569C40.2738 12.7569 42.2965 12.933 42.8889 13.0131V18.7715H42.8835Z" fill="white"/>
</svg>
