<svg width="56" height="55" viewBox="0 0 56 55" fill="none" xmlns="http://www.w3.org/2000/svg">
<path d="M47.4632 6.31006H8.18434C7.23972 6.31006 6.47656 7.07322 6.47656 8.01783V47.2967C6.47656 48.2413 7.23972 49.0044 8.18434 49.0044H47.4632C48.4078 49.0044 49.1709 48.2413 49.1709 47.2967V8.01783C49.1709 7.07322 48.4078 6.31006 47.4632 6.31006ZM19.1408 42.691H12.806V22.3151H19.1408V42.691ZM15.9761 19.5293C15.2499 19.5293 14.54 19.314 13.9362 18.9105C13.3324 18.5071 12.8617 17.9336 12.5838 17.2627C12.3059 16.5918 12.2332 15.8535 12.3749 15.1413C12.5166 14.429 12.8663 13.7748 13.3798 13.2613C13.8933 12.7478 14.5475 12.3981 15.2597 12.2564C15.972 12.1147 16.7102 12.1875 17.3812 12.4654C18.0521 12.7433 18.6255 13.2139 19.029 13.8177C19.4324 14.4215 19.6478 15.1314 19.6478 15.8576C19.6424 17.8856 17.9987 19.5293 15.9761 19.5293ZM42.8575 42.691H36.5281V32.7806C36.5281 30.4164 36.4854 27.3797 33.2353 27.3797C29.9425 27.3797 29.4355 29.9521 29.4355 32.6098V42.691H23.1114V22.3151H29.1846V25.1009H29.27C30.1132 23.4999 32.1786 21.8081 35.2632 21.8081C41.6781 21.8081 42.8575 26.0295 42.8575 31.5157V42.691Z" fill="white"/>
</svg>
