<svg width="20" height="20" viewBox="0 0 20 20" fill="none" xmlns="http://www.w3.org/2000/svg">
<path d="M16.743 10.0752C17.058 9.65892 17.2324 9.14892 17.2324 8.6183C17.2324 7.77642 16.7618 6.97955 16.0043 6.53517C15.8093 6.42079 15.5873 6.36059 15.3612 6.3608H10.8649L10.9774 4.05642C11.0037 3.49955 10.8068 2.9708 10.4243 2.56767C10.2366 2.36897 10.0101 2.21088 9.75889 2.10317C9.50766 1.99545 9.23701 1.9404 8.96367 1.94142C7.98867 1.94142 7.12617 2.59767 6.86742 3.53705L5.2568 9.3683H2.83242C2.50055 9.3683 2.23242 9.63642 2.23242 9.9683V16.7933C2.23242 17.1252 2.50055 17.3933 2.83242 17.3933H14.1068C14.2793 17.3933 14.448 17.3595 14.6037 17.292C15.4962 16.9114 16.0718 16.0395 16.0718 15.072C16.0718 14.8358 16.038 14.6033 15.9705 14.3783C16.2855 13.962 16.4599 13.452 16.4599 12.9214C16.4599 12.6852 16.4262 12.4527 16.3587 12.2277C16.6737 11.8114 16.848 11.3014 16.848 10.7708C16.8443 10.5345 16.8105 10.3002 16.743 10.0752ZM3.58242 16.0433V10.7183H5.10117V16.0433H3.58242ZM15.5149 9.42455L15.1043 9.7808L15.3649 10.257C15.4508 10.4139 15.4953 10.5901 15.4943 10.7689C15.4943 11.0783 15.3593 11.3727 15.1268 11.5752L14.7162 11.9314L14.9768 12.4077C15.0627 12.5646 15.1072 12.7407 15.1062 12.9195C15.1062 13.2289 14.9712 13.5233 14.7387 13.7258L14.328 14.082L14.5887 14.5583C14.6745 14.7152 14.7191 14.8913 14.718 15.0702C14.718 15.4902 14.4705 15.8689 14.088 16.0414H6.30117V10.6583L8.1668 3.89892C8.2149 3.72567 8.31817 3.57282 8.46095 3.46354C8.60373 3.35425 8.77825 3.29449 8.95805 3.2933C9.10055 3.2933 9.24117 3.33455 9.35367 3.41892C9.5393 3.55767 9.63867 3.76767 9.62742 3.9908L9.44742 7.7108H15.3424C15.6762 7.91517 15.8824 8.26017 15.8824 8.6183C15.8824 8.92767 15.7474 9.22017 15.5149 9.42455Z" fill="#175CFF"/>
</svg>
