<svg width="20" height="20" viewBox="0 0 20 20" fill="none" xmlns="http://www.w3.org/2000/svg">
<g clip-path="url(#clip0_653_67886)">
<path d="M9.73335 1.26758C4.43085 1.26758 0.133348 4.75883 0.133348 9.06758C0.133348 10.8526 0.879598 12.4876 2.1171 13.8038C1.55835 15.2813 0.395848 16.5338 0.377098 16.5488C0.129598 16.8113 0.0620982 17.1938 0.204598 17.5238C0.347098 17.8538 0.673348 18.0676 1.03335 18.0676C3.3396 18.0676 5.15835 17.1038 6.2496 16.3313C7.33335 16.6726 8.50335 16.8676 9.73335 16.8676C15.0358 16.8676 19.3333 13.3763 19.3333 9.06758C19.3333 4.75883 15.0358 1.26758 9.73335 1.26758ZM9.73335 15.0676C8.7321 15.0676 7.7421 14.9138 6.79335 14.6138L5.9421 14.3438L5.21085 14.8613C4.6746 15.2401 3.9396 15.6638 3.0546 15.9488C3.32835 15.4951 3.5946 14.9851 3.80085 14.4413L4.19835 13.3876L3.42585 12.5701C2.7471 11.8463 1.93335 10.6501 1.93335 9.06758C1.93335 5.76008 5.4321 3.06758 9.73335 3.06758C14.0346 3.06758 17.5333 5.76008 17.5333 9.06758C17.5333 12.3751 14.0346 15.0676 9.73335 15.0676Z" fill="#175CFF"/>
</g>
<defs>
<clipPath id="clip0_653_67886">
<rect width="19.2" height="19.2" fill="white" transform="translate(0.132812 0.0683594)"/>
</clipPath>
</defs>
</svg>
