<svg width="1430" height="1438" viewBox="0 0 1430 1438" fill="none" xmlns="http://www.w3.org/2000/svg">
<g clip-path="url(#clip0_1217_3449)">
<path d="M1132.25 991.369C1020.98 1083.48 748.987 1046.03 515.735 904.288C353.025 805.428 244.494 677.438 232.458 570.266C227.261 524.377 240.825 484.328 271.618 454.469C376.709 352.573 657.244 388.095 896.909 533.706C1059.62 632.565 1168.15 760.555 1180.19 867.727C1185.34 913.648 1171.78 953.697 1140.99 983.555C1138.21 986.243 1135.25 988.879 1132.25 991.369ZM282.327 448.877C279.319 451.368 276.443 453.941 273.7 456.597C243.174 486.234 230.28 524.38 235.402 569.947C247.347 676.232 355.361 803.366 517.275 901.729C749.535 1042.81 1019.94 1080.44 1130.25 989.109C1133.25 986.619 1136.13 984.046 1138.87 981.39C1169.43 951.79 1182.33 913.644 1177.17 868.04C1165.23 761.754 1057.21 634.621 895.299 536.258C663.108 395.179 392.638 357.55 282.327 448.877Z" fill="url(#paint0_linear_1217_3449)"/>
<path d="M1160.6 978.417C1055.24 1065.65 793.116 1043.83 549.457 922.388C367.915 831.867 234.449 702.827 209.468 593.663C199.503 550.309 206.667 512.606 230.653 481.58C317.167 369.647 600.905 384.931 863.106 515.67C1044.65 606.191 1178.11 735.231 1203.13 844.364C1213.1 887.718 1205.93 925.42 1181.91 956.478C1175.83 964.402 1168.68 971.734 1160.6 978.417ZM254.072 461.806C246.114 468.395 239.084 475.563 233.008 483.417C209.581 513.724 202.635 550.604 212.338 593.02C237.188 701.329 370.03 829.538 550.801 919.671C793.316 1040.58 1054.08 1062.69 1158.49 976.252C1166.45 969.663 1173.48 962.496 1179.55 954.641C1202.98 924.334 1209.93 887.454 1200.22 845.038C1175.41 736.697 1042.57 608.489 861.8 518.356C619.215 397.435 358.52 375.334 254.072 461.806Z" fill="url(#paint1_linear_1217_3449)"/>
<path d="M1186.43 963.013C1085.9 1046.24 835.398 1039 585.996 938.294C385.473 857.326 230.224 732.905 190.477 621.332C175.946 580.603 177.398 543.907 194.803 512.296C261.152 391.511 544.608 385.912 826.624 499.733C1027.15 580.701 1182.4 705.122 1222.14 816.695C1236.67 857.424 1235.19 894.082 1217.82 925.731L1216.51 925.012L1217.82 925.731C1210.15 939.72 1199.57 952.137 1186.43 963.013ZM228.347 477.079C215.401 487.797 205.02 499.986 197.476 513.741C180.459 544.582 179.086 580.442 193.278 620.297C232.78 731.11 387.36 854.8 587.106 935.45C835.459 1035.74 1084.71 1043.32 1184.31 960.917C1197.26 950.199 1207.64 938.01 1215.18 924.254C1232.13 893.407 1233.5 857.547 1219.31 817.692C1179.81 706.879 1025.23 583.189 825.482 502.539C577.129 402.248 327.883 394.673 228.347 477.079Z" fill="url(#paint2_linear_1217_3449)"/>
<path d="M1209 945.686C1112.58 1025.51 875.497 1031.61 624.902 951.79C408.707 882.898 232.794 765.766 176.701 653.284C157.378 614.597 153.32 578.611 164.606 546.353C209.509 418.035 489.077 391.072 787.805 486.243C1003.97 555.097 1179.87 672.299 1236.01 784.749C1255.33 823.437 1259.39 859.423 1248.1 891.681C1240.82 912.343 1227.5 930.365 1209 945.686ZM205.775 494.298C187.573 509.367 174.497 527.06 167.426 547.356C156.427 578.798 160.418 614.005 179.389 651.958C235.161 763.741 410.392 880.283 625.804 948.926C922.964 1043.6 1200.84 1017.46 1245.21 890.671L1246.64 891.157L1245.21 890.671C1256.21 859.229 1252.22 824.022 1233.25 786.069C1177.48 674.285 1002.24 557.743 786.833 489.101C537.263 409.586 301.236 415.265 205.775 494.298Z" fill="url(#paint3_linear_1217_3449)"/>
<path d="M1227.5 927.344C1222.51 931.473 1217.15 935.463 1211.34 939.305C1107.5 1008.14 893.269 1017.27 665.616 962.682C353.74 887.832 118.172 717.713 140.535 583.41C146.077 550.26 166.523 521.779 201.276 498.719C305.117 429.886 519.319 420.711 747.003 475.341C1058.92 550.161 1294.45 720.311 1272.08 854.614C1267.48 882.235 1252.51 906.632 1227.5 927.344ZM187.046 513.003C162.601 533.242 147.967 557.039 143.508 583.901C121.429 716.686 355.945 885.301 666.315 959.729C893.177 1014.14 1106.49 1005.13 1209.69 936.761C1243.76 914.199 1263.72 886.375 1269.11 854.123L1270.6 854.369L1269.11 854.123C1291.19 721.338 1056.67 552.723 746.304 478.295C519.41 423.845 306.133 432.896 202.933 501.263C197.244 505.01 191.958 508.936 187.046 513.003Z" fill="url(#paint4_linear_1217_3449)"/>
<path d="M1241.42 908.117C1149.16 984.501 940.354 1009.11 707.84 970.734C386.439 917.634 124.153 761.676 123.154 623.03C122.907 588.703 138.335 557.958 168.959 531.77C259.985 453.97 470.369 428.636 704.751 467.324C1026.19 520.394 1288.48 676.351 1289.44 815.029L1287.92 815.062L1289.44 815.029C1289.68 849.356 1274.26 880.1 1243.63 906.288C1242.91 906.887 1242.18 907.486 1241.42 908.117ZM173.135 532.164C172.373 532.794 171.65 533.393 170.926 533.992C140.988 559.613 125.918 589.548 126.141 622.996C127.094 760.268 388.308 914.93 708.33 967.761C941.882 1006.3 1151.36 981.267 1241.67 903.997C1271.64 878.414 1286.67 848.511 1286.45 815.063C1285.5 677.791 1024.28 523.128 704.26 470.298C472.612 432.042 264.712 456.347 173.135 532.164Z" fill="url(#paint5_linear_1217_3449)"/>
<path d="M1250.38 888.947C1161.96 962.148 970.819 996.071 751.033 975.787C423.888 945.67 137.555 806.092 112.726 664.709C106.415 628.792 117.052 595.595 144.268 566.067C222.404 481.224 425.495 440.49 661.607 462.277C988.714 492.426 1275.05 631.935 1299.91 773.355C1306.23 809.272 1295.59 842.469 1268.37 871.998C1262.94 877.841 1256.93 883.525 1250.38 888.947ZM164.266 551.308C157.755 556.699 151.857 562.288 146.503 568.068C119.947 596.921 109.566 629.265 115.69 664.181C140.282 804.347 425.423 942.795 751.315 972.794C970.303 992.968 1160.61 959.352 1248.38 886.687C1254.89 881.296 1260.79 875.707 1266.14 869.927C1292.7 841.073 1303.08 808.73 1296.96 773.814C1272.33 633.679 987.217 495.269 661.363 465.239C442.305 445.059 251.997 478.675 164.266 551.308Z" fill="url(#paint6_linear_1217_3449)"/>
<path d="M1254.06 870.37C1169.53 940.355 997.249 981.638 794.565 977.747C465.744 971.419 158.489 850.445 109.598 708.06C96.646 670.323 102.387 634.313 126.697 600.964C192.215 511.035 385.085 455.785 618.048 460.281C946.869 466.61 1254.12 587.584 1303.02 729.969C1315.97 767.706 1310.23 803.716 1285.92 837.065C1277.4 848.798 1266.7 859.903 1254.06 870.37ZM160.596 569.818C148.106 580.158 137.558 591.138 129.097 602.7C105.429 635.196 99.8426 670.308 112.43 707.063C160.932 848.358 466.975 968.41 794.638 974.735C1026.66 979.177 1218.49 924.462 1283.48 835.291C1307.15 802.795 1312.74 767.682 1300.15 730.928L1301.6 730.433L1300.15 730.928C1251.65 589.633 945.607 469.581 617.944 463.256C416.063 459.406 244.519 500.338 160.596 569.818Z" fill="url(#paint7_linear_1217_3449)"/>
<path d="M1251.29 854.308C1222.01 878.55 1183.03 900.299 1135.59 918.652C1054.14 950.2 951.248 970.176 838.052 976.471C511.635 994.597 186.795 894.087 113.957 752.465C93.5672 712.799 94.1341 673.562 115.685 635.951C141.774 590.411 197.534 550.088 277.043 519.307C358.486 487.759 461.382 467.783 574.577 461.487C900.994 443.362 1225.83 543.872 1298.67 685.494C1319.06 725.16 1318.5 764.397 1296.94 802.008C1286.44 820.4 1271.09 837.915 1251.29 854.308ZM162.776 586.631C143.623 602.488 128.574 619.504 118.313 637.498C97.3032 674.212 96.7269 712.429 116.645 751.138C189.011 891.802 512.518 991.555 837.91 973.509C1062.18 961.069 1241.32 893.185 1294.34 800.569C1315.35 763.855 1315.93 725.637 1296.01 686.928C1223.64 546.264 900.136 446.512 574.744 464.558C393.961 474.563 242.472 520.649 162.776 586.631Z" fill="url(#paint8_linear_1217_3449)"/>
<path d="M1242.22 841.478C1167.55 903.298 1038.93 950.732 880.83 971.933C560.999 1014.84 222.341 936.549 125.91 797.515C97.4984 756.531 92.2818 712.712 110.764 670.773C153.651 573.586 314.996 495.142 531.804 466.094C851.666 423.229 1190.36 501.485 1286.76 640.55L1285.52 641.381L1286.76 640.55C1315.17 681.533 1320.38 725.353 1301.9 767.291C1290.3 793.585 1269.98 818.497 1242.22 841.478ZM172.352 598.732C144.974 621.398 124.926 646.019 113.495 671.979C95.1594 713.474 100.193 755.135 128.39 795.782C224.229 934.023 561.611 1011.7 880.478 968.95C1038.08 947.842 1166.14 900.673 1240.32 839.263C1267.7 816.597 1287.75 791.976 1299.18 766.016C1317.51 724.521 1312.48 682.86 1284.28 642.213C1188.44 503.972 851.061 426.297 532.194 469.045C374.625 490.191 246.527 537.322 172.352 598.732Z" fill="url(#paint9_linear_1217_3449)"/>
<path d="M1226.94 832.491C1159.08 888.668 1052.49 935.648 922.423 964.125C613.294 1031.74 264.743 977.237 145.435 842.509C107.731 799.912 95.9495 752.349 111.429 705.002C143.515 606.551 288.676 518.015 490.258 473.909C799.355 406.26 1147.94 460.798 1267.25 595.526C1304.95 638.122 1316.73 685.685 1301.25 733.033C1289.86 767.949 1264.21 801.628 1226.94 832.491ZM187.604 607.79C150.745 638.306 125.498 671.531 114.256 705.935C99.1526 752.265 110.716 798.789 147.695 840.509C266.372 974.476 613.589 1028.6 921.786 961.186C1122.33 917.298 1266.61 829.488 1298.36 732.093C1313.46 685.763 1301.9 639.239 1264.92 597.519C1146.24 463.552 799.022 409.424 490.825 476.842C361.191 505.219 255.04 551.96 187.604 607.79Z" fill="url(#paint10_linear_1217_3449)"/>
<path d="M1204.79 830.614C1146.54 878.847 1063.54 921.308 962.208 953.019C668.01 1045.18 313.715 1015.52 172.512 886.981C124.519 843.275 105.401 791.966 117.21 738.479C139.396 638.148 263.935 543.385 450.396 484.969C744.664 392.819 1098.93 422.436 1240.13 550.975C1288.12 594.681 1307.24 645.99 1295.43 699.477C1285.29 745.361 1253.8 790.041 1204.79 830.614ZM209.695 609.728C161.222 649.86 130.143 693.947 120.132 739.141C108.605 791.495 127.391 841.86 174.513 884.747C315.003 1012.66 667.994 1041.98 961.287 950.123C1146.73 892.032 1270.49 798.109 1292.47 698.847C1304.03 646.531 1285.24 596.166 1238.09 553.241C1097.6 425.33 744.61 396.009 451.317 487.865C350.347 519.469 267.649 561.748 209.695 609.728Z" fill="url(#paint11_linear_1217_3449)"/>
<path d="M1176 835.452C1129.66 873.817 1070.02 909.069 999.751 938.685C724.403 1054.77 368.761 1051.01 206.911 930.321C147.823 886.237 120.418 831.198 127.722 771.107C139.875 671.059 246.484 569.446 412.911 499.311C688.221 383.255 1043.86 387.018 1205.68 507.669C1264.77 551.753 1292.17 606.792 1284.87 666.883C1277.89 724.652 1239.36 782.994 1176 835.452ZM238.479 604.893C175.765 656.814 137.655 714.424 130.709 771.458C123.548 830.404 150.512 884.524 208.716 927.928C369.814 1048.02 724.102 1051.62 998.538 935.902C1163.94 866.163 1269.91 765.472 1281.92 666.5C1289.08 607.554 1262.12 553.435 1203.91 510.03C1042.85 389.978 688.521 386.408 414.054 502.087C343.998 531.653 284.591 566.716 238.479 604.893Z" fill="url(#paint12_linear_1217_3449)"/>
<path d="M1141.19 849.448C1110.35 874.983 1074.54 899.172 1034.4 921.303C781.89 1060.33 429.336 1083.08 248.429 972.012C177.591 928.542 141.031 870.042 142.61 802.881C144.955 703.7 233.073 596.729 378.27 516.764C630.745 377.699 983.3 354.944 1164.21 466.016C1235.04 509.487 1271.6 567.987 1270.06 635.186C1268.33 706.897 1221.8 782.71 1141.19 849.448ZM273.292 590.967C193.404 657.106 147.271 732.078 145.623 802.954C144.079 868.995 180.16 926.607 250 969.492C430.08 1080.03 781.267 1057.25 1032.92 918.671C1177.2 839.216 1264.7 733.205 1267.04 635.113C1268.59 569.072 1232.51 511.46 1162.67 468.575C982.587 358.037 631.4 380.816 379.743 519.396C339.644 541.425 303.982 565.558 273.292 590.967Z" fill="url(#paint13_linear_1217_3449)"/>
<path d="M1105.01 870.723C1092.6 881 1079.5 891.072 1065.65 900.933C839.713 1061.74 494.745 1111.33 296.63 1011.49C215.068 970.414 167.073 907.326 161.481 833.907C153.94 734.567 221.521 626.433 346.948 537.162C572.888 376.357 917.856 326.763 1115.97 426.606C1197.53 467.681 1245.53 530.769 1251.12 604.188C1257.83 692.53 1205.08 787.875 1105.01 870.723ZM309.481 569.657C210.212 651.842 157.859 746.277 164.489 833.663C170.049 907.045 216.21 967.608 298.005 1008.81C495.248 1108.22 838.804 1058.7 1063.95 898.49C1188.48 809.836 1255.62 702.645 1248.15 604.4C1242.59 531.019 1196.43 470.456 1114.63 429.254C917.39 329.844 573.803 379.322 348.687 539.573C334.915 549.371 321.856 559.412 309.481 569.657Z" fill="url(#paint14_linear_1217_3449)"/>
<path d="M1066.56 901.018C868.213 1065.23 555.006 1131.41 351.154 1048.12C258.107 1010.07 198.864 944.871 184.306 864.498C166.632 766.872 215.898 655.995 319.463 560.24C515.357 379.188 848.243 302.755 1061.49 389.873C1154.51 427.884 1213.75 493.085 1228.34 573.497C1246.02 671.123 1196.75 782 1093.19 877.755C1084.57 885.721 1075.66 893.484 1066.56 901.018ZM348.013 539.299C338.912 546.834 330.077 554.534 321.5 562.468C218.71 657.454 169.783 767.344 187.27 863.97C201.61 943.304 260.26 1007.71 352.296 1045.31C555.199 1128.23 867.089 1062.25 1064.64 898.695C1073.74 891.161 1082.57 883.461 1091.15 875.526C1193.94 780.541 1242.87 670.65 1225.38 574.025C1211.04 494.69 1152.43 430.251 1060.35 392.68C857.412 309.798 545.522 375.78 348.013 539.299Z" fill="url(#paint15_linear_1217_3449)"/>
<path d="M1033.02 935.532C860.185 1078.62 603.285 1143.43 411.367 1081.46C307.849 1047.97 236.754 981.866 211.189 895.329C182.906 799.618 213.917 686.845 296.23 585.963C458.957 386.479 775.236 283.551 1001.26 356.564C1104.79 389.982 1175.88 456.089 1201.44 542.695C1229.72 638.407 1198.71 751.179 1116.4 852.061C1091.83 882.155 1063.75 910.092 1033.02 935.532ZM381.577 504.714C350.962 530.06 323.03 557.871 298.509 587.864C216.901 687.969 186.089 799.742 214.078 894.478C239.348 980.038 309.737 1045.45 412.307 1078.56C637.245 1151.19 952.072 1048.76 1114.09 850.123C1195.77 750.024 1226.54 638.282 1198.59 543.515C1173.32 457.954 1102.93 392.546 1000.36 359.428C809.397 297.759 553.612 362.285 381.577 504.714Z" fill="url(#paint16_linear_1217_3449)"/>
<path d="M1007.3 971.908C859.936 1093.91 652.063 1153.75 476.701 1111C364.397 1083.57 281.291 1018.22 242.715 927.056C202.498 832.046 214.895 720.821 277.649 613.988C404.349 398.118 699.669 269.41 935.952 327.062C1048.22 354.458 1131.37 419.769 1169.94 510.937C1210.16 605.946 1197.76 717.172 1135.01 824.004C1102.35 879.67 1058.47 929.539 1007.3 971.908ZM407.323 468.376C356.413 510.525 312.772 560.135 280.246 615.497C217.987 721.534 205.651 831.747 245.459 925.875C283.697 1016.17 366.019 1080.88 477.4 1108.05C651.833 1150.6 858.699 1091.02 1005.3 969.648C1056.21 927.499 1099.85 877.889 1132.38 822.527C1194.63 716.491 1206.97 606.278 1167.13 512.111C1128.89 421.818 1046.57 357.111 935.19 329.94C760.789 287.422 553.923 347.006 407.323 468.376Z" fill="url(#paint17_linear_1217_3449)"/>
<path d="M991.685 1007.55C868.732 1109.35 702.181 1162.51 546.408 1136.21C427.897 1116.17 333.249 1053.7 279.995 960.309C227.042 867.436 221.39 755.107 264.048 643.923C352.32 414.039 622.444 260.556 866.173 301.775C984.722 321.792 1079.33 384.285 1132.59 477.679C1185.54 570.553 1191.19 682.882 1148.53 794.065C1116.71 877.022 1061.14 950.051 991.685 1007.55ZM422.857 432.728C353.784 489.914 298.53 562.552 266.855 645.065C224.529 755.332 230.089 866.775 282.626 958.837C335.396 1051.41 429.285 1113.35 546.898 1133.24C789.317 1174.19 1057.92 1021.59 1145.72 792.993C1188.08 682.694 1182.49 571.214 1129.99 479.19C1077.15 386.608 983.327 324.68 865.714 304.787C710.807 278.607 545.162 331.47 422.857 432.728Z" fill="url(#paint18_linear_1217_3449)"/>
<path d="M987.571 1040.24C886.855 1123.62 754.4 1169.68 619.769 1156.75C498.187 1145.08 393.396 1087.81 324.662 995.485C257.302 904.976 232.88 791.371 255.817 675.591C303.589 434.307 544.562 257.397 792.909 281.25C914.492 292.914 1019.31 350.225 1088.01 442.581C1155.37 533.09 1179.79 646.695 1156.86 762.476C1134.99 872.879 1072.56 969.876 987.571 1040.24ZM427 400.042C342.505 469.996 280.524 566.367 258.784 676.151C235.995 791.102 260.249 903.885 327.079 993.677C395.277 1085.35 499.336 1142.21 620.051 1153.75C866.936 1177.47 1106.37 1001.64 1153.9 761.846C1176.68 646.894 1152.39 534.144 1085.56 444.351C1017.36 352.675 913.305 295.822 792.59 284.274C658.763 271.386 527.068 317.195 427 400.042Z" fill="url(#paint19_linear_1217_3449)"/>
<path d="M995.126 1068.3C913.982 1135.48 809.221 1174.91 695.883 1172.28C445.903 1166.53 247.262 958.455 253.014 708.509C258.765 458.562 466.81 259.94 716.752 265.72C966.695 271.499 1165.34 479.571 1159.58 729.518C1156.42 866.087 1092.87 987.381 995.126 1068.3ZM419.433 372.013C322.297 452.433 259.177 572.855 256.065 708.55C250.293 956.845 447.66 1163.53 695.918 1169.29C808.522 1171.9 912.592 1132.72 993.165 1066.01C1090.3 985.593 1153.42 865.172 1156.53 729.476C1162.27 481.213 964.938 274.494 716.642 268.764C604.076 266.13 500.006 305.307 419.433 372.013Z" fill="url(#paint20_linear_1217_3449)"/>
</g>
<defs>
<linearGradient id="paint0_linear_1217_3449" x1="465.109" y1="918.696" x2="947.5" y2="519.322" gradientUnits="userSpaceOnUse">
<stop stop-color="#83A4D4"/>
<stop offset="0.9543" stop-color="#B4F7FD"/>
<stop offset="0.9994" stop-color="#B6FBFF"/>
</linearGradient>
<linearGradient id="paint1_linear_1217_3449" x1="452.086" y1="929.477" x2="960.519" y2="508.543" gradientUnits="userSpaceOnUse">
<stop stop-color="#83A4D4"/>
<stop offset="0.9543" stop-color="#B4F7FD"/>
<stop offset="0.9994" stop-color="#B6FBFF"/>
</linearGradient>
<linearGradient id="paint2_linear_1217_3449" x1="436.258" y1="942.588" x2="976.364" y2="495.432" gradientUnits="userSpaceOnUse">
<stop stop-color="#83A4D4"/>
<stop offset="0.9543" stop-color="#B4F7FD"/>
<stop offset="0.9994" stop-color="#B6FBFF"/>
</linearGradient>
<linearGradient id="paint3_linear_1217_3449" x1="419.014" y1="956.872" x2="993.627" y2="481.147" gradientUnits="userSpaceOnUse">
<stop stop-color="#83A4D4"/>
<stop offset="0.9543" stop-color="#B4F7FD"/>
<stop offset="0.9994" stop-color="#B6FBFF"/>
</linearGradient>
<linearGradient id="paint4_linear_1217_3449" x1="401.304" y1="971.525" x2="1011.32" y2="466.491" gradientUnits="userSpaceOnUse">
<stop stop-color="#83A4D4"/>
<stop offset="0.9543" stop-color="#B4F7FD"/>
<stop offset="0.9994" stop-color="#B6FBFF"/>
</linearGradient>
<linearGradient id="paint5_linear_1217_3449" x1="383.321" y1="986.418" x2="1029.31" y2="451.601" gradientUnits="userSpaceOnUse">
<stop stop-color="#83A4D4"/>
<stop offset="0.9543" stop-color="#B4F7FD"/>
<stop offset="0.9994" stop-color="#B6FBFF"/>
</linearGradient>
<linearGradient id="paint6_linear_1217_3449" x1="365.949" y1="1000.79" x2="1046.66" y2="437.226" gradientUnits="userSpaceOnUse">
<stop stop-color="#83A4D4"/>
<stop offset="0.9543" stop-color="#B4F7FD"/>
<stop offset="0.9994" stop-color="#B6FBFF"/>
</linearGradient>
<linearGradient id="paint7_linear_1217_3449" x1="349.782" y1="1014.18" x2="1062.83" y2="423.841" gradientUnits="userSpaceOnUse">
<stop stop-color="#83A4D4"/>
<stop offset="0.9543" stop-color="#B4F7FD"/>
<stop offset="0.9994" stop-color="#B6FBFF"/>
</linearGradient>
<linearGradient id="paint8_linear_1217_3449" x1="335.289" y1="1026.18" x2="1077.34" y2="411.838" gradientUnits="userSpaceOnUse">
<stop stop-color="#83A4D4"/>
<stop offset="0.9543" stop-color="#B4F7FD"/>
<stop offset="0.9994" stop-color="#B6FBFF"/>
</linearGradient>
<linearGradient id="paint9_linear_1217_3449" x1="322.856" y1="1036.48" x2="1089.78" y2="401.539" gradientUnits="userSpaceOnUse">
<stop stop-color="#83A4D4"/>
<stop offset="0.9543" stop-color="#B4F7FD"/>
<stop offset="0.9994" stop-color="#B6FBFF"/>
</linearGradient>
<linearGradient id="paint10_linear_1217_3449" x1="312.769" y1="1044.82" x2="1099.85" y2="393.198" gradientUnits="userSpaceOnUse">
<stop stop-color="#83A4D4"/>
<stop offset="0.9543" stop-color="#B4F7FD"/>
<stop offset="0.9994" stop-color="#B6FBFF"/>
</linearGradient>
<linearGradient id="paint11_linear_1217_3449" x1="305.309" y1="1051.01" x2="1107.33" y2="387.01" gradientUnits="userSpaceOnUse">
<stop stop-color="#83A4D4"/>
<stop offset="0.9543" stop-color="#B4F7FD"/>
<stop offset="0.9994" stop-color="#B6FBFF"/>
</linearGradient>
<linearGradient id="paint12_linear_1217_3449" x1="300.592" y1="1054.91" x2="1112.03" y2="383.112" gradientUnits="userSpaceOnUse">
<stop stop-color="#83A4D4"/>
<stop offset="0.9543" stop-color="#B4F7FD"/>
<stop offset="0.9994" stop-color="#B6FBFF"/>
</linearGradient>
<linearGradient id="paint13_linear_1217_3449" x1="298.751" y1="1056.44" x2="1113.89" y2="381.583" gradientUnits="userSpaceOnUse">
<stop stop-color="#83A4D4"/>
<stop offset="0.9543" stop-color="#B4F7FD"/>
<stop offset="0.9994" stop-color="#B6FBFF"/>
</linearGradient>
<linearGradient id="paint14_linear_1217_3449" x1="300.115" y1="1055.3" x2="1112.5" y2="382.722" gradientUnits="userSpaceOnUse">
<stop stop-color="#83A4D4"/>
<stop offset="0.9543" stop-color="#B4F7FD"/>
<stop offset="0.9994" stop-color="#B6FBFF"/>
</linearGradient>
<linearGradient id="paint15_linear_1217_3449" x1="304.06" y1="1052.03" x2="1108.55" y2="385.988" gradientUnits="userSpaceOnUse">
<stop stop-color="#83A4D4"/>
<stop offset="0.9543" stop-color="#B4F7FD"/>
<stop offset="0.9994" stop-color="#B6FBFF"/>
</linearGradient>
<linearGradient id="paint16_linear_1217_3449" x1="310.704" y1="1046.54" x2="1101.93" y2="391.479" gradientUnits="userSpaceOnUse">
<stop stop-color="#83A4D4"/>
<stop offset="0.9543" stop-color="#B4F7FD"/>
<stop offset="0.9994" stop-color="#B6FBFF"/>
</linearGradient>
<linearGradient id="paint17_linear_1217_3449" x1="319.789" y1="1039.01" x2="1092.84" y2="399.005" gradientUnits="userSpaceOnUse">
<stop stop-color="#83A4D4"/>
<stop offset="0.9543" stop-color="#B4F7FD"/>
<stop offset="0.9994" stop-color="#B6FBFF"/>
</linearGradient>
<linearGradient id="paint18_linear_1217_3449" x1="330.957" y1="1029.76" x2="1081.66" y2="408.255" gradientUnits="userSpaceOnUse">
<stop stop-color="#83A4D4"/>
<stop offset="0.9543" stop-color="#B4F7FD"/>
<stop offset="0.9994" stop-color="#B6FBFF"/>
</linearGradient>
<linearGradient id="paint19_linear_1217_3449" x1="343.661" y1="1019.26" x2="1068.98" y2="418.761" gradientUnits="userSpaceOnUse">
<stop stop-color="#83A4D4"/>
<stop offset="0.9543" stop-color="#B4F7FD"/>
<stop offset="0.9994" stop-color="#B6FBFF"/>
</linearGradient>
<linearGradient id="paint20_linear_1217_3449" x1="357.236" y1="1008" x2="1055.37" y2="430.017" gradientUnits="userSpaceOnUse">
<stop stop-color="#83A4D4"/>
<stop offset="0.9543" stop-color="#B4F7FD"/>
<stop offset="0.9994" stop-color="#B6FBFF"/>
</linearGradient>
<clipPath id="clip0_1217_3449">
<rect width="1058.24" height="990.327" fill="white" transform="translate(-17.0312 675.028) rotate(-39.6215)"/>
</clipPath>
</defs>
</svg>
