<svg width="635" height="1435" viewBox="0 0 635 1435" fill="none" xmlns="http://www.w3.org/2000/svg">
<g opacity="0.5" clip-path="url(#clip0_1606_15287)">
<path d="M419.217 1120C391.826 1120 370.012 1112.38 354.904 1096.99C317.912 1059.22 325.89 977.75 376.789 873.55C476.117 670.093 709.295 434.021 896.515 347.33C982.007 307.725 1047.24 304.478 1080.13 338.082C1117.13 375.85 1109.15 457.318 1058.25 561.517C958.922 764.974 725.744 1001.05 538.524 1087.74C492.143 1109.2 451.691 1120 419.217 1120ZM897.362 349.165L898.28 351.071C711.837 437.41 479.577 672.564 380.601 875.315C330.549 977.891 322.289 1057.59 357.94 1093.95C389.567 1126.21 453.103 1122.61 536.83 1083.86C723.273 997.517 955.533 762.362 1054.51 559.611C1104.56 457.035 1112.82 377.333 1077.17 340.976C1045.54 308.714 982.077 312.314 898.28 351.071L897.362 349.165Z" fill="url(#paint0_linear_1606_15287)"/>
<path d="M399.523 1125.44C367.472 1125.44 342.552 1116.26 326.456 1097.83C288.758 1054.84 302.595 966.033 364.437 854.28C481.131 643.41 733.935 409.879 928.002 333.777C1013.21 300.315 1077.38 301.515 1108.59 337.166C1146.28 380.159 1132.45 468.968 1070.61 580.721C953.911 791.591 701.108 1025.12 507.04 1101.22C465.812 1117.39 429.526 1125.44 399.523 1125.44ZM1035.52 313.657C1006.08 313.657 970.36 321.635 929.556 337.66C736.264 413.48 484.449 646.163 368.108 856.256C307.183 966.386 293.135 1053.43 329.562 1095.01C359.495 1129.18 421.972 1129.96 505.416 1097.2C698.707 1021.38 950.522 788.696 1066.86 578.603C1127.79 468.474 1141.84 381.429 1105.41 339.848C1090.09 322.411 1066.3 313.657 1035.52 313.657Z" fill="url(#paint1_linear_1606_15287)"/>
<path d="M381.437 1129.6C343.668 1129.6 315.077 1118.45 297.851 1096.42C259.659 1047.57 280.061 951.277 353.834 832.253C488.46 614.959 760.677 386.088 960.604 322.057C1045.04 295.019 1107.73 300.808 1137.16 338.436C1175.36 387.288 1154.95 483.581 1081.18 602.605C946.556 819.899 674.339 1048.77 474.411 1112.8C439.396 1124.1 408.122 1129.6 381.437 1129.6ZM1053.58 309.491C1027.32 309.491 996.538 314.998 961.875 326.081C762.724 389.9 491.566 617.924 357.364 834.512C284.579 951.913 264.107 1046.44 301.17 1093.88C329.408 1130.03 390.473 1135.32 473.07 1108.85C672.221 1045.03 943.379 817.004 1077.58 600.417C1150.37 483.016 1170.84 388.488 1133.78 341.048C1117.4 320.081 1089.94 309.491 1053.58 309.491Z" fill="url(#paint2_linear_1606_15287)"/>
<path d="M364.572 1132.85C320.238 1132.85 287.834 1119.3 269.338 1092.54C231.075 1037.12 258.678 933.277 345.158 807.546C498.21 585.028 789.347 363.005 994.145 312.599C1078.51 291.844 1137.81 302.151 1165.69 342.461C1203.96 397.879 1176.35 501.725 1089.87 627.456C936.821 849.974 645.684 1072 440.886 1122.4C412.577 1129.39 387.021 1132.85 364.572 1132.85ZM1070.46 306.316C1048.36 306.316 1023.16 309.775 995.063 316.694C791.112 366.887 501.104 588.205 348.547 809.946C263.126 934.124 235.523 1036.28 272.727 1090.14C299.483 1128.9 357.301 1138.64 439.827 1118.31C643.778 1068.11 933.786 846.797 1086.34 625.056C1171.76 500.878 1199.37 398.726 1162.16 344.861C1144.51 319.306 1113.38 306.316 1070.46 306.316Z" fill="url(#paint3_linear_1606_15287)"/>
<path d="M351.348 1134.54C298.26 1134.54 260.561 1118.03 241.077 1085.76C203.167 1023.07 238.747 911.603 338.711 779.871C510.541 553.471 819.962 340.625 1028.36 305.397L1028.71 307.445L1028.36 305.397C1110.96 291.419 1168.21 306.597 1193.98 349.096C1231.89 411.785 1196.31 523.256 1096.34 654.987C924.515 881.388 615.093 1094.23 406.695 1129.46C386.716 1132.92 368.22 1134.54 351.348 1134.54ZM1083.71 304.621C1067.05 304.621 1048.76 306.244 1029 309.633C821.445 344.719 513.294 556.789 341.958 782.483C244.536 910.826 208.109 1023.43 244.607 1083.64C269.386 1124.59 325.227 1139.06 405.989 1125.44C613.54 1090.35 921.691 878.282 1093.03 652.587C1190.45 524.244 1226.88 411.644 1190.38 351.426C1171.6 320.434 1135.17 304.621 1083.71 304.621Z" fill="url(#paint4_linear_1606_15287)"/>
<path d="M341.919 1135.39C277.818 1135.39 233.625 1115.13 213.153 1075.95C176.796 1006.27 222.189 884.213 334.648 749.376C525.609 520.504 852.327 319.306 1063.05 300.951C1143.46 293.962 1198.39 314.012 1221.9 358.981C1258.25 428.659 1212.86 550.719 1100.4 685.557C909.439 914.428 582.721 1115.63 371.993 1133.98C361.545 1134.97 351.52 1135.39 341.919 1135.39ZM1063.2 303.069L1063.41 305.187C853.668 323.471 528.151 523.963 337.825 752.129C226.495 885.555 181.243 1005.92 216.824 1074.05C239.485 1117.39 292.996 1136.73 371.57 1129.89C581.31 1111.6 906.827 911.11 1097.15 682.945C1208.48 549.519 1253.73 429.153 1218.15 361.028C1195.49 317.683 1141.98 298.339 1063.41 305.187L1063.2 303.069Z" fill="url(#paint5_linear_1606_15287)"/>
<path d="M337.125 1135.6C337.054 1135.6 337.054 1135.6 337.054 1135.6C259.187 1135.6 206.876 1110.4 185.909 1062.75C151.387 984.316 206.452 854.632 333.313 715.982C543.406 486.263 886.43 299.396 1098.01 299.396C1098.08 299.396 1098.08 299.396 1098.08 299.396C1175.94 299.396 1228.26 324.599 1249.22 372.322C1283.74 450.754 1228.68 580.438 1101.82 719.088C891.655 948.736 548.7 1135.6 337.125 1135.6ZM1097.94 303.562C887.419 303.562 545.806 489.793 336.348 718.806C210.688 856.185 155.835 984.175 189.721 1061.05C209.982 1107.08 260.952 1131.44 337.054 1131.44H337.125C547.641 1131.44 889.254 945.206 1098.71 716.194C1224.37 578.814 1279.23 450.824 1245.34 373.946C1225.08 327.917 1174.11 303.562 1098.01 303.562H1097.94Z" fill="url(#paint6_linear_1606_15287)"/>
<path d="M337.311 1135.6C325.098 1135.6 313.308 1135.04 301.942 1133.98C226.828 1126.78 177.482 1096.28 159.339 1045.59C127.712 957.56 193.295 820.746 334.769 679.625C564.135 450.753 922.267 280.9 1133.07 300.949C1208.18 308.15 1257.53 338.647 1275.67 389.335C1307.3 477.368 1241.71 614.182 1100.24 755.303C883.228 971.891 551.004 1135.6 337.311 1135.6ZM1097.49 303.561C884.851 303.561 553.969 466.779 337.664 682.59C197.39 822.511 132.23 957.701 163.222 1044.18C180.8 1093.17 228.876 1122.82 302.295 1129.81C511.965 1149.79 868.544 980.504 1097.2 752.409C1237.48 612.488 1302.64 477.297 1271.65 390.818C1254.07 341.824 1205.99 312.174 1132.57 305.185C1121.35 304.055 1109.63 303.561 1097.49 303.561Z" fill="url(#paint7_linear_1606_15287)"/>
<path d="M343.465 1135.96C316.215 1135.96 290.73 1133.7 267.221 1128.97C195.072 1114.49 148.973 1078.28 134.007 1024.2C106.757 925.792 183.565 782.342 339.441 640.444C587.938 414.326 959.554 264.31 1167.74 306.032C1239.89 320.504 1285.99 356.72 1300.95 410.796C1328.2 509.207 1251.4 652.657 1095.52 794.555C875.121 995.188 557.652 1135.89 343.465 1135.96ZM1091.29 303.208C878.157 303.208 562.029 443.482 342.265 643.48C187.589 784.248 111.205 926.145 138.031 1023C152.574 1075.46 197.543 1110.61 268.068 1124.73C291.365 1129.39 316.709 1131.65 343.747 1131.65C556.876 1131.65 873.003 991.376 1092.77 791.378C1247.44 650.61 1323.83 508.713 1297 411.855C1282.46 359.403 1237.49 324.246 1166.96 310.127C1143.67 305.467 1118.32 303.208 1091.29 303.208Z" fill="url(#paint8_linear_1606_15287)"/>
<path d="M356.531 1137.16C310.856 1137.16 269.134 1131.65 233.06 1120.21C163.946 1098.19 121.448 1055.9 110.152 997.871C88.903 888.448 177.642 739.138 347.566 598.511C614.841 377.193 998.176 249.909 1201.99 314.857C1271.1 336.883 1313.6 379.17 1324.89 437.2C1346.14 546.623 1257.4 695.933 1087.48 836.56C867.504 1018.7 568.954 1137.16 356.531 1137.16ZM1078.23 302.009C866.868 302.009 569.519 420.116 350.248 601.688C181.595 741.397 93.3505 889.154 114.317 997.024C125.26 1053.43 166.77 1094.66 234.33 1116.19C437.011 1180.78 818.51 1053.85 1084.8 833.312C1253.45 693.603 1341.7 545.847 1320.73 437.976C1309.79 381.57 1268.28 340.342 1200.72 318.811C1164.92 307.445 1123.55 302.009 1078.23 302.009Z" fill="url(#paint9_linear_1606_15287)"/>
<path d="M377.343 1140.05C309.289 1140.05 248.506 1129.53 199.724 1107.44C133.646 1077.43 95.1011 1028.44 88.2533 965.751C75.0519 845.032 176.357 690.992 359.27 553.683C644.83 339.355 1037.84 237.908 1235.29 327.565C1301.37 357.568 1339.92 406.562 1346.76 469.251C1359.97 589.969 1258.66 744.009 1075.75 881.318C860.712 1042.7 584.824 1140.05 377.343 1140.05ZM1057.46 299.044C851.04 299.044 576.141 396.184 361.812 557.142C180.098 693.533 79.4289 846.161 92.4891 965.398C99.1957 1026.53 136.894 1074.33 201.489 1103.69C397.675 1192.79 788.775 1091.55 1073.28 878C1254.99 741.609 1355.66 588.981 1342.6 469.745C1335.89 408.609 1298.19 360.816 1233.6 331.448C1185.17 309.422 1124.95 299.044 1057.46 299.044Z" fill="url(#paint10_linear_1606_15287)"/>
<path d="M406.296 1145.63C311.627 1145.63 228.607 1127.91 167.612 1090.49C104.641 1051.88 70.543 995.401 68.9899 927.276C66.0249 795.262 180.319 637.974 374.811 506.454C678.019 301.374 1078.44 228.731 1267.35 344.508C1330.32 383.124 1364.42 439.53 1365.98 507.725C1368.94 639.739 1254.65 797.026 1060.15 928.617C854.862 1067.48 604.953 1145.63 406.296 1145.63ZM1028.6 293.467C830.93 293.467 581.939 371.405 377.211 509.914C183.99 640.657 70.3312 796.603 73.2256 927.205C74.7082 993.847 108.1 1049.12 169.871 1086.96C357.515 1202.03 755.887 1129.39 1057.9 925.158C1251.12 794.414 1364.77 638.468 1361.88 507.866C1360.4 441.224 1327.01 385.947 1265.23 348.108C1204.73 311.045 1122.49 293.467 1028.6 293.467Z" fill="url(#paint11_linear_1606_15287)"/>
<path d="M442.992 1154.74C317.755 1154.74 209.038 1126.85 137.171 1069.03C77.3059 1020.89 48.3617 956.008 53.3034 881.318C62.8338 738.714 190.4 579.874 394.422 456.614C714.433 263.252 1119.65 222.589 1297.84 365.898C1357.7 414.044 1386.65 478.922 1381.7 553.612C1372.17 696.216 1244.61 855.056 1040.58 978.316C849.623 1093.74 628.306 1154.74 442.992 1154.74ZM992.015 284.289C807.548 284.289 587.007 345.214 396.61 460.285C193.718 582.909 66.9284 740.409 57.4685 881.671C52.5268 954.879 81.0475 1018.56 139.783 1065.78C316.696 1208.11 719.798 1167.23 1038.4 974.716C1241.29 852.091 1368.08 694.592 1377.54 553.33C1382.48 480.122 1353.96 416.445 1295.22 369.216C1224.06 311.892 1116.19 284.289 992.015 284.289Z" fill="url(#paint12_linear_1606_15287)"/>
<path d="M485.77 1168.5C326.788 1168.5 188.985 1126.85 108.647 1043.05C52.1 984.107 29.1564 909.487 42.2872 827.384C66.5015 675.462 207.128 517.469 418.351 404.728C754.034 225.626 1161.3 219.908 1326.35 392.02C1382.9 450.968 1405.84 525.588 1392.71 607.69C1368.5 759.612 1227.87 917.606 1016.65 1030.35C844.396 1122.19 653.293 1168.5 485.77 1168.5ZM949.372 270.596C782.554 270.596 592.087 316.695 420.327 408.399C210.234 520.505 70.4549 677.368 46.4523 828.02C33.5333 908.852 56.1239 982.201 111.683 1040.16C275.465 1211 680.543 1204.93 1014.67 1026.68C1224.77 914.57 1364.55 757.706 1388.55 607.055C1401.47 526.223 1378.88 452.874 1323.32 394.915C1243.69 311.824 1107.08 270.596 949.372 270.596Z" fill="url(#paint13_linear_1606_15287)"/>
<path d="M531.954 1187.63C337.18 1187.63 167.891 1127.55 82.541 1012.13C29.7354 940.758 14.0631 855.054 37.2186 764.339C77.8817 605.216 230.933 450.541 446.674 350.577C796.688 188.419 1203.04 220.822 1352.42 422.797C1405.22 494.169 1420.9 579.872 1397.74 670.588C1357.08 829.711 1204.03 984.386 988.285 1084.35C838.339 1153.89 677.946 1187.63 531.954 1187.63ZM903.287 251.461C757.86 251.461 598.031 285.135 448.509 354.389C233.898 453.788 81.6939 607.475 41.3837 765.398C18.5107 854.843 33.9712 939.275 86.0002 1009.66C234.251 1210.15 638.271 1241.99 986.59 1080.61C1201.2 981.209 1353.41 827.522 1393.72 669.599C1416.59 580.155 1401.13 495.722 1349.1 425.338C1264.46 310.973 1096.58 251.461 903.287 251.461Z" fill="url(#paint14_linear_1606_15287)"/>
<path d="M578.102 1212.84C347.042 1212.84 145.138 1128.69 59.2232 976.2C10.8651 890.356 4.15854 792.087 39.7388 692.052C97.9097 528.553 262.327 380.019 479.621 294.74C842.483 152.277 1244.53 225.838 1375.69 458.733C1424.05 544.578 1430.76 642.777 1395.18 742.881C1337.01 906.381 1172.59 1054.91 955.295 1140.19C829.988 1189.4 700.021 1212.84 578.102 1212.84ZM857.096 226.262C735.672 226.262 606.129 249.629 481.174 298.693C265.01 383.549 101.439 531.165 43.6922 693.464C8.53548 792.369 15.1715 889.438 62.8942 974.153C193.143 1205.28 592.786 1278.07 953.813 1136.31C1169.98 1051.46 1333.55 903.84 1391.29 741.469C1426.45 642.565 1419.82 545.496 1372.09 460.781C1286.88 309.706 1086.53 226.262 857.096 226.262Z" fill="url(#paint15_linear_1606_15287)"/>
<path d="M620.903 1244.53C354.193 1244.53 120.238 1129.46 39.1944 935.181C-3.58661 832.676 0.578536 720.359 51.3369 610.512C127.227 446.094 301.458 306.597 517.339 237.413C891.285 117.541 1285.42 235.224 1395.83 499.817C1438.61 602.322 1434.45 714.64 1383.69 824.487C1307.8 988.905 1133.57 1128.4 917.617 1197.59C818.289 1229.42 717.408 1244.53 620.903 1244.53ZM814.265 194.632C718.114 194.632 617.727 209.669 518.61 241.437C303.858 310.268 130.545 448.918 55.1491 612.276C4.95547 721.064 0.719728 832.112 43.0772 933.558C123.486 1126.28 355.816 1240.37 620.762 1240.37C716.914 1240.37 817.301 1225.33 916.417 1193.56C1131.24 1124.66 1304.48 986.081 1379.95 822.722C1430.14 713.934 1434.31 602.887 1392.02 501.441C1311.54 308.715 1079.21 194.632 814.265 194.632Z" fill="url(#paint16_linear_1606_15287)"/>
<path d="M657.613 1282.73C356.663 1282.73 93.0588 1129.04 22.7455 888.802C-12.9054 767.024 4.60236 639.599 73.292 520.151C167.679 356.157 345.015 231.767 559.909 178.82C942.961 84.4338 1325.31 249.204 1412.21 546.13C1447.86 667.908 1430.35 795.333 1361.66 914.781C1267.35 1078.78 1089.94 1203.16 875.048 1256.11C801.911 1274.18 728.703 1282.73 657.613 1282.73ZM777.485 156.441C706.677 156.441 633.893 164.984 560.967 182.915C347.133 235.65 170.785 359.334 76.963 522.269C8.83811 640.658 -8.52845 766.954 26.84 887.602C96.5886 1126 358.569 1278.49 657.613 1278.49C728.421 1278.49 801.205 1269.95 874.13 1252.02C1087.89 1199.35 1264.31 1075.67 1358.06 912.663C1426.19 794.274 1443.56 667.978 1408.19 547.33C1338.44 308.999 1076.53 156.441 777.485 156.441Z" fill="url(#paint17_linear_1606_15287)"/>
<path d="M686.547 1327.41C352.912 1327.41 63.8224 1126.71 10.5226 837.122C-15.5272 695.648 18.7117 548.244 106.886 422.231C216.874 265.014 399.364 154.673 607.48 119.516C997.31 53.58 1363.84 268.12 1424.56 597.873C1450.61 739.347 1416.37 886.681 1328.19 1012.76C1218.2 1169.98 1035.71 1280.32 827.598 1315.48C780.016 1323.53 732.858 1327.41 686.547 1327.41ZM748.531 111.821C702.432 111.821 655.485 115.704 608.186 123.682C401.129 158.697 219.698 268.403 110.345 424.702C22.7357 549.798 -11.2209 696.001 14.6172 836.346C67.564 1123.81 354.889 1323.17 686.477 1323.17C732.576 1323.17 779.522 1319.29 826.821 1311.31C1033.88 1276.3 1215.31 1166.59 1324.66 1010.29C1412.2 885.198 1446.16 738.994 1420.32 598.579C1367.44 311.113 1080.12 111.821 748.531 111.821Z" fill="url(#paint18_linear_1606_15287)"/>
<path d="M706.594 1378.24C341.544 1378.24 32.6167 1121.55 2.7547 780.012C-29.0134 417.361 265.794 94.2446 659.931 59.7233C850.821 42.9921 1036.28 95.7271 1182.13 208.116C1328.05 320.575 1416.86 479.203 1432.25 654.987C1447.64 830.699 1387.7 1002.39 1263.52 1138.5C1139.42 1274.54 965.893 1358.61 775.002 1375.28C752.058 1377.25 729.185 1378.24 706.594 1378.24ZM729.114 60.9234C706.312 60.9234 683.298 61.9118 660.284 63.959C268.477 98.198 -24.6364 419.267 6.91985 779.659C36.6407 1119.01 343.732 1374 706.594 1374C729.114 1374 751.776 1373.02 774.649 1371.04C964.481 1354.45 1137.02 1270.79 1260.42 1135.6C1383.82 1000.41 1443.33 829.852 1428.08 655.34C1412.83 480.827 1324.59 323.187 1179.59 211.434C1052.16 113.305 894.308 60.9234 729.114 60.9234Z" fill="url(#paint19_linear_1606_15287)"/>
<path d="M717.48 1435C321.862 1435 0.015625 1113.16 0.015625 717.467C0.015625 321.848 321.862 0.00195312 717.48 0.00195312C1113.1 0.00195312 1434.94 321.848 1434.94 717.467C1435.02 1113.16 1113.1 1435 717.48 1435ZM717.48 4.2377C324.191 4.2377 4.25137 324.178 4.25137 717.467C4.25137 1110.76 324.262 1430.77 717.551 1430.77C1110.84 1430.77 1430.85 1110.76 1430.85 717.467C1430.78 324.178 1110.84 4.2377 717.48 4.2377Z" fill="url(#paint20_linear_1606_15287)"/>
</g>
<defs>
<linearGradient id="paint0_linear_1606_15287" x1="331.925" y1="717.491" x2="1103.1" y2="717.491" gradientUnits="userSpaceOnUse">
<stop stop-color="#83A4D4"/>
<stop offset="0.9543" stop-color="#B4F7FD"/>
<stop offset="0.9994" stop-color="#B6FBFF"/>
</linearGradient>
<linearGradient id="paint1_linear_1606_15287" x1="305.582" y1="717.493" x2="1129.44" y2="717.493" gradientUnits="userSpaceOnUse">
<stop stop-color="#83A4D4"/>
<stop offset="0.9543" stop-color="#B4F7FD"/>
<stop offset="0.9994" stop-color="#B6FBFF"/>
</linearGradient>
<linearGradient id="paint2_linear_1606_15287" x1="279.014" y1="717.493" x2="1155.98" y2="717.493" gradientUnits="userSpaceOnUse">
<stop stop-color="#83A4D4"/>
<stop offset="0.9543" stop-color="#B4F7FD"/>
<stop offset="0.9994" stop-color="#B6FBFF"/>
</linearGradient>
<linearGradient id="paint3_linear_1606_15287" x1="252.487" y1="717.494" x2="1182.53" y2="717.494" gradientUnits="userSpaceOnUse">
<stop stop-color="#83A4D4"/>
<stop offset="0.9543" stop-color="#B4F7FD"/>
<stop offset="0.9994" stop-color="#B6FBFF"/>
</linearGradient>
<linearGradient id="paint4_linear_1606_15287" x1="226.18" y1="717.494" x2="1208.79" y2="717.494" gradientUnits="userSpaceOnUse">
<stop stop-color="#83A4D4"/>
<stop offset="0.9543" stop-color="#B4F7FD"/>
<stop offset="0.9994" stop-color="#B6FBFF"/>
</linearGradient>
<linearGradient id="paint5_linear_1606_15287" x1="200.839" y1="717.494" x2="1234.19" y2="717.494" gradientUnits="userSpaceOnUse">
<stop stop-color="#83A4D4"/>
<stop offset="0.9543" stop-color="#B4F7FD"/>
<stop offset="0.9994" stop-color="#B6FBFF"/>
</linearGradient>
<linearGradient id="paint6_linear_1606_15287" x1="175.728" y1="717.493" x2="1259.31" y2="717.493" gradientUnits="userSpaceOnUse">
<stop stop-color="#83A4D4"/>
<stop offset="0.9543" stop-color="#B4F7FD"/>
<stop offset="0.9994" stop-color="#B6FBFF"/>
</linearGradient>
<linearGradient id="paint7_linear_1606_15287" x1="151.544" y1="717.494" x2="1283.45" y2="717.494" gradientUnits="userSpaceOnUse">
<stop stop-color="#83A4D4"/>
<stop offset="0.9543" stop-color="#B4F7FD"/>
<stop offset="0.9994" stop-color="#B6FBFF"/>
</linearGradient>
<linearGradient id="paint8_linear_1606_15287" x1="128.59" y1="717.493" x2="1306.43" y2="717.493" gradientUnits="userSpaceOnUse">
<stop stop-color="#83A4D4"/>
<stop offset="0.9543" stop-color="#B4F7FD"/>
<stop offset="0.9994" stop-color="#B6FBFF"/>
</linearGradient>
<linearGradient id="paint9_linear_1606_15287" x1="107.045" y1="717.493" x2="1327.98" y2="717.493" gradientUnits="userSpaceOnUse">
<stop stop-color="#83A4D4"/>
<stop offset="0.9543" stop-color="#B4F7FD"/>
<stop offset="0.9994" stop-color="#B6FBFF"/>
</linearGradient>
<linearGradient id="paint10_linear_1606_15287" x1="87.1012" y1="717.494" x2="1347.9" y2="717.494" gradientUnits="userSpaceOnUse">
<stop stop-color="#83A4D4"/>
<stop offset="0.9543" stop-color="#B4F7FD"/>
<stop offset="0.9994" stop-color="#B6FBFF"/>
</linearGradient>
<linearGradient id="paint11_linear_1606_15287" x1="68.9666" y1="717.493" x2="1366.05" y2="717.493" gradientUnits="userSpaceOnUse">
<stop stop-color="#83A4D4"/>
<stop offset="0.9543" stop-color="#B4F7FD"/>
<stop offset="0.9994" stop-color="#B6FBFF"/>
</linearGradient>
<linearGradient id="paint12_linear_1606_15287" x1="52.7541" y1="717.493" x2="1382.23" y2="717.493" gradientUnits="userSpaceOnUse">
<stop stop-color="#83A4D4"/>
<stop offset="0.9543" stop-color="#B4F7FD"/>
<stop offset="0.9994" stop-color="#B6FBFF"/>
</linearGradient>
<linearGradient id="paint13_linear_1606_15287" x1="38.6804" y1="717.495" x2="1396.3" y2="717.495" gradientUnits="userSpaceOnUse">
<stop stop-color="#83A4D4"/>
<stop offset="0.9543" stop-color="#B4F7FD"/>
<stop offset="0.9994" stop-color="#B6FBFF"/>
</linearGradient>
<linearGradient id="paint14_linear_1606_15287" x1="26.8431" y1="717.491" x2="1408.17" y2="717.491" gradientUnits="userSpaceOnUse">
<stop stop-color="#83A4D4"/>
<stop offset="0.9543" stop-color="#B4F7FD"/>
<stop offset="0.9994" stop-color="#B6FBFF"/>
</linearGradient>
<linearGradient id="paint15_linear_1606_15287" x1="17.2301" y1="717.494" x2="1417.74" y2="717.494" gradientUnits="userSpaceOnUse">
<stop stop-color="#83A4D4"/>
<stop offset="0.9543" stop-color="#B4F7FD"/>
<stop offset="0.9994" stop-color="#B6FBFF"/>
</linearGradient>
<linearGradient id="paint16_linear_1606_15287" x1="9.91059" y1="717.492" x2="1425.1" y2="717.492" gradientUnits="userSpaceOnUse">
<stop stop-color="#83A4D4"/>
<stop offset="0.9543" stop-color="#B4F7FD"/>
<stop offset="0.9994" stop-color="#B6FBFF"/>
</linearGradient>
<linearGradient id="paint17_linear_1606_15287" x1="4.76685" y1="717.494" x2="1430.24" y2="717.494" gradientUnits="userSpaceOnUse">
<stop stop-color="#83A4D4"/>
<stop offset="0.9543" stop-color="#B4F7FD"/>
<stop offset="0.9994" stop-color="#B6FBFF"/>
</linearGradient>
<linearGradient id="paint18_linear_1606_15287" x1="1.96075" y1="717.49" x2="1433.03" y2="717.49" gradientUnits="userSpaceOnUse">
<stop stop-color="#83A4D4"/>
<stop offset="0.9543" stop-color="#B4F7FD"/>
<stop offset="0.9994" stop-color="#B6FBFF"/>
</linearGradient>
<linearGradient id="paint19_linear_1606_15287" x1="0.391156" y1="717.476" x2="1434.62" y2="717.476" gradientUnits="userSpaceOnUse">
<stop stop-color="#83A4D4"/>
<stop offset="0.9543" stop-color="#B4F7FD"/>
<stop offset="0.9994" stop-color="#B6FBFF"/>
</linearGradient>
<linearGradient id="paint20_linear_1606_15287" x1="0.015625" y1="717.494" x2="1435" y2="717.494" gradientUnits="userSpaceOnUse">
<stop stop-color="#83A4D4"/>
<stop offset="0.9543" stop-color="#B4F7FD"/>
<stop offset="0.9994" stop-color="#B6FBFF"/>
</linearGradient>
<clipPath id="clip0_1606_15287">
<rect width="1435" height="1435" fill="white"/>
</clipPath>
</defs>
</svg>
