<svg width="1120" height="1160" viewBox="0 0 1120 1160" fill="none" xmlns="http://www.w3.org/2000/svg">
<g clip-path="url(#clip0_1217_3514)">
<path d="M704.523 1140.21L19.2891 730.125L414.948 19.7842L1100.18 429.922L704.523 1140.21ZM23.3578 728.984L703.481 1136.05L1096.16 431.013L415.99 23.9495L23.3578 728.984Z" fill="url(#paint0_linear_1217_3514)"/>
<path d="M676.022 1147.3L674.781 1146.46L12.4219 700.568L13.2158 699.279L443.41 12.6909L444.65 13.5339L1107.01 459.425L1106.22 460.714L676.022 1147.3ZM16.5402 699.676L675.178 1143.09L1102.89 460.317L444.253 16.9059L16.5402 699.676Z" fill="url(#paint1_linear_1217_3514)"/>
<path d="M647.255 1152.86L646.064 1151.97L7.125 670.721L472.201 7.1416L473.392 8.03418L1112.33 489.281L647.255 1152.86ZM11.2433 670.077L646.561 1148.6L1108.21 489.925L472.846 11.4557L11.2433 670.077Z" fill="url(#paint2_linear_1217_3514)"/>
<path d="M618.213 1156.82L3.28906 640.618L4.23182 639.427L501.212 3.17041L1116.14 519.376L1115.19 520.566L618.213 1156.82ZM7.45703 640.171L617.767 1152.51L1111.97 519.822L501.659 7.48452L7.45703 640.171Z" fill="url(#paint3_linear_1217_3514)"/>
<path d="M588.999 1159.21L0.96875 610.372L530.449 0.792969L1118.48 549.627L588.999 1159.21ZM5.18634 610.124L588.801 1154.84L1114.26 549.826L530.648 5.15667L5.18634 610.124Z" fill="url(#paint4_linear_1217_3514)"/>
<path d="M559.711 1160L0.210938 580.022L559.711 -0.00244141L1119.21 580.022L559.711 1160ZM4.3789 580.022L559.711 1155.68L1115.04 580.022L559.711 4.36126L4.3789 580.022Z" fill="url(#paint5_linear_1217_3514)"/>
<path d="M530.449 1159.21L0.96875 549.627L588.999 0.792969L1118.43 610.372L530.449 1159.21ZM5.18634 549.875L530.648 1154.89L1114.26 610.174L588.801 5.15667L5.18634 549.875Z" fill="url(#paint6_linear_1217_3514)"/>
<path d="M501.212 1156.82L500.27 1155.63L3.28906 519.376L618.213 3.17041L619.156 4.36051L1116.14 640.618L501.212 1156.82ZM7.45703 519.822L501.659 1152.51L1111.97 640.171L617.767 7.48452L7.45703 519.822Z" fill="url(#paint7_linear_1217_3514)"/>
<path d="M472.201 1152.86L471.308 1151.62L7.125 489.281L8.31585 488.388L647.255 7.1416L648.148 8.38129L1112.38 670.721L1111.19 671.614L472.201 1152.86ZM11.2433 489.925L472.846 1148.55L1108.16 670.027L646.61 11.4557L11.2433 489.925Z" fill="url(#paint8_linear_1217_3514)"/>
<path d="M443.41 1147.3L12.4219 459.425L676.022 12.6909L1106.96 700.618L443.41 1147.3ZM16.5402 460.317L444.253 1143.09L1102.89 699.676L675.178 16.9059L16.5402 460.317Z" fill="url(#paint9_linear_1217_3514)"/>
<path d="M414.948 1140.22L19.2891 429.875L704.523 19.7368L1100.13 730.078L414.948 1140.22ZM23.3578 431.015L415.99 1136.05L1096.11 728.987L703.481 23.9518L23.3578 431.015Z" fill="url(#paint10_linear_1217_3514)"/>
<path d="M386.895 1131.63L386.201 1130.25L27.6562 400.765L28.996 400.071L732.638 28.3628L733.333 29.7512L1091.88 759.233L1090.54 759.927L386.895 1131.63ZM31.6257 402.104L388.136 1127.47L1087.86 757.894L731.348 32.5281L31.6257 402.104Z" fill="url(#paint11_linear_1217_3514)"/>
<path d="M359.249 1121.47L358.653 1120.08L37.4219 372.15L760.267 38.5249L760.862 39.9134L1082.09 787.841L359.249 1121.47ZM41.3417 373.687L360.737 1117.4L1078.17 786.255L758.778 42.5911L41.3417 373.687Z" fill="url(#paint12_linear_1217_3514)"/>
<path d="M332.157 1109.87L48.5859 344.087L787.309 50.1323L1070.88 815.912L332.157 1109.87ZM52.4066 345.872L333.844 1105.9L1067.01 814.127L785.572 54.0993L52.4066 345.872Z" fill="url(#paint13_linear_1217_3514)"/>
<path d="M305.732 1096.78L305.285 1095.34L61.2109 316.666L813.728 63.1748L814.174 64.6128L1058.25 843.236L305.732 1096.78ZM64.9323 318.65L307.617 1092.91L1054.53 841.351L811.842 67.0922L64.9323 318.65Z" fill="url(#paint14_linear_1217_3514)"/>
<path d="M279.995 1082.3L75.2188 289.986L839.495 77.7021L1044.27 870.011L279.995 1082.3ZM78.8409 292.168L282.079 1078.53L1040.65 867.829L837.411 81.4708L78.8409 292.168Z" fill="url(#paint15_linear_1217_3514)"/>
<path d="M254.996 1066.43L90.4609 264.101L864.413 93.5698L1028.95 895.895L254.996 1066.43ZM93.9839 266.481L257.279 1062.81L1025.43 893.565L862.13 97.1897L93.9839 266.481Z" fill="url(#paint16_linear_1217_3514)"/>
<path d="M230.884 1049.22L107.086 239.059L888.58 110.727L1012.38 920.887L230.884 1049.22ZM110.51 241.638L233.365 1045.7L1009 918.358L886.148 114.297L110.51 241.638Z" fill="url(#paint17_linear_1217_3514)"/>
<path d="M207.644 1030.73L124.93 215.012L911.832 129.275L994.546 945.039L207.644 1030.73ZM128.205 217.739L210.274 1027.35L991.271 942.262L909.202 132.647L128.205 217.739Z" fill="url(#paint18_linear_1217_3514)"/>
<path d="M185.377 1011.04L185.278 1009.5L143.945 191.903L934.122 148.96L934.222 150.497L975.554 968.096L185.377 1011.04ZM147.071 194.828L188.156 1007.82L972.378 965.219L931.294 152.233L147.071 194.828Z" fill="url(#paint19_linear_1217_3514)"/>
<path d="M955.352 990.111H164.133V169.884H955.402V990.111H955.352ZM167.06 987.037H952.424V172.959H167.06V987.037Z" fill="url(#paint20_linear_1217_3514)"/>
</g>
<defs>
<linearGradient id="paint0_linear_1217_3514" x1="19.3005" y1="579.999" x2="1100.17" y2="579.999" gradientUnits="userSpaceOnUse">
<stop stop-color="#83A4D4"/>
<stop offset="0.9543" stop-color="#B4F7FD"/>
<stop offset="0.9994" stop-color="#B6FBFF"/>
</linearGradient>
<linearGradient id="paint1_linear_1217_3514" x1="12.4422" y1="579.996" x2="1106.99" y2="579.996" gradientUnits="userSpaceOnUse">
<stop stop-color="#83A4D4"/>
<stop offset="0.9543" stop-color="#B4F7FD"/>
<stop offset="0.9994" stop-color="#B6FBFF"/>
</linearGradient>
<linearGradient id="paint2_linear_1217_3514" x1="7.11706" y1="580.001" x2="1112.34" y2="580.001" gradientUnits="userSpaceOnUse">
<stop stop-color="#83A4D4"/>
<stop offset="0.9543" stop-color="#B4F7FD"/>
<stop offset="0.9994" stop-color="#B6FBFF"/>
</linearGradient>
<linearGradient id="paint3_linear_1217_3514" x1="3.27815" y1="579.997" x2="1116.15" y2="579.997" gradientUnits="userSpaceOnUse">
<stop stop-color="#83A4D4"/>
<stop offset="0.9543" stop-color="#B4F7FD"/>
<stop offset="0.9994" stop-color="#B6FBFF"/>
</linearGradient>
<linearGradient id="paint4_linear_1217_3514" x1="0.991575" y1="580" x2="1118.46" y2="580" gradientUnits="userSpaceOnUse">
<stop stop-color="#83A4D4"/>
<stop offset="0.9543" stop-color="#B4F7FD"/>
<stop offset="0.9994" stop-color="#B6FBFF"/>
</linearGradient>
<linearGradient id="paint5_linear_1217_3514" x1="0.210938" y1="579.998" x2="1119.21" y2="579.998" gradientUnits="userSpaceOnUse">
<stop stop-color="#83A4D4"/>
<stop offset="0.9543" stop-color="#B4F7FD"/>
<stop offset="0.9994" stop-color="#B6FBFF"/>
</linearGradient>
<linearGradient id="paint6_linear_1217_3514" x1="0.991575" y1="580" x2="1118.46" y2="580" gradientUnits="userSpaceOnUse">
<stop stop-color="#83A4D4"/>
<stop offset="0.9543" stop-color="#B4F7FD"/>
<stop offset="0.9994" stop-color="#B6FBFF"/>
</linearGradient>
<linearGradient id="paint7_linear_1217_3514" x1="3.27815" y1="579.997" x2="1116.15" y2="579.997" gradientUnits="userSpaceOnUse">
<stop stop-color="#83A4D4"/>
<stop offset="0.9543" stop-color="#B4F7FD"/>
<stop offset="0.9994" stop-color="#B6FBFF"/>
</linearGradient>
<linearGradient id="paint8_linear_1217_3514" x1="7.11706" y1="580.001" x2="1112.34" y2="580.001" gradientUnits="userSpaceOnUse">
<stop stop-color="#83A4D4"/>
<stop offset="0.9543" stop-color="#B4F7FD"/>
<stop offset="0.9994" stop-color="#B6FBFF"/>
</linearGradient>
<linearGradient id="paint9_linear_1217_3514" x1="12.4422" y1="579.996" x2="1106.99" y2="579.996" gradientUnits="userSpaceOnUse">
<stop stop-color="#83A4D4"/>
<stop offset="0.9543" stop-color="#B4F7FD"/>
<stop offset="0.9994" stop-color="#B6FBFF"/>
</linearGradient>
<linearGradient id="paint10_linear_1217_3514" x1="19.3005" y1="580.001" x2="1100.17" y2="580.001" gradientUnits="userSpaceOnUse">
<stop stop-color="#83A4D4"/>
<stop offset="0.9543" stop-color="#B4F7FD"/>
<stop offset="0.9994" stop-color="#B6FBFF"/>
</linearGradient>
<linearGradient id="paint11_linear_1217_3514" x1="27.6508" y1="579.998" x2="1091.88" y2="579.998" gradientUnits="userSpaceOnUse">
<stop stop-color="#83A4D4"/>
<stop offset="0.9543" stop-color="#B4F7FD"/>
<stop offset="0.9994" stop-color="#B6FBFF"/>
</linearGradient>
<linearGradient id="paint12_linear_1217_3514" x1="37.4194" y1="579.995" x2="1082.09" y2="579.995" gradientUnits="userSpaceOnUse">
<stop stop-color="#83A4D4"/>
<stop offset="0.9543" stop-color="#B4F7FD"/>
<stop offset="0.9994" stop-color="#B6FBFF"/>
</linearGradient>
<linearGradient id="paint13_linear_1217_3514" x1="48.5785" y1="579.999" x2="1070.84" y2="579.999" gradientUnits="userSpaceOnUse">
<stop stop-color="#83A4D4"/>
<stop offset="0.9543" stop-color="#B4F7FD"/>
<stop offset="0.9994" stop-color="#B6FBFF"/>
</linearGradient>
<linearGradient id="paint14_linear_1217_3514" x1="61.2119" y1="580" x2="1058.25" y2="580" gradientUnits="userSpaceOnUse">
<stop stop-color="#83A4D4"/>
<stop offset="0.9543" stop-color="#B4F7FD"/>
<stop offset="0.9994" stop-color="#B6FBFF"/>
</linearGradient>
<linearGradient id="paint15_linear_1217_3514" x1="75.2039" y1="579.999" x2="1044.28" y2="579.999" gradientUnits="userSpaceOnUse">
<stop stop-color="#83A4D4"/>
<stop offset="0.9543" stop-color="#B4F7FD"/>
<stop offset="0.9994" stop-color="#B6FBFF"/>
</linearGradient>
<linearGradient id="paint16_linear_1217_3514" x1="90.4684" y1="579.999" x2="1028.94" y2="579.999" gradientUnits="userSpaceOnUse">
<stop stop-color="#83A4D4"/>
<stop offset="0.9543" stop-color="#B4F7FD"/>
<stop offset="0.9994" stop-color="#B6FBFF"/>
</linearGradient>
<linearGradient id="paint17_linear_1217_3514" x1="107.111" y1="579.998" x2="1012.4" y2="579.998" gradientUnits="userSpaceOnUse">
<stop stop-color="#83A4D4"/>
<stop offset="0.9543" stop-color="#B4F7FD"/>
<stop offset="0.9994" stop-color="#B6FBFF"/>
</linearGradient>
<linearGradient id="paint18_linear_1217_3514" x1="124.925" y1="580.001" x2="994.549" y2="580.001" gradientUnits="userSpaceOnUse">
<stop stop-color="#83A4D4"/>
<stop offset="0.9543" stop-color="#B4F7FD"/>
<stop offset="0.9994" stop-color="#B6FBFF"/>
</linearGradient>
<linearGradient id="paint19_linear_1217_3514" x1="143.96" y1="579.999" x2="975.538" y2="579.999" gradientUnits="userSpaceOnUse">
<stop stop-color="#83A4D4"/>
<stop offset="0.9543" stop-color="#B4F7FD"/>
<stop offset="0.9994" stop-color="#B6FBFF"/>
</linearGradient>
<linearGradient id="paint20_linear_1217_3514" x1="164.116" y1="579.998" x2="955.367" y2="579.998" gradientUnits="userSpaceOnUse">
<stop stop-color="#83A4D4"/>
<stop offset="0.9543" stop-color="#B4F7FD"/>
<stop offset="0.9994" stop-color="#B6FBFF"/>
</linearGradient>
<clipPath id="clip0_1217_3514">
<rect width="1119" height="1160" fill="white" transform="translate(0.25)"/>
</clipPath>
</defs>
</svg>
