<svg width="1033" height="946" viewBox="0 0 1033 946" fill="none" xmlns="http://www.w3.org/2000/svg">
<g clip-path="url(#clip0_1215_3384)">
<path d="M399.847 598.535C393.594 598.535 388.202 596.906 384.26 593.603C377.056 587.584 375.878 576.768 381.043 564.052L437.045 425.845C444.703 406.929 464.956 387.515 486.251 378.69C498.348 373.667 509.359 372.762 517.288 376.111L615.789 417.654C622.54 420.505 626.392 425.981 627.026 433.493C628.431 451.142 611.576 475.625 587.834 490.513L433.33 587.177C421.368 594.689 409.543 598.535 399.847 598.535ZM506.549 377.694C500.976 377.694 494.497 379.143 487.61 381.994C467.131 390.501 447.693 409.056 440.353 427.157L384.351 565.364C379.729 576.768 380.5 585.819 386.526 590.842C395.361 598.264 412.986 595.639 431.382 584.099L585.885 487.436C611.757 471.235 624.534 447.703 623.401 433.719C622.903 427.519 619.867 423.22 614.339 420.867L515.838 379.324C513.21 378.283 510.038 377.694 506.549 377.694Z" fill="url(#paint0_linear_1215_3384)"/>
<path d="M396.397 615.461C390.506 615.461 385.341 614.013 381.309 611.072C373.289 605.189 371.25 594.509 375.645 580.932L424.216 430.869C435.453 396.159 481.623 363.395 507.947 371.45L620.993 405.979C628.786 408.378 633.589 413.853 634.903 421.818C637.894 440.146 621.628 467.208 597.025 484.812L435.408 600.346C421.543 610.212 407.633 615.461 396.397 615.461ZM499.157 373.758C474.147 373.758 437.129 402.63 427.614 431.955L379.043 582.018C375.147 594.011 376.687 603.288 383.393 608.175C393.723 615.688 413.75 611.388 433.278 597.405L594.895 481.871C621.764 462.683 633.725 436.888 631.324 422.361C630.236 415.709 626.385 411.319 619.906 409.373L506.86 374.844C504.504 374.12 501.921 373.758 499.157 373.758Z" fill="url(#paint1_linear_1215_3384)"/>
<path d="M393.994 633.381C388.512 633.381 383.664 632.159 379.676 629.67C370.841 624.104 367.896 613.243 371.339 599.078L410.532 437.294C419.594 399.959 467.349 361.402 497.163 367.421L625.659 393.261C634.63 395.072 640.475 400.502 642.604 409.055C647.362 428.288 632.229 457.296 606.674 478.023L438.986 614.012C423.445 626.502 406.998 633.381 393.994 633.381ZM490.683 370.363C462.728 370.363 421.95 405.39 413.975 438.154L374.783 599.938C371.747 612.473 374.149 621.977 381.579 626.638C391.683 633.019 412.616 630.665 436.72 611.116L604.409 475.172C631.911 452.861 642.831 424.849 639.116 409.87C637.349 402.81 632.455 398.239 624.979 396.746L496.483 370.906C494.625 370.499 492.677 370.363 490.683 370.363Z" fill="url(#paint2_linear_1215_3384)"/>
<path d="M393.208 652.524C388.133 652.524 383.512 651.483 379.57 649.401C369.919 644.197 365.886 633.246 368.243 618.583L395.972 445.305C402.36 405.345 451.385 360.634 484.868 364.164L629.585 379.505C639.87 380.591 646.893 385.976 649.929 395.118C656.453 414.848 642.453 446.345 616.627 469.968L444.18 627.906C426.918 643.699 408.069 652.524 393.208 652.524ZM481.062 367.512C449.799 367.512 405.305 409.554 399.506 445.848L371.777 619.126C369.692 632.205 373.045 641.844 381.292 646.234C393.072 652.569 416.361 648.542 441.779 625.236L614.225 467.298C642.045 441.82 651.65 411.635 646.53 396.158C643.993 388.465 638.012 383.94 629.222 382.989L484.505 367.648C483.373 367.558 482.195 367.512 481.062 367.512Z" fill="url(#paint3_linear_1215_3384)"/>
<path d="M394.128 672.617C389.507 672.617 385.203 671.802 381.397 670.083C370.84 665.331 365.629 654.379 366.762 639.219L380.626 454.989C383.843 412.541 433.547 361.086 470.973 361.856L632.635 364.661C644.415 364.888 652.798 370.137 656.83 379.912C665.212 400.096 652.616 434.036 626.881 460.601L451.308 642.025C432.505 661.484 411.119 672.617 394.128 672.617ZM470.293 365.431C435.269 365.431 387.196 415.437 384.206 455.261L370.341 639.491C369.299 653.067 373.785 662.751 382.847 666.824C399.067 674.11 426.162 662.887 448.771 639.536L624.344 458.112C652.39 429.104 660.274 397.516 653.568 381.27C650.124 372.898 642.875 368.418 632.635 368.237L470.973 365.431C470.701 365.431 470.519 365.431 470.293 365.431Z" fill="url(#paint4_linear_1215_3384)"/>
<path d="M397.018 693.661C392.895 693.661 388.999 693.027 385.419 691.715C373.82 687.506 367.341 676.645 367.114 661.032L364.622 466.575C364.033 421.818 414.1 363.485 455.376 360.725L634.619 348.868L634.755 350.633L634.619 348.868C647.849 348.008 657.998 353.213 663.163 363.531C673.63 384.393 663.027 419.872 637.337 449.876L460.587 656.19C440.424 679.813 416.32 693.661 397.018 693.661ZM637.518 352.353C636.658 352.353 635.751 352.398 634.845 352.443L455.603 364.3C416.637 366.879 367.613 424.217 368.156 466.529L370.648 660.987C370.83 675.197 376.357 684.655 386.597 688.366C405.355 695.154 434.67 680.989 457.914 653.882L634.664 447.568C662.257 415.347 668.329 381.723 659.992 365.16C655.778 356.742 648.03 352.353 637.518 352.353Z" fill="url(#paint5_linear_1215_3384)"/>
<path d="M401.732 715.383C398.333 715.383 395.071 714.976 391.99 714.116C379.258 710.587 371.329 699.861 369.608 683.886L347.995 480.197C343.011 433.359 392.67 367.604 438.07 360.952L635.3 332.08C650.297 329.862 662.213 334.795 668.783 345.882C681.334 367.016 672.725 404.713 647.896 437.613L472.278 670.174C451.209 698.096 423.661 715.383 401.732 715.383ZM635.571 333.89L635.843 335.655L438.568 364.527C395.615 370.817 346.817 435.486 351.529 479.835L373.142 683.524C374.682 698.142 381.524 707.509 392.896 710.677C414.464 716.651 445.908 699.137 469.378 668.093L644.996 435.531C669.01 403.762 677.482 367.649 665.702 347.783C659.812 337.872 649.481 333.664 635.798 335.7L635.571 333.89Z" fill="url(#paint6_linear_1215_3384)"/>
<path d="M409.222 737.783C406.594 737.783 404.057 737.557 401.565 737.059C387.564 734.343 377.959 723.89 374.606 707.643L330.928 496.034C320.869 447.386 369.395 373.938 418.918 362.851L634.453 314.519C651.398 310.718 665.263 315.198 673.509 327.1C688.189 348.37 681.982 388.193 658.376 423.944L486.564 683.885C464.816 716.74 434.142 737.783 409.222 737.783ZM634.861 316.239L635.269 318.004L419.734 366.336C372.748 376.88 324.947 449.196 334.462 495.31L378.14 706.919C381.221 721.899 389.558 731.13 402.29 733.574C426.938 738.326 460.376 717.056 483.574 681.939L655.386 421.998C678.221 387.424 684.474 349.275 670.564 329.137C663.088 318.321 650.855 314.474 635.223 318.004L634.861 316.239Z" fill="url(#paint7_linear_1215_3384)"/>
<path d="M419.396 760.59C417.765 760.59 416.179 760.5 414.548 760.319C399.052 758.644 387.634 748.643 382.424 732.035L313.554 514.136C306.531 491.916 311.47 462.184 327.147 432.587C344.5 399.733 371.64 374.436 397.964 366.516L631.85 296.055L632.348 297.775L631.85 296.055C650.879 290.308 667.009 294.2 677.159 306.961C694.421 328.638 690.978 369.458 668.64 408.512L503.625 696.872C481.696 735.158 447.759 760.59 419.396 760.59ZM648.07 297.051C643.313 297.051 638.193 297.865 632.846 299.449L399.007 369.955C373.588 377.603 347.264 402.267 330.318 434.262C315.321 462.591 310.337 492.097 316.997 513.095L385.867 730.994C390.715 746.335 400.774 755.25 414.955 756.789C442.866 759.776 478.026 734.433 500.499 695.108L665.514 406.747C686.809 369.503 690.434 329.408 674.349 309.179C667.961 301.169 658.899 297.051 648.07 297.051Z" fill="url(#paint8_linear_1215_3384)"/>
<path d="M432.56 783.579C432.198 783.579 431.88 783.579 431.518 783.579C414.346 783.217 400.844 773.804 393.504 756.97L296.135 534.771C286.574 513.004 288.704 482.548 301.889 451.187C317.702 413.626 345.793 383.396 375.154 372.263L627.162 276.958C648.412 268.902 666.989 271.98 679.449 285.646C699.158 307.233 698.796 349.772 678.452 391.451L523.767 708.955C502.336 753.078 464.956 783.579 432.56 783.579ZM627.797 278.677L628.431 280.352L376.422 375.612C347.923 386.382 320.647 415.888 305.196 452.589C292.374 483 290.29 512.461 299.442 533.323L396.811 755.522C403.698 771.225 415.75 779.687 431.654 780.004C462.962 780.593 499.527 750.77 520.641 707.416L675.326 389.912C694.99 349.5 695.624 308.59 676.866 288.09C665.448 275.6 648.276 272.839 628.476 280.352L627.797 278.677Z" fill="url(#paint9_linear_1215_3384)"/>
<path d="M449.138 806.479C431.739 806.479 417.285 797.881 408.133 782.042L278.821 557.988C266.542 536.718 265.591 505.629 276.148 472.684C289.65 430.552 318.104 395.208 350.455 380.455L620.179 257.409L620.904 259.038L620.179 257.409C643.785 246.638 665.126 248.675 680.259 263.156C702.959 284.833 705.904 327.825 687.78 372.672L547.368 719.772C527.749 768.239 488.919 803.855 452.944 806.344C451.63 806.434 450.361 806.479 449.138 806.479ZM648.497 254.196C640.16 254.196 631.099 256.323 621.629 260.667L351.905 383.668C320.46 398.014 292.731 432.498 279.546 473.724C269.306 505.719 270.167 535.813 281.902 556.178L411.214 780.232C420.457 796.207 434.775 803.99 452.672 802.768C487.333 800.37 524.894 765.66 544.015 718.414L684.427 371.314C701.735 328.503 699.062 286.1 677.767 265.736C669.702 258.088 659.734 254.196 648.497 254.196Z" fill="url(#paint10_linear_1215_3384)"/>
<path d="M469.333 829.015C452.206 829.015 437.345 821.413 426.697 807.022L261.863 583.918C246.594 563.282 242.335 531.559 250.128 496.94C260.413 451.278 289.365 409.78 323.846 391.271L610.47 237.542C636.07 223.83 661.081 224.554 679.114 239.579C704.668 260.848 711.374 305.061 696.15 352.171L574.359 729.004C557.549 781.046 518.448 821.82 479.255 828.201C475.903 828.744 472.595 829.015 469.333 829.015ZM611.331 239.081L612.192 240.665L325.567 394.393C291.948 412.45 263.675 452.998 253.617 497.664C246.05 531.288 250.083 561.925 264.763 581.746L429.597 804.85C441.604 821.051 458.549 827.884 478.712 824.626C516.635 818.426 554.559 778.647 570.961 727.827L692.752 350.995C707.522 305.288 701.27 262.568 676.848 242.249C659.767 227.993 636.795 227.405 612.192 240.619L611.331 239.081Z" fill="url(#paint11_linear_1215_3384)"/>
<path d="M493.447 850.784C476.728 850.784 461.64 844.177 449.769 831.46L245.652 612.611C227.075 592.654 219.192 560.342 224.04 523.912C230.655 474.495 258.701 427.837 295.537 404.984L597.884 217.496L598.836 219.034L597.884 217.496C625.84 200.163 654.294 199.168 675.952 214.826C704.587 235.507 715.37 280.625 703.499 329.817L605.224 736.155C591.903 791.275 553.255 837.434 511.253 848.431C505.182 850.015 499.201 850.784 493.447 850.784ZM599.787 220.573L297.44 408.016C261.465 430.326 234.053 475.988 227.574 524.365C222.862 559.708 230.383 590.979 248.235 610.167L452.352 829.017C467.394 845.127 488.01 850.784 510.347 844.946C551.125 834.266 588.732 789.148 601.781 735.295L700.056 328.957C711.61 281.214 701.325 237.543 673.867 217.722C653.433 202.969 626.474 204.01 599.787 220.573Z" fill="url(#paint12_linear_1215_3384)"/>
<path d="M521.634 871.464C505.458 871.464 490.37 865.898 477.593 854.991L230.433 644.197C208.05 625.099 196.179 592.109 197.946 553.733C200.302 501.148 226.853 449.422 265.547 421.998L582.03 197.718L583.073 199.166L582.03 197.718C612.297 176.267 644.466 173.145 670.247 189.165C702.688 209.258 717.686 253.924 709.439 305.74L640.071 740.815C630.738 799.328 594.264 849.742 549.317 866.26C539.893 869.744 530.605 871.464 521.634 871.464ZM634.77 182.648C618.323 182.648 600.924 188.667 584.115 200.614L267.586 424.894C229.753 451.73 203.791 502.325 201.48 553.869C199.804 591.159 211.176 623.108 232.743 641.481L479.859 852.276C498.752 868.386 522.947 872.143 548.049 862.911C591.817 846.8 627.385 797.518 636.492 740.226L705.86 305.152C713.88 254.829 699.517 211.521 668.299 192.197C658.059 185.816 646.686 182.648 634.77 182.648Z" fill="url(#paint13_linear_1215_3384)"/>
<path d="M554.159 890.605C538.754 890.605 523.983 886.08 510.662 877.12L216.652 678.725C189.92 660.668 173.609 627.044 171.932 586.361C169.621 531.196 193.998 474.718 234.006 442.588L562.586 178.393C594.982 152.327 631.094 146.625 661.723 162.69C697.789 181.606 717.724 226.544 713.737 279.989L679.167 742.578C674.636 802.902 640.427 858.52 594.031 880.966C580.619 887.392 567.163 890.605 554.159 890.605ZM563.674 179.751L564.807 181.154L236.226 445.348C197.079 476.845 173.246 532.101 175.512 586.225C177.188 625.732 192.91 658.36 218.691 675.738L512.701 874.133C536.171 889.972 564.489 891.239 592.445 877.708C637.754 855.805 671.192 801.364 675.587 742.262L710.158 279.672C714.054 227.72 694.843 184.095 660.046 165.813C630.776 150.426 596.07 156.038 564.807 181.154L563.674 179.751Z" fill="url(#paint14_linear_1215_3384)"/>
<path d="M591.23 907.758C576.822 907.758 562.685 904.273 549.364 897.259L204.699 716.151C172.982 699.498 151.597 665.15 146.114 621.932C138.819 564.776 160.386 503.999 201.029 467.026L539.124 159.886C573.378 128.751 613.703 119.835 649.724 135.493C689.822 152.871 715.15 197.718 715.875 252.521L722.445 740.77C723.26 803.13 693.085 862.232 645.465 891.376C627.749 902.282 609.263 907.758 591.23 907.758ZM540.348 161.198L541.571 162.51L203.475 469.651C163.649 505.855 142.535 565.409 149.694 621.434C155.04 663.475 175.746 696.828 206.42 712.938L551.086 894.046C579.948 909.206 612.842 907.17 643.652 888.298C690.185 859.788 719.726 801.908 718.911 740.77L712.341 252.566C711.616 199.166 687.104 155.586 648.319 138.752C613.658 123.727 574.737 132.371 541.526 162.51L540.348 161.198Z" fill="url(#paint15_linear_1215_3384)"/>
<path d="M632.548 922.195C619.544 922.195 606.586 919.751 594.171 914.818L195.135 756.474C157.619 741.585 130.479 706.649 120.647 660.534C107.96 601.161 125.721 537.986 166.998 495.718L511.437 142.644C546.642 106.531 592.449 93.5434 633.862 107.844C679.035 123.457 709.619 166.72 715.69 223.559L770.287 734.978C776.993 797.655 750.986 861.147 704.091 896.717C681.889 913.506 657.105 922.195 632.548 922.195ZM512.706 143.866L513.974 145.133L169.535 498.207C129.12 539.66 111.721 601.568 124.136 659.81C133.741 704.703 160.066 738.734 196.449 753.17L595.485 911.515C630.192 925.272 668.976 918.846 701.916 893.866C747.859 859.02 773.278 796.795 766.708 735.34L712.111 223.921C706.175 168.485 676.498 126.353 632.684 111.238C592.585 97.39 548.228 110.061 513.974 145.133L512.706 143.866Z" fill="url(#paint16_linear_1215_3384)"/>
<path d="M678.732 933.779C667.631 933.779 656.44 932.24 645.43 929.118L188.398 799.645C144.267 787.155 110.466 751.676 95.6503 702.348C77.6173 642.251 91.5725 575.772 132.033 528.844L479.055 127.031C515.212 85.1253 565.459 67.5666 613.396 79.9663C663.553 92.9543 700.661 135.267 712.623 193.102L822.633 724.387C835.728 787.698 815.474 853.407 769.758 895.856C743.116 920.7 711.128 933.779 678.732 933.779ZM480.414 128.253L481.774 129.429L134.752 531.242C95.016 577.22 81.378 642.432 99.0485 701.353C113.502 749.503 146.396 784.078 189.349 796.251L646.381 925.724C688.292 937.58 732.378 925.814 767.311 893.322C812.122 851.688 831.967 787.291 819.099 725.202L709.089 193.917C697.399 137.439 661.288 96.1673 612.445 83.5414C565.822 71.4585 516.979 88.6099 481.728 129.474L480.414 128.253Z" fill="url(#paint17_linear_1215_3384)"/>
<path d="M729.378 941.745C720.814 941.745 712.206 940.976 703.506 939.392L185.081 845.535C133.338 836.167 91.8802 800.461 71.31 747.604C47.8852 687.371 57.5813 618.087 96.5924 566.859L441.756 113.728L443.161 114.814L441.756 113.728C478.23 65.8486 532.737 42.95 587.606 52.4986C643.336 62.183 687.694 102.957 706.316 161.607L879.623 708.641C899.377 770.956 885.105 839.742 842.379 888.21C811.704 922.965 771.561 941.745 729.378 941.745ZM563.139 53.9467C518.011 53.9467 474.923 76.0761 444.611 115.9L99.4469 569.031C61.1608 619.309 51.6459 687.235 74.6628 746.292C94.78 797.972 135.241 832.864 185.76 842.005L704.231 935.908C754.298 944.958 803.73 926.721 839.751 885.811C881.616 838.294 895.617 770.82 876.224 709.681L702.917 162.693C684.749 105.31 641.433 65.4413 587.017 56.0284C579.043 54.6256 571.023 53.9467 563.139 53.9467Z" fill="url(#paint18_linear_1215_3384)"/>
<path d="M783.366 945.499C778.518 945.499 773.715 945.273 768.822 944.865L185.831 893.954C126.34 888.75 74.7783 852.32 47.9101 796.476C18.6858 735.745 23.6244 666.008 61.0044 609.938L399.145 103.136L400.641 104.131L399.145 103.136C435.075 49.2378 493.569 20.3203 555.597 25.7056C617.625 31.1361 670.184 69.7832 696.237 129.066L941.086 686.825C968.181 748.552 960.886 818.063 921.558 872.82C888.392 919.025 837.51 945.499 783.366 945.499ZM540.872 28.6471C485.64 28.6471 434.532 56.5237 402.136 105.127L63.9948 611.93C27.2945 666.959 22.4917 735.383 51.127 794.938C77.4515 849.605 127.88 885.311 186.103 890.379L769.093 941.335C827.316 946.404 883.227 920.021 918.658 870.739C957.216 817.022 964.375 748.824 937.824 688.273L692.974 130.514C667.465 72.408 615.994 34.5754 555.326 29.2806C550.477 28.8734 545.629 28.6471 540.872 28.6471Z" fill="url(#paint19_linear_1215_3384)"/>
<path d="M841.6 944.64H191.37C122.274 944.64 60.4274 908.98 25.9019 849.199C-8.62355 789.463 -8.62355 718.097 25.9019 658.361L350.994 95.9413C385.519 36.1604 447.412 0.5 516.463 0.5C585.559 0.5 647.405 36.1604 681.931 95.9413L1007.02 658.361C1041.55 718.097 1041.55 789.463 1007.02 849.199C972.543 908.934 910.651 944.64 841.6 944.64ZM352.535 96.8011L354.075 97.7062L28.9829 660.126C-4.90821 718.776 -4.90821 788.784 28.9829 847.389C62.8741 906.038 123.588 941.02 191.37 941.02H841.6C909.382 941.02 970.096 905.993 1003.99 847.389C1037.88 788.739 1037.88 718.731 1003.99 660.126L678.85 97.7062C644.959 39.0566 584.245 4.07509 516.463 4.07509C448.68 4.07509 387.966 39.1019 354.075 97.7062L352.535 96.8011Z" fill="url(#paint20_linear_1215_3384)"/>
</g>
<defs>
<linearGradient id="paint0_linear_1215_3384" x1="377.89" y1="486.35" x2="627.112" y2="486.35" gradientUnits="userSpaceOnUse">
<stop stop-color="#83A4D4"/>
<stop offset="0.9543" stop-color="#B4F7FD"/>
<stop offset="0.9994" stop-color="#B6FBFF"/>
</linearGradient>
<linearGradient id="paint1_linear_1215_3384" x1="373.38" y1="492.833" x2="635.264" y2="492.833" gradientUnits="userSpaceOnUse">
<stop stop-color="#83A4D4"/>
<stop offset="0.9543" stop-color="#B4F7FD"/>
<stop offset="0.9994" stop-color="#B6FBFF"/>
</linearGradient>
<linearGradient id="paint2_linear_1215_3384" x1="369.918" y1="500.077" x2="643.446" y2="500.077" gradientUnits="userSpaceOnUse">
<stop stop-color="#83A4D4"/>
<stop offset="0.9543" stop-color="#B4F7FD"/>
<stop offset="0.9994" stop-color="#B6FBFF"/>
</linearGradient>
<linearGradient id="paint3_linear_1215_3384" x1="367.589" y1="508.224" x2="651.507" y2="508.224" gradientUnits="userSpaceOnUse">
<stop stop-color="#83A4D4"/>
<stop offset="0.9543" stop-color="#B4F7FD"/>
<stop offset="0.9994" stop-color="#B6FBFF"/>
</linearGradient>
<linearGradient id="paint4_linear_1215_3384" x1="366.613" y1="517.242" x2="659.422" y2="517.242" gradientUnits="userSpaceOnUse">
<stop stop-color="#83A4D4"/>
<stop offset="0.9543" stop-color="#B4F7FD"/>
<stop offset="0.9994" stop-color="#B6FBFF"/>
</linearGradient>
<linearGradient id="paint5_linear_1215_3384" x1="364.606" y1="521.212" x2="667.181" y2="521.212" gradientUnits="userSpaceOnUse">
<stop stop-color="#83A4D4"/>
<stop offset="0.9543" stop-color="#B4F7FD"/>
<stop offset="0.9994" stop-color="#B6FBFF"/>
</linearGradient>
<linearGradient id="paint6_linear_1215_3384" x1="347.656" y1="523.489" x2="674.514" y2="523.489" gradientUnits="userSpaceOnUse">
<stop stop-color="#83A4D4"/>
<stop offset="0.9543" stop-color="#B4F7FD"/>
<stop offset="0.9994" stop-color="#B6FBFF"/>
</linearGradient>
<linearGradient id="paint7_linear_1215_3384" x1="329.619" y1="525.466" x2="681.441" y2="525.466" gradientUnits="userSpaceOnUse">
<stop stop-color="#83A4D4"/>
<stop offset="0.9543" stop-color="#B4F7FD"/>
<stop offset="0.9994" stop-color="#B6FBFF"/>
</linearGradient>
<linearGradient id="paint8_linear_1215_3384" x1="310.446" y1="527.027" x2="688.072" y2="527.027" gradientUnits="userSpaceOnUse">
<stop stop-color="#83A4D4"/>
<stop offset="0.9543" stop-color="#B4F7FD"/>
<stop offset="0.9994" stop-color="#B6FBFF"/>
</linearGradient>
<linearGradient id="paint9_linear_1215_3384" x1="290.23" y1="528.082" x2="694.007" y2="528.082" gradientUnits="userSpaceOnUse">
<stop stop-color="#83A4D4"/>
<stop offset="0.9543" stop-color="#B4F7FD"/>
<stop offset="0.9994" stop-color="#B6FBFF"/>
</linearGradient>
<linearGradient id="paint10_linear_1215_3384" x1="268.855" y1="528.538" x2="699.554" y2="528.538" gradientUnits="userSpaceOnUse">
<stop stop-color="#83A4D4"/>
<stop offset="0.9543" stop-color="#B4F7FD"/>
<stop offset="0.9994" stop-color="#B6FBFF"/>
</linearGradient>
<linearGradient id="paint11_linear_1215_3384" x1="246.311" y1="528.358" x2="704.226" y2="528.358" gradientUnits="userSpaceOnUse">
<stop stop-color="#83A4D4"/>
<stop offset="0.9543" stop-color="#B4F7FD"/>
<stop offset="0.9994" stop-color="#B6FBFF"/>
</linearGradient>
<linearGradient id="paint12_linear_1215_3384" x1="222.619" y1="527.282" x2="708.26" y2="527.282" gradientUnits="userSpaceOnUse">
<stop stop-color="#83A4D4"/>
<stop offset="0.9543" stop-color="#B4F7FD"/>
<stop offset="0.9994" stop-color="#B6FBFF"/>
</linearGradient>
<linearGradient id="paint13_linear_1215_3384" x1="197.761" y1="525.255" x2="711.682" y2="525.255" gradientUnits="userSpaceOnUse">
<stop stop-color="#83A4D4"/>
<stop offset="0.9543" stop-color="#B4F7FD"/>
<stop offset="0.9994" stop-color="#B6FBFF"/>
</linearGradient>
<linearGradient id="paint14_linear_1215_3384" x1="171.767" y1="522.15" x2="714.2" y2="522.15" gradientUnits="userSpaceOnUse">
<stop stop-color="#83A4D4"/>
<stop offset="0.9543" stop-color="#B4F7FD"/>
<stop offset="0.9994" stop-color="#B6FBFF"/>
</linearGradient>
<linearGradient id="paint15_linear_1215_3384" x1="144.719" y1="517.833" x2="722.491" y2="517.833" gradientUnits="userSpaceOnUse">
<stop stop-color="#83A4D4"/>
<stop offset="0.9543" stop-color="#B4F7FD"/>
<stop offset="0.9994" stop-color="#B6FBFF"/>
</linearGradient>
<linearGradient id="paint16_linear_1215_3384" x1="116.615" y1="512.15" x2="771.333" y2="512.15" gradientUnits="userSpaceOnUse">
<stop stop-color="#83A4D4"/>
<stop offset="0.9543" stop-color="#B4F7FD"/>
<stop offset="0.9994" stop-color="#B6FBFF"/>
</linearGradient>
<linearGradient id="paint17_linear_1215_3384" x1="87.8907" y1="504.944" x2="826.598" y2="504.944" gradientUnits="userSpaceOnUse">
<stop stop-color="#83A4D4"/>
<stop offset="0.9543" stop-color="#B4F7FD"/>
<stop offset="0.9994" stop-color="#B6FBFF"/>
</linearGradient>
<linearGradient id="paint18_linear_1215_3384" x1="58.7141" y1="496.053" x2="888.345" y2="496.053" gradientUnits="userSpaceOnUse">
<stop stop-color="#83A4D4"/>
<stop offset="0.9543" stop-color="#B4F7FD"/>
<stop offset="0.9994" stop-color="#B6FBFF"/>
</linearGradient>
<linearGradient id="paint19_linear_1215_3384" x1="29.0475" y1="485.292" x2="957.25" y2="485.292" gradientUnits="userSpaceOnUse">
<stop stop-color="#83A4D4"/>
<stop offset="0.9543" stop-color="#B4F7FD"/>
<stop offset="0.9994" stop-color="#B6FBFF"/>
</linearGradient>
<linearGradient id="paint20_linear_1215_3384" x1="-0.014842" y1="472.562" x2="1032.97" y2="472.562" gradientUnits="userSpaceOnUse">
<stop stop-color="#83A4D4"/>
<stop offset="0.9543" stop-color="#B4F7FD"/>
<stop offset="0.9994" stop-color="#B6FBFF"/>
</linearGradient>
<clipPath id="clip0_1215_3384">
<rect width="1033" height="945" fill="white" transform="translate(0 0.5)"/>
</clipPath>
</defs>
</svg>
