<svg width="579" height="379" viewBox="0 0 579 379" fill="none" xmlns="http://www.w3.org/2000/svg">
<g clip-path="url(#clip0_654_80145)">
<path d="M95.3617 122.129C95.3291 119.407 94.0501 118.365 93.3484 117.69C92.6467 117.014 89.8962 115.679 90.7962 114.251C91.2936 113.461 93.2299 116.001 93.7481 114.544C94.2307 113.185 91.9213 108.399 93.2536 107.523C98.879 103.824 99.8679 111.157 100.093 112.406C100.7 115.779 99.9064 117.737 101.28 122.007C102.654 126.278 97.6414 126.92 97.6414 126.92L95.3617 122.129Z" fill="#EFAEA6"/>
<path d="M37.7536 230.958C36.4775 233.363 37.0963 234.891 37.3894 235.821C37.6825 236.751 39.4531 239.242 37.9786 240.062C37.1615 240.518 36.6848 237.358 35.5301 238.389C34.4524 239.348 34.1859 244.658 32.596 244.785C25.884 245.33 28.5368 238.424 28.9395 237.219C30.0261 233.97 31.6604 232.632 32.5042 228.225C33.348 223.821 38.0556 225.66 38.0556 225.66L37.7536 230.958Z" fill="#EFAEA6"/>
<path d="M76.6362 284.156C76.5829 290.15 76.5385 296.408 76.5148 302.556C76.4142 326.715 23.2305 316.883 21.2409 317.967C17.0041 320.28 16.7613 321.731 15.9738 323.366L12.865 328.744L7.67188 322.06L12.9982 312.115C12.9982 312.115 63.0524 307.439 63.2715 302.298C63.3573 300.281 62.4691 294.302 61.3559 287.784C61.0302 285.868 60.6808 283.907 60.3374 281.985C58.857 273.782 57.3737 266.313 57.3737 266.313C57.3441 264.992 54.4455 254.141 53.7349 253.028C51.8371 250.069 50.9341 231.975 59.7837 233.621C74.3357 236.334 77.101 246.613 77.101 246.613C77.101 246.613 76.8464 262.2 76.6658 281.126L76.6362 284.156Z" fill="#EFAEA6"/>
<path d="M16.922 311.351C15.3409 310.569 11.4979 309.195 8.12562 312.154C4.91323 315.317 0.335938 316.557 0.335938 316.557L0.824458 317.929C0.824458 317.929 6.83771 315.55 8.41578 316.415C8.08121 318.885 4.59939 329.102 4.9754 331.11C5.34846 333.118 6.24556 338.603 7.41505 338.919C8.58454 339.236 10.8613 338.342 11.7821 336.136C12.7029 333.929 13.6 327.687 13.6 327.687C13.6 327.687 13.5497 327.382 13.2773 327.462C12.6585 327.639 11.6163 327.882 11.2255 325.175C10.7103 321.595 14.7902 314.825 17.0996 312.319C17.3779 312.014 17.2891 311.535 16.922 311.351Z" fill="#603A3E"/>
<path d="M71.8345 241.794L76.7049 244.611C76.8826 244.714 77.0424 244.851 77.1697 245.011C78.7685 247.021 87.9054 256.658 91.6625 261.396C91.6892 261.429 95.7335 259.791 95.7572 259.827C98.5403 263.97 108.722 283.492 109.844 291.109C111.289 300.935 73.4363 339.656 72.2105 342.094C70.9848 344.531 70.9522 346.942 72.4296 351.307C72.4444 351.351 72.4622 351.393 72.4799 351.437C73.2112 353.116 71.0736 354.559 69.7916 353.255L64.3675 347.75C64.2432 347.623 64.1396 347.478 64.0596 347.318L62.0019 343.109C61.7502 342.594 61.7828 341.987 62.0878 341.501C62.0878 341.501 95.4878 295.234 94.1673 291.159C92.8439 287.087 75.6805 259.862 75.6805 259.862C75.337 259.504 68.2461 264.678 67.7517 264.719C66.0433 264.87 61.4897 264.228 56.2255 254.976C54.6445 252.195 57.9487 247.054 59.0471 245.481C59.2573 245.179 59.5682 244.957 59.9205 244.851L70.5288 241.643C70.967 241.51 71.4407 241.566 71.8345 241.794Z" fill="#EFAEA6"/>
<path d="M61.3658 349.829C62.5264 350.913 65.567 354.916 68.0008 357.748C69.0873 359.009 70.0525 360.04 70.6802 360.469C70.7424 360.514 70.8016 360.549 70.8549 360.582C72.7172 361.621 77.0576 363.422 78.2479 362.986C79.441 362.551 79.7519 360.132 78.4965 358.07C77.9695 357.203 76.9037 355.997 75.8467 354.887C74.766 353.75 73.6942 352.719 73.2116 352.26C73.0429 352.1 72.9481 352.011 72.9481 352.011C72.9481 352.011 72.6846 351.884 72.5958 352.136C72.3915 352.713 72.0066 353.655 69.6973 352.467C66.6299 350.889 63.6189 343.959 62.9646 340.805C62.8876 340.444 62.4908 340.251 62.1652 340.423C60.7055 341.199 57.4665 343.426 57.9076 347.702C58.5916 351.934 57.0312 356.163 57.0312 356.163L58.3606 356.539C58.3606 356.548 59.8291 350.575 61.3658 349.829Z" fill="#603A3E"/>
<path d="M54.838 284.109C56.345 286.91 72.5758 285.311 82.2041 280.969C90.8109 277.087 102.453 282.607 107.249 279.341C109.123 272.132 92.4275 247.691 88.3446 221.115C77.1767 226.138 58.2932 218.23 58.2932 218.23C58.2932 218.23 58.2014 218.417 58.0356 218.764C57.0734 220.78 53.6626 228.166 51.8447 235.034C51.1193 237.779 50.6486 240.445 50.69 242.648C50.8114 249.054 55.898 261.258 57.3132 270.21C58.3791 276.933 53.1445 280.969 54.838 284.109Z" fill="#333344"/>
<path d="M75.3022 168.309L80.5842 170.684L89.647 197.589C89.647 197.589 88.5397 214.543 85.0993 220.706C80.6197 228.726 63.6962 221.538 64.2557 219.735C69.3897 203.162 69.1469 168.765 69.1469 168.765L75.3022 168.309Z" fill="white"/>
<path opacity="0.28" d="M51.8438 235.035C61.78 239.273 74.6799 231.632 74.6799 231.632L59.9414 220.245L58.0346 218.762C57.0724 220.781 53.6616 228.167 51.8438 235.035Z" fill="#070716"/>
<path d="M36.7642 202.201C35.3726 208.198 30.2891 231.733 30.2891 231.733C34.7479 233.486 39.571 232.207 39.6302 232.23C39.4792 231.943 43.9706 209.344 44.32 206.871C44.8174 203.347 56.006 189.523 57.5663 191.045C59.5766 193.011 62.6055 201.697 62.1495 208.041C62.0548 209.382 61.812 210.608 61.3886 211.621C58.9638 217.423 53.5042 223.414 54.0756 226.387C54.65 229.361 73.27 233.279 74.6823 231.632C76.0975 229.982 74.3536 209.886 75.6327 205.207C76.7726 201.043 79.6326 193.462 76.6719 187.882C74.4869 183.769 71.4699 175.13 70.0369 170.871C70.0132 170.806 69.9925 170.744 69.9718 170.682C69.4951 169.272 69.2108 168.387 69.2108 168.387C68.0502 168.807 66.7357 169.441 65.3264 170.252C62.1791 172.059 58.5285 174.721 54.8927 177.739C45.2852 185.726 38.0699 196.586 36.7642 202.201Z" fill="#FF8D7C"/>
<path d="M87.5793 192.41C89.7614 197.889 82.9872 212.139 82.9961 222.558C82.9932 222.694 82.9961 222.833 82.9961 222.97C83.0287 224.743 83.2655 226.396 83.7896 227.868C84.4972 229.867 87.6119 231.152 89.6252 231.229C91.0108 231.282 91.4016 230.963 91.0908 229.526C88.2603 216.552 96.5415 205.278 95.6177 195.049C95.4667 193.411 89.5689 180.034 90.1463 176.797C91.1204 171.348 102.43 161.069 103.508 151.802C104.195 145.888 103.68 122.531 101.601 118.429C100.722 116.694 94.1196 119.599 94.2232 121.204C94.466 124.897 94.2558 144.443 93.8857 149.534C93.6844 152.279 86.6704 164.104 79.8281 170.338C79.8607 170.409 80.3699 171.478 80.6808 173.489C80.9147 175.011 81.4121 176.845 81.7496 178.947C82.7148 184.962 84.9887 185.919 87.5793 192.41Z" fill="#FF8D7C"/>
<path opacity="0.17" d="M62.1457 208.04C63.4159 205.614 65.216 201.951 65.2426 200.574C65.2841 198.442 61.7786 193.33 57.5625 191.047C59.8127 192.735 62.6046 201.699 62.1457 208.04Z" fill="#070716"/>
<path opacity="0.17" d="M54.8906 177.742C64.2673 176.94 68.1369 174.902 70.0318 170.872C70.0585 170.816 70.0851 170.756 70.1117 170.697L69.9667 170.685L65.3213 170.256C62.177 172.062 58.5234 174.725 54.8906 177.742Z" fill="#070716"/>
<path d="M78.449 150.283C79.3994 152.06 78.523 153.357 80.1573 154.873C81.4541 156.076 82.5259 156.091 82.2624 156.787C81.9989 157.483 80.6607 157.447 80.8709 158.093C81.0811 158.738 81.7147 159.108 81.0337 159.529C80.5807 159.807 80.0419 159.893 80.6903 160.169C80.9479 160.278 81.3653 159.994 81.0959 160.873C80.8294 161.741 82.5911 164.072 81.3209 164.729C80.6873 165.058 78.1115 164.013 77.1078 165.218C76.2048 166.299 79.0352 169.112 79.6511 170.552C80.2669 171.991 79.7221 180.147 78.8339 180.108C76.6222 180.005 76.6548 176.403 70.757 172.275C64.0658 167.593 69.4158 158.741 69.4158 158.741L70.4136 153.304L78.449 150.283Z" fill="#F5B1B4"/>
<path d="M30.2853 184.219C32.9174 185.907 41.5035 175.347 48.9882 180.645C51.9489 182.741 53.9504 179.463 56.5884 178.305C57.0207 178.116 57.4707 177.982 57.9444 177.938C59.7297 177.778 60.7719 178.027 62.2937 177.728C62.2937 177.728 62.2937 177.728 62.2967 177.728C62.649 177.657 63.028 177.559 63.4514 177.417C63.8007 177.298 64.1797 177.15 64.5942 176.967C65.3492 176.635 66.2226 176.182 67.2766 175.569C68.384 174.923 69.2751 174.029 70.0035 172.989L70.0064 172.986C70.0301 172.951 70.0568 172.915 70.0805 172.88C72.677 169.08 73.1063 163.477 73.6037 161.413C73.7695 160.717 73.5771 159.749 73.0264 159.281C72.2862 158.65 71.318 157.88 71.6852 156.914C72.0257 156.014 73.2307 155.916 73.6304 156.432C74.6281 157.726 75.5549 157.969 75.321 156.079C74.942 152.976 76.6296 151.841 77.4823 151.513C78.033 151.299 78.412 151.027 78.6577 150.722V150.719C79.6111 149.537 78.6074 147.867 78.1869 147.266C76.1973 144.396 72.3129 144.651 67.8777 146.508C61.598 149.138 61.3611 158.916 59.9311 160.329C58.504 161.745 56.618 159.76 52.6625 162.621C48.0437 165.965 49.2014 168.423 47.5907 169.714C46.1814 170.839 43.0993 170.745 39.6264 171.926C33.6871 173.94 26.1373 181.56 30.2853 184.219Z" fill="#2E2E49"/>
<path d="M444.042 126.911C444.649 121.305 441.519 121.521 440.451 119.892C439.308 118.151 438.804 111.828 443.737 110.984C448.652 110.143 450.89 113.022 451.127 124.178C451.352 134.824 446.046 133.234 446.046 133.234C446.434 130.936 443.864 128.57 444.042 126.911Z" fill="#EFAEA6"/>
<path opacity="0.46" d="M501.024 274.535C501.024 274.535 501.021 274.541 501.016 274.553C500.959 274.496 500.936 274.47 500.93 274.461C500.947 274.467 501.024 274.535 501.024 274.535Z" fill="#1F1F39"/>
<path d="M433.703 367.917C433.807 364.147 435.255 354.744 435.255 354.744L445.179 355.621L442.878 369.723L435.785 373.413L433.703 367.917Z" fill="white"/>
<path d="M433.129 366.255C432.11 365.92 432.459 366.948 431.947 368.488C430.769 372.009 417.682 371.026 415.684 371.186C414.654 371.269 412.572 376.419 417.641 376.815C422.023 377.159 436.054 378.314 440.853 378.66C441.857 378.731 442.789 378.124 443.112 377.171C444.264 373.768 444.471 368.36 443.145 368.135C441.17 367.324 437.374 367.65 433.129 366.255Z" fill="#1F1F39"/>
<path d="M550.495 330.325C546.732 330.085 537.391 328.302 537.391 328.302L538.622 318.414L552.63 321.222L556.061 328.445L550.495 330.325Z" fill="white"/>
<path d="M548.81 330.842C548.439 331.849 549.479 331.535 550.998 332.104C554.473 333.407 553.023 346.452 553.111 348.457C553.156 349.491 558.228 351.753 558.808 346.704C559.308 342.336 560.966 328.352 561.484 323.569C561.594 322.568 561.02 321.614 560.078 321.259C556.721 319.985 551.323 319.583 551.051 320.903C550.166 322.84 550.355 326.646 548.81 330.842Z" fill="#1F1F39"/>
<path d="M542.638 332.396C542.638 332.396 478.299 330.646 476.83 312.844C475.986 302.636 476.869 286.62 479.673 273.528C479.673 273.528 479.673 273.528 479.67 273.53C479.492 273.622 453.452 295.487 447.537 305.894C444.011 312.104 448.739 355.584 446.178 362.067C446.178 362.067 439.975 364.537 430.892 360.441C431.111 357.675 427.774 303.711 430.409 295.807C434.172 284.512 452.535 262.469 470.755 241.76C470.755 241.76 480.845 251.352 493.914 244.727C500.176 241.552 509.517 245.53 509.617 247.807C509.736 250.674 509.919 252.957 510.047 254.932C510.349 259.487 510.375 262.449 508.768 267.362C508.418 268.425 507.992 269.583 507.477 270.868C507.012 272.029 506.571 273.181 506.153 274.324C500.951 288.536 499.669 297.326 498.47 306.175C497.709 311.787 540.311 313.999 548.764 318.178C549.647 319.513 547.604 326.153 542.638 332.396Z" fill="#3B3B4C"/>
<path d="M548.008 322.564C547.49 324.88 545.85 328.357 542.641 332.394L548.008 322.564Z" fill="#3B3B4C"/>
<path d="M492.416 183.584C488.987 182.6 488.176 188.357 485.384 188.58C483.691 188.713 484.993 185.36 484.194 184.546C483.703 184.046 481.589 184.362 480.659 185.343C464.742 202.17 482.24 241.661 472.253 243.355C470.196 243.705 490.705 256.119 501.011 247.326C509.668 239.943 507.323 236.689 506.9 234.21C505.28 224.713 499.516 192.468 499.516 192.468C499.516 192.468 497.538 188.369 492.416 183.584Z" fill="white"/>
<path d="M474.025 250.975C471.914 252.977 467.121 253.297 465.59 251.564C461.107 246.497 470.531 229.368 471.052 224.701C471.574 220.037 469.622 206.272 467.588 202.742C462.712 194.284 451.618 172.413 449.877 164.008C448.962 159.59 438.627 130.677 441.703 123.451C442.807 123.86 450.28 122.373 452.095 123.347C452.652 123.646 452.942 124.111 452.782 124.834C452.752 125.18 452.723 125.533 452.693 125.885C451.796 135.519 456.278 151.09 459.287 158.097C462.295 165.107 473.865 184.345 481.187 184.863C481.187 184.863 478.386 190.401 477.445 197.781C476.198 207.53 479.846 214.451 480.337 226.291C481.078 244.238 477.646 247.549 474.025 250.975Z" fill="#FF8D7C"/>
<path opacity="0.62" d="M508.77 267.362C503.728 262.478 498.162 256.232 497.445 249.314L510.049 254.932C510.351 259.487 510.378 262.449 508.77 267.362Z" fill="#1F1F39"/>
<path d="M492.088 188.863C492.088 188.863 487.624 189.515 484.882 189.589C482.664 188.04 482.798 187.877 482.359 186.654C482.972 185.647 483.239 185.061 483.354 184.637C483.514 184.021 483.348 183.734 483.413 182.997C483.428 182.843 483.449 182.671 483.487 182.475C483.662 181.536 483.724 180.743 483.73 180.109C483.73 179.84 483.721 179.6 483.709 179.389C483.668 178.714 483.567 178.356 483.567 178.356L486.199 176.561L490.439 172.859C490.439 172.859 491.727 173.508 492.606 177.245C493.403 180.654 493.512 185.564 492.088 188.863Z" fill="#EFAEA6"/>
<path opacity="0.14" d="M483.352 184.638C483.511 184.022 483.346 183.735 483.411 182.998C483.426 182.844 483.446 182.672 483.485 182.477C483.659 181.538 483.722 180.744 483.728 180.11C483.728 179.841 483.719 179.601 483.707 179.391C483.988 179.323 487.766 178.449 488.782 179.059C490.366 180.016 488.284 184.668 483.352 184.638Z" fill="#1F1F39"/>
<path d="M483.184 166.344C482.035 168.941 477.366 173.06 479.175 173.679C480.984 174.298 476.742 179.167 478.642 179.895C483.249 181.661 489.633 180.568 491.015 178.527C492.398 176.487 494.251 170.09 494.251 170.09L483.184 166.344Z" fill="#EFAEA6"/>
<path d="M487.098 170.575C485.571 170.241 485.402 170.569 484.546 169.717C483.688 168.864 485.961 168.058 484.152 167.078C482.34 166.095 480.274 165.248 480.836 162.982C481.648 159.704 484.294 161.173 485.908 162.144C486.947 162.769 488.066 160.429 490.272 161.309C492.001 161.999 491.439 162.953 492.955 163.637C493.869 164.048 496.256 163.13 497.334 164.78C499.338 167.836 496.155 169.64 497.65 172.678C499.394 176.223 491.303 179.7 490.826 178.776C490.269 177.698 492.436 175.4 491.818 174.47C490.882 173.069 490.349 174.094 488.94 174.727C487.433 175.406 485.313 174.742 487.377 173.143C489.434 171.541 488.481 170.877 487.098 170.575Z" fill="#1F1F39"/>
<path d="M543.391 263.229C543.601 262.633 543.995 262.189 544.528 262.023L545.881 261.606L545.925 261.594L546.088 261.541L551.69 259.817C551.962 259.734 552.244 259.728 552.519 259.799H552.522C553.378 260.004 554.201 260.856 554.565 262.038L555.08 263.717L555.915 266.421L554.506 266.856L553.668 264.141L553.549 263.756C553.283 262.882 552.679 262.245 552.045 262.082H552.042C551.829 262.026 551.61 262.029 551.403 262.094L546.461 263.617L546.458 263.62L546.047 263.744C545.224 264.002 544.845 265.157 545.206 266.326L545.313 266.661L546.153 269.412L546.159 269.43L544.75 269.865L543.897 267.09L543.397 265.465C543.367 265.373 543.344 265.278 543.32 265.189C543.287 265.047 543.264 264.908 543.246 264.769C543.181 264.206 543.234 263.676 543.391 263.229Z" fill="#201B2C"/>
<path d="M543.996 254.004C544.215 255.716 543.655 255.388 543.638 257.674C543.62 259.96 542.596 263.407 543.786 263.446C544.976 263.484 545.485 261.974 545.953 261.571C546.421 261.168 545.53 262.747 546.456 263.606C547.383 264.461 550.308 264.316 551.35 263.17C552.393 262.024 552.828 260.153 552.322 258.008C551.815 255.864 550.012 253.255 549.55 252.379C549.091 251.505 543.996 254.004 543.996 254.004Z" fill="#EEADA5"/>
<path d="M543.389 263.221V263.218C543.596 262.623 543.996 262.175 544.529 262.01L545.885 261.61L545.926 261.598L545.929 261.595L546.027 261.568L546.033 262.063L546.03 262.072V262.098V262.104L546.033 262.818L546.045 263.727C545.219 263.985 544.843 265.143 545.201 266.313L545.207 266.327L545.307 266.665L546.154 269.413L544.751 269.846L543.901 267.089L543.401 265.463C543.371 265.371 543.347 265.276 543.324 265.187C543.291 265.045 543.267 264.906 543.25 264.767C543.179 264.204 543.232 263.668 543.389 263.221Z" fill="#201B2C"/>
<path d="M528.598 276.747L534.706 296.989C535.067 298.189 536.334 298.87 537.533 298.505L537.598 298.485L573.802 288.054C577.873 286.825 576.979 283.959 576.615 282.759L571.422 263.492C571.061 262.292 568.659 259.571 565.417 260.601L533.32 270.274L532.115 270.635C529.468 271.438 527.781 274.032 528.598 276.747Z" fill="#603A3E"/>
<path d="M528.598 276.747L534.706 296.989C535.067 298.188 536.334 298.869 537.533 298.505L537.598 298.484C537.655 297.161 537.35 295.188 536.248 292.259C533.59 285.179 533.193 276.362 533.32 270.273L532.115 270.635C529.468 271.437 527.781 274.032 528.598 276.747Z" fill="#775155"/>
<path d="M493.406 223.172C493.531 224.952 493.839 226.682 494.226 228.325C495.298 232.91 496.983 236.851 497.021 239.505C497.069 242.822 496.636 247.246 497.806 250.545C498.321 252.002 499.144 253.243 500.465 254.066C504.764 256.77 514.075 256.673 515.929 257.54C518.185 258.6 528.39 257.798 524.678 254.736C518.883 249.953 514.653 242.004 512.565 235.365C511.813 232.975 511.337 230.757 511.168 228.912C511.147 228.716 511.132 228.527 511.12 228.343C511.103 228.127 511.085 227.92 511.073 227.718C511.064 227.632 511.061 227.552 511.058 227.469C511.043 227.2 511.035 226.939 511.026 226.693C511.023 226.528 511.02 226.371 511.02 226.22C511.02 226.08 511.023 225.95 511.026 225.826C511.029 225.749 511.032 225.678 511.035 225.61C511.049 225.396 511.064 225.204 511.085 225.026C511.132 224.641 511.186 224.25 511.245 223.859C511.304 223.465 511.366 223.072 511.434 222.678C511.579 221.819 511.745 220.963 511.908 220.134C511.952 219.894 512 219.654 512.047 219.42C512.163 218.846 512.275 218.295 512.382 217.771C512.438 217.489 512.494 217.223 512.545 216.962C512.571 216.817 512.598 216.678 512.624 216.542C512.672 216.305 512.713 216.08 512.752 215.86C512.799 215.603 512.838 215.363 512.873 215.141C512.885 215.073 512.894 215.005 512.903 214.939C512.912 214.874 512.921 214.812 512.926 214.75C512.95 214.563 512.971 214.392 512.983 214.238L512.986 214.226C512.986 214.178 512.989 214.131 512.995 214.086V214.075C513.006 213.882 513.003 213.719 512.983 213.592C512.98 213.574 512.977 213.559 512.974 213.545C514.359 214.344 529.752 224.748 534.102 233.016C539.381 245.016 541.37 253.717 542.238 256.184C542.247 256.205 542.264 256.216 542.288 256.211C542.774 256.107 543.295 255.991 543.839 255.864C546.178 255.325 548.893 254.611 550.451 253.909C550.99 253.667 551.386 253.424 551.588 253.196C551.597 253.187 551.597 253.181 551.6 253.172C552.1 248.226 546.329 236.425 543.443 228.482C541.083 221.976 527.025 207.622 517.43 198.915C516.035 197.647 514.735 196.504 513.581 195.521C512.941 194.976 512.219 194.431 511.437 193.895C504.838 189.349 494.102 185.289 494.102 185.289C494.099 185.316 494.099 185.336 494.096 185.366C493.948 186.933 494.549 190.7 495.002 195.426C495.147 196.931 495.278 198.53 495.363 200.191C495.633 205.315 495.482 210.986 494.067 216.029C493.386 218.452 493.241 220.856 493.406 223.172Z" fill="#FF8D7C"/>
<path opacity="0.28" d="M512.988 213.59L512.991 214.233V214.239C512.867 215.844 512.026 219.244 511.44 222.679C511.306 223.467 511.185 224.255 511.09 225.025C510.978 225.925 511.019 227.281 511.173 228.913C511.297 230.269 511.105 231.806 511.289 233.414C511.108 233.16 511.271 232.858 511.087 232.526C510.104 230.746 507.031 213.946 507.416 210.451C507.413 210.451 511.223 211.976 512.988 213.59Z" fill="#1F1F39"/>
<path opacity="0.26" d="M485.738 189.861C484.684 189.76 485.957 188.581 485.943 189.307C485.937 189.464 485.857 189.656 485.738 189.861Z" fill="#1F1F39"/>
<path opacity="0.26" d="M484.868 191.689C485.291 191.78 485.572 192.133 485.8 192.464C486.081 192.879 486.274 193.258 486.531 193.069C486.89 192.82 490.466 197.739 495.36 200.188C496.93 200.976 498.632 201.506 500.408 201.532C501.092 201.544 501.824 201.515 502.599 201.45C504.231 201.322 506.046 201.053 507.938 200.721C511.079 200.164 514.419 199.442 517.427 198.917C516.032 197.65 514.732 196.507 513.578 195.524C512.938 194.979 512.216 194.434 511.434 193.898C508.583 194.925 505.883 195.971 503.659 196.501C502.546 196.77 501.56 196.907 500.728 196.85C500.352 196.824 499.979 196.782 499.612 196.732C497.99 196.504 496.444 196.033 494.999 195.426C492.26 194.268 489.889 192.61 488.056 191.144C487.053 190.335 486.934 189.953 485.774 189.87C485.762 189.867 485.753 189.867 485.741 189.867C485.306 190.625 484.352 191.582 484.868 191.689Z" fill="#1F1F39"/>
<path d="M578.339 198.134C578.309 199.425 576.775 201.622 574.528 202.626C574.025 202.851 572.624 203.136 570.694 203.435C564.02 204.468 551.026 205.691 546.881 205.303C542.576 204.898 538.502 202.86 534.807 200.867C531.02 198.821 527.627 196.825 524.791 196.686C519.364 196.422 508.294 199.857 501.641 199.982C501.422 199.988 501.206 199.988 500.995 199.985C493.676 199.869 487.391 191.601 486.923 191.944C486.597 192.178 486.286 192.412 485.81 192.465C485.602 192.489 485.363 192.477 485.075 192.418C484.424 192.282 484.315 190.991 484.329 190.256C484.344 189.522 484.812 188.319 486.358 188.316C487.524 188.316 487.637 188.787 488.643 189.59C491.101 191.556 494.529 193.875 498.52 194.855C499.423 195.077 500.356 195.231 501.312 195.297C506.055 195.622 516.089 189.575 523.66 189.59C524.361 189.59 525.036 189.64 525.691 189.756C533.389 191.106 535.988 197.861 547.076 199.176C558.167 200.488 569.826 195.356 573.098 195.785C576.37 196.209 578.365 196.843 578.339 198.134Z" fill="#F4AD00"/>
<path d="M445.228 110.853C446.797 111.045 447.768 115.378 445.98 117.365C444.192 119.352 441.133 122.065 440.449 119.894C439.765 117.723 439.052 115.271 440.269 113.63C441.485 111.99 443.854 110.684 445.228 110.853Z" fill="#EFAEA6"/>
<path d="M165.97 80.016C157.937 92.4927 155.332 242.557 170.68 248.163C195.485 257.225 320.576 255.06 333.141 242.417C345.71 229.775 344.919 80.8215 338.444 73.1513C331.969 65.481 174.375 66.9677 165.97 80.016Z" fill="white" stroke="#3B3B4D" stroke-width="33.2867" stroke-miterlimit="10"/>
<path d="M193.953 174.655C210.595 200.1 215.256 215.576 237.206 213.562C262.932 211.202 283.569 158.858 389.989 63.0957" stroke="#FF8D7C" stroke-width="62.434" stroke-miterlimit="10" stroke-linecap="round" stroke-linejoin="round"/>
<path d="M345.741 273.76C341.848 273.76 333.851 282.227 345.282 283.583C356.713 284.94 373.835 284.315 380.763 284.344C392.073 284.392 394.877 283.823 394.788 278.158C394.735 274.879 393.293 272.756 387.33 271.894C381.128 271 384.296 262.542 376.725 262.797C370.276 263.016 369.619 274.086 363.718 271.373C357.818 268.66 359.052 276.055 354.739 277.412C349.995 278.901 349.631 273.76 345.741 273.76Z" fill="#FDFFFD"/>
<path d="M75.4748 28.1258C65.1448 28.7507 55.2678 27.9303 45.1302 25.8425C43.5759 25.5226 41.9267 25.0932 40.8727 23.9057C39.2769 22.1081 39.7565 19.0785 41.4767 17.3993C43.1969 15.7201 45.7934 15.2167 48.1857 15.4507C49.7194 15.5987 51.2886 16.0133 52.7689 15.5839C54.6164 15.0509 55.8422 13.3599 57.0798 11.888C58.3203 10.4161 59.9961 8.96206 61.9057 9.19009C63.3358 9.36186 64.4638 10.4398 65.7399 11.1151C67.013 11.7903 68.8635 11.8613 69.5948 10.6175C71.158 7.96108 68.9671 0.669922 77.0144 0.669922C88.6323 0.669922 86.7344 8.00846 88.1319 9.5662C90.2518 11.9265 94.0267 11.4082 97.097 10.6086C100.167 9.80904 103.824 9.0509 106.195 11.1624C108.25 12.9926 108.46 16.3509 110.645 18.0242C112.969 19.804 116.274 18.8564 119.092 18.0538C121.911 17.2542 125.544 16.961 127.178 19.3894C128.549 21.4269 127.527 24.3854 125.576 25.878C123.628 27.3706 121.055 27.7349 118.604 27.8859C102.69 28.8513 88.2415 27.3528 75.4748 28.1258Z" fill="white"/>
</g>
<defs>
<clipPath id="clip0_654_80145">
<rect width="578" height="378" fill="white" transform="translate(0.335938 0.667969)"/>
</clipPath>
</defs>
</svg>
