<svg width="545" height="516" viewBox="0 0 545 516" fill="none" xmlns="http://www.w3.org/2000/svg">
<g opacity="0.2" clip-path="url(#clip0_596_4424)">
<path d="M188.492 -20.4463L544.502 326.161L543.256 326.521L66.2773 461.126L66.582 459.88L188.492 -20.4463ZM541.622 325.441L189.295 -17.5941L68.3544 458.994L541.622 325.441Z" fill="url(#paint0_linear_596_4424)"/>
<path d="M43.043 444.345L206.772 -24.7383L531.182 351.581L43.043 444.345ZM207.325 -21.8307L45.2862 442.407L528.385 350.612L207.325 -21.8307Z" fill="url(#paint1_linear_596_4424)"/>
<path d="M21.3516 425.57L21.8778 424.407L225.348 -27.4526L515.722 375.699L21.3516 425.57ZM225.652 -24.4897L23.761 423.853L513.036 374.508L225.652 -24.4897Z" fill="url(#paint2_linear_596_4424)"/>
<path d="M1.39062 405.024L244.103 -28.5049L244.768 -27.3972L498.254 398.433L496.98 398.461L1.39062 405.024ZM244.131 -25.542L3.91081 403.501L495.623 396.966L244.131 -25.542Z" fill="url(#paint3_linear_596_4424)"/>
<path d="M-16.7227 382.788L262.851 -27.9512L478.811 419.506L-16.7227 382.788ZM262.63 -24.9882L-14.064 381.486L476.346 417.844L262.63 -24.9882Z" fill="url(#paint4_linear_596_4424)"/>
<path d="M-32.8125 359.056L-32.0094 358.059L281.49 -25.7363L457.626 438.834L-32.8125 359.056ZM281.019 -22.8288L-30.0431 358.004L455.327 436.951L281.019 -22.8288Z" fill="url(#paint5_linear_596_4424)"/>
<path d="M-46.8008 334.024L299.876 -21.9146L434.831 456.224L433.584 455.919L-46.8008 334.024ZM299.129 -19.0624L-43.9483 333.221L432.698 454.175L299.129 -19.0624Z" fill="url(#paint6_linear_596_4424)"/>
<path d="M-58.5156 307.856L317.85 -16.5151L410.626 471.565L-58.5156 307.856ZM316.853 -13.7184L-55.6077 307.302L408.687 469.322L316.853 -13.7184Z" fill="url(#paint7_linear_596_4424)"/>
<path d="M-67.9258 280.775L335.275 -9.56396L385.153 484.746L383.99 484.22L-67.9258 280.775ZM334.057 -6.87795L-64.9902 280.47L383.408 482.337L334.057 -6.87795Z" fill="url(#paint8_linear_596_4424)"/>
<path d="M-74.9375 252.972L-73.8297 252.308L352.053 -1.14697L358.644 495.628L-74.9375 252.972ZM350.585 1.45597L-71.9742 252.945L357.121 493.108L350.585 1.45597Z" fill="url(#paint9_linear_596_4424)"/>
<path d="M-79.5 224.673L368.012 8.73975L331.289 504.213L-79.5 224.673ZM366.35 11.2042L-76.5367 224.895L329.988 501.555L366.35 11.2042Z" fill="url(#paint10_linear_596_4424)"/>
<path d="M-81.5781 196.095L383.049 19.9814L303.262 510.359L-81.5781 196.095ZM381.166 22.2798L-78.6425 196.566L302.237 507.59L381.166 22.2798Z" fill="url(#paint11_linear_596_4424)"/>
<path d="M-81.168 167.408L-79.9217 167.048L397.057 32.4429L274.842 514.043L273.928 513.157L-81.168 167.408ZM394.98 34.6028L-78.2878 168.156L274.039 511.191L394.98 34.6028Z" fill="url(#paint12_linear_596_4424)"/>
<path d="M-78.2266 138.886L409.941 46.1216L246.212 515.205L-78.2266 138.886ZM407.67 48.0599L-75.4294 139.883L245.63 512.325L407.67 48.0599Z" fill="url(#paint13_linear_596_4424)"/>
<path d="M-72.8281 110.753L421.543 60.8818L217.546 513.905L-72.8281 110.753ZM419.133 62.5987L-70.1418 111.972L217.242 510.97L419.133 62.5987Z" fill="url(#paint14_linear_596_4424)"/>
<path d="M-65.0234 83.1728L-63.7495 83.1451L431.812 76.5547L189.127 510.083L-65.0234 83.1728ZM429.292 78.0777L-62.4202 84.6127L189.099 507.148L429.292 78.0777Z" fill="url(#paint15_linear_596_4424)"/>
<path d="M-54.8047 56.3677L440.729 93.0858L161.155 503.825L-54.8047 56.3677ZM438.043 94.3873L-52.3676 58.0291L161.349 500.862L438.043 94.3873Z" fill="url(#paint16_linear_596_4424)"/>
<path d="M-42.3164 30.5596L448.122 110.337L133.819 495.13L-42.3164 30.5596ZM445.352 111.389L-40.0178 32.4426L134.29 492.222L445.352 111.389Z" fill="url(#paint17_linear_596_4424)"/>
<path d="M-27.6055 5.97021L-26.3592 6.27482L454.026 128.17L107.349 484.109L-27.6055 5.97021ZM451.173 128.973L-25.5007 8.01935L108.097 481.229L451.173 128.973Z" fill="url(#paint18_linear_596_4424)"/>
<path d="M-10.8281 -17.29L458.313 146.419L81.9477 470.817L-10.8281 -17.29ZM455.405 146.972L-8.88952 -15.0471L82.917 468.02L455.405 146.972Z" fill="url(#paint19_linear_596_4424)"/>
<path d="M7.92578 -38.9722L9.08895 -38.446L461.004 164.999L57.8032 455.366L7.92578 -38.9722ZM458.069 165.304L9.67052 -36.5631L59.0217 452.652L458.069 165.304Z" fill="url(#paint20_linear_596_4424)"/>
<path d="M28.4961 -58.937L462.078 183.746L460.97 184.411L35.0873 437.837L35.0596 436.564L28.4961 -58.937ZM459.115 183.774L30.0193 -56.3894L36.5551 435.262L459.115 183.774Z" fill="url(#paint21_linear_596_4424)"/>
<path d="M50.7382 -77.0464L461.5 202.493L14.0156 418.427L50.7382 -77.0464ZM458.564 202.272L52.0122 -74.3604L15.6773 415.99L458.564 202.272Z" fill="url(#paint22_linear_596_4424)"/>
<path d="M74.4747 -93.1353L75.4717 -92.3322L459.315 221.129L-5.3125 397.243L74.4747 -93.1353ZM456.379 220.658L75.4994 -90.3662L-3.42929 394.944L456.379 220.658Z" fill="url(#paint23_linear_596_4424)"/>
<path d="M99.5039 -107.091L455.486 239.516L454.24 239.876L-22.7109 374.453L-22.4063 373.207L99.5039 -107.091ZM452.606 238.796L100.307 -104.239L-20.6616 372.349L452.606 238.796Z" fill="url(#paint24_linear_596_4424)"/>
<path d="M-38.0703 350.251L125.658 -118.833L450.069 257.486L-38.0703 350.251ZM126.212 -115.925L-35.8271 348.312L447.272 256.517L126.212 -115.925Z" fill="url(#paint25_linear_596_4424)"/>
</g>
<defs>
<linearGradient id="paint0_linear_596_4424" x1="66.2812" y1="220.337" x2="544.492" y2="220.337" gradientUnits="userSpaceOnUse">
<stop stop-color="#83A4D4"/>
<stop offset="0.9543" stop-color="#B4F7FD"/>
<stop offset="0.9994" stop-color="#B6FBFF"/>
</linearGradient>
<linearGradient id="paint1_linear_596_4424" x1="43.0413" y1="209.79" x2="531.195" y2="209.79" gradientUnits="userSpaceOnUse">
<stop stop-color="#83A4D4"/>
<stop offset="0.9543" stop-color="#B4F7FD"/>
<stop offset="0.9994" stop-color="#B6FBFF"/>
</linearGradient>
<linearGradient id="paint2_linear_596_4424" x1="21.3444" y1="199.066" x2="515.726" y2="199.066" gradientUnits="userSpaceOnUse">
<stop stop-color="#83A4D4"/>
<stop offset="0.9543" stop-color="#B4F7FD"/>
<stop offset="0.9994" stop-color="#B6FBFF"/>
</linearGradient>
<linearGradient id="paint3_linear_596_4424" x1="1.37816" y1="188.248" x2="498.226" y2="188.248" gradientUnits="userSpaceOnUse">
<stop stop-color="#83A4D4"/>
<stop offset="0.9543" stop-color="#B4F7FD"/>
<stop offset="0.9994" stop-color="#B6FBFF"/>
</linearGradient>
<linearGradient id="paint4_linear_596_4424" x1="-16.7268" y1="195.779" x2="478.805" y2="195.779" gradientUnits="userSpaceOnUse">
<stop stop-color="#83A4D4"/>
<stop offset="0.9543" stop-color="#B4F7FD"/>
<stop offset="0.9994" stop-color="#B6FBFF"/>
</linearGradient>
<linearGradient id="paint5_linear_596_4424" x1="-32.8239" y1="206.54" x2="457.622" y2="206.54" gradientUnits="userSpaceOnUse">
<stop stop-color="#83A4D4"/>
<stop offset="0.9543" stop-color="#B4F7FD"/>
<stop offset="0.9994" stop-color="#B6FBFF"/>
</linearGradient>
<linearGradient id="paint6_linear_596_4424" x1="-46.7944" y1="217.15" x2="434.832" y2="217.15" gradientUnits="userSpaceOnUse">
<stop stop-color="#83A4D4"/>
<stop offset="0.9543" stop-color="#B4F7FD"/>
<stop offset="0.9994" stop-color="#B6FBFF"/>
</linearGradient>
<linearGradient id="paint7_linear_596_4424" x1="-58.5267" y1="227.526" x2="410.614" y2="227.526" gradientUnits="userSpaceOnUse">
<stop stop-color="#83A4D4"/>
<stop offset="0.9543" stop-color="#B4F7FD"/>
<stop offset="0.9994" stop-color="#B6FBFF"/>
</linearGradient>
<linearGradient id="paint8_linear_596_4424" x1="-67.9288" y1="237.592" x2="385.157" y2="237.592" gradientUnits="userSpaceOnUse">
<stop stop-color="#83A4D4"/>
<stop offset="0.9543" stop-color="#B4F7FD"/>
<stop offset="0.9994" stop-color="#B6FBFF"/>
</linearGradient>
<linearGradient id="paint9_linear_596_4424" x1="-74.9453" y1="247.267" x2="358.638" y2="247.267" gradientUnits="userSpaceOnUse">
<stop stop-color="#83A4D4"/>
<stop offset="0.9543" stop-color="#B4F7FD"/>
<stop offset="0.9994" stop-color="#B6FBFF"/>
</linearGradient>
<linearGradient id="paint10_linear_596_4424" x1="-79.4994" y1="256.483" x2="368.009" y2="256.483" gradientUnits="userSpaceOnUse">
<stop stop-color="#83A4D4"/>
<stop offset="0.9543" stop-color="#B4F7FD"/>
<stop offset="0.9994" stop-color="#B6FBFF"/>
</linearGradient>
<linearGradient id="paint11_linear_596_4424" x1="-81.5781" y1="265.166" x2="383.049" y2="265.166" gradientUnits="userSpaceOnUse">
<stop stop-color="#83A4D4"/>
<stop offset="0.9543" stop-color="#B4F7FD"/>
<stop offset="0.9994" stop-color="#B6FBFF"/>
</linearGradient>
<linearGradient id="paint12_linear_596_4424" x1="-81.1599" y1="273.252" x2="397.05" y2="273.252" gradientUnits="userSpaceOnUse">
<stop stop-color="#83A4D4"/>
<stop offset="0.9543" stop-color="#B4F7FD"/>
<stop offset="0.9994" stop-color="#B6FBFF"/>
</linearGradient>
<linearGradient id="paint13_linear_596_4424" x1="-78.2338" y1="280.678" x2="409.92" y2="280.678" gradientUnits="userSpaceOnUse">
<stop stop-color="#83A4D4"/>
<stop offset="0.9543" stop-color="#B4F7FD"/>
<stop offset="0.9994" stop-color="#B6FBFF"/>
</linearGradient>
<linearGradient id="paint14_linear_596_4424" x1="-72.8403" y1="287.389" x2="421.541" y2="287.389" gradientUnits="userSpaceOnUse">
<stop stop-color="#83A4D4"/>
<stop offset="0.9543" stop-color="#B4F7FD"/>
<stop offset="0.9994" stop-color="#B6FBFF"/>
</linearGradient>
<linearGradient id="paint15_linear_596_4424" x1="-65.0171" y1="293.331" x2="431.831" y2="293.331" gradientUnits="userSpaceOnUse">
<stop stop-color="#83A4D4"/>
<stop offset="0.9543" stop-color="#B4F7FD"/>
<stop offset="0.9994" stop-color="#B6FBFF"/>
</linearGradient>
<linearGradient id="paint16_linear_596_4424" x1="-54.8141" y1="280.099" x2="440.718" y2="280.099" gradientUnits="userSpaceOnUse">
<stop stop-color="#83A4D4"/>
<stop offset="0.9543" stop-color="#B4F7FD"/>
<stop offset="0.9994" stop-color="#B6FBFF"/>
</linearGradient>
<linearGradient id="paint17_linear_596_4424" x1="-42.3164" y1="262.857" x2="448.129" y2="262.857" gradientUnits="userSpaceOnUse">
<stop stop-color="#83A4D4"/>
<stop offset="0.9543" stop-color="#B4F7FD"/>
<stop offset="0.9994" stop-color="#B6FBFF"/>
</linearGradient>
<linearGradient id="paint18_linear_596_4424" x1="-27.6105" y1="245.034" x2="454.016" y2="245.034" gradientUnits="userSpaceOnUse">
<stop stop-color="#83A4D4"/>
<stop offset="0.9543" stop-color="#B4F7FD"/>
<stop offset="0.9994" stop-color="#B6FBFF"/>
</linearGradient>
<linearGradient id="paint19_linear_596_4424" x1="-10.8259" y1="226.767" x2="458.316" y2="226.767" gradientUnits="userSpaceOnUse">
<stop stop-color="#83A4D4"/>
<stop offset="0.9543" stop-color="#B4F7FD"/>
<stop offset="0.9994" stop-color="#B6FBFF"/>
</linearGradient>
<linearGradient id="paint20_linear_596_4424" x1="7.93187" y1="208.193" x2="461.018" y2="208.193" gradientUnits="userSpaceOnUse">
<stop stop-color="#83A4D4"/>
<stop offset="0.9543" stop-color="#B4F7FD"/>
<stop offset="0.9994" stop-color="#B6FBFF"/>
</linearGradient>
<linearGradient id="paint21_linear_596_4424" x1="28.4961" y1="189.456" x2="462.079" y2="189.456" gradientUnits="userSpaceOnUse">
<stop stop-color="#83A4D4"/>
<stop offset="0.9543" stop-color="#B4F7FD"/>
<stop offset="0.9994" stop-color="#B6FBFF"/>
</linearGradient>
<linearGradient id="paint22_linear_596_4424" x1="14.0045" y1="170.697" x2="461.513" y2="170.697" gradientUnits="userSpaceOnUse">
<stop stop-color="#83A4D4"/>
<stop offset="0.9543" stop-color="#B4F7FD"/>
<stop offset="0.9994" stop-color="#B6FBFF"/>
</linearGradient>
<linearGradient id="paint23_linear_596_4424" x1="-5.31444" y1="152.058" x2="459.313" y2="152.058" gradientUnits="userSpaceOnUse">
<stop stop-color="#83A4D4"/>
<stop offset="0.9543" stop-color="#B4F7FD"/>
<stop offset="0.9994" stop-color="#B6FBFF"/>
</linearGradient>
<linearGradient id="paint24_linear_596_4424" x1="-22.7231" y1="133.682" x2="455.487" y2="133.682" gradientUnits="userSpaceOnUse">
<stop stop-color="#83A4D4"/>
<stop offset="0.9543" stop-color="#B4F7FD"/>
<stop offset="0.9994" stop-color="#B6FBFF"/>
</linearGradient>
<linearGradient id="paint25_linear_596_4424" x1="-38.0617" y1="115.709" x2="450.092" y2="115.709" gradientUnits="userSpaceOnUse">
<stop stop-color="#83A4D4"/>
<stop offset="0.9543" stop-color="#B4F7FD"/>
<stop offset="0.9994" stop-color="#B6FBFF"/>
</linearGradient>
<clipPath id="clip0_596_4424">
<rect width="626.085" height="634.066" fill="white" transform="translate(-81.5859 -118.832)"/>
</clipPath>
</defs>
</svg>
