<svg width="839" height="869" viewBox="0 0 839 869" fill="none" xmlns="http://www.w3.org/2000/svg">
<g clip-path="url(#clip0_513_4178)">
<path d="M256.721 549.939C250.971 549.939 246.012 548.441 242.387 545.403C235.762 539.868 234.679 529.923 239.429 518.229L290.931 391.137C297.973 373.742 316.599 355.889 336.183 347.775C347.309 343.155 357.434 342.323 364.726 345.403L455.313 383.605C461.522 386.227 465.064 391.262 465.647 398.17C466.939 414.4 451.438 436.913 429.604 450.605L287.514 539.494C276.514 546.402 265.638 549.939 256.721 549.939ZM354.851 346.859C349.725 346.859 343.767 348.191 337.433 350.812C318.599 358.636 300.723 375.698 293.973 392.344L242.471 519.436C238.22 529.923 238.929 538.245 244.471 542.865C252.596 549.69 268.805 547.276 285.723 536.664L427.812 447.775C451.605 432.877 463.355 411.237 462.314 398.378C461.855 392.677 459.063 388.724 453.98 386.56L363.393 348.357C360.976 347.4 358.059 346.859 354.851 346.859Z" fill="url(#paint0_linear_513_4178)"/>
<path d="M253.547 565.504C248.13 565.504 243.38 564.172 239.671 561.468C232.296 556.058 230.421 546.236 234.463 533.752L279.131 395.757C289.465 363.839 331.925 333.71 356.135 341.117L460.098 372.869C467.264 375.075 471.681 380.11 472.89 387.434C475.64 404.288 460.681 429.174 438.055 445.362L289.423 551.605C276.673 560.677 263.881 565.504 253.547 565.504ZM348.051 343.24C325.05 343.24 291.007 369.79 282.256 396.756L237.588 534.751C234.004 545.779 235.421 554.31 241.588 558.804C251.088 565.712 269.506 561.759 287.465 548.9L436.096 442.657C460.806 425.013 471.806 401.292 469.598 387.934C468.598 381.816 465.056 377.78 459.098 375.99L355.135 344.238C352.968 343.573 350.593 343.24 348.051 343.24Z" fill="url(#paint1_linear_513_4178)"/>
<path d="M251.334 581.982C246.293 581.982 241.834 580.859 238.167 578.57C230.042 573.451 227.333 563.464 230.5 550.438L266.544 401.665C274.877 367.333 318.796 331.877 346.214 337.412L464.385 361.174C472.636 362.839 478.011 367.832 479.97 375.698C484.345 393.384 470.427 420.059 446.926 439.119L292.711 564.171C278.419 575.657 263.293 581.982 251.334 581.982ZM340.255 340.117C314.546 340.117 277.044 372.327 269.71 402.456L233.667 551.229C230.875 562.756 233.084 571.495 239.917 575.782C249.209 581.649 268.46 579.485 290.628 561.508L444.843 436.497C470.136 415.981 480.178 390.221 476.761 376.447C475.136 369.955 470.636 365.752 463.76 364.378L345.589 340.616C343.88 340.242 342.088 340.117 340.255 340.117Z" fill="url(#paint2_linear_513_4178)"/>
<path d="M250.618 599.586C245.951 599.586 241.701 598.629 238.076 596.715C229.2 591.929 225.492 581.858 227.659 568.375L253.16 409.032C259.035 372.286 304.12 331.171 334.913 334.417L468.002 348.524C477.461 349.523 483.92 354.475 486.712 362.881C492.712 381.025 479.836 409.989 456.085 431.712L297.495 576.948C281.619 591.471 264.285 599.586 250.618 599.586ZM331.413 337.496C302.662 337.496 261.743 376.157 256.41 409.532L230.909 568.875C228.992 580.901 232.075 589.765 239.659 593.802C250.493 599.628 271.91 595.924 295.286 574.493L453.877 429.257C479.461 405.828 488.295 378.071 483.586 363.839C481.253 356.764 475.753 352.603 467.669 351.729L334.58 337.621C333.538 337.538 332.455 337.496 331.413 337.496Z" fill="url(#paint3_linear_513_4178)"/>
<path d="M251.464 618.063C247.214 618.063 243.256 617.314 239.755 615.733C230.047 611.363 225.255 601.292 226.296 587.351L239.047 417.938C242.005 378.903 287.716 331.587 322.134 332.294L470.807 334.875C481.641 335.083 489.35 339.91 493.058 348.899C500.767 367.459 489.183 398.67 465.515 423.098L304.05 589.932C286.757 607.826 267.09 618.063 251.464 618.063ZM321.509 335.582C289.299 335.582 245.089 381.566 242.339 418.187L229.588 587.601C228.63 600.086 232.755 608.991 241.089 612.737C256.006 619.437 280.924 609.116 301.716 587.643L463.182 420.809C488.975 394.134 496.225 365.087 490.058 350.147C486.891 342.448 480.224 338.329 470.807 338.162L322.134 335.582C321.884 335.582 321.717 335.582 321.509 335.582Z" fill="url(#paint4_linear_513_4178)"/>
<path d="M254.118 637.415C250.326 637.415 246.743 636.832 243.451 635.625C232.784 631.755 226.825 621.767 226.617 607.41L224.325 428.592C223.783 387.434 269.827 333.793 307.787 331.255L472.628 320.351L472.753 321.974L472.628 320.351C484.795 319.561 494.129 324.346 498.879 333.835C508.504 353.019 498.754 385.645 475.128 413.236L312.579 602.957C294.036 624.68 271.869 637.415 254.118 637.415ZM475.294 323.556C474.503 323.556 473.669 323.597 472.836 323.639L307.995 334.542C272.16 336.914 227.075 389.64 227.575 428.55L229.867 607.369C230.034 620.436 235.117 629.133 244.534 632.546C261.785 638.788 288.745 625.762 310.12 600.835L472.669 411.113C498.045 381.484 503.629 350.564 495.962 335.333C492.087 327.592 484.962 323.556 475.294 323.556Z" fill="url(#paint5_linear_513_4178)"/>
<path d="M258.456 657.39C255.331 657.39 252.331 657.016 249.498 656.225C237.789 652.979 230.497 643.116 228.914 628.426L209.038 441.118C204.454 398.047 250.123 337.58 291.875 331.463L473.258 304.913C487.05 302.874 498.009 307.41 504.051 317.605C515.593 337.039 507.676 371.705 484.841 401.959L323.334 615.817C303.958 641.493 278.624 657.39 258.456 657.39ZM473.508 306.577L473.758 308.2L292.333 334.751C252.831 340.535 207.954 400.003 212.288 440.785L232.164 628.093C233.58 641.535 239.872 650.149 250.331 653.062C270.165 658.555 299.083 642.45 320.668 613.903L482.175 400.044C504.259 370.831 512.051 337.622 501.217 319.353C495.8 310.24 486.3 306.369 473.716 308.242L473.508 306.577Z" fill="url(#paint6_linear_513_4178)"/>
<path d="M265.34 677.988C262.923 677.988 260.589 677.78 258.298 677.322C245.422 674.825 236.588 665.212 233.505 650.273L193.336 455.682C184.086 410.946 228.713 343.405 274.257 333.21L472.474 288.765C488.058 285.269 500.808 289.389 508.392 300.334C521.892 319.893 516.184 356.514 494.475 389.389L336.468 628.425C316.467 658.637 288.257 677.988 265.34 677.988ZM472.849 290.346L473.224 291.969L275.007 336.414C231.796 346.11 187.836 412.611 196.587 455.016L236.755 649.607C239.588 663.381 247.255 671.871 258.964 674.118C281.632 678.487 312.383 658.928 333.718 626.635L491.724 387.6C512.725 355.806 518.476 320.725 505.683 302.207C498.808 292.261 487.558 288.723 473.182 291.969L472.849 290.346Z" fill="url(#paint7_linear_513_4178)"/>
<path d="M274.695 698.962C273.195 698.962 271.737 698.878 270.237 698.712C255.986 697.172 245.486 687.975 240.694 672.703L177.357 472.327C170.899 451.895 175.441 424.554 189.858 397.338C205.817 367.125 230.776 343.863 254.986 336.58L470.079 271.786L470.537 273.367L470.079 271.786C487.579 266.501 502.413 270.08 511.747 281.815C527.623 301.748 524.456 339.285 503.913 375.199L352.157 640.368C331.989 675.574 300.78 698.962 274.695 698.962ZM484.996 272.701C480.621 272.701 475.912 273.45 470.995 274.907L255.944 339.743C232.568 346.776 208.359 369.456 192.775 398.877C178.983 424.928 174.399 452.061 180.524 471.37L243.86 671.746C248.319 685.853 257.569 694.051 270.612 695.466C296.279 698.212 328.614 674.908 349.282 638.745L501.038 373.576C520.623 339.327 523.956 302.456 509.164 283.854C503.288 276.488 494.955 272.701 484.996 272.701Z" fill="url(#paint8_linear_513_4178)"/>
<path d="M286.803 720.102C286.47 720.102 286.178 720.102 285.845 720.102C270.053 719.769 257.636 711.113 250.885 695.632L161.34 491.303C152.548 471.287 154.506 443.28 166.632 414.441C181.174 379.901 207.008 352.102 234.009 341.865L465.77 254.224C485.312 246.817 502.396 249.646 513.855 262.214C531.981 282.064 531.648 321.182 512.938 359.509L370.682 651.479C350.973 692.053 316.596 720.102 286.803 720.102ZM466.353 255.805L466.936 257.345L235.176 344.944C208.967 354.849 183.882 381.981 169.673 415.731C157.881 443.696 155.964 470.787 164.381 489.972L253.927 694.3C260.261 708.741 271.344 716.523 285.97 716.814C314.763 717.355 348.39 689.931 367.807 650.064L510.063 358.095C528.147 320.933 528.731 283.313 511.48 264.461C500.98 252.976 485.187 250.437 466.978 257.345L466.353 255.805Z" fill="url(#paint9_linear_513_4178)"/>
<path d="M302.052 741.16C286.051 741.16 272.759 733.253 264.342 718.688L145.42 512.653C134.128 493.094 133.253 464.505 142.961 434.209C155.379 395.466 181.546 362.965 211.298 349.398L459.35 236.248L460.017 237.746L459.35 236.248C481.059 226.343 500.685 228.216 514.603 241.533C535.479 261.466 538.187 301 521.52 342.24L392.389 661.426C374.346 705.995 338.637 738.746 305.552 741.035C304.343 741.118 303.177 741.16 302.052 741.16ZM485.393 233.293C477.726 233.293 469.392 235.249 460.684 239.244L212.631 352.353C183.713 365.545 158.212 397.255 146.086 435.166C136.669 464.588 137.461 492.262 148.253 510.988L267.175 717.023C275.675 731.713 288.843 738.871 305.302 737.747C337.178 735.542 371.721 703.623 389.305 660.177L518.436 340.992C534.353 301.624 531.895 262.631 512.311 243.905C504.894 236.872 495.727 233.293 485.393 233.293Z" fill="url(#paint10_linear_513_4178)"/>
<path d="M320.624 761.884C304.874 761.884 291.206 754.892 281.414 741.659L129.824 536.498C115.782 517.522 111.865 488.35 119.032 456.514C128.491 414.525 155.117 376.364 186.827 359.344L450.422 217.978C473.964 205.369 496.965 206.035 513.55 219.851C537.051 239.41 543.217 280.068 529.217 323.389L417.212 669.915C401.753 717.772 365.793 755.267 329.75 761.135C326.666 761.634 323.625 761.884 320.624 761.884ZM451.213 219.393L452.005 220.85L188.41 362.215C157.492 378.82 131.491 416.106 122.241 457.18C115.282 488.1 118.991 516.273 132.491 534.501L284.081 739.661C295.123 754.56 310.707 760.843 329.25 757.847C364.126 752.146 399.003 715.566 414.087 668.833L526.092 322.307C539.676 280.276 533.925 240.991 511.466 222.306C495.757 209.198 474.631 208.657 452.005 220.808L451.213 219.393Z" fill="url(#paint11_linear_513_4178)"/>
<path d="M342.797 781.901C327.422 781.901 313.546 775.826 302.629 764.132L114.912 562.883C97.8283 544.531 90.578 514.818 95.0365 481.318C101.12 435.874 126.913 392.969 160.789 371.954L438.843 199.544L439.718 200.959L438.843 199.544C464.553 183.606 490.721 182.69 510.638 197.089C536.973 216.107 546.89 257.597 535.973 302.832L445.594 676.491C433.343 727.178 397.8 769.625 359.173 779.737C353.59 781.194 348.089 781.901 342.797 781.901ZM440.593 202.374L162.54 374.742C129.455 395.258 104.245 437.248 98.2867 481.734C93.9532 514.235 100.87 542.991 117.288 560.635L305.004 761.885C318.838 776.699 337.797 781.901 358.34 776.533C395.841 766.712 430.426 725.222 442.427 675.7L532.806 302.041C543.431 258.138 533.972 217.979 508.721 199.752C489.929 186.186 465.136 187.143 440.593 202.374Z" fill="url(#paint12_linear_513_4178)"/>
<path d="M368.721 800.918C353.846 800.918 339.97 795.8 328.219 785.77L100.918 591.929C80.3336 574.367 69.4164 544.03 71.0415 508.741C73.2083 460.384 97.626 412.819 133.211 387.6L424.265 181.357L425.224 182.689L424.265 181.357C452.1 161.632 481.684 158.76 505.394 173.492C535.228 191.969 549.021 233.043 541.437 280.692L477.643 680.776C469.059 734.584 435.516 780.943 394.181 796.132C385.514 799.337 376.972 800.918 368.721 800.918ZM472.767 167.499C457.642 167.499 441.641 173.034 426.182 184.021L135.086 390.263C100.293 414.941 76.4168 461.466 74.2917 508.866C72.7499 543.156 83.2087 572.536 103.043 589.432L330.303 783.273C347.679 798.088 369.93 801.542 393.014 793.053C433.266 778.238 465.975 732.92 474.351 680.235L538.145 280.151C545.521 233.875 532.312 194.05 503.602 176.28C494.185 170.413 483.726 167.499 472.767 167.499Z" fill="url(#paint13_linear_513_4178)"/>
<path d="M398.631 818.52C384.464 818.52 370.88 814.359 358.629 806.119L88.2422 623.68C63.6578 607.075 48.6571 576.156 47.1154 538.744C44.9903 488.016 67.408 436.08 104.201 406.534L406.381 163.587C436.174 139.617 469.384 134.373 497.552 149.146C530.72 166.541 549.054 207.865 545.387 257.012L513.594 682.398C509.427 737.871 477.968 789.015 435.299 809.656C422.965 815.566 410.59 818.52 398.631 818.52ZM407.381 164.835L408.423 166.125L106.243 409.072C70.2414 438.036 48.3238 488.848 50.4072 538.619C51.949 574.949 66.4079 604.953 90.1173 620.933L360.504 803.372C382.088 817.938 408.131 819.103 433.841 806.66C475.509 786.518 506.26 736.456 510.302 682.107L542.095 256.721C545.679 208.947 528.011 168.83 496.01 152.018C469.092 137.869 437.174 143.029 408.423 166.125L407.381 164.835Z" fill="url(#paint14_linear_513_4178)"/>
<path d="M432.728 834.293C419.477 834.293 406.477 831.089 394.226 824.639L77.2538 658.096C48.0858 642.782 28.4183 611.196 23.3764 571.454C16.6678 518.895 36.502 463.006 73.8786 429.007L384.809 146.567C416.31 117.936 453.395 109.738 486.522 124.137C523.398 140.117 546.691 181.357 547.358 231.753L553.4 680.735C554.15 738.08 526.399 792.429 482.605 819.229C466.313 829.258 449.312 834.293 432.728 834.293ZM385.934 147.774L387.059 148.981L76.1287 431.42C39.5021 464.712 20.0846 519.477 26.6682 570.997C31.5851 609.657 50.6276 640.327 78.8372 655.142L395.809 821.684C422.352 835.625 452.604 833.752 480.938 816.399C523.732 790.182 550.9 736.956 550.15 680.735L544.108 231.794C543.441 182.689 520.898 142.614 485.23 127.133C453.354 113.317 417.56 121.265 387.017 148.981L385.934 147.774Z" fill="url(#paint15_linear_513_4178)"/>
<path d="M470.726 847.569C458.768 847.569 446.85 845.322 435.433 840.786L68.4588 695.175C33.9573 681.484 8.99786 649.358 -0.0442069 606.952C-11.7114 552.354 4.62267 494.259 42.5827 455.391L359.347 130.713C391.723 97.5039 433.85 85.5605 471.935 98.7107C513.478 113.068 541.605 152.852 547.188 205.12L597.399 675.408C603.566 733.045 579.648 791.43 536.521 824.14C516.103 839.579 493.311 847.569 470.726 847.569ZM360.513 131.836L361.68 133.001L44.9161 457.68C7.7478 495.799 -8.2529 552.728 3.16427 606.286C11.998 647.568 36.2074 678.862 69.6672 692.138L436.642 837.748C468.56 850.399 504.228 844.489 534.521 821.518C576.773 789.475 600.149 732.254 594.107 675.741L543.896 205.453C538.438 154.475 511.145 115.731 470.851 101.832C433.975 89.0977 393.181 100.75 361.68 133.001L360.513 131.836Z" fill="url(#paint16_linear_513_4178)"/>
<path d="M513.197 858.222C502.988 858.222 492.696 856.807 482.57 853.935L62.2604 734.875C21.6753 723.39 -9.40944 690.764 -23.035 645.404C-39.6191 590.139 -26.7852 529.007 10.4248 485.853L329.564 116.355C362.815 77.8196 409.026 61.673 453.111 73.0755C499.238 85.0189 533.364 123.929 544.365 177.112L645.536 665.67C657.578 723.889 638.952 784.314 596.909 823.348C572.408 846.195 542.99 858.222 513.197 858.222ZM330.814 117.478L332.064 118.56L12.9249 488.058C-23.6184 530.339 -36.1606 590.306 -19.9099 644.488C-6.61765 688.766 23.6337 720.56 63.1354 731.754L483.446 850.814C521.989 861.717 562.532 850.897 594.659 821.018C635.869 782.732 654.12 723.515 642.286 666.419L541.115 177.862C530.364 125.926 497.154 87.9736 452.236 76.363C409.359 65.2519 364.44 81.0239 332.022 118.602L330.814 117.478Z" fill="url(#paint17_linear_513_4178)"/>
<path d="M559.772 865.548C551.897 865.548 543.98 864.84 535.979 863.384L59.2085 777.074C11.6231 768.46 -26.5036 735.626 -45.4211 687.02C-66.9637 631.631 -58.0467 567.919 -22.1701 520.811L295.26 104.122L296.552 105.12L295.26 104.122C328.804 60.0933 378.931 39.0362 429.391 47.8169C480.644 56.7225 521.437 94.2174 538.563 148.15L697.945 651.19C716.112 708.493 702.987 771.748 663.693 816.317C635.484 848.277 598.565 865.548 559.772 865.548ZM406.89 49.1486C365.389 49.1486 325.762 69.4982 297.886 106.119L-19.545 522.808C-54.7548 569.042 -63.5052 631.506 -42.3376 685.813C-23.8368 733.337 13.3731 765.422 59.8335 773.828L536.646 860.179C582.69 868.502 628.15 851.731 661.277 814.112C699.778 770.416 712.654 708.368 694.82 652.147L535.438 149.149C518.729 96.3814 478.893 59.7187 428.85 51.0629C421.516 49.7728 414.141 49.1486 406.89 49.1486Z" fill="url(#paint18_linear_513_4178)"/>
<path d="M609.427 868.999C604.969 868.999 600.552 868.791 596.052 868.416L59.9033 821.6C5.19259 816.814 -42.2262 783.314 -66.9356 731.962C-93.8117 676.115 -89.2699 611.986 -54.8934 560.425L256.079 94.3815L257.454 95.297L256.079 94.3815C289.122 44.8183 342.916 18.2265 399.96 23.1786C457.004 28.1724 505.339 63.7114 529.299 118.227L754.475 631.129C779.393 687.892 772.685 751.812 736.516 802.166C706.015 844.654 659.221 868.999 609.427 868.999ZM386.418 25.8836C335.624 25.8836 288.622 51.5183 258.829 96.2126L-52.1433 562.257C-85.8947 612.86 -90.3116 675.782 -63.9771 730.547C-39.7677 780.817 6.60932 813.651 60.1533 818.312L596.302 865.171C649.846 869.831 701.265 845.57 733.849 800.251C769.309 750.855 775.893 688.141 751.475 632.461L526.299 119.558C502.839 66.1251 455.504 31.3351 399.71 26.4662C395.251 26.0916 390.793 25.8836 386.418 25.8836Z" fill="url(#paint19_linear_513_4178)"/>
<path d="M662.979 868.209H64.9947C1.45025 868.209 -55.4272 835.417 -87.1786 780.444C-118.93 725.512 -118.93 659.886 -87.1786 604.954L211.793 87.7656C243.544 32.7924 300.463 0 363.966 0C427.511 0 484.388 32.7924 516.139 87.7656L815.111 604.954C846.862 659.886 846.862 725.512 815.111 780.444C783.401 835.375 726.482 868.209 662.979 868.209ZM213.21 88.5563L214.626 89.3886L-84.3452 606.577C-115.513 660.51 -115.513 724.888 -84.3452 778.779C-53.1771 832.712 2.65864 864.88 64.9947 864.88H662.979C725.315 864.88 781.151 832.67 812.319 778.779C843.487 724.846 843.487 660.468 812.319 606.577L513.306 89.3886C482.138 35.4558 426.302 3.28757 363.966 3.28757C301.63 3.28757 245.794 35.4974 214.626 89.3886L213.21 88.5563Z" fill="url(#paint20_linear_513_4178)"/>
</g>
<defs>
<linearGradient id="paint0_linear_513_4178" x1="236.529" y1="446.776" x2="465.726" y2="446.776" gradientUnits="userSpaceOnUse">
<stop stop-color="#83A4D4"/>
<stop offset="0.9543" stop-color="#B4F7FD"/>
<stop offset="0.9994" stop-color="#B6FBFF"/>
</linearGradient>
<linearGradient id="paint1_linear_513_4178" x1="232.379" y1="452.738" x2="473.221" y2="452.738" gradientUnits="userSpaceOnUse">
<stop stop-color="#83A4D4"/>
<stop offset="0.9543" stop-color="#B4F7FD"/>
<stop offset="0.9994" stop-color="#B6FBFF"/>
</linearGradient>
<linearGradient id="paint2_linear_513_4178" x1="229.193" y1="459.399" x2="480.744" y2="459.399" gradientUnits="userSpaceOnUse">
<stop stop-color="#83A4D4"/>
<stop offset="0.9543" stop-color="#B4F7FD"/>
<stop offset="0.9994" stop-color="#B6FBFF"/>
</linearGradient>
<linearGradient id="paint3_linear_513_4178" x1="227.058" y1="466.891" x2="488.163" y2="466.891" gradientUnits="userSpaceOnUse">
<stop stop-color="#83A4D4"/>
<stop offset="0.9543" stop-color="#B4F7FD"/>
<stop offset="0.9994" stop-color="#B6FBFF"/>
</linearGradient>
<linearGradient id="paint4_linear_513_4178" x1="226.159" y1="475.184" x2="495.442" y2="475.184" gradientUnits="userSpaceOnUse">
<stop stop-color="#83A4D4"/>
<stop offset="0.9543" stop-color="#B4F7FD"/>
<stop offset="0.9994" stop-color="#B6FBFF"/>
</linearGradient>
<linearGradient id="paint5_linear_513_4178" x1="224.31" y1="478.835" x2="502.573" y2="478.835" gradientUnits="userSpaceOnUse">
<stop stop-color="#83A4D4"/>
<stop offset="0.9543" stop-color="#B4F7FD"/>
<stop offset="0.9994" stop-color="#B6FBFF"/>
</linearGradient>
<linearGradient id="paint6_linear_513_4178" x1="208.726" y1="480.929" x2="509.321" y2="480.929" gradientUnits="userSpaceOnUse">
<stop stop-color="#83A4D4"/>
<stop offset="0.9543" stop-color="#B4F7FD"/>
<stop offset="0.9994" stop-color="#B6FBFF"/>
</linearGradient>
<linearGradient id="paint7_linear_513_4178" x1="192.133" y1="482.747" x2="515.686" y2="482.747" gradientUnits="userSpaceOnUse">
<stop stop-color="#83A4D4"/>
<stop offset="0.9543" stop-color="#B4F7FD"/>
<stop offset="0.9994" stop-color="#B6FBFF"/>
</linearGradient>
<linearGradient id="paint8_linear_513_4178" x1="174.499" y1="484.182" x2="521.784" y2="484.182" gradientUnits="userSpaceOnUse">
<stop stop-color="#83A4D4"/>
<stop offset="0.9543" stop-color="#B4F7FD"/>
<stop offset="0.9994" stop-color="#B6FBFF"/>
</linearGradient>
<linearGradient id="paint9_linear_513_4178" x1="155.909" y1="485.152" x2="527.243" y2="485.152" gradientUnits="userSpaceOnUse">
<stop stop-color="#83A4D4"/>
<stop offset="0.9543" stop-color="#B4F7FD"/>
<stop offset="0.9994" stop-color="#B6FBFF"/>
</linearGradient>
<linearGradient id="paint10_linear_513_4178" x1="136.254" y1="485.572" x2="532.348" y2="485.572" gradientUnits="userSpaceOnUse">
<stop stop-color="#83A4D4"/>
<stop offset="0.9543" stop-color="#B4F7FD"/>
<stop offset="0.9994" stop-color="#B6FBFF"/>
</linearGradient>
<linearGradient id="paint11_linear_513_4178" x1="115.522" y1="485.406" x2="536.644" y2="485.406" gradientUnits="userSpaceOnUse">
<stop stop-color="#83A4D4"/>
<stop offset="0.9543" stop-color="#B4F7FD"/>
<stop offset="0.9994" stop-color="#B6FBFF"/>
</linearGradient>
<linearGradient id="paint12_linear_513_4178" x1="93.7302" y1="484.417" x2="540.35" y2="484.417" gradientUnits="userSpaceOnUse">
<stop stop-color="#83A4D4"/>
<stop offset="0.9543" stop-color="#B4F7FD"/>
<stop offset="0.9994" stop-color="#B6FBFF"/>
</linearGradient>
<linearGradient id="paint13_linear_513_4178" x1="70.8715" y1="482.553" x2="543.5" y2="482.553" gradientUnits="userSpaceOnUse">
<stop stop-color="#83A4D4"/>
<stop offset="0.9543" stop-color="#B4F7FD"/>
<stop offset="0.9994" stop-color="#B6FBFF"/>
</linearGradient>
<linearGradient id="paint14_linear_513_4178" x1="46.9633" y1="479.697" x2="545.813" y2="479.697" gradientUnits="userSpaceOnUse">
<stop stop-color="#83A4D4"/>
<stop offset="0.9543" stop-color="#B4F7FD"/>
<stop offset="0.9994" stop-color="#B6FBFF"/>
</linearGradient>
<linearGradient id="paint15_linear_513_4178" x1="22.0934" y1="475.727" x2="553.443" y2="475.727" gradientUnits="userSpaceOnUse">
<stop stop-color="#83A4D4"/>
<stop offset="0.9543" stop-color="#B4F7FD"/>
<stop offset="0.9994" stop-color="#B6FBFF"/>
</linearGradient>
<linearGradient id="paint16_linear_513_4178" x1="-3.75187" y1="470.501" x2="598.36" y2="470.501" gradientUnits="userSpaceOnUse">
<stop stop-color="#83A4D4"/>
<stop offset="0.9543" stop-color="#B4F7FD"/>
<stop offset="0.9994" stop-color="#B6FBFF"/>
</linearGradient>
<linearGradient id="paint17_linear_513_4178" x1="-30.1712" y1="463.875" x2="649.182" y2="463.875" gradientUnits="userSpaceOnUse">
<stop stop-color="#83A4D4"/>
<stop offset="0.9543" stop-color="#B4F7FD"/>
<stop offset="0.9994" stop-color="#B6FBFF"/>
</linearGradient>
<linearGradient id="paint18_linear_513_4178" x1="-57.0049" y1="455.699" x2="705.967" y2="455.699" gradientUnits="userSpaceOnUse">
<stop stop-color="#83A4D4"/>
<stop offset="0.9543" stop-color="#B4F7FD"/>
<stop offset="0.9994" stop-color="#B6FBFF"/>
</linearGradient>
<linearGradient id="paint19_linear_513_4178" x1="-84.2826" y1="445.803" x2="769.341" y2="445.803" gradientUnits="userSpaceOnUse">
<stop stop-color="#83A4D4"/>
<stop offset="0.9543" stop-color="#B4F7FD"/>
<stop offset="0.9994" stop-color="#B6FBFF"/>
</linearGradient>
<linearGradient id="paint20_linear_513_4178" x1="-111.013" y1="434.098" x2="838.977" y2="434.098" gradientUnits="userSpaceOnUse">
<stop stop-color="#83A4D4"/>
<stop offset="0.9543" stop-color="#B4F7FD"/>
<stop offset="0.9994" stop-color="#B6FBFF"/>
</linearGradient>
<clipPath id="clip0_513_4178">
<rect width="950" height="869" fill="white" transform="translate(-111)"/>
</clipPath>
</defs>
</svg>
