<svg width="615" height="684" viewBox="0 0 615 684" fill="none" xmlns="http://www.w3.org/2000/svg">
<g clip-path="url(#clip0_545_4133)">
<path d="M200.466 533.73C187.418 533.73 177.027 530.099 169.831 522.768C152.21 504.777 156.01 465.97 180.256 416.335C227.57 319.419 338.643 206.967 427.825 165.672C468.548 146.807 499.62 145.26 515.291 161.267C532.912 179.258 529.112 218.065 504.866 267.7C457.552 364.615 346.479 477.067 257.297 518.362C235.204 528.585 215.935 533.73 200.466 533.73ZM428.228 166.547L428.665 167.455C339.854 208.582 229.218 320.596 182.071 417.176C158.229 466.037 154.295 504.003 171.277 521.322C186.342 536.69 216.607 534.975 256.49 516.513C345.302 475.386 455.937 363.371 503.084 266.792C526.926 217.93 530.861 179.964 513.878 162.646C498.813 147.278 468.582 148.993 428.665 167.455L428.228 166.547Z" fill="url(#paint0_linear_545_4133)"/>
<path d="M191.084 536.32C175.817 536.32 163.947 531.948 156.28 523.171C138.322 502.692 144.913 460.388 174.371 407.155C229.958 306.708 350.38 195.467 442.823 159.216C483.412 143.276 513.98 143.848 528.844 160.83C546.801 181.309 540.21 223.613 510.752 276.846C455.165 377.293 334.743 488.534 242.3 524.785C222.661 532.486 205.376 536.32 191.084 536.32ZM494.039 149.632C480.016 149.632 463 153.432 443.563 161.065C351.49 197.182 231.539 308.019 176.12 408.096C147.099 460.556 140.407 502.019 157.759 521.826C172.017 538.102 201.778 538.472 241.526 522.868C333.6 486.752 453.551 375.914 508.97 275.838C537.991 223.378 544.682 181.915 527.33 162.108C520.033 153.802 508.701 149.632 494.039 149.632Z" fill="url(#paint1_linear_545_4133)"/>
<path d="M182.469 538.303C164.478 538.303 150.859 532.989 142.654 522.498C124.461 499.227 134.179 453.358 169.321 396.662C233.449 293.155 363.118 184.133 458.353 153.632C498.572 140.753 528.433 143.51 542.456 161.434C560.649 184.705 550.931 230.573 515.789 287.27C451.661 390.777 321.991 499.799 226.757 530.299C210.078 535.68 195.18 538.303 182.469 538.303ZM502.641 147.647C490.131 147.647 475.469 150.27 458.958 155.549C364.094 185.949 234.929 294.567 171.002 397.738C136.332 453.661 126.579 498.689 144.234 521.287C157.685 538.504 186.773 541.027 226.118 528.416C320.983 498.016 450.148 389.398 514.074 286.228C548.745 230.304 558.497 185.276 540.842 162.678C533.041 152.691 519.959 147.647 502.641 147.647Z" fill="url(#paint2_linear_545_4133)"/>
<path d="M174.436 539.851C153.317 539.851 137.882 533.394 129.071 520.649C110.845 494.251 123.994 444.784 165.188 384.893C238.093 278.898 376.775 173.138 474.33 149.127C514.515 139.241 542.763 144.15 556.046 163.352C574.272 189.75 561.124 239.217 519.929 299.108C447.024 405.103 308.342 510.863 210.787 534.874C197.303 538.203 185.129 539.851 174.436 539.851ZM510.682 146.134C500.156 146.134 488.151 147.782 474.767 151.078C377.616 174.987 239.472 280.411 166.802 386.036C126.112 445.188 112.964 493.848 130.686 519.506C143.431 537.967 170.972 542.608 210.283 532.923C307.434 509.014 445.578 403.59 518.248 297.965C558.938 238.813 572.086 190.153 554.364 164.495C545.957 152.322 531.127 146.134 510.682 146.134Z" fill="url(#paint3_linear_545_4133)"/>
<path d="M168.137 540.658C142.848 540.658 124.891 532.789 115.61 517.421C97.5514 487.56 114.5 434.461 162.117 371.711C243.968 263.866 391.359 162.478 490.629 145.698L490.797 146.673L490.629 145.698C529.973 139.039 557.246 146.269 569.52 166.513C587.578 196.375 570.63 249.474 523.012 312.223C441.162 420.068 293.771 521.457 194.501 538.237C184.984 539.885 176.174 540.658 168.137 540.658ZM516.993 145.328C509.057 145.328 500.347 146.101 490.931 147.715C392.065 164.429 245.279 265.447 163.664 372.956C117.257 434.091 99.9054 487.728 117.291 516.412C129.094 535.917 155.694 542.81 194.165 536.32C293.031 519.607 439.817 418.589 521.432 311.08C567.838 249.944 585.19 196.308 567.805 167.623C558.86 152.861 541.508 145.328 516.993 145.328Z" fill="url(#paint4_linear_545_4133)"/>
<path d="M163.646 541.061C133.112 541.061 112.061 531.41 102.309 512.747C84.9906 479.556 106.613 421.413 160.183 357.184C251.146 248.162 406.777 152.322 507.156 143.579C545.458 140.25 571.621 149.8 582.819 171.221C600.137 204.412 578.515 262.554 524.945 326.784C433.982 435.806 278.351 531.645 177.972 540.389C172.995 540.859 168.22 541.061 163.646 541.061ZM507.223 144.588L507.324 145.596C407.415 154.306 252.357 249.809 161.696 358.495C108.665 422.052 87.1091 479.388 104.058 511.839C114.852 532.486 140.342 541.7 177.77 538.438C277.679 529.729 432.737 434.225 523.398 325.54C576.43 261.983 597.985 204.647 581.037 172.196C570.242 151.549 544.752 142.335 507.324 145.596L507.223 144.588Z" fill="url(#paint5_linear_545_4133)"/>
<path d="M161.362 541.162C161.328 541.162 161.328 541.162 161.328 541.162C124.236 541.162 99.318 529.156 89.3305 506.457C72.8864 469.097 99.1162 407.322 159.546 341.277C259.622 231.852 423.021 142.838 523.804 142.838C523.837 142.838 523.837 142.838 523.837 142.838C560.929 142.838 585.847 154.844 595.835 177.576C612.279 214.937 586.049 276.711 525.62 342.757C425.509 452.148 262.145 541.162 161.362 541.162ZM523.77 144.822C423.492 144.822 260.766 233.533 160.992 342.622C101.134 408.062 75.005 469.03 91.1464 505.65C100.798 527.576 125.077 539.177 161.328 539.177H161.362C261.64 539.177 424.366 450.467 524.14 341.378C583.998 275.938 610.127 214.97 593.985 178.35C584.334 156.424 560.055 144.822 523.804 144.822H523.77Z" fill="url(#paint6_linear_545_4133)"/>
<path d="M161.45 541.162C155.633 541.162 150.017 540.893 144.603 540.389C108.822 536.958 85.3165 522.431 76.6741 498.286C61.6088 456.352 92.8492 391.181 160.24 323.959C269.497 214.937 440.091 134.028 540.505 143.579C576.285 147.009 599.791 161.536 608.433 185.681C623.498 227.615 592.258 292.786 524.868 360.008C421.495 463.179 263.242 541.162 161.45 541.162ZM523.556 144.823C422.269 144.823 264.654 222.571 161.618 325.371C94.7996 392.022 63.761 456.42 78.5237 497.614C86.897 520.952 109.798 535.075 144.771 538.404C244.646 547.921 414.501 467.281 523.422 358.629C590.24 291.979 621.279 227.581 606.516 186.387C598.143 163.049 575.242 148.925 540.269 145.596C534.922 145.058 529.34 144.823 523.556 144.823Z" fill="url(#paint7_linear_545_4133)"/>
<path d="M164.382 541.33C151.402 541.33 139.262 540.254 128.064 538.001C93.6962 531.107 71.7372 513.856 64.608 488.097C51.6276 441.22 88.2149 372.888 162.465 305.295C280.836 197.585 457.853 126.126 557.022 146C591.39 152.894 613.349 170.145 620.478 195.904C633.459 242.781 596.871 311.113 522.621 378.705C417.634 474.276 266.409 541.296 164.382 541.33ZM520.603 144.655C419.08 144.655 268.494 211.473 163.811 306.741C90.1316 373.796 53.7462 441.388 66.5248 487.525C73.4522 512.511 94.8732 529.258 128.468 535.983C139.565 538.203 151.637 539.279 164.517 539.279C266.04 539.279 416.625 472.46 521.309 377.192C594.988 310.138 631.374 242.546 618.595 196.408C611.668 171.423 590.247 154.676 556.652 147.95C545.555 145.731 533.483 144.655 520.603 144.655Z" fill="url(#paint8_linear_545_4133)"/>
<path d="M170.606 541.901C148.849 541.901 128.975 539.278 111.791 533.83C78.8694 523.338 58.6254 503.195 53.2449 475.553C43.1229 423.43 85.3932 352.307 166.336 285.32C293.651 179.896 476.251 119.265 573.335 150.203C606.257 160.695 626.501 180.838 631.881 208.48C642.003 260.603 599.733 331.726 518.79 398.713C414.006 485.473 271.793 541.901 170.606 541.901ZM514.385 144.082C413.703 144.082 272.062 200.342 167.614 286.833C87.2764 353.383 45.2414 423.766 55.2289 475.15C60.4413 502.018 80.2145 521.657 112.396 531.914C208.942 562.683 390.668 502.22 517.513 397.166C597.85 330.617 639.885 260.233 629.897 208.85C624.685 181.981 604.912 162.342 572.73 152.086C555.68 146.672 535.974 144.082 514.385 144.082Z" fill="url(#paint9_linear_545_4133)"/>
<path d="M180.519 543.28C148.102 543.28 119.148 538.27 95.911 527.744C64.4352 513.452 46.0743 490.115 42.8124 460.253C36.524 402.749 84.7801 329.373 171.91 263.966C307.935 161.872 495.142 113.549 589.2 156.256C620.675 170.548 639.036 193.886 642.298 223.747C648.586 281.251 600.33 354.627 513.2 420.034C410.77 496.907 279.351 543.28 180.519 543.28ZM504.491 142.67C406.163 142.67 275.215 188.942 173.121 265.614C86.5624 330.583 38.6089 403.287 44.8301 460.085C48.0247 489.207 65.9821 511.973 96.7517 525.962C190.204 568.4 376.503 520.178 512.023 418.453C598.582 353.484 646.535 280.78 640.314 223.983C637.119 194.861 619.162 172.095 588.392 158.106C565.324 147.614 536.639 142.67 504.491 142.67Z" fill="url(#paint10_linear_545_4133)"/>
<path d="M194.311 545.937C149.215 545.937 109.669 537.496 80.6145 519.674C50.6183 501.279 34.376 474.377 33.6362 441.926C32.2238 379.041 86.6675 304.118 179.313 241.469C323.745 143.78 514.482 109.177 604.471 164.327C634.467 182.721 650.709 209.59 651.449 242.075C652.861 304.959 598.418 379.882 505.773 442.565C407.983 508.711 288.94 545.937 194.311 545.937ZM490.741 140.014C396.583 140.014 277.977 177.139 180.456 243.117C88.4161 305.396 34.2751 379.68 35.6539 441.892C36.3601 473.637 52.2661 499.968 81.6905 517.992C171.074 572.806 360.836 538.203 504.697 440.917C596.736 378.638 650.877 304.354 649.499 242.142C648.792 210.397 632.886 184.067 603.462 166.042C574.643 148.387 535.466 140.014 490.741 140.014Z" fill="url(#paint11_linear_545_4133)"/>
<path d="M211.791 550.275C152.135 550.275 100.348 536.992 66.1143 509.451C37.5978 486.516 23.8103 455.612 26.1643 420.034C30.704 352.106 91.4698 276.443 188.655 217.728C341.09 125.621 534.115 106.252 618.992 174.516C647.508 197.451 661.296 228.355 658.942 263.933C654.402 331.862 593.636 407.524 496.451 466.239C405.488 521.221 300.064 550.275 211.791 550.275ZM473.315 135.642C385.445 135.642 280.392 164.663 189.697 219.477C93.0503 277.889 32.6545 352.913 28.1483 420.202C25.7944 455.074 39.38 485.407 67.3585 507.904C151.63 575.698 343.646 556.227 495.409 464.524C592.056 406.112 652.451 331.088 656.958 263.799C659.312 228.926 645.726 198.594 617.747 176.097C583.85 148.791 532.467 135.642 473.315 135.642Z" fill="url(#paint12_linear_545_4133)"/>
<path d="M232.169 556.833C156.438 556.833 90.7967 536.993 52.5281 497.076C25.5921 468.997 14.663 433.452 20.9178 394.343C32.4522 321.976 99.4391 246.716 200.054 193.012C359.955 107.698 553.955 104.974 632.577 186.959C659.513 215.039 670.442 250.583 664.187 289.693C652.653 362.06 585.666 437.32 485.051 491.023C402.999 534.773 311.968 556.833 232.169 556.833ZM453.003 129.119C373.541 129.119 282.812 151.078 200.996 194.761C100.919 248.162 34.3354 322.884 22.9019 394.646C16.7479 433.15 27.5089 468.089 53.9741 495.698C131.991 577.077 324.948 574.185 484.109 489.275C584.186 435.874 650.77 361.152 662.203 289.39C668.357 250.886 657.596 215.947 631.131 188.338C593.198 148.758 528.128 129.119 453.003 129.119Z" fill="url(#paint13_linear_545_4133)"/>
<path d="M254.167 565.946C161.387 565.946 80.7472 537.328 40.091 482.346C14.9373 448.349 7.47192 407.524 18.5019 364.312C37.8716 288.515 110.777 214.836 213.544 167.219C380.271 89.9754 573.834 105.411 644.991 201.62C670.145 235.618 677.61 276.442 666.58 319.654C647.21 395.452 574.305 469.131 471.538 516.748C400.112 549.871 323.709 565.946 254.167 565.946ZM431.05 120.005C361.776 120.005 285.642 136.046 214.418 169.035C112.189 216.383 39.6875 289.591 20.4859 364.817C9.59048 407.423 16.955 447.642 41.7388 481.169C112.358 576.673 304.81 591.839 470.731 514.966C572.96 467.617 645.462 394.409 664.663 319.184C675.559 276.577 668.194 236.358 643.41 202.831C603.09 148.354 523.123 120.005 431.05 120.005Z" fill="url(#paint14_linear_545_4133)"/>
<path d="M276.149 577.951C166.085 577.951 69.9089 537.867 28.9837 465.23C5.94856 424.339 2.7539 377.529 19.7024 329.878C47.4118 251.996 125.731 181.242 229.238 140.62C402.086 72.7585 593.597 107.799 656.078 218.738C679.113 259.629 682.308 306.406 665.359 354.09C637.65 431.972 559.33 502.726 455.823 543.348C396.134 566.787 334.225 577.951 276.149 577.951ZM409.047 108.001C351.207 108.001 289.5 119.131 229.978 142.503C127.009 182.924 49.0932 253.24 21.5856 330.55C4.83883 377.663 7.99986 423.902 30.7324 464.255C92.776 574.353 283.144 609.024 455.117 541.499C558.086 501.078 636.002 430.762 663.51 353.417C680.256 306.305 677.095 260.066 654.363 219.713C613.774 147.749 518.338 108.001 409.047 108.001Z" fill="url(#paint15_linear_545_4133)"/>
<path d="M296.538 593.049C169.492 593.049 58.0487 538.236 19.4438 445.692C-0.934704 396.864 1.04934 343.362 25.2278 291.037C61.3779 212.717 144.372 146.268 247.206 113.313C425.333 56.2127 613.078 112.27 665.672 238.308C686.051 287.136 684.067 340.638 659.888 392.963C623.738 471.283 540.744 537.731 437.876 570.687C390.562 585.853 342.508 593.049 296.538 593.049ZM388.645 92.9344C342.844 92.9344 295.025 100.097 247.811 115.23C145.515 148.017 62.9584 214.062 27.0438 291.877C3.13428 343.698 1.1166 396.595 21.2934 444.918C59.5956 536.723 170.265 591.065 296.471 591.065C342.272 591.065 390.091 583.903 437.305 568.77C539.635 535.949 622.158 469.938 658.106 392.122C682.016 340.302 684 287.405 663.856 239.082C625.521 147.277 514.851 92.9344 388.645 92.9344Z" fill="url(#paint16_linear_545_4133)"/>
<path d="M314.025 611.242C170.669 611.242 45.1023 538.034 11.6089 423.598C-5.37323 365.59 2.96651 304.892 35.6865 247.993C80.6471 169.875 165.121 110.623 267.484 85.4019C449.949 40.4413 632.078 118.929 673.474 260.368C690.457 318.376 682.117 379.075 649.397 435.973C604.47 514.091 519.963 573.344 417.599 598.565C382.761 607.173 347.889 611.242 314.025 611.242ZM371.125 74.7419C337.397 74.7419 302.726 78.8108 267.988 87.3523C166.129 112.472 82.1267 171.389 37.4352 249.002C4.98418 305.396 -3.2883 365.556 13.5593 423.027C46.7837 536.588 171.577 609.225 314.025 609.225C347.754 609.225 382.424 605.156 417.162 596.614C518.988 571.528 603.024 512.612 647.682 434.965C680.133 378.57 688.405 318.41 671.558 260.94C638.333 147.412 513.573 74.7419 371.125 74.7419Z" fill="url(#paint17_linear_545_4133)"/>
<path d="M327.808 632.529C168.882 632.529 31.1757 536.925 5.78664 398.983C-6.62208 331.593 9.68748 261.377 51.6888 201.351C104.081 126.462 191.009 73.9014 290.145 57.1547C475.838 25.7462 650.435 127.942 679.355 285.018C691.763 352.408 675.454 422.59 633.453 482.649C581.06 557.539 494.132 610.099 394.997 626.846C372.331 630.68 349.868 632.529 327.808 632.529ZM357.333 53.4893C335.374 53.4893 313.012 55.3388 290.481 59.1388C191.85 75.8182 105.426 128.076 53.3366 202.528C11.6043 262.117 -4.57078 331.761 7.73706 398.613C32.958 535.546 169.824 630.511 327.774 630.511C349.733 630.511 372.096 628.662 394.627 624.862C493.258 608.182 579.681 555.925 631.771 481.472C673.47 421.884 689.645 352.24 677.337 285.354C652.15 148.421 515.284 53.4893 357.333 53.4893Z" fill="url(#paint18_linear_545_4133)"/>
<path d="M337.356 656.742C163.466 656.742 16.3102 534.47 2.08556 371.778C-13.047 199.031 127.383 45.1161 315.128 28.6721C406.058 20.7022 494.399 45.8223 563.874 99.358C633.383 152.927 675.687 228.489 683.018 312.223C690.349 395.923 661.799 477.706 602.647 542.541C543.529 607.342 460.872 647.393 369.942 655.329C359.013 656.271 348.117 656.742 337.356 656.742ZM348.084 29.2437C337.222 29.2437 326.259 29.7145 315.296 30.6897C128.661 46.9993 -10.9621 199.939 4.06961 371.61C18.227 533.26 164.509 654.724 337.356 654.724C348.084 654.724 358.878 654.253 369.774 653.312C460.199 645.409 542.386 605.56 601.168 541.162C659.949 476.765 688.298 395.52 681.034 312.391C673.77 229.263 631.735 154.172 562.664 100.939C501.965 54.1957 426.773 29.2437 348.084 29.2437Z" fill="url(#paint19_linear_545_4133)"/>
<path d="M342.542 683.778C154.091 683.778 0.78125 530.468 0.78125 341.984C0.78125 153.533 154.091 0.222656 342.542 0.222656C530.993 0.222656 684.303 153.533 684.303 341.984C684.337 530.468 530.993 683.778 342.542 683.778ZM342.542 2.24033C155.201 2.24033 2.79893 154.642 2.79893 341.984C2.79893 529.325 155.234 681.761 342.576 681.761C529.917 681.761 682.353 529.325 682.353 341.984C682.319 154.642 529.917 2.24033 342.542 2.24033Z" fill="url(#paint20_linear_545_4133)"/>
</g>
<defs>
<linearGradient id="paint0_linear_545_4133" x1="158.885" y1="341.997" x2="526.229" y2="341.997" gradientUnits="userSpaceOnUse">
<stop stop-color="#83A4D4"/>
<stop offset="0.9543" stop-color="#B4F7FD"/>
<stop offset="0.9994" stop-color="#B6FBFF"/>
</linearGradient>
<linearGradient id="paint1_linear_545_4133" x1="146.336" y1="341.997" x2="538.779" y2="341.997" gradientUnits="userSpaceOnUse">
<stop stop-color="#83A4D4"/>
<stop offset="0.9543" stop-color="#B4F7FD"/>
<stop offset="0.9994" stop-color="#B6FBFF"/>
</linearGradient>
<linearGradient id="paint2_linear_545_4133" x1="133.681" y1="341.996" x2="551.42" y2="341.996" gradientUnits="userSpaceOnUse">
<stop stop-color="#83A4D4"/>
<stop offset="0.9543" stop-color="#B4F7FD"/>
<stop offset="0.9994" stop-color="#B6FBFF"/>
</linearGradient>
<linearGradient id="paint3_linear_545_4133" x1="121.044" y1="341.997" x2="564.064" y2="341.997" gradientUnits="userSpaceOnUse">
<stop stop-color="#83A4D4"/>
<stop offset="0.9543" stop-color="#B4F7FD"/>
<stop offset="0.9994" stop-color="#B6FBFF"/>
</linearGradient>
<linearGradient id="paint4_linear_545_4133" x1="108.513" y1="341.998" x2="576.574" y2="341.998" gradientUnits="userSpaceOnUse">
<stop stop-color="#83A4D4"/>
<stop offset="0.9543" stop-color="#B4F7FD"/>
<stop offset="0.9994" stop-color="#B6FBFF"/>
</linearGradient>
<linearGradient id="paint5_linear_545_4133" x1="96.4436" y1="341.997" x2="588.676" y2="341.997" gradientUnits="userSpaceOnUse">
<stop stop-color="#83A4D4"/>
<stop offset="0.9543" stop-color="#B4F7FD"/>
<stop offset="0.9994" stop-color="#B6FBFF"/>
</linearGradient>
<linearGradient id="paint6_linear_545_4133" x1="84.481" y1="341.997" x2="600.642" y2="341.997" gradientUnits="userSpaceOnUse">
<stop stop-color="#83A4D4"/>
<stop offset="0.9543" stop-color="#B4F7FD"/>
<stop offset="0.9994" stop-color="#B6FBFF"/>
</linearGradient>
<linearGradient id="paint7_linear_545_4133" x1="72.9609" y1="341.998" x2="612.137" y2="341.998" gradientUnits="userSpaceOnUse">
<stop stop-color="#83A4D4"/>
<stop offset="0.9543" stop-color="#B4F7FD"/>
<stop offset="0.9994" stop-color="#B6FBFF"/>
</linearGradient>
<linearGradient id="paint8_linear_545_4133" x1="62.0274" y1="341.997" x2="623.084" y2="341.997" gradientUnits="userSpaceOnUse">
<stop stop-color="#83A4D4"/>
<stop offset="0.9543" stop-color="#B4F7FD"/>
<stop offset="0.9994" stop-color="#B6FBFF"/>
</linearGradient>
<linearGradient id="paint9_linear_545_4133" x1="51.7649" y1="341.996" x2="633.352" y2="341.996" gradientUnits="userSpaceOnUse">
<stop stop-color="#83A4D4"/>
<stop offset="0.9543" stop-color="#B4F7FD"/>
<stop offset="0.9994" stop-color="#B6FBFF"/>
</linearGradient>
<linearGradient id="paint10_linear_545_4133" x1="42.2636" y1="341.997" x2="642.839" y2="341.997" gradientUnits="userSpaceOnUse">
<stop stop-color="#83A4D4"/>
<stop offset="0.9543" stop-color="#B4F7FD"/>
<stop offset="0.9994" stop-color="#B6FBFF"/>
</linearGradient>
<linearGradient id="paint11_linear_545_4133" x1="33.6251" y1="341.997" x2="651.485" y2="341.997" gradientUnits="userSpaceOnUse">
<stop stop-color="#83A4D4"/>
<stop offset="0.9543" stop-color="#B4F7FD"/>
<stop offset="0.9994" stop-color="#B6FBFF"/>
</linearGradient>
<linearGradient id="paint12_linear_545_4133" x1="25.9026" y1="341.997" x2="659.194" y2="341.997" gradientUnits="userSpaceOnUse">
<stop stop-color="#83A4D4"/>
<stop offset="0.9543" stop-color="#B4F7FD"/>
<stop offset="0.9994" stop-color="#B6FBFF"/>
</linearGradient>
<linearGradient id="paint13_linear_545_4133" x1="19.1998" y1="341.998" x2="665.897" y2="341.998" gradientUnits="userSpaceOnUse">
<stop stop-color="#83A4D4"/>
<stop offset="0.9543" stop-color="#B4F7FD"/>
<stop offset="0.9994" stop-color="#B6FBFF"/>
</linearGradient>
<linearGradient id="paint14_linear_545_4133" x1="13.5596" y1="341.996" x2="671.547" y2="341.996" gradientUnits="userSpaceOnUse">
<stop stop-color="#83A4D4"/>
<stop offset="0.9543" stop-color="#B4F7FD"/>
<stop offset="0.9994" stop-color="#B6FBFF"/>
</linearGradient>
<linearGradient id="paint15_linear_545_4133" x1="8.98045" y1="341.997" x2="676.106" y2="341.997" gradientUnits="userSpaceOnUse">
<stop stop-color="#83A4D4"/>
<stop offset="0.9543" stop-color="#B4F7FD"/>
<stop offset="0.9994" stop-color="#B6FBFF"/>
</linearGradient>
<linearGradient id="paint16_linear_545_4133" x1="5.49462" y1="341.997" x2="679.613" y2="341.997" gradientUnits="userSpaceOnUse">
<stop stop-color="#83A4D4"/>
<stop offset="0.9543" stop-color="#B4F7FD"/>
<stop offset="0.9994" stop-color="#B6FBFF"/>
</linearGradient>
<linearGradient id="paint17_linear_545_4133" x1="3.04486" y1="341.997" x2="682.063" y2="341.997" gradientUnits="userSpaceOnUse">
<stop stop-color="#83A4D4"/>
<stop offset="0.9543" stop-color="#B4F7FD"/>
<stop offset="0.9994" stop-color="#B6FBFF"/>
</linearGradient>
<linearGradient id="paint18_linear_545_4133" x1="1.70824" y1="341.997" x2="683.39" y2="341.997" gradientUnits="userSpaceOnUse">
<stop stop-color="#83A4D4"/>
<stop offset="0.9543" stop-color="#B4F7FD"/>
<stop offset="0.9994" stop-color="#B6FBFF"/>
</linearGradient>
<linearGradient id="paint19_linear_545_4133" x1="0.959699" y1="341.99" x2="684.148" y2="341.99" gradientUnits="userSpaceOnUse">
<stop stop-color="#83A4D4"/>
<stop offset="0.9543" stop-color="#B4F7FD"/>
<stop offset="0.9994" stop-color="#B6FBFF"/>
</linearGradient>
<linearGradient id="paint20_linear_545_4133" x1="0.78125" y1="341.997" x2="684.329" y2="341.997" gradientUnits="userSpaceOnUse">
<stop stop-color="#83A4D4"/>
<stop offset="0.9543" stop-color="#B4F7FD"/>
<stop offset="0.9994" stop-color="#B6FBFF"/>
</linearGradient>
<clipPath id="clip0_545_4133">
<rect width="683.556" height="683.556" fill="white" transform="translate(0.773438 0.222656)"/>
</clipPath>
</defs>
</svg>
