<svg width="518" height="951" viewBox="0 0 518 951" fill="none" xmlns="http://www.w3.org/2000/svg">
<path d="M280.324 655.827C272.907 655.996 265.64 653.379 259.867 648.213L73.8432 482.556C65.7583 475.356 62.2514 464.734 64.4358 454.142C66.6202 443.55 74.0646 435.193 84.3517 431.801L320.843 353.556C331.112 350.165 342.063 352.43 350.148 359.612C358.233 366.812 361.74 377.435 359.555 388.027L309.07 631.929C306.886 642.52 299.442 650.878 289.172 654.269C286.252 655.263 283.266 655.76 280.324 655.827ZM74.5393 481.791L260.546 647.466C268.34 654.424 278.933 656.608 288.848 653.331C298.763 650.055 305.946 641.989 308.068 631.755L358.552 387.853C360.673 377.62 357.282 367.369 349.47 360.413C341.677 353.473 331.084 351.271 321.169 354.548L84.6772 432.775C74.7621 436.051 67.5786 444.117 65.4574 454.351C63.3361 464.584 66.7276 474.835 74.5393 481.791Z" fill="url(#paint0_linear_840_5875)"/>
<path d="M229.287 674.134C228.931 674.142 228.556 674.15 228.199 674.141C217.386 674.013 207.765 668.293 202.466 658.87L80.5206 441.664C75.2211 432.224 75.3583 421.037 80.8904 411.742C86.4042 402.43 96.1445 396.963 106.994 397.09L356.078 400.093C366.891 400.221 376.512 405.941 381.811 415.364C387.111 424.803 386.974 435.991 381.441 445.285L254.284 659.472C248.96 668.476 239.664 673.897 229.287 674.134ZM105.911 398.132C95.8909 398.36 86.9125 403.595 81.7588 412.275C76.4338 421.262 76.2876 432.057 81.419 441.162L203.346 658.351C208.459 667.456 217.755 672.97 228.193 673.106C238.632 673.243 248.055 667.944 253.398 658.957L380.556 444.77C385.881 435.784 386.027 424.989 380.913 415.883C375.8 406.778 366.505 401.264 356.066 401.128L106.964 398.126C106.624 398.115 106.268 398.124 105.911 398.132Z" fill="url(#paint1_linear_840_5875)"/>
<path d="M174.957 674.838C171.338 674.92 167.667 674.344 164.088 673.052C153.908 669.414 146.667 660.874 144.729 650.234L100.159 405.165C98.221 394.525 101.994 383.986 110.237 376.984C118.497 369.982 129.494 367.983 139.674 371.621L374.21 455.546C384.39 459.184 391.632 467.723 393.569 478.364C395.507 489.004 391.733 499.543 383.491 506.545L193.525 667.671C188.188 672.235 181.661 674.685 174.957 674.838ZM128.846 370.887C122.374 371.035 116.077 373.39 110.897 377.772C102.934 384.535 99.2953 394.697 101.153 404.982L145.724 650.033C147.6 660.318 154.584 668.542 164.422 672.063C174.261 675.585 184.884 673.648 192.847 666.902L382.813 505.776C390.776 499.012 394.415 488.851 392.557 478.565C390.681 468.28 383.697 460.056 373.858 456.535L139.339 372.61C135.904 371.386 132.341 370.807 128.846 370.887Z" fill="url(#paint2_linear_840_5875)"/>
<path d="M123.123 657.757C116.241 657.914 109.464 655.66 103.831 651.151C95.3815 644.387 91.3263 633.974 92.9552 623.27L130.614 377.056C132.244 366.37 139.251 357.63 149.329 353.69C159.408 349.75 170.471 351.442 178.92 358.205L373.352 513.913C381.801 520.677 385.856 531.091 384.228 541.795C382.598 552.481 375.591 561.221 365.512 565.161L133.422 655.685C130.045 656.992 126.582 657.678 123.123 657.757ZM159.635 352.652C156.3 352.728 152.944 353.394 149.691 354.663C139.966 358.452 133.201 366.883 131.635 377.211L93.9759 623.443C92.392 633.771 96.3143 643.831 104.473 650.37C112.632 656.908 123.301 658.538 133.044 654.73L365.116 564.225C374.841 560.435 381.606 552.004 383.19 541.676C384.774 531.348 380.852 521.288 372.693 514.749L178.262 359.041C172.828 354.688 166.285 352.5 159.635 352.652Z" fill="url(#paint3_linear_840_5875)"/>
<path d="M79.9179 624.761C69.327 625.003 59.6469 619.819 53.9653 610.834C48.1909 601.69 47.7397 590.516 52.7656 580.93L168.539 360.385L168.991 360.625L168.539 360.385C173.565 350.799 183.026 344.822 193.827 344.397C204.592 343.973 214.54 349.168 220.332 358.312L353.47 568.824C359.245 577.967 359.696 589.141 354.67 598.728C349.644 608.314 340.183 614.291 329.382 614.716L80.4884 624.748C80.2923 624.753 80.114 624.757 79.9179 624.761ZM194.403 345.418C194.225 345.422 194.047 345.426 193.868 345.43C183.424 345.847 174.297 351.621 169.442 360.882L53.6863 581.408C48.8309 590.652 49.2736 601.451 54.8446 610.278C60.4334 619.105 70.0206 624.131 80.4292 623.715L329.323 613.683C339.767 613.266 348.894 607.493 353.749 598.231C358.604 588.988 358.161 578.188 352.59 569.361L219.452 358.849C213.974 350.18 204.62 345.185 194.403 345.418Z" fill="url(#paint4_linear_840_5875)"/>
<path d="M288.508 651.092C285.387 651.163 282.22 650.736 279.113 649.808L40.4882 578.267C30.1244 575.168 22.4459 567.013 19.9581 556.492C17.4703 545.971 20.6864 535.249 28.5624 527.827L209.833 356.982L210.181 357.348L209.833 356.982C217.709 349.56 228.604 346.992 238.95 350.092C249.314 353.191 256.992 361.346 259.48 371.867L316.816 614.254C319.304 624.775 316.088 635.497 308.212 642.919C302.711 648.11 295.746 650.927 288.508 651.092ZM229.579 349.842C222.59 350.002 215.855 352.724 210.528 357.733L29.2574 528.578C21.661 535.744 18.5611 546.089 20.9516 556.255C23.36 566.421 30.7641 574.279 40.7689 577.279L279.376 648.821C289.381 651.821 299.902 649.334 307.499 642.168C315.095 635.002 318.213 624.657 315.805 614.491L258.487 372.104C256.078 361.938 248.674 354.08 238.669 351.079C235.652 350.185 232.592 349.773 229.579 349.842Z" fill="url(#paint5_linear_840_5875)"/>
<path d="M238.205 672.288C231.857 672.433 225.552 670.526 220.148 666.636L17.8366 521.311C9.04062 515.001 4.43717 504.796 5.51167 494.033C6.58616 483.27 13.1042 474.185 22.9746 469.732L249.992 367.195C259.862 362.742 270.983 363.844 279.78 370.172C288.576 376.482 293.179 386.687 292.104 397.45L267.398 645.294C266.324 656.057 259.806 665.142 249.935 669.595C246.139 671.305 242.163 672.198 238.205 672.288ZM250.199 367.672L250.406 368.149L23.3884 470.668C13.8713 474.97 7.56036 483.748 6.53081 494.135C5.50126 504.522 9.93611 514.374 18.4241 520.477L220.735 665.802C229.223 671.905 239.969 672.962 249.486 668.66C259.003 664.358 265.314 655.58 266.343 645.193L291.05 397.349C292.079 386.962 287.644 377.11 279.156 371.007C270.669 364.922 259.923 363.847 250.406 368.149L250.199 367.672Z" fill="url(#paint6_linear_840_5875)"/>
<path d="M183.931 675.953C173.982 676.18 164.743 671.557 158.9 663.325L14.9387 460.07C8.68973 451.24 7.65055 440.098 12.1715 430.273C16.6926 420.449 25.8212 413.979 36.5912 412.984L284.617 389.951C295.387 388.956 305.555 393.629 311.804 402.459C318.053 411.288 319.092 422.431 314.571 432.256L210.507 658.562C205.986 668.386 196.857 674.856 186.087 675.851C185.375 675.902 184.662 675.937 183.931 675.953ZM284.682 390.449L284.73 390.965L36.7035 413.999C26.3076 414.967 17.4771 421.215 13.1267 430.697C8.75884 440.197 9.77125 450.948 15.7989 459.462L159.76 662.716C165.806 671.247 175.631 675.75 186.009 674.782C196.405 673.813 205.236 667.565 209.586 658.083L313.65 431.777C318.018 422.277 317.024 411.526 310.978 403.013C304.932 394.482 295.125 389.979 284.729 390.947L284.682 390.449Z" fill="url(#paint7_linear_840_5875)"/>
<path d="M131.646 661.823C129.025 661.883 126.379 661.605 123.742 660.951C113.23 658.391 105.132 650.656 102.095 640.272L32.1516 401.223C29.1139 390.84 31.7558 379.97 39.2303 372.147C46.7047 364.324 57.4436 361.19 67.9558 363.75L309.986 422.71C320.498 425.27 328.595 433.005 331.633 443.389C334.67 453.772 332.029 464.642 324.554 472.465L152.485 652.554C146.874 658.408 139.438 661.646 131.646 661.823ZM60.0924 363.912C52.5683 364.083 45.3969 367.208 39.9958 372.861C32.7827 380.41 30.2214 390.904 33.1618 400.933L103.105 639.982C106.045 650.011 113.851 657.467 124.004 659.946C134.158 662.426 144.524 659.389 151.737 651.84L323.806 471.75C331.02 464.201 333.581 453.708 330.64 443.679C327.7 433.65 319.895 426.194 309.741 423.714L67.7289 364.754C65.1812 364.117 62.6064 363.854 60.0924 363.912Z" fill="url(#paint8_linear_840_5875)"/>
<path d="M86.4206 631.372C80.5902 631.506 74.7739 629.908 69.6139 626.583C60.5076 620.744 55.375 610.801 55.8777 599.998L67.593 351.183C68.0957 340.38 74.1424 330.967 83.7693 326.002C93.3783 321.038 104.558 321.568 113.664 327.407L323.292 461.934C332.399 467.773 337.531 477.716 337.029 488.519C336.526 499.323 330.479 508.736 320.852 513.7L99.5086 627.988C95.3475 630.134 90.878 631.271 86.4206 631.372ZM96.8635 323.67C92.5486 323.768 88.2384 324.848 84.2183 326.919C74.9444 331.715 69.1044 340.803 68.6109 351.231L56.913 600.028C56.4196 610.456 61.384 620.064 70.1645 625.697C78.9632 631.346 89.7495 631.85 99.0413 627.053L320.385 512.784C329.659 507.988 335.499 498.9 335.993 488.472C336.486 478.043 331.522 468.435 322.741 462.803L113.095 328.276C108.117 325.09 102.498 323.541 96.8635 323.67Z" fill="url(#paint9_linear_840_5875)"/>
<path d="M53.6824 587.847C44.3396 588.06 35.5585 583.962 29.6253 576.463C22.9202 567.965 21.2942 556.907 25.2925 546.845L117.395 315.424C121.394 305.38 130.173 298.437 140.876 296.873C151.597 295.308 161.985 299.441 168.69 307.939L323.105 503.393C329.811 511.891 331.436 522.949 327.438 533.011C323.44 543.056 314.661 549.998 303.957 551.563L57.4392 587.53C56.1948 587.718 54.9305 587.819 53.6824 587.847ZM144.657 297.589C143.462 297.616 142.251 297.715 141.025 297.904C130.694 299.406 122.213 306.11 118.349 315.813L26.2646 547.233C22.4009 556.935 23.9648 567.62 30.4491 575.82C36.9334 584.02 46.9606 588.001 57.3087 586.498L303.791 550.514C314.121 549.012 322.602 542.308 326.466 532.605C330.329 522.903 328.766 512.218 322.281 504.018L167.866 308.565C162.153 301.328 153.678 297.383 144.657 297.589Z" fill="url(#paint10_linear_840_5875)"/>
<path d="M281.98 582.317C279.876 582.365 277.75 582.199 275.599 581.784L30.8279 535.588C20.2035 533.583 11.7062 526.285 8.13725 516.074C4.55051 505.864 6.63642 494.864 13.6918 486.658L176.106 297.799C183.162 289.594 193.727 285.892 204.351 287.897C214.976 289.902 223.473 297.2 227.042 307.411L309.4 542.484C312.969 552.695 310.9 563.694 303.845 571.9C298.215 578.45 290.342 582.126 281.98 582.317ZM198.013 288.416C189.936 288.601 182.346 292.145 176.889 298.477L14.4744 487.336C7.66208 495.251 5.65677 505.874 9.11057 515.731C12.5644 525.587 20.7525 532.625 31.0186 534.567L275.791 580.781C286.057 582.723 296.251 579.155 303.063 571.222C309.875 563.308 311.88 552.684 308.426 542.827L226.069 307.772C222.615 297.915 214.427 290.878 204.161 288.936C202.1 288.537 200.045 288.37 198.013 288.416Z" fill="url(#paint11_linear_840_5875)"/>
<path d="M254.475 605.152C249.162 605.273 243.833 603.95 238.972 601.189L22.5866 477.804C13.1881 472.453 7.54454 462.789 7.47589 451.964C7.42508 441.138 12.9656 431.432 22.2958 425.975L237.367 300.272C246.715 294.815 257.899 294.756 267.297 300.106C276.696 305.457 282.34 315.121 282.408 325.947L283.739 575.017C283.79 585.843 278.249 595.548 268.919 601.005C264.395 603.659 259.449 605.039 254.475 605.152ZM251.818 297.178C247.021 297.287 242.235 298.609 237.887 301.17L22.8332 426.855C13.8199 432.126 8.46815 441.506 8.51043 451.958C8.57053 462.409 14.0103 471.739 23.1011 476.901L239.486 600.286C248.559 605.465 259.368 605.397 268.382 600.126C277.395 594.854 282.747 585.474 282.704 575.023L283.222 575.029L282.704 575.023L281.374 325.953C281.314 315.501 275.874 306.172 266.783 301.01C262.102 298.334 256.953 297.06 251.818 297.178Z" fill="url(#paint12_linear_840_5875)"/>
<path d="M221.072 617.758C212.317 617.958 203.993 614.348 198.041 607.581L33.6123 420.472C26.4695 412.341 24.2747 401.367 27.7514 391.121C31.2281 380.874 39.6224 373.494 50.2415 371.361L294.504 322.531C305.105 320.416 315.712 323.992 322.855 332.123C329.998 340.254 332.192 351.228 328.716 361.475L248.882 597.413C245.424 607.659 237.011 615.04 226.392 617.173C224.617 617.534 222.837 617.718 221.072 617.758ZM299.848 322.98C298.154 323.019 296.428 323.201 294.705 323.543L50.4434 372.391C40.1971 374.444 32.0823 381.568 28.7405 391.473C25.3983 401.36 27.5133 411.96 34.4 419.812L198.829 606.921C205.733 614.772 215.963 618.231 226.209 616.178C236.455 614.125 244.57 607.001 247.912 597.096L248.397 597.263L247.912 597.096L327.745 361.158C331.087 351.271 328.972 340.67 322.086 332.818C316.335 326.278 308.281 322.788 299.848 322.98Z" fill="url(#paint13_linear_840_5875)"/>
<path d="M185.755 618.887C184.169 618.923 182.561 618.835 180.933 618.622C170.214 617.172 161.353 610.328 157.253 600.326L62.7097 369.865C58.6104 359.863 60.1055 348.769 66.7244 340.199C73.3434 331.629 83.7005 327.397 94.4192 328.847L341.27 362.189C351.989 363.639 360.85 370.482 364.95 380.485C369.049 390.487 367.554 401.58 360.935 410.133L208.627 607.234L208.227 606.922L208.627 607.234C203.013 614.515 194.706 618.682 185.755 618.887ZM89.6024 329.617C80.9728 329.814 72.9477 333.832 67.524 340.841C61.1299 349.103 59.6976 359.82 63.664 369.469L158.207 599.912C162.174 609.578 170.727 616.179 181.07 617.584C191.413 618.989 201.416 614.89 207.81 606.611L360.118 409.509C366.512 401.247 367.944 390.53 363.978 380.881C360.011 371.215 351.458 364.614 341.115 363.209L94.2645 329.885C92.6898 329.671 91.1357 329.582 89.6024 329.617Z" fill="url(#paint14_linear_840_5875)"/>
<path d="M151.636 608.39C146.839 608.499 141.999 607.432 137.487 605.163C127.814 600.3 121.678 590.95 121.057 580.155L106.678 331.49C106.057 320.695 111.073 310.698 120.125 304.748C129.158 298.816 140.329 298.169 150.001 303.014L372.546 414.896C382.218 419.759 388.354 429.108 388.975 439.904C389.596 450.699 384.58 460.695 375.528 466.646L167.364 603.429C162.53 606.607 157.109 608.265 151.636 608.39ZM135.876 300.821C130.581 300.942 125.337 302.542 120.697 305.609C111.962 311.338 107.116 320.992 107.711 331.431L122.073 580.096C122.668 590.517 128.6 599.551 137.948 604.243C147.278 608.935 158.074 608.314 166.791 602.568L167.069 603.007L166.791 602.568L374.973 465.784C383.709 460.055 388.555 450.402 387.96 439.962C387.365 429.541 381.433 420.508 372.085 415.816L149.541 303.952C145.174 301.751 140.512 300.715 135.876 300.821Z" fill="url(#paint15_linear_840_5875)"/>
<path d="M122.741 587.342C114.575 587.528 106.689 584.355 100.788 578.3C93.2263 570.553 90.4637 559.717 93.3836 549.305L160.749 309.512C163.669 299.1 171.678 291.283 182.16 288.618C192.642 285.935 203.415 288.971 210.977 296.718L384.979 474.957C392.541 482.705 395.304 493.54 392.384 503.953C389.464 514.365 381.454 522.182 370.973 524.865L129.587 586.401L129.469 585.904L129.587 586.401C127.299 586.988 125.005 587.29 122.741 587.342ZM189.048 288.692C186.855 288.742 184.632 289.043 182.433 289.61C172.306 292.196 164.575 299.739 161.754 309.793L94.3712 549.585C91.5501 559.639 94.215 570.102 101.504 577.588C108.81 585.056 119.205 587.993 129.333 585.408L370.7 523.855C380.827 521.269 388.558 513.726 391.379 503.672C394.2 493.619 391.535 483.156 384.246 475.67L210.244 297.431C204.545 291.585 196.929 288.513 189.048 288.692Z" fill="url(#paint16_linear_840_5875)"/>
<path d="M350.93 578.478C349.86 578.503 348.771 578.474 347.699 578.374L99.431 557.996C88.654 557.118 79.4464 550.746 74.817 540.97C70.1877 531.194 71.1106 520.042 77.2583 511.144L219.044 306.345C225.209 297.446 235.304 292.667 246.099 293.545C256.876 294.423 266.084 300.794 270.713 310.571L377.195 535.747C381.824 545.523 380.901 556.675 374.754 565.573C369.21 573.584 360.469 578.261 350.93 578.478ZM242.892 294.492C233.674 294.702 225.232 299.212 219.896 306.932L78.1101 511.731C72.1695 520.321 71.2733 531.08 75.7527 540.539C80.2138 549.98 89.0952 556.127 99.5148 556.978L347.782 577.355C358.184 578.206 367.962 573.595 373.902 565.004C379.843 556.414 380.739 545.655 376.26 536.196L269.778 311.02C265.317 301.579 256.435 295.431 246.016 294.581C244.961 294.498 243.926 294.468 242.892 294.492Z" fill="url(#paint17_linear_840_5875)"/>
<path d="M321.011 623.969C316.714 624.067 312.377 623.22 308.251 621.406L80.1419 521.317C70.2314 516.977 63.6036 507.959 62.4125 497.195C61.2218 486.448 65.7152 476.196 74.435 469.79L275.184 322.313C283.904 315.906 295.025 314.672 304.936 319.03C314.847 323.37 321.475 332.387 322.666 343.152L350.007 590.718C351.198 601.465 346.705 611.717 337.985 618.123C332.897 621.86 327.001 623.832 321.011 623.969ZM292.182 317.501C286.388 317.634 280.687 319.547 275.792 323.137L75.0429 470.632C66.6213 476.818 62.2802 486.709 63.4271 497.1C64.574 507.491 70.9806 516.192 80.5309 520.38L308.64 620.47C318.208 624.675 328.938 623.485 337.36 617.299C345.781 611.114 350.122 601.222 348.975 590.831L321.616 343.265C320.469 332.874 314.062 324.173 304.512 319.985C300.529 318.221 296.319 317.407 292.182 317.501Z" fill="url(#paint18_linear_840_5875)"/>
<path d="M277.787 657.205C270.173 657.379 262.761 654.622 256.947 649.243L73.8646 480.362C65.9195 473.034 62.5892 462.336 64.9532 451.794C67.3345 441.233 74.9248 433.015 85.2517 429.801L323.068 355.7C333.395 352.485 344.315 354.947 352.26 362.275C360.205 369.604 363.535 380.284 361.172 390.844L306.438 633.826C304.057 644.387 296.466 652.605 286.14 655.819C283.376 656.685 280.568 657.141 277.787 657.205ZM331.444 355.348C328.752 355.409 326.051 355.846 323.376 356.674L85.5593 430.775C75.5866 433.874 68.2577 441.818 65.9573 452.02C63.6566 462.205 66.8713 472.53 74.5611 479.615L257.644 648.514C265.316 655.599 275.86 657.962 285.832 654.863C295.805 651.764 303.134 643.819 305.434 633.617L360.168 390.635C362.469 380.451 359.254 370.125 351.564 363.04C345.951 357.835 338.79 355.18 331.444 355.348Z" fill="url(#paint19_linear_840_5875)"/>
<path d="M226.46 674.607C225.926 674.619 225.372 674.614 224.837 674.608C214.019 674.285 204.502 668.419 199.379 658.886L81.2393 439.595C76.116 430.061 76.4319 418.888 82.1265 409.679C87.8032 400.47 97.6541 395.162 108.472 395.485L357.459 402.843C368.277 403.167 377.794 409.032 382.918 418.565C388.041 428.099 387.725 439.272 382.03 448.481L251.165 660.416C245.781 669.154 236.623 674.375 226.46 674.607ZM82.1559 439.11L200.278 658.402C205.233 667.6 214.424 673.276 224.867 673.591C235.328 673.905 244.827 668.783 250.314 659.882L381.18 447.948C386.668 439.064 386.992 428.265 382.037 419.067C377.082 409.869 367.89 404.192 357.447 403.878L108.442 396.521C97.9995 396.224 88.4829 401.329 82.9953 410.23C77.5074 419.113 77.2008 429.912 82.1559 439.11Z" fill="url(#paint20_linear_840_5875)"/>
<path d="M172.104 674.368C168.324 674.454 164.474 673.811 160.749 672.397C150.619 668.58 143.535 659.912 141.793 649.249L101.506 403.458C99.7633 392.778 103.717 382.324 112.087 375.462C120.458 368.6 131.495 366.796 141.625 370.614L374.65 458.622C384.78 462.44 391.864 471.108 393.606 481.77C395.348 492.451 391.394 502.905 383.024 509.767L190.287 667.549C184.999 671.898 178.63 674.219 172.104 674.368ZM102.536 403.292L142.824 649.083C144.522 659.39 151.349 667.742 161.138 671.443C170.909 675.127 181.572 673.385 189.663 666.761L382.399 508.979C390.49 502.355 394.309 492.261 392.611 481.954C390.931 471.646 384.086 463.294 374.297 459.593L141.255 371.585C131.484 367.902 120.821 369.644 112.73 376.268C104.657 382.873 100.838 392.985 102.536 403.292Z" fill="url(#paint21_linear_840_5875)"/>
<path d="M120.568 656.387C113.508 656.548 106.568 654.173 100.876 649.451C92.5482 642.542 88.6696 632.053 90.4954 621.38L132.434 375.872C134.26 365.199 141.396 356.599 151.549 352.835C161.704 349.09 172.717 350.961 181.045 357.87L372.717 516.941C381.045 523.85 384.923 534.34 383.097 545.012C381.272 555.685 374.136 564.285 363.982 568.049L130.39 654.504C127.171 655.701 123.867 656.312 120.568 656.387ZM132.954 375.967L133.455 376.062L91.5166 621.571C89.7536 631.868 93.4992 642.003 101.554 648.669C109.591 655.335 120.247 657.161 130.047 653.531L363.657 567.093C373.457 563.462 380.35 555.153 382.113 544.856C383.876 534.56 380.13 524.424 372.075 517.759L180.404 358.688C172.367 352.022 161.711 350.196 151.911 353.826C142.111 357.457 135.218 365.766 133.455 376.062L132.954 375.967Z" fill="url(#paint22_linear_840_5875)"/>
<path d="M327.047 616.963L78.0006 622.646C67.178 622.893 57.3687 617.516 51.7526 608.28C46.1366 599.043 45.8811 587.847 51.07 578.364L170.654 359.873C175.843 350.39 185.415 344.571 196.22 344.324C207.042 344.077 216.852 349.454 222.468 358.691L351.912 571.499C357.528 580.735 357.783 591.931 352.595 601.415C347.424 610.915 337.852 616.717 327.047 616.963ZM171.558 360.37L51.9733 578.861C46.9554 588.019 47.2019 598.823 52.6323 607.742C58.0627 616.662 67.5288 621.851 77.9771 621.612L327.024 615.929C337.472 615.691 346.691 610.076 351.709 600.917C356.727 591.759 356.48 580.956 351.05 572.036L221.606 359.228C216.176 350.308 206.692 345.12 196.261 345.358C185.813 345.596 176.576 351.212 171.558 360.37Z" fill="url(#paint23_linear_840_5875)"/>
<path d="M399.81 934.273C394.705 934.389 389.704 932.588 385.731 929.032L257.696 815.016C252.131 810.06 249.717 802.749 251.221 795.459C252.724 788.169 257.848 782.417 264.928 780.082L427.698 726.228C434.766 723.894 442.304 725.453 447.868 730.397C453.433 735.352 455.846 742.663 454.343 749.953L419.596 917.824C418.092 925.114 412.969 930.866 405.901 933.201C403.89 933.885 401.835 934.226 399.81 934.273ZM258.175 814.489L386.198 928.518C391.562 933.307 398.853 934.81 405.677 932.555C412.501 930.3 417.446 924.748 418.906 917.705L453.653 749.834C455.113 742.791 452.778 735.736 447.402 730.947C442.038 726.171 434.747 724.656 427.923 726.911L265.152 780.752C258.328 783.007 253.384 788.559 251.924 795.602C250.464 802.646 252.798 809.701 258.175 814.489Z" fill="url(#paint24_linear_840_5875)"/>
<path d="M364.686 946.872C364.441 946.878 364.183 946.884 363.937 946.877C356.495 946.789 349.873 942.852 346.226 936.367L262.294 786.87C258.647 780.373 258.741 772.673 262.549 766.276C266.344 759.866 273.048 756.104 280.515 756.191L451.953 758.258C459.395 758.346 466.017 762.283 469.664 768.768C473.312 775.266 473.217 782.965 469.41 789.363L381.891 936.781C378.226 942.979 371.828 946.709 364.686 946.872ZM279.77 756.908C272.873 757.066 266.694 760.669 263.147 766.643C259.482 772.828 259.381 780.258 262.913 786.524L346.832 936.01C350.351 942.276 356.749 946.071 363.933 946.165C371.118 946.259 377.604 942.612 381.281 936.427L468.8 789.008C472.465 782.823 472.566 775.393 469.046 769.126C465.527 762.859 459.129 759.064 451.944 758.97L280.494 756.904C280.261 756.897 280.016 756.903 279.77 756.908Z" fill="url(#paint25_linear_840_5875)"/>
<path d="M327.288 947.357C324.797 947.414 322.271 947.018 319.808 946.129C312.801 943.624 307.817 937.747 306.484 930.423L275.807 761.75C274.473 754.426 277.07 747.173 282.743 742.353C288.429 737.534 295.997 736.158 303.004 738.662L464.429 796.425C471.435 798.929 476.419 804.807 477.753 812.13C479.086 819.454 476.489 826.707 470.816 831.526L340.068 942.425C336.395 945.566 331.903 947.252 327.288 947.357ZM295.552 738.157C291.097 738.259 286.763 739.88 283.198 742.895C277.717 747.551 275.213 754.544 276.491 761.624L307.168 930.285C308.459 937.364 313.266 943.024 320.038 945.448C326.809 947.872 334.121 946.539 339.602 941.896L470.35 830.997C475.83 826.342 478.335 819.348 477.056 812.269C475.765 805.19 470.958 799.529 464.187 797.106L302.774 739.343C300.41 738.5 297.957 738.102 295.552 738.157Z" fill="url(#paint26_linear_840_5875)"/>
<path d="M291.615 935.601C286.878 935.709 282.214 934.158 278.337 931.054C272.522 926.399 269.731 919.231 270.852 911.864L296.771 742.402C297.893 735.047 302.716 729.032 309.652 726.32C316.589 723.608 324.204 724.773 330.019 729.428L463.841 836.597C469.656 841.253 472.447 848.42 471.326 855.787C470.205 863.142 465.382 869.158 458.445 871.869L298.704 934.174C296.38 935.074 293.996 935.546 291.615 935.601ZM316.745 725.606C314.45 725.658 312.14 726.116 309.901 726.99C303.208 729.598 298.551 735.401 297.474 742.509L271.554 911.983C270.464 919.092 273.164 926.016 278.779 930.516C284.395 935.016 291.738 936.138 298.444 933.517L458.172 871.225C464.866 868.617 469.522 862.814 470.612 855.705C471.702 848.597 469.003 841.673 463.387 837.172L329.566 730.003C325.826 727.007 321.323 725.501 316.745 725.606Z" fill="url(#paint27_linear_840_5875)"/>
<path d="M261.879 912.891C254.589 913.058 247.927 909.49 244.016 903.306C240.042 897.012 239.731 889.322 243.19 882.724L322.874 730.929L323.185 731.094L322.874 730.929C326.333 724.331 332.845 720.217 340.279 719.925C347.688 719.633 354.535 723.209 358.522 729.502L450.157 874.391C454.131 880.685 454.442 888.375 450.983 894.973C447.523 901.571 441.012 905.685 433.578 905.978L262.271 912.883C262.136 912.886 262.014 912.888 261.879 912.891ZM340.676 720.628C340.553 720.631 340.43 720.633 340.307 720.636C333.119 720.923 326.837 724.897 323.496 731.271L243.824 883.053C240.482 889.415 240.787 896.848 244.621 902.923C248.468 908.999 255.067 912.458 262.231 912.171L433.537 905.267C440.725 904.98 447.007 901.006 450.349 894.632C453.69 888.27 453.386 880.837 449.551 874.761L357.916 729.872C354.146 723.905 347.707 720.467 340.676 720.628Z" fill="url(#paint28_linear_840_5875)"/>
<path d="M405.444 931.013C403.296 931.062 401.116 930.768 398.978 930.13L234.739 880.89C227.606 878.757 222.321 873.144 220.609 865.903C218.896 858.662 221.11 851.282 226.531 846.173L351.294 728.585L351.534 728.838L351.294 728.585C356.715 723.477 364.214 721.71 371.335 723.843C378.468 725.977 383.753 731.589 385.465 738.83L424.928 905.659C426.64 912.9 424.426 920.28 419.005 925.388C415.219 928.961 410.426 930.9 405.444 931.013ZM364.885 723.671C360.074 723.781 355.439 725.655 351.773 729.102L227.009 846.69C221.781 851.622 219.647 858.743 221.293 865.74C222.95 872.737 228.046 878.145 234.932 880.21L399.158 929.45C406.045 931.515 413.286 929.803 418.515 924.871C423.743 919.939 425.889 912.819 424.231 905.822L384.781 738.993C383.124 731.997 378.027 726.588 371.141 724.523C369.065 723.908 366.959 723.624 364.885 723.671Z" fill="url(#paint29_linear_840_5875)"/>
<path d="M370.824 945.602C366.455 945.702 362.115 944.389 358.395 941.711L219.15 841.688C213.096 837.345 209.928 830.322 210.667 822.914C211.407 815.506 215.893 809.253 222.687 806.188L378.936 735.615C385.73 732.55 393.384 733.309 399.438 737.664C405.492 742.007 408.661 749.031 407.921 756.438L390.916 927.023C390.177 934.43 385.691 940.683 378.897 943.748C376.284 944.925 373.548 945.54 370.824 945.602ZM379.079 735.943L379.221 736.271L222.972 806.833C216.421 809.794 212.078 815.835 211.369 822.984C210.66 830.133 213.713 836.914 219.555 841.114L358.8 941.138C364.642 945.338 372.037 946.065 378.588 943.105C385.138 940.144 389.482 934.102 390.19 926.953L407.195 756.369C407.904 749.22 404.851 742.439 399.009 738.238C393.168 734.05 385.772 733.311 379.221 736.271L379.079 735.943Z" fill="url(#paint30_linear_840_5875)"/>
<path d="M333.467 948.126C326.619 948.282 320.26 945.1 316.239 939.434L217.154 799.539C212.853 793.462 212.138 785.793 215.25 779.031C218.361 772.269 224.644 767.816 232.057 767.131L402.766 751.278C410.179 750.593 417.177 753.81 421.478 759.887C425.779 765.964 426.494 773.633 423.383 780.395L351.758 936.155C348.646 942.917 342.363 947.37 334.951 948.055C334.461 948.091 333.97 948.114 333.467 948.126ZM402.811 751.621L402.844 751.976L232.134 767.83C224.979 768.496 218.901 772.797 215.907 779.323C212.901 785.861 213.598 793.261 217.746 799.12L316.831 939.015C320.992 944.887 327.754 947.986 334.897 947.319C342.052 946.653 348.13 942.352 351.124 935.826L422.749 780.066C425.755 773.527 425.071 766.128 420.91 760.268C416.749 754.397 409.999 751.297 402.843 751.964L402.811 751.621Z" fill="url(#paint31_linear_840_5875)"/>
<path d="M297.484 938.4C295.68 938.441 293.858 938.25 292.043 937.8C284.808 936.038 279.235 930.714 277.144 923.567L229.004 759.037C226.914 751.89 228.732 744.409 233.876 739.024C239.021 733.64 246.412 731.483 253.647 733.245L420.23 773.825C427.465 775.587 433.038 780.911 435.129 788.058C437.219 795.205 435.401 802.686 430.257 808.07L311.826 932.02C307.965 936.049 302.846 938.278 297.484 938.4ZM248.235 733.356C243.056 733.474 238.121 735.625 234.403 739.516C229.439 744.712 227.676 751.934 229.7 758.837L277.839 923.367C279.863 930.27 285.235 935.402 292.224 937.108C299.212 938.815 306.347 936.725 311.312 931.529L429.742 807.578C434.707 802.383 436.469 795.16 434.446 788.258C432.422 781.355 427.05 776.223 420.061 774.516L253.491 733.936C251.738 733.497 249.965 733.317 248.235 733.356Z" fill="url(#paint32_linear_840_5875)"/>
<path d="M266.35 917.441C262.337 917.533 258.334 916.433 254.783 914.145C248.515 910.126 244.982 903.282 245.328 895.847L253.392 724.595C253.738 717.159 257.9 710.68 264.525 707.263C271.139 703.847 278.833 704.211 285.101 708.23L429.382 800.821C435.65 804.84 439.183 811.684 438.837 819.119C438.491 826.555 434.329 833.034 427.703 836.451L275.358 915.112C272.494 916.589 269.418 917.371 266.35 917.441ZM273.538 705.658C270.568 705.726 267.601 706.469 264.834 707.895C258.452 711.196 254.432 717.45 254.092 724.628L246.041 895.867C245.701 903.045 249.118 909.658 255.162 913.535C261.218 917.423 268.641 917.769 275.037 914.468L427.382 835.82C433.765 832.519 437.784 826.264 438.124 819.087C438.463 811.909 435.046 805.296 429.003 801.419L284.71 708.829C281.283 706.636 277.416 705.57 273.538 705.658Z" fill="url(#paint33_linear_840_5875)"/>
<path d="M243.821 887.485C237.39 887.632 231.346 884.811 227.263 879.649C222.648 873.8 221.529 866.19 224.281 859.264L287.672 699.984C290.424 693.071 296.467 688.292 303.834 687.215C311.213 686.139 318.362 688.983 322.977 694.832L429.257 829.357C433.872 835.206 434.991 842.817 432.239 849.743C429.487 856.656 423.445 861.435 416.078 862.511L246.406 887.266C245.55 887.396 244.68 887.465 243.821 887.485ZM306.436 687.709C305.613 687.727 304.78 687.795 303.936 687.925C296.826 688.959 290.988 693.573 288.329 700.251L224.95 859.531C222.29 866.209 223.367 873.563 227.83 879.207C232.293 884.85 239.194 887.59 246.316 886.556L415.963 861.789C423.073 860.756 428.91 856.141 431.57 849.463C434.229 842.785 433.153 835.431 428.69 829.788L322.41 695.263C318.478 690.282 312.645 687.567 306.436 687.709Z" fill="url(#paint34_linear_840_5875)"/>
<path d="M400.952 883.678C399.504 883.711 398.041 883.597 396.561 883.312L228.091 851.516C220.779 850.136 214.93 845.113 212.474 838.085C210.005 831.058 211.441 823.487 216.297 817.839L328.082 687.853C332.938 682.205 340.21 679.658 347.523 681.038C354.835 682.418 360.684 687.441 363.14 694.468L419.824 856.263C422.281 863.291 420.857 870.861 416.001 876.509C412.126 881.017 406.708 883.547 400.952 883.678ZM343.16 681.395C337.601 681.522 332.377 683.962 328.621 688.32L216.836 818.306C212.147 823.753 210.767 831.065 213.144 837.849C215.521 844.633 221.157 849.477 228.223 850.813L396.692 882.622C403.758 883.958 410.774 881.502 415.463 876.042C420.151 870.595 421.532 863.283 419.155 856.499L362.47 694.717C360.093 687.933 354.458 683.089 347.392 681.753C345.973 681.478 344.559 681.363 343.16 681.395Z" fill="url(#paint35_linear_840_5875)"/>
<path d="M382.024 899.394C378.367 899.477 374.7 898.567 371.353 896.666L222.422 811.744C215.953 808.061 212.069 801.41 212.022 793.959C211.987 786.507 215.8 779.828 222.222 776.072L370.249 689.554C376.683 685.797 384.381 685.757 390.849 689.44C397.318 693.122 401.202 699.774 401.25 707.225L402.166 878.653C402.201 886.104 398.387 892.784 391.966 896.54C388.852 898.366 385.448 899.316 382.024 899.394ZM380.195 687.424C376.894 687.499 373.6 688.409 370.607 690.172L222.592 776.677C216.388 780.305 212.705 786.761 212.734 793.955C212.775 801.148 216.519 807.569 222.776 811.122L371.708 896.044C377.953 899.61 385.392 899.563 391.596 895.934C397.799 892.306 401.483 885.85 401.454 878.657L401.81 878.661L401.454 878.657L400.538 707.229C400.496 700.036 396.752 693.614 390.495 690.062C387.273 688.22 383.729 687.343 380.195 687.424Z" fill="url(#paint36_linear_840_5875)"/>
<path d="M359.029 908.072C353.003 908.209 347.274 905.725 343.177 901.067L230.006 772.286C225.089 766.689 223.579 759.136 225.972 752.084C228.365 745.031 234.142 739.952 241.451 738.484L409.57 704.876C416.866 703.42 424.167 705.881 429.083 711.477C433.999 717.074 435.51 724.627 433.117 731.679L378.17 894.069C375.789 901.121 369.999 906.201 362.691 907.669C361.468 907.918 360.243 908.044 359.029 908.072ZM413.248 705.184C412.082 705.211 410.894 705.336 409.708 705.572L241.59 739.193C234.538 740.606 228.953 745.509 226.652 752.326C224.352 759.131 225.808 766.427 230.548 771.831L343.719 900.613C348.472 906.017 355.512 908.397 362.564 906.984C369.617 905.571 375.202 900.668 377.502 893.851L377.836 893.966L377.502 893.851L432.449 731.461C434.749 724.656 433.293 717.36 428.554 711.956C424.596 707.455 419.052 705.052 413.248 705.184Z" fill="url(#paint37_linear_840_5875)"/>
<path d="M334.723 908.848C333.631 908.873 332.525 908.812 331.404 908.666C324.027 907.668 317.927 902.958 315.106 896.073L250.034 737.454C247.213 730.569 248.242 722.934 252.797 717.035C257.353 711.137 264.482 708.224 271.859 709.222L441.759 732.17C449.137 733.168 455.236 737.878 458.057 744.763C460.879 751.647 459.85 759.282 455.294 765.169L350.465 900.828L350.19 900.613L350.465 900.828C346.601 905.839 340.884 908.707 334.723 908.848ZM268.544 709.752C262.604 709.887 257.081 712.653 253.348 717.477C248.947 723.163 247.961 730.54 250.691 737.181L315.762 895.788C318.493 902.441 324.379 906.985 331.498 907.952C338.617 908.919 345.502 906.097 349.903 900.399L454.732 764.74C459.133 759.053 460.118 751.677 457.388 745.036C454.658 738.383 448.771 733.839 441.653 732.872L271.753 709.936C270.669 709.789 269.599 709.728 268.544 709.752Z" fill="url(#paint38_linear_840_5875)"/>
<path d="M311.24 901.623C307.939 901.698 304.607 900.964 301.502 899.402C294.845 896.055 290.621 889.62 290.194 882.19L280.297 711.041C279.869 703.611 283.322 696.731 289.552 692.635C295.77 688.552 303.458 688.107 310.115 691.442L463.286 768.447C469.944 771.794 474.167 778.229 474.594 785.659C475.022 793.089 471.569 799.969 465.339 804.065L322.065 898.208C318.739 900.396 315.008 901.537 311.24 901.623ZM300.393 689.932C296.749 690.016 293.139 691.117 289.946 693.228C283.934 697.171 280.599 703.815 281.008 711L290.893 882.149C291.302 889.322 295.385 895.539 301.819 898.769C308.241 901.998 315.671 901.571 321.671 897.616L321.862 897.918L321.671 897.616L464.957 803.472C470.969 799.529 474.305 792.884 473.895 785.699C473.486 778.527 469.403 772.309 462.969 769.08L309.798 692.087C306.793 690.572 303.584 689.86 300.393 689.932Z" fill="url(#paint39_linear_840_5875)"/>
<path d="M291.354 887.136C285.733 887.265 280.306 885.08 276.245 880.913C271.04 875.581 269.138 868.123 271.148 860.956L317.514 695.914C319.523 688.748 325.036 683.367 332.251 681.533C339.465 679.686 346.879 681.776 352.084 687.108L471.845 809.785C477.05 815.118 478.951 822.575 476.942 829.742C474.932 836.908 469.419 842.289 462.205 844.135L296.066 886.489L295.985 886.147L296.066 886.489C294.491 886.893 292.912 887.101 291.354 887.136ZM336.991 681.584C335.482 681.619 333.952 681.826 332.438 682.216C325.468 683.996 320.147 689.188 318.206 696.107L271.828 861.15C269.886 868.069 271.72 875.271 276.737 880.423C281.765 885.563 288.921 887.585 295.891 885.805L462.017 843.44C468.987 841.66 474.308 836.468 476.25 829.549C478.191 822.63 476.357 815.428 471.341 810.276L351.58 687.599C347.657 683.575 342.415 681.461 336.991 681.584Z" fill="url(#paint40_linear_840_5875)"/>
<path d="M448.408 881.036C447.672 881.052 446.922 881.033 446.184 880.964L275.309 866.938C267.891 866.334 261.554 861.949 258.367 855.22C255.181 848.491 255.816 840.816 260.048 834.691L357.635 693.734C361.878 687.609 368.826 684.32 376.256 684.924C383.673 685.528 390.011 689.914 393.197 696.642L466.486 851.625C469.672 858.353 469.037 866.029 464.805 872.153C460.99 877.667 454.973 880.886 448.408 881.036ZM374.048 685.576C367.704 685.721 361.894 688.824 358.221 694.138L260.634 835.095C256.545 841.008 255.928 848.413 259.011 854.923C262.082 861.421 268.195 865.652 275.366 866.237L446.242 880.262C453.401 880.848 460.131 877.674 464.219 871.762C468.308 865.849 468.925 858.444 465.842 851.934L392.553 696.952C389.483 690.454 383.37 686.222 376.198 685.637C375.473 685.58 374.76 685.56 374.048 685.576Z" fill="url(#paint41_linear_840_5875)"/>
<path d="M427.815 912.346C424.857 912.413 421.873 911.831 419.032 910.582L262.032 841.693C255.21 838.706 250.649 832.5 249.829 825.091C249.009 817.694 252.102 810.638 258.104 806.229L396.274 704.725C402.275 700.315 409.93 699.465 416.751 702.465C423.572 705.452 428.134 711.658 428.954 719.067L447.772 889.46C448.592 896.857 445.499 903.913 439.498 908.322C435.996 910.895 431.938 912.252 427.815 912.346ZM407.973 701.413C403.985 701.504 400.061 702.821 396.692 705.292L258.522 806.808C252.726 811.066 249.738 817.874 250.527 825.026C251.317 832.178 255.726 838.166 262.299 841.049L419.3 909.937C425.886 912.832 433.271 912.013 439.067 907.755C444.863 903.498 447.851 896.69 447.062 889.538L428.231 719.145C427.442 711.993 423.032 706.005 416.459 703.122C413.718 701.908 410.82 701.348 407.973 701.413Z" fill="url(#paint42_linear_840_5875)"/>
<path d="M398.065 935.222C392.825 935.342 387.723 933.445 383.722 929.742L257.711 813.506C252.243 808.462 249.951 801.099 251.578 793.843C253.217 786.575 258.441 780.919 265.549 778.706L429.231 727.704C436.338 725.492 443.855 727.187 449.323 732.23C454.791 737.274 457.083 744.625 455.456 751.893L417.785 919.131C416.146 926.4 410.922 932.056 403.814 934.268C401.912 934.864 399.979 935.178 398.065 935.222ZM434.996 727.462C433.143 727.505 431.284 727.805 429.443 728.375L265.76 779.377C258.896 781.51 253.852 786.978 252.269 793.999C250.685 801.009 252.898 808.116 258.191 812.992L384.202 929.24C389.482 934.117 396.739 935.743 403.602 933.61C410.466 931.477 415.511 926.009 417.094 918.987L454.765 751.749C456.349 744.74 454.136 737.633 448.844 732.757C444.98 729.174 440.052 727.347 434.996 727.462Z" fill="url(#paint43_linear_840_5875)"/>
<path d="M362.735 947.2C362.367 947.208 361.986 947.204 361.618 947.201C354.172 946.978 347.622 942.941 344.096 936.379L262.784 785.447C259.257 778.886 259.475 771.195 263.394 764.857C267.301 758.519 274.082 754.865 281.527 755.088L452.898 760.152C460.344 760.375 466.894 764.412 470.42 770.973C473.946 777.535 473.729 785.225 469.81 791.564L379.739 937.432C376.033 943.446 369.73 947.04 362.735 947.2ZM263.415 785.114L344.714 936.046C348.125 942.377 354.451 946.284 361.639 946.5C368.839 946.717 375.376 943.191 379.153 937.065L469.224 791.196C473.001 785.082 473.225 777.649 469.814 771.319C466.404 764.988 460.077 761.081 452.89 760.864L281.507 755.801C274.319 755.596 267.769 759.11 263.992 765.236C260.215 771.35 260.004 778.783 263.415 785.114Z" fill="url(#paint44_linear_840_5875)"/>
<path d="M325.329 947.034C322.727 947.093 320.078 946.651 317.514 945.678C310.541 943.05 305.666 937.084 304.467 929.745L276.738 760.575C275.539 753.224 278.26 746.028 284.021 741.305C289.782 736.582 297.379 735.341 304.351 737.969L464.735 798.542C471.708 801.17 476.583 807.136 477.782 814.475C478.981 821.826 476.26 829.021 470.499 833.744L337.844 942.341C334.204 945.334 329.821 946.932 325.329 947.034ZM277.447 760.46L305.176 929.631C306.345 936.725 311.044 942.474 317.781 945.021C324.506 947.556 331.846 946.357 337.414 941.798L470.069 833.201C475.637 828.642 478.266 821.695 477.097 814.601C475.941 807.506 471.23 801.758 464.493 799.211L304.096 738.637C297.372 736.102 290.032 737.301 284.464 741.86C278.907 746.407 276.279 753.366 277.447 760.46Z" fill="url(#paint45_linear_840_5875)"/>
<path d="M289.857 934.658C284.997 934.769 280.221 933.135 276.303 929.885C270.571 925.129 267.902 917.91 269.159 910.564L298.024 741.588C299.281 734.242 304.192 728.323 311.18 725.732C318.169 723.154 325.75 724.442 331.481 729.198L463.404 838.682C469.135 843.437 471.805 850.657 470.548 858.002C469.292 865.348 464.38 871.267 457.392 873.858L296.617 933.362C294.401 934.186 292.127 934.606 289.857 934.658ZM298.381 741.653L298.727 741.719L269.861 910.696C268.648 917.782 271.226 924.758 276.77 929.346C282.302 933.934 289.636 935.191 296.381 932.692L457.168 873.2C463.913 870.701 468.657 864.982 469.871 857.895C471.084 850.808 468.506 843.832 462.962 839.244L331.04 729.76C325.508 725.172 318.174 723.915 311.429 726.414C304.684 728.913 299.94 734.632 298.727 741.719L298.381 741.653Z" fill="url(#paint46_linear_840_5875)"/>
<path d="M431.971 907.524L260.56 911.436C253.111 911.606 246.359 907.905 242.494 901.548C238.628 895.19 238.453 887.484 242.024 880.957L324.33 730.576C327.902 724.05 334.49 720.044 341.926 719.875C349.375 719.705 356.127 723.405 359.992 729.763L449.085 876.232C452.95 882.59 453.126 890.296 449.555 896.823C445.996 903.361 439.408 907.355 431.971 907.524ZM324.952 730.918L242.646 881.299C239.192 887.603 239.362 895.039 243.099 901.178C246.837 907.317 253.352 910.888 260.543 910.724L431.955 906.813C439.146 906.648 445.492 902.784 448.945 896.48C452.399 890.177 452.229 882.741 448.492 876.602L359.399 730.132C355.661 723.993 349.134 720.422 341.955 720.586C334.764 720.75 328.406 724.615 324.952 730.918Z" fill="url(#paint47_linear_840_5875)"/>
<path d="M435.81 256.939C430.705 257.056 425.704 255.255 421.731 251.699L293.696 137.682C288.131 132.727 285.717 125.416 287.221 118.125C288.724 110.835 293.848 105.083 300.928 102.749L463.698 48.8952C470.766 46.5608 478.304 48.1199 483.868 53.0633C489.433 58.019 491.846 65.3302 490.343 72.6202L455.596 240.491C454.092 247.781 448.969 253.533 441.901 255.867C439.89 256.552 437.835 256.893 435.81 256.939ZM294.175 137.156L422.198 251.185C427.562 255.974 434.853 257.477 441.677 255.222C448.501 252.967 453.446 247.415 454.906 240.372L489.653 72.5009C491.113 65.4574 488.778 58.4023 483.402 53.6142C478.038 48.838 470.747 47.3225 463.923 49.5776L301.152 103.419C294.328 105.674 289.384 111.226 287.924 118.269C286.464 125.313 288.798 132.368 294.175 137.156Z" fill="url(#paint48_linear_840_5875)"/>
<path d="M400.686 269.539C400.441 269.545 400.183 269.55 399.937 269.544C392.495 269.456 385.873 265.519 382.226 259.034L298.294 109.537C294.647 103.039 294.741 95.3394 298.549 88.9422C302.344 82.5329 309.048 78.7705 316.515 78.8579L487.953 80.9247C495.395 81.0127 502.017 84.9498 505.664 91.4348C509.312 97.9321 509.217 105.632 505.41 112.029L417.891 259.448C414.226 265.645 407.828 269.376 400.686 269.539ZM315.77 79.5747C308.873 79.7321 302.694 83.3352 299.147 89.3091C295.482 95.4944 295.381 102.924 298.913 109.191L382.832 258.676C386.351 264.943 392.749 268.738 399.933 268.832C407.118 268.926 413.604 265.279 417.281 259.093L504.8 111.675C508.465 105.489 508.566 98.0596 505.046 91.7927C501.527 85.5258 495.129 81.7308 487.944 81.637L316.494 79.5704C316.261 79.5635 316.016 79.5691 315.77 79.5747Z" fill="url(#paint49_linear_840_5875)"/>
<path d="M363.288 270.024C360.797 270.081 358.271 269.684 355.808 268.795C348.801 266.291 343.817 260.414 342.484 253.09L311.807 84.4164C310.473 77.0929 313.07 69.8393 318.743 65.02C324.429 60.2005 331.997 58.8246 339.004 61.3288L500.429 119.092C507.435 121.596 512.419 127.473 513.753 134.797C515.086 142.12 512.489 149.374 506.816 154.193L376.068 265.092C372.395 268.233 367.903 269.919 363.288 270.024ZM331.552 60.8236C327.097 60.9253 322.763 62.5465 319.198 65.5621C313.717 70.2174 311.213 77.2111 312.491 84.2903L343.168 252.952C344.459 260.031 349.266 265.691 356.038 268.115C362.809 270.538 370.121 269.205 375.602 264.562L506.35 153.664C511.83 149.008 514.335 142.015 513.056 134.936C511.765 127.857 506.958 122.196 500.187 119.772L338.774 62.0093C336.41 61.167 333.957 60.7688 331.552 60.8236Z" fill="url(#paint50_linear_840_5875)"/>
<path d="M327.615 258.267C322.878 258.375 318.214 256.824 314.337 253.721C308.522 249.066 305.731 241.898 306.852 234.531L332.771 65.069C333.893 57.714 338.716 51.6987 345.652 48.9868C352.589 46.2749 360.204 47.4393 366.019 52.0947L499.841 159.264C505.656 163.919 508.447 171.087 507.326 178.454C506.205 185.809 501.382 191.824 494.445 194.536L334.704 256.841C332.38 257.741 329.996 258.213 327.615 258.267ZM352.745 48.2725C350.45 48.3249 348.14 48.7827 345.901 49.6564C339.208 52.2645 334.551 58.0673 333.474 65.1757L307.554 234.65C306.464 241.759 309.164 248.683 314.779 253.183C320.395 257.683 327.738 258.805 334.444 256.184L494.172 193.892C500.866 191.284 505.522 185.481 506.612 178.372C507.702 171.263 505.003 164.339 499.387 159.839L365.566 52.6698C361.826 49.6736 357.323 48.1681 352.745 48.2725Z" fill="url(#paint51_linear_840_5875)"/>
<path d="M297.879 235.558C290.589 235.724 283.927 232.156 280.016 225.972C276.042 219.679 275.731 211.988 279.19 205.39L358.874 53.5957L359.185 53.7605L358.874 53.5957C362.333 46.9977 368.845 42.8836 376.279 42.5912C383.688 42.2994 390.535 45.8754 394.522 52.1684L486.157 197.058C490.131 203.351 490.442 211.042 486.983 217.64C483.523 224.238 477.012 228.352 469.578 228.644L298.271 235.549C298.136 235.552 298.014 235.555 297.879 235.558ZM376.676 43.2943C376.553 43.2971 376.43 43.2999 376.307 43.3027C369.119 43.5895 362.837 47.5632 359.496 53.9376L279.824 205.719C276.482 212.081 276.787 219.514 280.621 225.59C284.468 231.665 291.067 235.124 298.231 234.838L469.537 227.933C476.725 227.646 483.007 223.673 486.349 217.298C489.69 210.936 489.386 203.503 485.551 197.428L393.916 52.5383C390.146 46.5718 383.707 43.1338 376.676 43.2943Z" fill="url(#paint52_linear_840_5875)"/>
<path d="M441.444 253.68C439.296 253.729 437.116 253.435 434.978 252.796L270.739 203.556C263.606 201.423 258.321 195.81 256.609 188.569C254.896 181.328 257.11 173.948 262.531 168.84L387.294 51.252L387.534 51.5043L387.294 51.252C392.715 46.1438 400.214 44.3767 407.335 46.51C414.468 48.643 419.753 54.2558 421.465 61.497L460.928 228.325C462.64 235.566 460.426 242.946 455.005 248.054C451.219 251.627 446.426 253.566 441.444 253.68ZM400.885 46.338C396.074 46.4477 391.439 48.3214 387.773 51.769L263.009 169.357C257.781 174.289 255.647 181.409 257.293 188.406C258.95 195.403 264.046 200.812 270.932 202.877L435.158 252.117C442.045 254.182 449.286 252.47 454.515 247.538C459.743 242.606 461.889 235.485 460.231 228.488L420.781 61.6599C419.124 54.663 414.027 49.2546 407.141 47.1896C405.065 46.5741 402.959 46.2906 400.885 46.338Z" fill="url(#paint53_linear_840_5875)"/>
<path d="M406.824 268.269C402.455 268.369 398.115 267.056 394.395 264.378L255.15 164.355C249.096 160.012 245.928 152.989 246.667 145.581C247.407 138.173 251.893 131.92 258.687 128.855L414.936 58.282C421.73 55.2173 429.384 55.9757 435.438 60.3309C441.492 64.6739 444.661 71.6977 443.921 79.1054L426.916 249.69C426.177 257.097 421.691 263.35 414.897 266.415C412.284 267.592 409.548 268.207 406.824 268.269ZM415.079 58.6102L415.221 58.9385L258.972 129.5C252.421 132.461 248.078 138.502 247.369 145.651C246.66 152.8 249.713 159.581 255.555 163.781L394.8 263.805C400.642 268.005 408.037 268.732 414.588 265.772C421.138 262.811 425.482 256.769 426.19 249.62L443.195 79.036C443.904 71.8869 440.851 65.106 435.009 60.9055C429.168 56.7173 421.772 55.9775 415.221 58.9385L415.079 58.6102Z" fill="url(#paint54_linear_840_5875)"/>
<path d="M369.467 270.792C362.619 270.948 356.26 267.766 352.239 262.1L253.154 122.206C248.853 116.128 248.138 108.459 251.25 101.697C254.361 94.9354 260.644 90.4828 268.057 89.798L438.766 73.9447C446.179 73.2599 453.177 76.4764 457.478 82.5536C461.779 88.6308 462.494 96.2999 459.383 103.062L387.758 258.822C384.646 265.584 378.363 270.037 370.951 270.721C370.461 270.757 369.97 270.781 369.467 270.792ZM438.811 74.2874L438.844 74.6427L268.134 90.496C260.979 91.1626 254.901 95.4633 251.907 101.989C248.901 108.528 249.598 115.927 253.746 121.787L352.831 261.681C356.992 267.553 363.754 270.652 370.897 269.986C378.052 269.319 384.13 265.019 387.124 258.493L458.749 102.733C461.755 96.194 461.071 88.7943 456.91 82.9349C452.749 77.0632 445.999 73.9638 438.843 74.6305L438.811 74.2874Z" fill="url(#paint55_linear_840_5875)"/>
<path d="M333.484 261.067C331.68 261.108 329.858 260.917 328.043 260.467C320.808 258.705 315.235 253.381 313.144 246.234L265.004 81.7036C262.914 74.5569 264.732 67.0756 269.876 61.6913C275.021 56.3071 282.412 54.1496 289.647 55.912L456.23 96.4921C463.465 98.2544 469.038 103.578 471.129 110.725C473.219 117.872 471.401 125.353 466.257 130.737L347.826 254.687C343.965 258.716 338.846 260.945 333.484 261.067ZM284.235 56.0232C279.056 56.1414 274.121 58.292 270.403 62.1827C265.439 67.3786 263.676 74.6009 265.7 81.5035L313.839 246.034C315.863 252.937 321.235 258.069 328.224 259.775C335.212 261.482 342.347 259.392 347.312 254.196L465.742 130.245C470.707 125.05 472.469 117.827 470.446 110.925C468.422 104.022 463.05 98.89 456.061 97.1834L289.491 56.603C287.738 56.1642 285.965 55.9837 284.235 56.0232Z" fill="url(#paint56_linear_840_5875)"/>
<path d="M302.35 240.108C298.337 240.199 294.334 239.1 290.783 236.812C284.515 232.793 280.982 225.949 281.328 218.514L289.392 47.2616C289.738 39.8261 293.9 33.3471 300.525 29.9302C307.139 26.5136 314.833 26.8782 321.101 30.8971L465.382 123.488C471.65 127.507 475.183 134.351 474.837 141.786C474.491 149.222 470.329 155.701 463.703 159.118L311.358 237.778C308.494 239.256 305.418 240.038 302.35 240.108ZM309.538 28.325C306.568 28.3927 303.601 29.1357 300.834 30.5615C294.452 33.8624 290.432 40.1172 290.092 47.2947L282.041 218.534C281.701 225.712 285.118 232.325 291.162 236.201C297.218 240.09 304.641 240.436 311.037 237.135L463.382 158.486C469.765 155.186 473.784 148.931 474.124 141.753C474.463 134.576 471.046 127.963 465.003 124.086L320.71 31.4953C317.283 29.3023 313.416 28.2365 309.538 28.325Z" fill="url(#paint57_linear_840_5875)"/>
<path d="M279.821 210.151C273.39 210.298 267.346 207.477 263.263 202.316C258.648 196.467 257.529 188.856 260.281 181.93L323.672 22.6505C326.424 15.7371 332.467 10.9585 339.834 9.88192C347.213 8.80503 354.362 11.6498 358.977 17.4988L465.257 152.024C469.872 157.873 470.991 165.483 468.239 172.409C465.487 179.323 459.445 184.101 452.078 185.178L282.406 209.933C281.55 210.063 280.68 210.132 279.821 210.151ZM342.436 10.375C341.613 10.3938 340.78 10.4619 339.936 10.5917C332.826 11.6256 326.988 16.2399 324.329 22.9179L260.95 182.197C258.29 188.875 259.367 196.229 263.83 201.873C268.293 207.517 275.194 210.257 282.316 209.223L451.963 184.456C459.073 183.422 464.91 178.808 467.57 172.13C470.229 165.452 469.153 158.098 464.69 152.454L358.41 17.9292C354.478 12.9485 348.645 10.2333 342.436 10.375Z" fill="url(#paint58_linear_840_5875)"/>
<path d="M436.952 206.345C435.504 206.378 434.041 206.264 432.561 205.979L264.091 174.183C256.779 172.803 250.93 167.78 248.474 160.752C246.005 153.724 247.441 146.154 252.297 140.506L364.082 10.5196C368.938 4.87186 376.21 2.32418 383.523 3.70422C390.835 5.08425 396.684 10.1071 399.14 17.1349L455.824 178.929C458.281 185.957 456.857 193.528 452.001 199.175C448.126 203.684 442.708 206.214 436.952 206.345ZM379.16 4.06159C373.601 4.18845 368.377 6.62801 364.621 10.9861L252.836 140.972C248.147 146.42 246.767 153.732 249.144 160.516C251.521 167.3 257.157 172.143 264.223 173.48L432.692 205.288C439.758 206.625 446.774 204.169 451.463 198.709C456.151 193.261 457.532 185.95 455.155 179.166L398.47 17.3835C396.093 10.5994 390.458 5.75583 383.392 4.41927C381.973 4.14471 380.559 4.02967 379.16 4.06159Z" fill="url(#paint59_linear_840_5875)"/>
<path d="M418.024 222.06C414.367 222.144 410.7 221.233 407.353 219.333L258.422 134.41C251.953 130.728 248.069 124.076 248.022 116.625C247.987 109.174 251.8 102.494 258.222 98.738L406.249 12.2202C412.683 8.46395 420.381 8.42335 426.849 12.1062C433.318 15.789 437.202 22.4404 437.25 29.8915L438.166 201.319C438.201 208.77 434.387 215.45 427.966 219.206C424.852 221.033 421.448 221.982 418.024 222.06ZM416.195 10.0903C412.894 10.1656 409.6 11.0757 406.607 12.8382L258.592 99.3434C252.388 102.972 248.705 109.428 248.734 116.621C248.775 123.815 252.519 130.236 258.776 133.789L407.708 218.711C413.953 222.276 421.392 222.229 427.596 218.601C433.799 214.973 437.483 208.517 437.454 201.323L437.81 201.327L437.454 201.323L436.538 29.8955C436.496 22.7021 432.752 16.2807 426.495 12.7281C423.273 10.8864 419.729 10.0097 416.195 10.0903Z" fill="url(#paint60_linear_840_5875)"/>
<path d="M395.029 230.738C389.003 230.876 383.274 228.392 379.177 223.734L266.006 94.9524C261.089 89.3558 259.579 81.8031 261.972 74.7506C264.365 67.698 270.142 62.6186 277.451 61.1504L445.57 27.5423C452.866 26.0867 460.167 28.5474 465.083 34.144C469.999 39.7407 471.51 47.2934 469.117 54.3459L414.17 216.736C411.789 223.788 405.999 228.868 398.691 230.336C397.468 230.585 396.243 230.711 395.029 230.738ZM449.248 27.8512C448.082 27.8778 446.894 28.0032 445.708 28.2389L277.59 61.8593C270.538 63.2725 264.953 68.1757 262.652 74.9928C260.352 81.7977 261.808 89.0938 266.548 94.4981L379.719 223.28C384.472 228.684 391.512 231.064 398.564 229.651C405.617 228.238 411.202 223.335 413.502 216.518L413.836 216.633L413.502 216.518L468.449 54.1279C470.749 47.323 469.293 40.0269 464.554 34.6226C460.596 30.1214 455.052 27.7188 449.248 27.8512Z" fill="url(#paint61_linear_840_5875)"/>
<path d="M370.723 231.515C369.631 231.54 368.525 231.479 367.404 231.333C360.027 230.335 353.927 225.625 351.106 218.74L286.034 60.1206C283.213 53.2362 284.242 45.6009 288.797 39.7022C293.353 33.8035 300.482 30.8908 307.859 31.8888L477.759 54.837C485.137 55.835 491.236 60.5452 494.057 67.4297C496.879 74.3141 495.85 81.9493 491.294 87.8357L386.465 223.495L386.19 223.28L386.465 223.495C382.601 228.506 376.884 231.374 370.723 231.515ZM304.544 32.4187C298.604 32.5542 293.081 35.3198 289.348 40.1439C284.947 45.8304 283.961 53.2068 286.691 59.8478L351.762 218.455C354.493 225.108 360.379 229.652 367.498 230.619C374.617 231.586 381.502 228.764 385.903 223.066L490.732 87.4066C495.133 81.7201 496.118 74.3437 493.388 67.7027C490.658 61.0495 484.771 56.5063 477.653 55.5393L307.753 32.6033C306.669 32.4561 305.599 32.3946 304.544 32.4187Z" fill="url(#paint62_linear_840_5875)"/>
<path d="M347.24 224.29C343.939 224.365 340.607 223.631 337.502 222.069C330.845 218.722 326.621 212.287 326.194 204.857L316.297 33.7076C315.869 26.2775 319.322 19.3973 325.552 15.3019C331.77 11.2191 339.458 10.7736 346.115 14.1083L499.286 91.1134C505.944 94.4605 510.167 100.895 510.594 108.326C511.022 115.756 507.569 122.636 501.339 126.731L358.065 220.875C354.739 223.063 351.008 224.204 347.24 224.29ZM336.393 12.5991C332.749 12.6823 329.139 13.7836 325.946 15.8945C319.934 19.8375 316.599 26.4819 317.008 33.6668L326.893 204.816C327.302 211.989 331.385 218.206 337.819 221.435C344.241 224.665 351.671 224.238 357.671 220.283L357.862 220.585L357.671 220.283L500.957 126.138C506.969 122.195 510.305 115.551 509.895 108.366C509.486 101.193 505.403 94.9762 498.969 91.7468L345.798 14.7539C342.793 13.2388 339.584 12.5263 336.393 12.5991Z" fill="url(#paint63_linear_840_5875)"/>
<path d="M327.354 209.803C321.733 209.931 316.306 207.747 312.245 203.579C307.04 198.247 305.138 190.789 307.148 183.623L353.514 18.5807C355.523 11.4142 361.036 6.03383 368.251 4.19953C375.465 2.35295 382.879 4.44273 388.084 9.77495L507.845 132.452C513.05 137.784 514.951 145.242 512.942 152.408C510.932 159.575 505.419 164.955 498.205 166.802L332.066 209.155L331.985 208.813L332.066 209.155C330.491 209.559 328.912 209.767 327.354 209.803ZM372.991 4.25095C371.482 4.28539 369.952 4.49219 368.438 4.88276C361.468 6.66238 356.147 11.8542 354.206 18.7736L307.828 183.816C305.886 190.735 307.72 197.937 312.737 203.089C317.765 208.229 324.921 210.251 331.891 208.472L498.017 166.106C504.987 164.327 510.308 159.135 512.25 152.215C514.191 145.296 512.357 138.094 507.341 132.942L387.58 10.2653C383.657 6.24198 378.415 4.12718 372.991 4.25095Z" fill="url(#paint64_linear_840_5875)"/>
<path d="M484.408 203.702C483.672 203.719 482.922 203.699 482.184 203.63L311.309 189.605C303.891 189.001 297.554 184.615 294.367 177.886C291.181 171.158 291.816 163.482 296.048 157.358L393.635 16.4005C397.878 10.2756 404.826 6.98646 412.256 7.59037C419.673 8.19456 426.011 12.5802 429.197 19.3089L502.486 174.291C505.672 181.02 505.037 188.695 500.805 194.82C496.99 200.333 490.973 203.552 484.408 203.702ZM410.048 8.24231C403.704 8.38709 397.894 11.4907 394.221 16.8045L296.634 157.762C292.545 163.674 291.928 171.079 295.011 177.589C298.082 184.087 304.195 188.319 311.366 188.904L482.242 202.929C489.401 203.514 496.131 200.341 500.219 194.428C504.308 188.516 504.925 181.111 501.842 174.601L428.553 19.6183C425.483 13.1201 419.37 8.88899 412.198 8.30374C411.473 8.24664 410.76 8.22607 410.048 8.24231Z" fill="url(#paint65_linear_840_5875)"/>
<path d="M463.815 235.013C460.857 235.08 457.873 234.497 455.032 233.249L298.032 164.36C291.21 161.373 286.649 155.167 285.829 147.758C285.009 140.361 288.102 133.305 294.104 128.895L432.274 27.3913C438.275 22.982 445.93 22.1321 452.751 25.1316C459.572 28.1189 464.134 34.3252 464.954 41.7341L483.772 212.127C484.592 219.524 481.499 226.58 475.498 230.989C471.996 233.561 467.938 234.918 463.815 235.013ZM443.973 24.0797C439.985 24.1707 436.061 25.4879 432.692 27.9588L294.522 129.475C288.726 133.733 285.738 140.541 286.527 147.693C287.317 154.844 291.726 160.833 298.299 163.716L455.3 232.604C461.886 235.499 469.271 234.679 475.067 230.422C480.863 226.165 483.851 219.356 483.062 212.205L464.231 41.8119C463.442 34.6602 459.032 28.6714 452.459 25.789C449.718 24.5747 446.82 24.0147 443.973 24.0797Z" fill="url(#paint66_linear_840_5875)"/>
<path d="M434.065 257.889C428.825 258.008 423.723 256.111 419.722 252.409L293.711 136.173C288.243 131.129 285.951 123.766 287.578 116.51C289.217 109.241 294.441 103.585 301.549 101.373L465.231 50.371C472.338 48.1585 479.855 49.8531 485.323 54.897C490.791 59.9408 493.083 67.2916 491.456 74.5598L453.785 241.798C452.146 249.066 446.922 254.722 439.814 256.935C437.912 257.531 435.979 257.845 434.065 257.889ZM470.996 50.1289C469.143 50.1712 467.284 50.4715 465.443 51.0414L301.76 102.043C294.896 104.176 289.852 109.644 288.269 116.666C286.685 123.675 288.898 130.782 294.191 135.658L420.202 251.907C425.482 256.783 432.739 258.41 439.602 256.277C446.466 254.143 451.511 248.676 453.094 241.654L490.765 74.416C492.349 67.4065 490.136 60.2995 484.844 55.4235C480.98 51.8409 476.052 50.0136 470.996 50.1289Z" fill="url(#paint67_linear_840_5875)"/>
<path d="M398.735 269.866C398.367 269.874 397.986 269.871 397.618 269.867C390.172 269.644 383.622 265.607 380.096 259.046L298.784 108.114C295.257 101.552 295.475 93.8619 299.394 87.5235C303.301 81.1853 310.082 77.5317 317.527 77.7546L488.898 82.8185C496.344 83.0415 502.894 87.0785 506.42 93.6399C509.946 100.201 509.729 107.892 505.81 114.23L415.739 260.098C412.033 266.113 405.73 269.706 398.735 269.866ZM299.415 107.78L380.714 258.712C384.125 265.043 390.451 268.95 397.639 269.167C404.839 269.383 411.376 265.858 415.153 259.731L505.224 113.863C509.001 107.749 509.225 100.316 505.814 93.9852C502.404 87.6544 496.077 83.7474 488.89 83.5308L317.507 78.4672C310.319 78.2629 303.769 81.7762 299.992 87.9027C296.215 94.0169 296.004 101.449 299.415 107.78Z" fill="url(#paint68_linear_840_5875)"/>
<path d="M361.329 269.701C358.727 269.76 356.078 269.318 353.514 268.345C346.541 265.717 341.666 259.751 340.467 252.412L312.738 83.2416C311.539 75.8905 314.26 68.6955 320.021 63.9724C325.782 59.2493 333.379 58.0079 340.351 60.6356L500.735 121.209C507.708 123.837 512.583 129.803 513.782 137.142C514.981 144.493 512.26 151.688 506.499 156.411L373.844 265.008C370.204 268.001 365.821 269.599 361.329 269.701ZM313.447 83.1272L341.176 252.298C342.345 259.392 347.044 265.141 353.781 267.688C360.506 270.223 367.846 269.024 373.414 264.465L506.069 155.868C511.637 151.309 514.266 144.362 513.097 137.268C511.941 130.173 507.23 124.425 500.493 121.878L340.096 61.3044C333.372 58.7692 326.032 59.968 320.464 64.527C314.907 69.0736 312.279 76.0332 313.447 83.1272Z" fill="url(#paint69_linear_840_5875)"/>
<path d="M325.857 257.325C320.997 257.436 316.221 255.801 312.303 252.551C306.571 247.796 303.902 240.576 305.159 233.231L334.024 64.2542C335.281 56.9084 340.192 50.9893 347.18 48.399C354.169 45.8209 361.75 47.1089 367.481 51.8643L499.404 161.348C505.135 166.104 507.805 173.323 506.548 180.669C505.292 188.015 500.38 193.934 493.392 196.524L332.617 256.029C330.401 256.853 328.127 257.273 325.857 257.325ZM334.381 64.3197L334.727 64.3854L305.861 233.362C304.648 240.449 307.226 247.425 312.77 252.013C318.302 256.601 325.636 257.858 332.381 255.359L493.168 195.866C499.913 193.367 504.657 187.649 505.871 180.562C507.084 173.475 504.506 166.499 498.962 161.911L367.04 52.4269C361.508 47.8387 354.174 46.582 347.429 49.0808C340.684 51.5796 335.94 57.2985 334.727 64.3854L334.381 64.3197Z" fill="url(#paint70_linear_840_5875)"/>
<path d="M467.971 230.191L296.56 234.102C289.111 234.272 282.359 230.571 278.494 224.214C274.628 217.857 274.453 210.151 278.024 203.624L360.33 53.243C363.902 46.7161 370.49 42.7107 377.926 42.541C385.375 42.3711 392.127 46.072 395.992 52.4292L485.085 198.899C488.95 205.256 489.126 212.962 485.555 219.489C481.996 226.028 475.408 230.021 467.971 230.191ZM360.952 53.5848L278.646 203.966C275.192 210.269 275.362 217.705 279.099 223.844C282.837 229.983 289.352 233.555 296.543 233.391L467.955 229.479C475.146 229.315 481.492 225.45 484.945 219.147C488.399 212.844 488.229 205.408 484.492 199.269L395.399 52.7988C391.661 46.6596 385.134 43.0886 377.955 43.2525C370.764 43.4166 364.406 47.2816 360.952 53.5848Z" fill="url(#paint71_linear_840_5875)"/>
<defs>
<linearGradient id="paint0_linear_840_5875" x1="64.9186" y1="509.402" x2="362.959" y2="502.601" gradientUnits="userSpaceOnUse">
<stop stop-color="#83A4D4"/>
<stop offset="0.9543" stop-color="#B4F7FD"/>
<stop offset="0.9994" stop-color="#B6FBFF"/>
</linearGradient>
<linearGradient id="paint1_linear_840_5875" x1="79.1598" y1="537.63" x2="387.98" y2="530.583" gradientUnits="userSpaceOnUse">
<stop stop-color="#83A4D4"/>
<stop offset="0.9543" stop-color="#B4F7FD"/>
<stop offset="0.9994" stop-color="#B6FBFF"/>
</linearGradient>
<linearGradient id="paint2_linear_840_5875" x1="102.48" y1="523.474" x2="394.842" y2="516.802" gradientUnits="userSpaceOnUse">
<stop stop-color="#83A4D4"/>
<stop offset="0.9543" stop-color="#B4F7FD"/>
<stop offset="0.9994" stop-color="#B6FBFF"/>
</linearGradient>
<linearGradient id="paint3_linear_840_5875" x1="89.8104" y1="505.87" x2="383.699" y2="499.164" gradientUnits="userSpaceOnUse">
<stop stop-color="#83A4D4"/>
<stop offset="0.9543" stop-color="#B4F7FD"/>
<stop offset="0.9994" stop-color="#B6FBFF"/>
</linearGradient>
<linearGradient id="paint4_linear_840_5875" x1="46.813" y1="486.634" x2="355.747" y2="479.585" gradientUnits="userSpaceOnUse">
<stop stop-color="#83A4D4"/>
<stop offset="0.9543" stop-color="#B4F7FD"/>
<stop offset="0.9994" stop-color="#B6FBFF"/>
</linearGradient>
<linearGradient id="paint5_linear_840_5875" x1="18.1288" y1="505.449" x2="314.857" y2="498.678" gradientUnits="userSpaceOnUse">
<stop stop-color="#83A4D4"/>
<stop offset="0.9543" stop-color="#B4F7FD"/>
<stop offset="0.9994" stop-color="#B6FBFF"/>
</linearGradient>
<linearGradient id="paint6_linear_840_5875" x1="5.96274" y1="523.963" x2="295.059" y2="517.366" gradientUnits="userSpaceOnUse">
<stop stop-color="#83A4D4"/>
<stop offset="0.9543" stop-color="#B4F7FD"/>
<stop offset="0.9994" stop-color="#B6FBFF"/>
</linearGradient>
<linearGradient id="paint7_linear_840_5875" x1="11.5584" y1="537.988" x2="319.921" y2="530.952" gradientUnits="userSpaceOnUse">
<stop stop-color="#83A4D4"/>
<stop offset="0.9543" stop-color="#B4F7FD"/>
<stop offset="0.9994" stop-color="#B6FBFF"/>
</linearGradient>
<linearGradient id="paint8_linear_840_5875" x1="33.6794" y1="513.768" x2="334.125" y2="506.912" gradientUnits="userSpaceOnUse">
<stop stop-color="#83A4D4"/>
<stop offset="0.9543" stop-color="#B4F7FD"/>
<stop offset="0.9994" stop-color="#B6FBFF"/>
</linearGradient>
<linearGradient id="paint9_linear_840_5875" x1="53.0202" y1="477.88" x2="336.7" y2="471.406" gradientUnits="userSpaceOnUse">
<stop stop-color="#83A4D4"/>
<stop offset="0.9543" stop-color="#B4F7FD"/>
<stop offset="0.9994" stop-color="#B6FBFF"/>
</linearGradient>
<linearGradient id="paint10_linear_840_5875" x1="20.542" y1="443.994" x2="327.649" y2="436.986" gradientUnits="userSpaceOnUse">
<stop stop-color="#83A4D4"/>
<stop offset="0.9543" stop-color="#B4F7FD"/>
<stop offset="0.9994" stop-color="#B6FBFF"/>
</linearGradient>
<linearGradient id="paint11_linear_840_5875" x1="4.91149" y1="440.216" x2="308.414" y2="433.29" gradientUnits="userSpaceOnUse">
<stop stop-color="#83A4D4"/>
<stop offset="0.9543" stop-color="#B4F7FD"/>
<stop offset="0.9994" stop-color="#B6FBFF"/>
</linearGradient>
<linearGradient id="paint12_linear_840_5875" x1="7.58235" y1="456.246" x2="285.235" y2="449.91" gradientUnits="userSpaceOnUse">
<stop stop-color="#83A4D4"/>
<stop offset="0.9543" stop-color="#B4F7FD"/>
<stop offset="0.9994" stop-color="#B6FBFF"/>
</linearGradient>
<linearGradient id="paint13_linear_840_5875" x1="27.8271" y1="475.164" x2="332.996" y2="468.201" gradientUnits="userSpaceOnUse">
<stop stop-color="#83A4D4"/>
<stop offset="0.9543" stop-color="#B4F7FD"/>
<stop offset="0.9994" stop-color="#B6FBFF"/>
</linearGradient>
<linearGradient id="paint14_linear_840_5875" x1="63.0826" y1="475.434" x2="368.973" y2="468.453" gradientUnits="userSpaceOnUse">
<stop stop-color="#83A4D4"/>
<stop offset="0.9543" stop-color="#B4F7FD"/>
<stop offset="0.9994" stop-color="#B6FBFF"/>
</linearGradient>
<linearGradient id="paint15_linear_840_5875" x1="109.472" y1="454.875" x2="389.2" y2="448.492" gradientUnits="userSpaceOnUse">
<stop stop-color="#83A4D4"/>
<stop offset="0.9543" stop-color="#B4F7FD"/>
<stop offset="0.9994" stop-color="#B6FBFF"/>
</linearGradient>
<linearGradient id="paint16_linear_840_5875" x1="89.5226" y1="439.02" x2="392.08" y2="432.116" gradientUnits="userSpaceOnUse">
<stop stop-color="#83A4D4"/>
<stop offset="0.9543" stop-color="#B4F7FD"/>
<stop offset="0.9994" stop-color="#B6FBFF"/>
</linearGradient>
<linearGradient id="paint17_linear_840_5875" x1="69.8992" y1="441.141" x2="377.501" y2="434.122" gradientUnits="userSpaceOnUse">
<stop stop-color="#83A4D4"/>
<stop offset="0.9543" stop-color="#B4F7FD"/>
<stop offset="0.9994" stop-color="#B6FBFF"/>
</linearGradient>
<linearGradient id="paint18_linear_840_5875" x1="61.806" y1="475.803" x2="347.36" y2="469.287" gradientUnits="userSpaceOnUse">
<stop stop-color="#83A4D4"/>
<stop offset="0.9543" stop-color="#B4F7FD"/>
<stop offset="0.9994" stop-color="#B6FBFF"/>
</linearGradient>
<linearGradient id="paint19_linear_840_5875" x1="65.3975" y1="511.222" x2="364.677" y2="504.393" gradientUnits="userSpaceOnUse">
<stop stop-color="#83A4D4"/>
<stop offset="0.9543" stop-color="#B4F7FD"/>
<stop offset="0.9994" stop-color="#B6FBFF"/>
</linearGradient>
<linearGradient id="paint20_linear_840_5875" x1="80.1573" y1="537.022" x2="388.787" y2="529.979" gradientUnits="userSpaceOnUse">
<stop stop-color="#83A4D4"/>
<stop offset="0.9543" stop-color="#B4F7FD"/>
<stop offset="0.9994" stop-color="#B6FBFF"/>
</linearGradient>
<linearGradient id="paint21_linear_840_5875" x1="103.93" y1="522.59" x2="394.694" y2="515.955" gradientUnits="userSpaceOnUse">
<stop stop-color="#83A4D4"/>
<stop offset="0.9543" stop-color="#B4F7FD"/>
<stop offset="0.9994" stop-color="#B6FBFF"/>
</linearGradient>
<linearGradient id="paint22_linear_840_5875" x1="87.2757" y1="504.902" x2="382.62" y2="498.162" gradientUnits="userSpaceOnUse">
<stop stop-color="#83A4D4"/>
<stop offset="0.9543" stop-color="#B4F7FD"/>
<stop offset="0.9994" stop-color="#B6FBFF"/>
</linearGradient>
<linearGradient id="paint23_linear_840_5875" x1="44.8917" y1="485.591" x2="353.864" y2="478.54" gradientUnits="userSpaceOnUse">
<stop stop-color="#83A4D4"/>
<stop offset="0.9543" stop-color="#B4F7FD"/>
<stop offset="0.9994" stop-color="#B6FBFF"/>
</linearGradient>
<linearGradient id="paint24_linear_840_5875" x1="251.553" y1="833.492" x2="456.686" y2="828.811" gradientUnits="userSpaceOnUse">
<stop stop-color="#83A4D4"/>
<stop offset="0.9543" stop-color="#B4F7FD"/>
<stop offset="0.9994" stop-color="#B6FBFF"/>
</linearGradient>
<linearGradient id="paint25_linear_840_5875" x1="261.358" y1="852.921" x2="473.91" y2="848.071" gradientUnits="userSpaceOnUse">
<stop stop-color="#83A4D4"/>
<stop offset="0.9543" stop-color="#B4F7FD"/>
<stop offset="0.9994" stop-color="#B6FBFF"/>
</linearGradient>
<linearGradient id="paint26_linear_840_5875" x1="277.404" y1="843.178" x2="478.629" y2="838.586" gradientUnits="userSpaceOnUse">
<stop stop-color="#83A4D4"/>
<stop offset="0.9543" stop-color="#B4F7FD"/>
<stop offset="0.9994" stop-color="#B6FBFF"/>
</linearGradient>
<linearGradient id="paint27_linear_840_5875" x1="268.687" y1="831.061" x2="470.962" y2="826.446" gradientUnits="userSpaceOnUse">
<stop stop-color="#83A4D4"/>
<stop offset="0.9543" stop-color="#B4F7FD"/>
<stop offset="0.9994" stop-color="#B6FBFF"/>
</linearGradient>
<linearGradient id="paint28_linear_840_5875" x1="239.094" y1="817.823" x2="451.724" y2="812.971" gradientUnits="userSpaceOnUse">
<stop stop-color="#83A4D4"/>
<stop offset="0.9543" stop-color="#B4F7FD"/>
<stop offset="0.9994" stop-color="#B6FBFF"/>
</linearGradient>
<linearGradient id="paint29_linear_840_5875" x1="219.35" y1="830.771" x2="423.579" y2="826.111" gradientUnits="userSpaceOnUse">
<stop stop-color="#83A4D4"/>
<stop offset="0.9543" stop-color="#B4F7FD"/>
<stop offset="0.9994" stop-color="#B6FBFF"/>
</linearGradient>
<linearGradient id="paint30_linear_840_5875" x1="210.978" y1="843.514" x2="409.955" y2="838.973" gradientUnits="userSpaceOnUse">
<stop stop-color="#83A4D4"/>
<stop offset="0.9543" stop-color="#B4F7FD"/>
<stop offset="0.9994" stop-color="#B6FBFF"/>
</linearGradient>
<linearGradient id="paint31_linear_840_5875" x1="214.828" y1="853.168" x2="427.065" y2="848.325" gradientUnits="userSpaceOnUse">
<stop stop-color="#83A4D4"/>
<stop offset="0.9543" stop-color="#B4F7FD"/>
<stop offset="0.9994" stop-color="#B6FBFF"/>
</linearGradient>
<linearGradient id="paint32_linear_840_5875" x1="230.056" y1="836.498" x2="436.844" y2="831.779" gradientUnits="userSpaceOnUse">
<stop stop-color="#83A4D4"/>
<stop offset="0.9543" stop-color="#B4F7FD"/>
<stop offset="0.9994" stop-color="#B6FBFF"/>
</linearGradient>
<linearGradient id="paint33_linear_840_5875" x1="243.362" y1="811.796" x2="438.611" y2="807.341" gradientUnits="userSpaceOnUse">
<stop stop-color="#83A4D4"/>
<stop offset="0.9543" stop-color="#B4F7FD"/>
<stop offset="0.9994" stop-color="#B6FBFF"/>
</linearGradient>
<linearGradient id="paint34_linear_840_5875" x1="221.011" y1="788.474" x2="432.384" y2="783.651" gradientUnits="userSpaceOnUse">
<stop stop-color="#83A4D4"/>
<stop offset="0.9543" stop-color="#B4F7FD"/>
<stop offset="0.9994" stop-color="#B6FBFF"/>
</linearGradient>
<linearGradient id="paint35_linear_840_5875" x1="210.254" y1="785.875" x2="419.146" y2="781.108" gradientUnits="userSpaceOnUse">
<stop stop-color="#83A4D4"/>
<stop offset="0.9543" stop-color="#B4F7FD"/>
<stop offset="0.9994" stop-color="#B6FBFF"/>
</linearGradient>
<linearGradient id="paint36_linear_840_5875" x1="212.095" y1="796.906" x2="403.195" y2="792.545" gradientUnits="userSpaceOnUse">
<stop stop-color="#83A4D4"/>
<stop offset="0.9543" stop-color="#B4F7FD"/>
<stop offset="0.9994" stop-color="#B6FBFF"/>
</linearGradient>
<linearGradient id="paint37_linear_840_5875" x1="226.024" y1="809.929" x2="436.063" y2="805.136" gradientUnits="userSpaceOnUse">
<stop stop-color="#83A4D4"/>
<stop offset="0.9543" stop-color="#B4F7FD"/>
<stop offset="0.9994" stop-color="#B6FBFF"/>
</linearGradient>
<linearGradient id="paint38_linear_840_5875" x1="250.291" y1="810.113" x2="460.827" y2="805.309" gradientUnits="userSpaceOnUse">
<stop stop-color="#83A4D4"/>
<stop offset="0.9543" stop-color="#B4F7FD"/>
<stop offset="0.9994" stop-color="#B6FBFF"/>
</linearGradient>
<linearGradient id="paint39_linear_840_5875" x1="282.22" y1="795.963" x2="474.749" y2="791.57" gradientUnits="userSpaceOnUse">
<stop stop-color="#83A4D4"/>
<stop offset="0.9543" stop-color="#B4F7FD"/>
<stop offset="0.9994" stop-color="#B6FBFF"/>
</linearGradient>
<linearGradient id="paint40_linear_840_5875" x1="268.491" y1="785.05" x2="476.733" y2="780.299" gradientUnits="userSpaceOnUse">
<stop stop-color="#83A4D4"/>
<stop offset="0.9543" stop-color="#B4F7FD"/>
<stop offset="0.9994" stop-color="#B6FBFF"/>
</linearGradient>
<linearGradient id="paint41_linear_840_5875" x1="254.983" y1="786.511" x2="466.696" y2="781.679" gradientUnits="userSpaceOnUse">
<stop stop-color="#83A4D4"/>
<stop offset="0.9543" stop-color="#B4F7FD"/>
<stop offset="0.9994" stop-color="#B6FBFF"/>
</linearGradient>
<linearGradient id="paint42_linear_840_5875" x1="249.411" y1="810.367" x2="445.95" y2="805.883" gradientUnits="userSpaceOnUse">
<stop stop-color="#83A4D4"/>
<stop offset="0.9543" stop-color="#B4F7FD"/>
<stop offset="0.9994" stop-color="#B6FBFF"/>
</linearGradient>
<linearGradient id="paint43_linear_840_5875" x1="251.883" y1="834.746" x2="457.869" y2="830.046" gradientUnits="userSpaceOnUse">
<stop stop-color="#83A4D4"/>
<stop offset="0.9543" stop-color="#B4F7FD"/>
<stop offset="0.9994" stop-color="#B6FBFF"/>
</linearGradient>
<linearGradient id="paint44_linear_840_5875" x1="262.039" y1="852.503" x2="474.46" y2="847.656" gradientUnits="userSpaceOnUse">
<stop stop-color="#83A4D4"/>
<stop offset="0.9543" stop-color="#B4F7FD"/>
<stop offset="0.9994" stop-color="#B6FBFF"/>
</linearGradient>
<linearGradient id="paint45_linear_840_5875" x1="278.407" y1="842.57" x2="478.531" y2="838.003" gradientUnits="userSpaceOnUse">
<stop stop-color="#83A4D4"/>
<stop offset="0.9543" stop-color="#B4F7FD"/>
<stop offset="0.9994" stop-color="#B6FBFF"/>
</linearGradient>
<linearGradient id="paint46_linear_840_5875" x1="266.943" y1="830.396" x2="470.22" y2="825.757" gradientUnits="userSpaceOnUse">
<stop stop-color="#83A4D4"/>
<stop offset="0.9543" stop-color="#B4F7FD"/>
<stop offset="0.9994" stop-color="#B6FBFF"/>
</linearGradient>
<linearGradient id="paint47_linear_840_5875" x1="237.772" y1="817.104" x2="450.428" y2="812.252" gradientUnits="userSpaceOnUse">
<stop stop-color="#83A4D4"/>
<stop offset="0.9543" stop-color="#B4F7FD"/>
<stop offset="0.9994" stop-color="#B6FBFF"/>
</linearGradient>
<linearGradient id="paint48_linear_840_5875" x1="287.553" y1="156.159" x2="492.686" y2="151.478" gradientUnits="userSpaceOnUse">
<stop stop-color="#83A4D4"/>
<stop offset="0.9543" stop-color="#B4F7FD"/>
<stop offset="0.9994" stop-color="#B6FBFF"/>
</linearGradient>
<linearGradient id="paint49_linear_840_5875" x1="297.358" y1="175.588" x2="509.91" y2="170.737" gradientUnits="userSpaceOnUse">
<stop stop-color="#83A4D4"/>
<stop offset="0.9543" stop-color="#B4F7FD"/>
<stop offset="0.9994" stop-color="#B6FBFF"/>
</linearGradient>
<linearGradient id="paint50_linear_840_5875" x1="313.404" y1="165.845" x2="514.629" y2="161.253" gradientUnits="userSpaceOnUse">
<stop stop-color="#83A4D4"/>
<stop offset="0.9543" stop-color="#B4F7FD"/>
<stop offset="0.9994" stop-color="#B6FBFF"/>
</linearGradient>
<linearGradient id="paint51_linear_840_5875" x1="304.687" y1="153.728" x2="506.962" y2="149.112" gradientUnits="userSpaceOnUse">
<stop stop-color="#83A4D4"/>
<stop offset="0.9543" stop-color="#B4F7FD"/>
<stop offset="0.9994" stop-color="#B6FBFF"/>
</linearGradient>
<linearGradient id="paint52_linear_840_5875" x1="275.094" y1="140.489" x2="487.724" y2="135.637" gradientUnits="userSpaceOnUse">
<stop stop-color="#83A4D4"/>
<stop offset="0.9543" stop-color="#B4F7FD"/>
<stop offset="0.9994" stop-color="#B6FBFF"/>
</linearGradient>
<linearGradient id="paint53_linear_840_5875" x1="255.35" y1="153.438" x2="459.579" y2="148.778" gradientUnits="userSpaceOnUse">
<stop stop-color="#83A4D4"/>
<stop offset="0.9543" stop-color="#B4F7FD"/>
<stop offset="0.9994" stop-color="#B6FBFF"/>
</linearGradient>
<linearGradient id="paint54_linear_840_5875" x1="246.978" y1="166.181" x2="445.955" y2="161.64" gradientUnits="userSpaceOnUse">
<stop stop-color="#83A4D4"/>
<stop offset="0.9543" stop-color="#B4F7FD"/>
<stop offset="0.9994" stop-color="#B6FBFF"/>
</linearGradient>
<linearGradient id="paint55_linear_840_5875" x1="250.828" y1="175.835" x2="463.065" y2="170.992" gradientUnits="userSpaceOnUse">
<stop stop-color="#83A4D4"/>
<stop offset="0.9543" stop-color="#B4F7FD"/>
<stop offset="0.9994" stop-color="#B6FBFF"/>
</linearGradient>
<linearGradient id="paint56_linear_840_5875" x1="266.056" y1="159.165" x2="472.844" y2="154.446" gradientUnits="userSpaceOnUse">
<stop stop-color="#83A4D4"/>
<stop offset="0.9543" stop-color="#B4F7FD"/>
<stop offset="0.9994" stop-color="#B6FBFF"/>
</linearGradient>
<linearGradient id="paint57_linear_840_5875" x1="279.362" y1="134.463" x2="474.611" y2="130.008" gradientUnits="userSpaceOnUse">
<stop stop-color="#83A4D4"/>
<stop offset="0.9543" stop-color="#B4F7FD"/>
<stop offset="0.9994" stop-color="#B6FBFF"/>
</linearGradient>
<linearGradient id="paint58_linear_840_5875" x1="257.011" y1="111.141" x2="468.384" y2="106.318" gradientUnits="userSpaceOnUse">
<stop stop-color="#83A4D4"/>
<stop offset="0.9543" stop-color="#B4F7FD"/>
<stop offset="0.9994" stop-color="#B6FBFF"/>
</linearGradient>
<linearGradient id="paint59_linear_840_5875" x1="246.254" y1="108.541" x2="455.146" y2="103.774" gradientUnits="userSpaceOnUse">
<stop stop-color="#83A4D4"/>
<stop offset="0.9543" stop-color="#B4F7FD"/>
<stop offset="0.9994" stop-color="#B6FBFF"/>
</linearGradient>
<linearGradient id="paint60_linear_840_5875" x1="248.095" y1="119.573" x2="439.195" y2="115.212" gradientUnits="userSpaceOnUse">
<stop stop-color="#83A4D4"/>
<stop offset="0.9543" stop-color="#B4F7FD"/>
<stop offset="0.9994" stop-color="#B6FBFF"/>
</linearGradient>
<linearGradient id="paint61_linear_840_5875" x1="262.024" y1="132.595" x2="472.063" y2="127.802" gradientUnits="userSpaceOnUse">
<stop stop-color="#83A4D4"/>
<stop offset="0.9543" stop-color="#B4F7FD"/>
<stop offset="0.9994" stop-color="#B6FBFF"/>
</linearGradient>
<linearGradient id="paint62_linear_840_5875" x1="286.291" y1="132.78" x2="496.827" y2="127.976" gradientUnits="userSpaceOnUse">
<stop stop-color="#83A4D4"/>
<stop offset="0.9543" stop-color="#B4F7FD"/>
<stop offset="0.9994" stop-color="#B6FBFF"/>
</linearGradient>
<linearGradient id="paint63_linear_840_5875" x1="318.22" y1="118.63" x2="510.749" y2="114.237" gradientUnits="userSpaceOnUse">
<stop stop-color="#83A4D4"/>
<stop offset="0.9543" stop-color="#B4F7FD"/>
<stop offset="0.9994" stop-color="#B6FBFF"/>
</linearGradient>
<linearGradient id="paint64_linear_840_5875" x1="304.491" y1="107.717" x2="512.733" y2="102.965" gradientUnits="userSpaceOnUse">
<stop stop-color="#83A4D4"/>
<stop offset="0.9543" stop-color="#B4F7FD"/>
<stop offset="0.9994" stop-color="#B6FBFF"/>
</linearGradient>
<linearGradient id="paint65_linear_840_5875" x1="290.983" y1="109.177" x2="502.696" y2="104.346" gradientUnits="userSpaceOnUse">
<stop stop-color="#83A4D4"/>
<stop offset="0.9543" stop-color="#B4F7FD"/>
<stop offset="0.9994" stop-color="#B6FBFF"/>
</linearGradient>
<linearGradient id="paint66_linear_840_5875" x1="285.411" y1="133.034" x2="481.95" y2="128.549" gradientUnits="userSpaceOnUse">
<stop stop-color="#83A4D4"/>
<stop offset="0.9543" stop-color="#B4F7FD"/>
<stop offset="0.9994" stop-color="#B6FBFF"/>
</linearGradient>
<linearGradient id="paint67_linear_840_5875" x1="287.883" y1="157.413" x2="493.869" y2="152.712" gradientUnits="userSpaceOnUse">
<stop stop-color="#83A4D4"/>
<stop offset="0.9543" stop-color="#B4F7FD"/>
<stop offset="0.9994" stop-color="#B6FBFF"/>
</linearGradient>
<linearGradient id="paint68_linear_840_5875" x1="298.039" y1="175.17" x2="510.46" y2="170.323" gradientUnits="userSpaceOnUse">
<stop stop-color="#83A4D4"/>
<stop offset="0.9543" stop-color="#B4F7FD"/>
<stop offset="0.9994" stop-color="#B6FBFF"/>
</linearGradient>
<linearGradient id="paint69_linear_840_5875" x1="314.407" y1="165.237" x2="514.531" y2="160.67" gradientUnits="userSpaceOnUse">
<stop stop-color="#83A4D4"/>
<stop offset="0.9543" stop-color="#B4F7FD"/>
<stop offset="0.9994" stop-color="#B6FBFF"/>
</linearGradient>
<linearGradient id="paint70_linear_840_5875" x1="302.943" y1="153.062" x2="506.22" y2="148.423" gradientUnits="userSpaceOnUse">
<stop stop-color="#83A4D4"/>
<stop offset="0.9543" stop-color="#B4F7FD"/>
<stop offset="0.9994" stop-color="#B6FBFF"/>
</linearGradient>
<linearGradient id="paint71_linear_840_5875" x1="273.772" y1="139.771" x2="486.428" y2="134.918" gradientUnits="userSpaceOnUse">
<stop stop-color="#83A4D4"/>
<stop offset="0.9543" stop-color="#B4F7FD"/>
<stop offset="0.9994" stop-color="#B6FBFF"/>
</linearGradient>
</defs>
</svg>
