<svg width="610" height="571" viewBox="0 0 610 571" fill="none" xmlns="http://www.w3.org/2000/svg">
<g opacity="0.4">
<path d="M394.012 562.872C310.748 562.872 203.747 446.268 152.284 297.606C116.379 193.911 115.24 97.1967 149.292 45.1922C163.882 22.9087 184.626 10.1142 209.275 8.17647C293.394 1.56549 404.897 120.449 457.785 273.185C493.69 376.881 494.829 473.595 460.777 525.599C446.187 547.883 425.443 560.677 400.794 562.615C398.543 562.786 396.263 562.872 394.012 562.872ZM216.057 9.62975C213.806 9.62975 211.583 9.71523 209.389 9.88621C184.94 11.7954 165.192 23.9915 150.717 46.1326C116.949 97.7096 118.175 193.854 153.908 297.036C205.172 445.042 311.403 561.133 393.955 561.133C396.206 561.133 398.429 561.048 400.623 560.877C425.072 558.968 444.82 546.772 459.295 524.631C493.063 473.054 491.837 376.909 456.104 273.727C404.869 125.749 298.609 9.62975 216.057 9.62975Z" fill="url(#paint0_linear_1244_8235)"/>
<path d="M411.351 567.544C332.504 567.544 224.135 461.512 160.59 318.037C113.259 211.122 101.433 104.776 130.442 47.1296C141.954 24.2191 158.994 10.1138 181.078 5.15558C260.638 -12.7397 381.003 98.3362 449.364 252.754C496.695 359.669 508.521 466.015 479.512 523.661C468 546.572 450.96 560.677 428.876 565.635C423.234 566.918 417.392 567.544 411.351 567.544ZM198.745 4.9846C192.79 4.9846 187.034 5.58301 181.449 6.83682C159.906 11.6811 143.264 25.5014 131.98 47.899C103.171 105.118 115.025 210.865 162.157 317.325C225.389 460.145 333.045 565.806 411.18 565.806C417.136 565.806 422.892 565.208 428.477 563.954C450.019 559.11 466.661 545.289 477.945 522.892C506.754 465.673 494.9 359.926 447.768 253.466C384.537 110.618 276.909 4.9846 198.745 4.9846Z" fill="url(#paint1_linear_1244_8235)"/>
<path d="M428.484 570.197C353.256 570.197 244.688 474.908 170.97 338.528C111.699 228.877 88.5036 116.575 111.87 52.4319C120.39 29.0085 134.524 13.279 153.872 5.61365C227.733 -23.6228 355.65 78.0779 439.028 232.268C498.299 341.919 521.494 454.22 498.128 518.363C489.608 541.787 475.474 557.516 456.125 565.182L455.812 564.384L456.125 565.182C447.577 568.573 438.315 570.197 428.484 570.197ZM181.713 2.27967C172.024 2.27967 162.934 3.87542 154.528 7.20941C135.664 14.6753 121.872 30.0914 113.523 53.0018C90.3274 116.718 113.494 228.449 172.537 337.673C245.942 473.483 353.826 568.458 428.342 568.487C438.031 568.487 447.121 566.891 455.527 563.557C474.391 556.091 488.183 540.675 496.532 517.765C519.727 454.049 496.561 342.318 437.518 233.094C364.085 97.284 256.2 2.27967 181.713 2.27967Z" fill="url(#paint2_linear_1244_8235)"/>
<path d="M444.865 570.793C372.714 570.793 265.2 486.361 183.276 358.815C112.606 248.793 77.5854 132.104 93.9988 61.5486C99.641 37.2703 111.068 19.8025 127.937 9.62961C195.044 -30.8341 329.087 59.9528 426.742 212.005C497.411 322.027 532.432 438.716 516.019 509.271C510.376 533.55 498.95 551.017 482.08 561.19C471.252 567.687 458.714 570.793 444.865 570.793ZM165.352 1.65084C151.731 1.65084 139.421 4.69987 128.821 11.1114C112.379 21.0278 101.208 38.1252 95.6801 61.9475C79.3522 132.075 114.316 248.223 184.729 357.874C281.87 509.129 414.859 599.659 481.168 559.68L481.624 560.421L481.168 559.68C497.61 549.764 508.781 532.666 514.309 508.844C530.637 438.716 495.673 322.568 425.26 212.917C343.677 85.8838 236.79 1.65084 165.352 1.65084Z" fill="url(#paint3_linear_1244_8235)"/>
<path d="M459.834 569.456C456.101 569.456 452.254 569.257 448.265 568.829C376.855 561.193 278.374 486.534 197.361 378.621C86.3706 230.758 44.3396 68.6464 103.639 17.2404C118.257 4.55984 137.805 -0.569363 161.713 1.96674C233.123 9.57507 331.604 84.2335 412.616 192.175C523.607 340.038 565.638 502.15 506.339 553.556C494.171 564.128 478.555 569.456 459.834 569.456ZM150.172 3.07807C131.878 3.07807 116.633 8.26427 104.779 18.5512C46.1634 69.3873 88.3083 230.444 198.757 377.567C279.485 485.109 377.51 559.511 448.464 567.091C471.887 569.599 490.979 564.584 505.227 552.245L505.797 552.9L505.227 552.245C563.843 501.409 521.698 340.352 411.249 193.229C330.521 85.6868 232.496 11.2848 161.542 3.70497C157.638 3.27754 153.848 3.07807 150.172 3.07807Z" fill="url(#paint4_linear_1244_8235)"/>
<path d="M473.067 566.036C404.022 566.036 302.265 500.212 213.13 397.713C89.9155 256.004 30.7872 90.3595 81.3384 28.4385C93.8479 13.1079 112 5.12916 135.224 4.75871C204.24 3.67588 306.966 69.7572 396.813 173.082C520.028 314.791 579.156 480.436 528.605 542.356L527.921 541.815L528.605 542.356C516.096 557.687 497.944 565.666 474.72 566.036C474.179 566.036 473.637 566.036 473.067 566.036ZM136.905 6.46845C136.335 6.46845 135.794 6.46845 135.252 6.46845C112.541 6.8104 94.8739 14.5612 82.6777 29.4929C32.6395 90.7869 91.7678 255.463 214.441 396.545C303.974 499.499 406.188 565.381 474.692 564.27C497.403 563.928 515.07 556.177 527.266 541.245C577.304 479.951 518.176 315.275 395.502 174.193C306.71 72.0938 205.465 6.46845 136.905 6.46845Z" fill="url(#paint5_linear_1244_8235)"/>
<path d="M484.093 560.821C417.926 560.821 320.585 505.625 230.454 415.836C96.2966 282.22 20.4413 115.036 61.3895 43.1132C71.7904 24.8475 88.7168 14.0192 111.656 10.9132C177.538 1.96555 282.686 58.5293 379.514 154.987C513.672 288.603 589.527 455.786 548.579 527.709C538.178 545.975 521.251 556.803 498.312 559.909C493.753 560.508 488.994 560.821 484.093 560.821ZM125.961 11.711C121.088 11.711 116.415 12.0245 111.912 12.6229C89.5148 15.6719 73.0158 26.2153 62.8999 43.968C22.3221 115.236 98.0349 281.479 231.679 414.582C321.497 504.029 418.354 559.054 484.036 559.054C488.909 559.054 493.582 558.741 498.084 558.143C520.482 555.094 536.981 544.55 547.097 526.797C587.675 455.53 511.962 289.287 378.318 156.184C288.471 66.736 191.614 11.711 125.961 11.711Z" fill="url(#paint6_linear_1244_8235)"/>
<path d="M492.575 553.927C429.314 553.927 337.644 508.932 249.08 432.707C105.405 309.036 13.4498 142.394 44.0826 61.2097C52.2038 39.6956 67.9903 25.8182 91.0433 19.9481C153.192 4.10457 259.139 50.4669 360.925 138.091C504.6 261.762 596.555 428.404 565.922 509.588C557.801 531.102 542.014 544.979 518.961 550.849C510.869 552.93 502.035 553.927 492.575 553.927ZM117.544 18.5803C108.198 18.5803 99.478 19.5777 91.4708 21.6009C69.0162 27.3285 53.6286 40.8639 45.7069 61.8081C15.3021 142.365 107.058 308.152 250.22 431.396C351.607 518.649 456.898 564.869 518.534 549.168C540.989 543.441 556.376 529.905 564.298 508.961L565.096 509.274L564.298 508.961C594.703 428.432 502.947 262.617 359.785 139.402C271.563 63.4609 180.348 18.5803 117.544 18.5803Z" fill="url(#paint7_linear_1244_8235)"/>
<path d="M497.252 545.773C475.338 545.773 450.034 541.1 422.223 531.81C374.464 515.881 321.434 486.929 268.859 448.118C117.263 336.188 9.97685 172.167 29.6958 82.52C35.2239 57.4154 49.8993 40.2041 73.2942 31.4274C101.619 20.7986 141.199 23.3917 187.818 38.9503C235.577 54.8793 288.607 83.8308 341.181 122.642C492.778 234.572 600.064 398.593 580.345 488.24C574.817 513.345 560.141 530.556 536.746 539.333C525.32 543.636 512.069 545.773 497.252 545.773ZM112.333 26.8396C97.9997 26.8396 85.0628 28.8628 73.8925 33.0802C51.0675 41.6573 36.7628 58.4128 31.3771 82.919C11.8006 171.968 118.773 335.162 269.885 446.751C374.037 523.66 478.53 559.365 536.12 537.737C558.945 529.16 573.249 512.405 578.635 487.898C598.211 398.85 491.239 235.655 340.127 124.067C256.179 62.0602 171.974 26.8396 112.333 26.8396Z" fill="url(#paint8_linear_1244_8235)"/>
<path d="M497.937 536.739C442.057 536.739 367.513 510.523 289.52 461.824C131.74 363.287 10.1211 204.053 18.4418 106.883C20.8924 78.2454 34.6843 56.8737 58.3071 45.048C113.076 17.6638 213.551 42.1415 320.495 108.935C478.275 207.473 599.894 366.706 591.574 463.876L590.719 463.791L591.574 463.876C589.123 492.514 575.331 513.886 551.708 525.712C536.89 533.149 518.71 536.739 497.937 536.739ZM112.135 35.73C91.647 35.73 73.6948 39.2919 59.0765 46.6153C35.6817 58.2985 22.6021 78.6443 20.18 107.054C11.9163 203.654 133.165 362.147 290.461 460.371C368.197 508.928 442.399 535.058 497.909 535.058C518.397 535.058 536.349 531.496 550.967 524.173C574.362 512.49 587.442 492.144 589.864 463.734C598.128 367.134 476.879 208.641 319.583 110.417C241.847 61.8604 167.645 35.73 112.135 35.73Z" fill="url(#paint9_linear_1244_8235)"/>
<path d="M494.457 527.138C443.678 527.138 379.079 508.816 310.86 473.652C148.749 390.074 14.0218 237.737 10.5738 134.07C9.49101 101.3 21.7441 75.8537 46.0224 60.523C96.4596 28.608 193.458 42.6563 299.177 97.1684C461.289 180.746 596.016 333.083 599.464 436.75C600.547 469.52 588.293 494.967 564.015 510.297C546.12 521.582 522.355 527.138 494.457 527.138ZM115.58 45.3634C87.9963 45.3634 64.573 50.8345 46.9342 61.9763C23.1974 76.9935 11.2292 101.899 12.312 134.013C15.76 237.11 150.031 388.764 311.658 472.113C416.835 526.34 513.179 540.389 563.075 508.816C586.812 493.798 598.78 468.893 597.697 436.779C594.249 333.682 459.978 182.028 298.351 98.6786C230.36 63.629 166.046 45.3634 115.58 45.3634Z" fill="url(#paint10_linear_1244_8235)"/>
<path d="M485.309 518.161C441.71 518.161 389.25 506.506 332.601 483.34C168.067 416.09 21.6569 272.729 6.21224 163.761C0.969056 126.717 11.3416 96.9108 36.2467 77.5053C82.9795 41.1165 173.111 44.8209 277.376 87.4503C441.91 154.7 588.32 298.061 603.765 407.028C609.008 444.073 598.636 473.879 573.73 493.284C552.387 509.897 521.982 518.161 485.309 518.161ZM124.668 54.3384C88.3935 54.3384 58.3878 62.4881 37.3296 78.8731C12.9658 97.8512 2.79291 127.116 7.95061 163.505C23.3097 271.931 169.264 414.694 333.256 481.715C436.952 524.088 526.428 527.878 572.676 491.888C597.04 472.91 607.213 443.645 602.055 407.256C586.696 298.831 440.741 156.068 276.749 89.046C220.271 65.9646 168.039 54.3384 124.668 54.3384Z" fill="url(#paint11_linear_1244_8235)"/>
<path d="M470.751 509.726C436.072 509.726 396.634 503.457 354.546 490.776C189.642 441.108 33.1159 308.718 5.61762 195.676C-4.41283 154.386 3.65128 119.877 28.9839 95.8842C71.1573 55.9334 155.846 50.0063 255.524 80.0406C420.428 129.708 576.954 262.099 604.452 375.141C614.483 416.431 606.419 450.939 581.086 474.933C556.722 497.986 518.168 509.726 470.751 509.726ZM139.233 62.7723C92.3011 62.7723 54.2026 74.3415 30.1523 97.1095C5.30412 120.647 -2.61773 154.585 7.27024 195.248C34.6545 307.777 190.639 439.598 355.031 489.095C454.11 518.93 538.172 513.174 579.889 473.65C604.737 450.113 612.659 416.175 602.771 375.511C575.387 262.982 419.402 131.162 255.011 81.6649C213.008 69.0413 173.741 62.7723 139.233 62.7723Z" fill="url(#paint12_linear_1244_8235)"/>
<path d="M450.142 503.146C427.061 503.146 402.27 500.723 376.31 495.794C213.087 464.734 48.1835 345.223 8.68858 229.445C-6.78453 184.109 -1.51279 144.7 23.8768 115.435C61.377 72.2638 139.825 57.1611 233.69 75.0278C396.913 106.088 561.817 225.57 601.311 341.376C616.785 386.713 611.513 426.122 586.123 455.387C558.995 486.59 510.468 503.146 450.142 503.146ZM159.801 69.3857C100.017 69.3857 51.9735 85.7137 25.1876 116.574C0.2255 145.326 -4.93229 184.166 10.3128 228.876C49.6368 344.14 213.942 463.109 376.624 494.084C469.89 511.837 547.711 496.934 584.813 454.247C609.803 425.495 614.932 386.656 599.687 341.946C560.363 226.681 396.058 107.712 233.376 76.7376C207.474 71.7793 182.768 69.3857 159.801 69.3857Z" fill="url(#paint13_linear_1244_8235)"/>
<path d="M426.264 499.297C416.974 499.297 407.456 498.955 397.682 498.243C238.25 486.588 66.8487 381.81 15.5851 264.664C-5.53009 216.421 -3.64945 170.8 20.8568 136.149C54.0256 89.2739 123.783 66.107 212.29 72.5755C371.723 84.2302 543.124 189.008 594.388 306.154C615.503 354.368 613.622 400.018 589.116 434.669C559.623 476.358 501.15 499.297 426.264 499.297ZM183.709 73.2309C109.421 73.2309 51.461 95.9134 22.2815 137.147C-2.22467 171.769 -3.99133 215.623 17.1809 263.98C68.2165 380.613 238.962 484.907 397.825 496.533C485.705 502.944 554.921 480.034 587.719 433.672C612.226 399.049 613.992 355.195 592.82 306.838C541.785 190.205 371.039 85.883 212.176 74.2853C202.459 73.5729 192.97 73.2309 183.709 73.2309Z" fill="url(#paint14_linear_1244_8235)"/>
<path d="M398.048 498.612C249.614 498.612 86.2206 412.869 26.3229 300.967C-1.00439 249.903 -3.34102 199.18 19.7404 158.118C47.7801 108.279 110.413 77.1622 191.597 72.7169C345.132 64.3392 521.035 152.761 583.697 269.821C611.024 320.885 613.361 371.607 590.279 412.669C562.24 462.508 499.606 493.625 418.422 498.071C411.669 498.441 404.858 498.612 398.048 498.612ZM211.972 73.9137C205.161 73.9137 198.408 74.0847 191.683 74.4552C111.126 78.8435 49.0055 109.647 21.2508 158.973C-1.54572 199.465 0.819438 249.618 27.8618 300.14C87.4745 411.529 250.213 496.874 398.048 496.874C404.858 496.874 411.612 496.703 418.337 496.332C498.894 491.944 561.014 461.14 588.769 411.814C611.565 371.322 609.229 321.17 582.158 270.647C522.517 159.258 359.778 73.9137 211.972 73.9137Z" fill="url(#paint15_linear_1244_8235)"/>
<path d="M370.478 501.604C241.137 501.604 103.247 435.95 40.8127 337.897C7.13095 285.009 -0.135401 229.528 20.3529 181.684C42.9784 128.796 98.2028 90.1275 171.835 75.5947C317.419 46.8427 495.688 117.398 569.206 232.89C602.888 285.778 610.155 341.259 589.666 389.103C567.041 441.991 511.816 480.66 438.184 495.192C416.214 499.524 393.474 501.604 370.478 501.604ZM239.598 70.893C216.688 70.893 194.062 72.9732 172.149 77.276C99.0863 91.6948 44.3462 129.993 21.9201 182.339C1.68828 229.613 8.89771 284.524 42.266 336.928C115.443 451.879 292.885 522.092 437.842 493.454C510.905 479.035 565.644 440.737 588.07 388.391C608.302 341.117 601.093 286.206 567.725 233.802C505.633 136.262 368.341 70.893 239.598 70.893Z" fill="url(#paint16_linear_1244_8235)"/>
<path d="M345.689 508.303C235.411 508.303 121.115 458.464 58.9664 375.029C19.1866 321.6 6.27812 262.044 22.6916 207.389C39.7604 150.427 86.1513 105.603 153.287 81.2394C288.897 31.999 467.337 83.4051 551.028 195.82C590.808 249.249 603.717 308.805 587.332 363.46C570.263 420.422 523.872 465.246 456.736 489.61C421.801 502.29 383.987 508.274 345.689 508.303ZM264.391 64.2276C226.293 64.2276 188.678 70.2116 153.885 82.8352C87.2625 107.028 41.2708 151.424 24.3444 207.874C8.13038 262.015 20.8963 321.001 60.3627 374.003C122.17 457.011 235.924 506.593 345.632 506.593C383.731 506.593 421.345 500.609 456.138 487.986C522.761 463.793 568.753 419.397 585.679 362.947C601.893 308.805 589.127 249.819 549.661 196.818C487.854 113.81 374.099 64.2276 264.391 64.2276Z" fill="url(#paint17_linear_1244_8235)"/>
<path d="M325.657 518.392C233.645 518.392 140.15 480.778 80.6517 411.847C35.3722 359.387 16.3373 296.867 27.0231 235.83C37.652 175.134 76.4343 123.187 136.247 89.5048C259.946 19.89 436.305 51.0357 529.372 158.92C574.651 211.38 593.686 273.9 583 334.937C572.372 395.633 533.589 447.58 473.777 481.262C429.124 506.395 377.633 518.392 325.657 518.392ZM284.395 54.1132C232.704 54.1132 181.469 66.0529 137.073 91.0435C77.7168 124.44 39.2191 175.989 28.7043 236.143C18.1039 296.668 37.025 358.646 81.934 410.707C174.516 517.993 349.878 548.968 472.894 479.752C532.25 446.355 570.747 394.807 581.262 334.652C591.834 274.128 572.941 212.15 528.032 160.088C468.904 91.528 375.923 54.1132 284.395 54.1132Z" fill="url(#paint18_linear_1244_8235)"/>
<path d="M311.791 531.385C236.42 531.385 160.679 503.146 105.654 447.922C55.9574 398.054 30.4824 334.082 33.9304 267.829C37.2929 202.888 68.2105 143.475 120.956 100.503C230.835 10.9701 402.863 20.9721 504.364 122.872C554.06 172.74 579.535 236.712 576.087 302.965C572.725 367.906 541.807 427.319 489.062 470.291C438.767 511.267 375.393 531.385 311.791 531.385ZM298.227 41.1185C234.995 41.1185 172.048 61.1224 122.039 101.871C69.6638 144.529 39.0025 203.515 35.6686 267.943C32.2491 333.711 57.5532 397.199 106.908 446.696C207.81 547.97 378.755 557.915 488.008 468.923C540.382 426.265 571.044 367.279 574.378 302.851C577.797 237.083 552.493 173.594 503.139 124.098C448.427 69.1866 373.113 41.1185 298.227 41.1185Z" fill="url(#paint19_linear_1244_8235)"/>
<path d="M304.826 546.628C244.102 546.628 183.093 525.627 133.739 482.798C24.8856 388.364 13.174 222.975 107.608 114.122C202.043 5.26895 367.431 -6.44273 476.284 87.9917C585.137 182.426 596.849 347.814 502.415 456.668C450.809 516.138 378.003 546.628 304.826 546.628ZM305.197 25.8998C232.505 25.8998 160.211 56.1621 108.948 115.262C15.1403 223.374 26.7664 387.68 134.907 481.487C183.948 524.031 244.558 544.89 304.855 544.89C377.547 544.89 449.84 514.628 501.104 455.528C594.911 347.415 583.285 183.11 475.144 89.3025C426.103 46.7585 365.494 25.8998 305.197 25.8998Z" fill="url(#paint20_linear_1244_8235)"/>
</g>
<defs>
<linearGradient id="paint0_linear_1244_8235" x1="124.508" y1="285.393" x2="485.506" y2="285.393" gradientUnits="userSpaceOnUse">
<stop stop-color="#83A4D4"/>
<stop offset="0.9543" stop-color="#B4F7FD"/>
<stop offset="0.9994" stop-color="#B6FBFF"/>
</linearGradient>
<linearGradient id="paint1_linear_1244_8235" x1="114.749" y1="285.393" x2="495.236" y2="285.393" gradientUnits="userSpaceOnUse">
<stop stop-color="#83A4D4"/>
<stop offset="0.9543" stop-color="#B4F7FD"/>
<stop offset="0.9994" stop-color="#B6FBFF"/>
</linearGradient>
<linearGradient id="paint2_linear_1244_8235" x1="102.905" y1="285.395" x2="507.094" y2="285.395" gradientUnits="userSpaceOnUse">
<stop stop-color="#83A4D4"/>
<stop offset="0.9543" stop-color="#B4F7FD"/>
<stop offset="0.9994" stop-color="#B6FBFF"/>
</linearGradient>
<linearGradient id="paint3_linear_1244_8235" x1="89.9889" y1="285.393" x2="520.002" y2="285.393" gradientUnits="userSpaceOnUse">
<stop stop-color="#83A4D4"/>
<stop offset="0.9543" stop-color="#B4F7FD"/>
<stop offset="0.9994" stop-color="#B6FBFF"/>
</linearGradient>
<linearGradient id="paint4_linear_1244_8235" x1="76.7513" y1="285.396" x2="533.257" y2="285.396" gradientUnits="userSpaceOnUse">
<stop stop-color="#83A4D4"/>
<stop offset="0.9543" stop-color="#B4F7FD"/>
<stop offset="0.9994" stop-color="#B6FBFF"/>
</linearGradient>
<linearGradient id="paint5_linear_1244_8235" x1="63.2733" y1="285.395" x2="546.701" y2="285.395" gradientUnits="userSpaceOnUse">
<stop stop-color="#83A4D4"/>
<stop offset="0.9543" stop-color="#B4F7FD"/>
<stop offset="0.9994" stop-color="#B6FBFF"/>
</linearGradient>
<linearGradient id="paint6_linear_1244_8235" x1="50.2779" y1="285.394" x2="559.692" y2="285.394" gradientUnits="userSpaceOnUse">
<stop stop-color="#83A4D4"/>
<stop offset="0.9543" stop-color="#B4F7FD"/>
<stop offset="0.9994" stop-color="#B6FBFF"/>
</linearGradient>
<linearGradient id="paint7_linear_1244_8235" x1="38.1965" y1="285.396" x2="571.811" y2="285.396" gradientUnits="userSpaceOnUse">
<stop stop-color="#83A4D4"/>
<stop offset="0.9543" stop-color="#B4F7FD"/>
<stop offset="0.9994" stop-color="#B6FBFF"/>
</linearGradient>
<linearGradient id="paint8_linear_1244_8235" x1="27.3498" y1="285.392" x2="582.663" y2="285.392" gradientUnits="userSpaceOnUse">
<stop stop-color="#83A4D4"/>
<stop offset="0.9543" stop-color="#B4F7FD"/>
<stop offset="0.9994" stop-color="#B6FBFF"/>
</linearGradient>
<linearGradient id="paint9_linear_1244_8235" x1="18.0434" y1="285.391" x2="591.974" y2="285.391" gradientUnits="userSpaceOnUse">
<stop stop-color="#83A4D4"/>
<stop offset="0.9543" stop-color="#B4F7FD"/>
<stop offset="0.9994" stop-color="#B6FBFF"/>
</linearGradient>
<linearGradient id="paint10_linear_1244_8235" x1="10.4995" y1="285.393" x2="599.511" y2="285.393" gradientUnits="userSpaceOnUse">
<stop stop-color="#83A4D4"/>
<stop offset="0.9543" stop-color="#B4F7FD"/>
<stop offset="0.9994" stop-color="#B6FBFF"/>
</linearGradient>
<linearGradient id="paint11_linear_1244_8235" x1="4.9063" y1="285.392" x2="605.101" y2="285.392" gradientUnits="userSpaceOnUse">
<stop stop-color="#83A4D4"/>
<stop offset="0.9543" stop-color="#B4F7FD"/>
<stop offset="0.9994" stop-color="#B6FBFF"/>
</linearGradient>
<linearGradient id="paint12_linear_1244_8235" x1="1.38514" y1="285.391" x2="608.629" y2="285.391" gradientUnits="userSpaceOnUse">
<stop stop-color="#83A4D4"/>
<stop offset="0.9543" stop-color="#B4F7FD"/>
<stop offset="0.9994" stop-color="#B6FBFF"/>
</linearGradient>
<linearGradient id="paint13_linear_1244_8235" x1="-0.00369971" y1="285.394" x2="610.006" y2="285.394" gradientUnits="userSpaceOnUse">
<stop stop-color="#83A4D4"/>
<stop offset="0.9543" stop-color="#B4F7FD"/>
<stop offset="0.9994" stop-color="#B6FBFF"/>
</linearGradient>
<linearGradient id="paint14_linear_1244_8235" x1="1.02757" y1="285.392" x2="608.975" y2="285.392" gradientUnits="userSpaceOnUse">
<stop stop-color="#83A4D4"/>
<stop offset="0.9543" stop-color="#B4F7FD"/>
<stop offset="0.9994" stop-color="#B6FBFF"/>
</linearGradient>
<linearGradient id="paint15_linear_1244_8235" x1="3.97408" y1="285.391" x2="606.018" y2="285.391" gradientUnits="userSpaceOnUse">
<stop stop-color="#83A4D4"/>
<stop offset="0.9543" stop-color="#B4F7FD"/>
<stop offset="0.9994" stop-color="#B6FBFF"/>
</linearGradient>
<linearGradient id="paint16_linear_1244_8235" x1="8.95298" y1="285.391" x2="601.068" y2="285.391" gradientUnits="userSpaceOnUse">
<stop stop-color="#83A4D4"/>
<stop offset="0.9543" stop-color="#B4F7FD"/>
<stop offset="0.9994" stop-color="#B6FBFF"/>
</linearGradient>
<linearGradient id="paint17_linear_1244_8235" x1="15.7572" y1="285.394" x2="594.268" y2="285.394" gradientUnits="userSpaceOnUse">
<stop stop-color="#83A4D4"/>
<stop offset="0.9543" stop-color="#B4F7FD"/>
<stop offset="0.9994" stop-color="#B6FBFF"/>
</linearGradient>
<linearGradient id="paint18_linear_1244_8235" x1="24.1183" y1="285.395" x2="585.907" y2="285.395" gradientUnits="userSpaceOnUse">
<stop stop-color="#83A4D4"/>
<stop offset="0.9543" stop-color="#B4F7FD"/>
<stop offset="0.9994" stop-color="#B6FBFF"/>
</linearGradient>
<linearGradient id="paint19_linear_1244_8235" x1="33.5973" y1="285.394" x2="576.394" y2="285.394" gradientUnits="userSpaceOnUse">
<stop stop-color="#83A4D4"/>
<stop offset="0.9543" stop-color="#B4F7FD"/>
<stop offset="0.9994" stop-color="#B6FBFF"/>
</linearGradient>
<linearGradient id="paint20_linear_1244_8235" x1="43.7888" y1="285.392" x2="566.237" y2="285.392" gradientUnits="userSpaceOnUse">
<stop stop-color="#83A4D4"/>
<stop offset="0.9543" stop-color="#B4F7FD"/>
<stop offset="0.9994" stop-color="#B6FBFF"/>
</linearGradient>
</defs>
</svg>
