<svg width="1302" height="1352" viewBox="0 0 1302 1352" fill="none" xmlns="http://www.w3.org/2000/svg">
<g opacity="0.1">
<path d="M892.328 1289.14C866.502 1289.14 841.421 1279.45 821.741 1261.02L187.515 669.743C159.95 644.043 148.589 606.797 157.032 570.111C165.476 533.424 192.047 504.931 228.116 493.943L1057.34 240.425C1093.35 229.437 1131.28 238.19 1158.84 263.827C1186.41 289.527 1197.77 326.772 1189.33 363.459L994.266 1208.25C985.823 1244.94 959.252 1273.43 923.244 1284.42C913.001 1287.65 902.571 1289.14 892.328 1289.14ZM189.998 667.135L824.162 1258.47C850.733 1283.3 887.423 1291.74 922.189 1281.13C956.955 1270.51 982.594 1243.01 990.789 1207.57L1185.85 362.777C1194.04 327.331 1183.06 291.389 1156.42 266.559C1129.85 241.79 1093.16 233.286 1058.4 243.901L229.171 497.357C194.406 507.972 168.766 535.472 160.571 570.918C152.376 606.363 163.365 642.305 189.998 667.135Z" fill="url(#paint0_linear_390_4041)"/>
<path d="M713.264 1348.79C712.023 1348.79 710.719 1348.79 709.477 1348.73C671.856 1347.43 638.828 1326.76 621.135 1293.55L214.003 527.962C196.31 494.689 197.676 455.767 217.666 423.86C237.594 391.891 271.926 373.641 309.671 374.944L1176.27 405.175C1213.89 406.479 1246.92 427.15 1264.61 460.361C1282.3 493.634 1280.94 532.555 1260.95 564.462L801.42 1299.75C782.175 1330.67 749.396 1348.79 713.264 1348.79ZM305.822 378.483C270.932 378.483 239.271 395.988 220.646 425.785C201.401 456.636 200.035 494.192 217.17 526.286L624.239 1291.81C641.312 1323.9 673.221 1343.83 709.539 1345.13C745.857 1346.43 779.071 1328.74 798.378 1297.89L1257.91 562.6C1277.15 531.748 1278.52 494.192 1261.45 462.099C1244.37 430.006 1212.46 410.079 1176.15 408.776L309.485 378.545C308.305 378.483 307.064 378.483 305.822 378.483Z" fill="url(#paint1_linear_390_4041)"/>
<path d="M524.141 1346.93C511.538 1346.93 498.811 1344.63 486.457 1339.85C451.319 1326.38 426.797 1296.09 420.899 1258.91L285.25 402.506C279.353 365.322 293.321 328.946 322.562 305.233C351.864 281.52 390.293 275.436 425.431 288.907L1234.98 599.597C1270.11 613.068 1294.64 643.361 1300.53 680.544C1306.43 717.728 1292.46 754.105 1263.22 777.818L589.326 1323.47C570.392 1338.92 547.483 1346.93 524.141 1346.93ZM387.809 285.493C365.274 285.493 343.173 293.19 324.796 308.026C296.549 330.932 283.078 366.005 288.727 401.947L424.376 1258.29C430.087 1294.23 453.74 1323.4 487.699 1336.44C521.657 1349.48 558.782 1343.58 587.029 1320.73L1260.93 775.086C1289.17 752.18 1302.64 717.107 1297 681.165C1291.28 645.223 1267.63 616.047 1233.67 603.011L424.189 292.321C412.332 287.789 399.977 285.493 387.809 285.493Z" fill="url(#paint2_linear_390_4041)"/>
<path d="M345.08 1283.37C321.117 1283.37 297.712 1274.99 278.467 1258.85C249.599 1234.64 236.313 1198.07 242.832 1160.95L393.442 307.096C399.96 270.037 425.041 240.178 460.428 227.266C495.814 214.355 534.181 221.121 563.049 245.33L1227.32 802.649C1256.19 826.859 1269.48 863.422 1262.96 900.543C1256.44 937.603 1231.36 967.461 1195.97 980.373L381.088 1276.97C369.23 1281.26 357.124 1283.37 345.08 1283.37ZM496.373 224.473C484.764 224.473 473.03 226.521 461.607 230.681C427.463 243.096 403.251 271.899 396.98 307.717L246.37 1161.64C240.038 1197.45 252.889 1232.77 280.764 1256.18C308.638 1279.58 345.639 1286.1 379.846 1273.62L1194.67 977.083C1228.81 964.668 1253.02 935.864 1259.36 900.047C1265.69 864.229 1252.84 828.907 1224.96 805.505L560.69 248.186C542.127 232.605 519.53 224.473 496.373 224.473Z" fill="url(#paint3_linear_390_4041)"/>
<path d="M197.376 1165.11C160.499 1165.11 127.223 1146.3 108.164 1114.58C88.7948 1082.3 88.1119 1043.38 106.364 1010.41L526.781 252.094L528.333 252.963L526.781 252.094C545.033 219.131 578.433 199.081 616.054 198.46C653.552 197.839 687.759 216.711 707.19 248.99L1153.81 992.165C1173.18 1024.44 1173.86 1063.37 1155.61 1096.33C1137.35 1129.29 1103.95 1149.34 1066.33 1149.96L199.362 1165.11C198.679 1165.11 198.058 1165.11 197.376 1165.11ZM617.979 202.061C617.358 202.061 616.737 202.061 616.116 202.061C579.736 202.681 547.516 222.049 529.885 253.894L109.53 1012.15C91.8988 1043.94 92.5817 1081.55 111.268 1112.72C130.017 1143.88 162.982 1162.13 199.238 1161.51L1066.21 1146.36C1102.59 1145.74 1134.81 1126.37 1152.44 1094.53C1170.07 1062.74 1169.39 1025.13 1150.7 993.965L704.086 250.79C685.71 220.187 653.552 202.061 617.979 202.061Z" fill="url(#paint4_linear_390_4041)"/>
<path d="M921.172 1273.31C910.307 1273.31 899.319 1271.57 888.579 1268.1L63.8241 1000.18C28.003 988.567 1.92868 959.578 -5.89361 922.767C-13.7159 885.956 -1.67206 848.896 26.3268 823.693L670.734 243.531L671.914 244.834L670.734 243.531C698.733 218.328 736.851 210.258 772.61 221.866C808.431 233.474 834.506 262.464 842.328 299.275L1022.61 1147.36C1030.44 1184.17 1018.39 1221.23 990.393 1246.43C970.837 1264.06 946.377 1273.31 921.172 1273.31ZM740.017 220.252C715.681 220.252 692.028 229.191 673.093 246.2L28.6859 826.363C1.68036 850.696 -9.92892 886.452 -2.41704 922.022C5.15693 957.591 30.3 985.526 64.8795 996.761L889.572 1264.68C924.152 1275.92 960.966 1268.1 987.972 1243.76C1014.98 1219.43 1026.65 1183.67 1019.07 1148.1L838.851 300.02C831.278 264.45 806.134 236.516 771.555 225.28C761.125 221.928 750.509 220.252 740.017 220.252Z" fill="url(#paint5_linear_390_4041)"/>
<path d="M744.446 1343.08C722.345 1343.08 700.554 1335.94 682.054 1321.98L-10.4673 800.164C-40.5769 777.507 -55.7869 741.627 -51.1929 704.257C-46.5989 666.887 -23.1941 635.787 11.5096 621.075L809.694 282.264C844.397 267.552 883.012 272.27 913.122 294.99C943.231 317.647 958.441 353.527 953.847 390.897L848.184 1251.46C843.59 1288.83 820.185 1319.93 785.482 1334.64C772.134 1340.29 758.228 1343.08 744.446 1343.08ZM810.376 283.94L811.059 285.616L12.8754 624.365C-20.5866 638.581 -43.2464 668.625 -47.6542 704.692C-52.062 740.758 -37.4108 775.396 -8.35655 797.309L684.164 1319.12C713.219 1341.03 750.53 1345.56 783.992 1331.35C817.454 1317.13 840.114 1287.09 844.521 1251.02L950.184 390.463C954.592 354.396 939.941 319.758 910.887 297.845C881.832 275.994 844.521 271.401 811.059 285.616L810.376 283.94Z" fill="url(#paint6_linear_390_4041)"/>
<path d="M555.274 1351.52C520.633 1351.52 488.847 1334.7 469.167 1305.59L-15.6906 586.809C-36.7363 555.585 -39.4679 516.725 -22.9542 482.894C-6.44044 449.063 25.842 427.274 63.4014 424.667L928.385 364.205C965.944 361.597 1000.96 378.668 1022 409.893C1043.05 441.117 1045.78 479.976 1029.27 513.808L649.142 1293.11C632.628 1326.94 600.346 1348.73 562.786 1351.34C560.303 1351.46 557.82 1351.52 555.274 1351.52ZM928.571 365.943L928.695 367.743L63.7118 428.205C27.4561 430.75 -3.77093 451.794 -19.6638 484.446C-35.6188 517.16 -32.9493 554.654 -12.6486 584.761L472.209 1303.54C492.572 1333.71 526.406 1350.16 562.6 1347.61C598.856 1345.07 630.083 1324.02 645.976 1291.37L1026.1 512.07C1042.06 479.356 1039.45 441.862 1019.09 411.755C998.724 381.586 964.951 365.136 928.695 367.681L928.571 365.943Z" fill="url(#paint7_linear_390_4041)"/>
<path d="M374.438 1298.2C365.312 1298.2 356.124 1297.02 346.998 1294.54C310.618 1284.79 283.054 1257.23 273.307 1220.85L48.8818 383.385C39.1349 347.009 49.1922 309.391 75.8252 282.76C102.458 256.129 140.08 246.073 176.46 255.819L1014.07 480.224C1050.45 489.97 1078.01 517.531 1087.76 553.908C1097.5 590.285 1087.45 627.903 1060.81 654.533L447.694 1267.6C427.704 1287.52 401.568 1298.2 374.438 1298.2ZM149.082 255.757C122.883 255.757 97.6779 266.061 78.4326 285.305C52.7308 311.005 42.984 347.319 52.4204 382.454L276.846 1219.92C286.282 1255.06 312.853 1281.63 347.991 1291.06C383.129 1300.5 419.447 1290.75 445.149 1265.05L1058.27 651.988C1083.97 626.289 1093.72 589.974 1084.28 554.839C1074.84 519.704 1048.27 493.136 1013.13 483.7L175.59 259.295C166.775 256.874 157.835 255.757 149.082 255.757Z" fill="url(#paint8_linear_390_4041)"/>
<path d="M219.499 1188.64C199.198 1188.64 179.084 1182.62 161.39 1170.64C130.163 1149.59 113.091 1114.58 115.698 1077.02L176.228 212.057C178.835 174.501 200.626 142.221 234.523 125.709C268.357 109.197 307.22 111.928 338.447 132.972L1057.29 617.786C1088.52 638.83 1105.59 673.84 1102.98 711.396C1100.38 748.952 1078.58 781.232 1044.69 797.744L265.315 1177.9C250.664 1185.04 235.019 1188.64 219.499 1188.64ZM280.277 118.632C265.253 118.632 250.167 122.046 236.012 128.937C203.358 144.89 182.312 176.053 179.767 212.305L119.299 1077.21C116.754 1113.46 133.267 1147.29 163.377 1167.59C193.549 1187.95 231.046 1190.56 263.763 1174.61L1043.14 794.516C1075.79 778.563 1096.84 747.401 1099.38 711.148C1101.93 674.896 1085.41 641.064 1055.3 620.765L336.399 135.951C319.326 124.467 299.895 118.632 280.277 118.632Z" fill="url(#paint9_linear_390_4041)"/>
<path d="M108.977 1034.56C76.4463 1034.56 46.2126 1019.6 26.1602 993.036C3.50039 962.929 -1.2799 924.318 13.4335 889.617L352.337 91.5673C367.051 56.9289 398.153 33.4641 435.527 28.8705C472.962 24.2769 508.783 39.4855 531.443 69.5924L1053.3 762.051C1075.96 792.158 1080.74 830.769 1066.03 865.469C1051.31 900.108 1020.21 923.573 982.839 928.166L122.076 1033.76C117.731 1034.32 113.323 1034.56 108.977 1034.56ZM448.626 31.6639C444.466 31.6639 440.245 31.9122 435.961 32.4709C399.892 36.8783 369.844 59.5361 355.628 92.9951L16.7859 891.045C2.56917 924.504 7.16321 961.811 29.078 990.863C50.9929 1019.91 85.5723 1034.56 121.704 1030.16L982.342 924.504C1018.41 920.096 1048.46 897.439 1062.68 863.98C1076.89 830.521 1072.3 793.213 1050.38 764.161L528.525 71.703C509.218 46.0656 480.039 31.6639 448.626 31.6639Z" fill="url(#paint10_linear_390_4041)"/>
<path d="M903.923 1033.45C896.597 1033.45 889.209 1032.7 881.76 1031.09L33.5999 850.881C-3.21454 843.059 -32.2067 816.987 -43.816 781.169C-55.4873 745.351 -47.3546 707.237 -22.1495 679.24L558.066 34.891C583.271 6.89473 620.334 -5.14802 657.148 2.67356C693.963 10.4951 722.955 36.5671 734.564 72.385L1002.51 897.003C1014.12 932.821 1006.05 970.936 980.842 998.932C960.727 1021.28 933.039 1033.45 903.923 1033.45ZM635.047 3.97716C606.924 3.97716 580.229 15.7095 560.735 37.312L-19.4799 681.661C-43.816 708.664 -51.6382 745.476 -40.4015 780.052C-29.1647 814.628 -1.22793 839.769 34.3449 847.342L882.504 1027.61C918.077 1035.18 953.836 1023.58 978.172 996.511C1002.51 969.508 1010.33 932.697 999.094 898.12L731.149 73.5644C719.913 38.988 691.976 13.8473 656.403 6.27397C649.264 4.72207 642.124 3.97716 635.047 3.97716Z" fill="url(#paint11_linear_390_4041)"/>
<path d="M806.383 1110.73C787.882 1110.73 769.444 1105.7 752.744 1095.71L9.50245 649.133C-22.78 629.765 -41.6528 595.685 -41.032 558.005C-40.3491 520.325 -20.2968 486.99 12.6065 468.74L771.058 48.3607C804.024 30.1104 842.949 30.7932 875.231 50.1609C907.514 69.5286 926.386 103.608 925.766 141.289L910.618 1008.18C909.935 1045.86 889.882 1079.2 856.979 1097.45C841.024 1106.32 823.703 1110.73 806.383 1110.73ZM821.593 38.7389C804.893 38.7389 788.131 42.9601 772.796 51.5266L14.4069 471.843C-17.3789 489.473 -36.7484 521.69 -37.4313 558.067C-38.0521 594.444 -19.8622 627.344 11.3649 646.029L754.607 1092.6C785.771 1111.35 823.393 1111.97 855.179 1094.34C886.965 1076.71 906.334 1044.49 907.017 1008.12L908.817 1008.18L907.017 1008.12L922.165 141.226C922.786 104.85 904.596 71.9496 873.369 53.2647C857.29 43.5809 839.472 38.7389 821.593 38.7389Z" fill="url(#paint12_linear_390_4041)"/>
<path d="M689.133 1151.95C658.651 1151.95 629.969 1138.73 609.793 1114.7L52.4235 450.491C28.2117 421.626 21.4448 383.263 34.3577 347.879C47.2707 312.496 77.0699 287.479 114.195 280.899L968.128 130.365C1005.19 123.847 1041.82 137.131 1066.03 165.996C1090.24 194.862 1097.01 233.225 1084.1 268.608L787.532 1083.36C774.681 1118.74 744.82 1143.76 707.695 1150.34C701.487 1151.45 695.279 1151.95 689.133 1151.95ZM986.69 132.351C980.793 132.351 974.771 132.848 968.749 133.903L114.816 284.5C78.9945 290.831 50.1886 314.979 37.7722 349.183C25.3559 383.325 31.8745 420.384 55.2172 448.256L612.586 1112.47C635.991 1140.34 671.316 1153.19 707.137 1146.86C742.958 1140.53 771.764 1116.38 784.18 1082.18L785.856 1082.8L784.18 1082.18L1080.74 267.429C1093.16 233.287 1086.64 196.227 1063.3 168.355C1043.81 145.139 1016.05 132.351 986.69 132.351Z" fill="url(#paint13_linear_390_4041)"/>
<path d="M566.148 1153.07C560.623 1153.07 555.036 1152.63 549.386 1151.76C512.199 1145.87 481.903 1121.35 468.432 1086.21L157.713 276.678C144.241 241.543 150.325 203.056 174.04 173.756C197.756 144.456 234.136 130.551 271.322 136.448L1127.74 272.084C1164.93 277.982 1195.22 302.502 1208.69 337.637C1222.17 372.772 1216.08 411.259 1192.37 440.497L646.668 1114.33L645.302 1113.21L646.668 1114.33C626.554 1139.22 597.313 1153.07 566.148 1153.07ZM254.498 138.745C224.451 138.745 196.204 152.091 176.772 176.053C153.864 204.297 148.028 241.481 161.065 275.374L471.784 1084.85C484.821 1118.8 514.062 1142.45 549.945 1148.16C585.828 1153.87 620.966 1140.4 643.874 1112.1L1189.57 438.262C1212.48 410.017 1218.32 372.834 1205.28 338.94C1192.24 304.985 1163 281.334 1127.12 275.623L270.702 140.049C265.238 139.18 259.837 138.745 254.498 138.745Z" fill="url(#paint14_linear_390_4041)"/>
<path d="M448.269 1113.83C431.569 1113.83 414.807 1109.74 399.286 1101.48C366.01 1083.79 345.399 1050.76 344.096 1013.15L313.8 146.627C312.496 109.009 330.748 74.6187 362.72 54.6302C394.63 34.7038 433.555 33.3381 466.831 50.9677L1232.42 458C1265.7 475.692 1286.31 508.716 1287.61 546.335C1288.92 583.953 1270.66 618.343 1238.69 638.331L503.397 1097.82C486.325 1108.5 467.328 1113.83 448.269 1113.83ZM417.849 42.215C399.41 42.215 381.034 47.3673 364.645 57.6719C333.79 76.9155 316.159 110.126 317.401 146.503L347.634 1013.02C348.876 1049.34 368.804 1081.24 400.962 1098.31C433.059 1115.39 470.68 1114.08 501.473 1094.78L502.404 1096.33L501.473 1094.78L1236.83 635.29C1267.68 616.046 1285.32 582.835 1284.07 546.459C1282.83 510.144 1262.9 478.237 1230.75 461.166L465.155 54.1957C450.131 46.1878 433.99 42.215 417.849 42.215Z" fill="url(#paint15_linear_390_4041)"/>
<path d="M349.387 1038.29C320.954 1038.29 293.762 1026.62 273.71 1005.08C248.008 977.516 239.255 939.587 250.243 903.583L503.722 74.4334C514.711 38.4293 543.206 11.8607 579.897 3.41838C616.587 -5.08604 653.836 6.33595 679.538 33.8977L1270.93 668.005C1296.63 695.566 1305.38 733.495 1294.39 769.499C1283.41 805.503 1254.91 832.072 1218.22 840.576L373.289 1035.56L372.916 1033.82L373.289 1035.56C365.28 1037.42 357.272 1038.29 349.387 1038.29ZM603.86 4.22536C596.224 4.22536 588.464 5.09443 580.766 6.89463C545.317 15.0887 517.815 40.7261 507.199 75.4887L253.657 904.638C243.042 939.401 251.485 976.026 276.255 1002.66C301.088 1029.23 337.033 1040.27 372.482 1032.08L1217.35 837.038C1252.8 828.844 1280.3 803.206 1290.92 768.444C1301.53 733.681 1293.09 697.056 1268.32 670.426L676.93 36.3187C657.561 15.5232 631.3 4.22536 603.86 4.22536Z" fill="url(#paint16_linear_390_4041)"/>
<path d="M1144.21 1025.56C1140.49 1025.56 1136.7 1025.38 1132.97 1024.94L270.597 934.312C233.162 930.401 201.624 907.495 186.29 873.105C170.956 838.715 175.053 799.979 197.155 769.5L706.845 68.0407C729.008 37.5614 764.519 21.732 802.016 25.6428C839.451 29.5536 870.989 52.4596 886.323 86.8497L1239.01 878.94C1254.34 913.33 1250.25 952.066 1228.14 982.545C1208.22 1009.98 1177.42 1025.56 1144.21 1025.56ZM790.779 28.6845C758.683 28.6845 728.946 43.7069 709.763 70.1513L200.072 771.611C178.716 801.035 174.743 838.404 189.581 871.677C204.356 904.888 234.776 926.987 270.97 930.773L1133.35 1021.4C1169.48 1025.19 1203.87 1009.92 1225.23 980.496C1246.58 951.072 1250.56 913.703 1235.72 880.43L883.033 88.3396C868.257 55.1289 837.837 33.0298 801.644 29.2432C797.981 28.8707 794.38 28.6845 790.779 28.6845Z" fill="url(#paint17_linear_390_4041)"/>
<path d="M1036.45 1181.5C1021.49 1181.5 1006.46 1178.21 992.247 1171.57L206.355 805.13C172.21 789.239 149.861 757.332 146.571 719.776C143.28 682.282 159.732 646.961 190.587 625.358L900.925 128.067C931.78 106.465 970.581 103.05 1004.73 119.004C1038.87 134.895 1061.22 166.802 1064.51 204.358L1140 1068.08C1143.29 1105.58 1126.84 1140.9 1095.99 1162.5C1077.98 1175.1 1057.31 1181.5 1036.45 1181.5ZM960.461 112.672C940.285 112.672 920.294 118.88 902.974 130.985L192.635 628.338C162.836 649.195 146.943 683.275 150.109 719.528C153.276 755.78 174.88 786.57 207.783 801.902L993.675 1168.34C1026.64 1183.73 1064.08 1180.44 1093.87 1159.58C1123.67 1138.73 1139.57 1104.65 1136.4 1068.39L1060.85 204.669C1057.68 168.416 1036.08 137.627 1003.17 122.294C989.453 115.838 974.864 112.672 960.461 112.672Z" fill="url(#paint18_linear_390_4041)"/>
<path d="M883.382 1293.73C856.874 1293.73 831.296 1283.55 811.492 1264.37L187.757 662.109C160.69 635.975 149.95 598.481 159.014 561.98C168.14 525.417 195.207 497.421 231.401 487.054L1064.91 248.061C1101.1 237.695 1138.91 247.13 1165.98 273.264C1193.05 299.398 1203.79 336.83 1194.72 373.393L984.948 1214.65C975.822 1251.21 948.754 1279.21 912.561 1289.57C902.876 1292.37 893.067 1293.73 883.382 1293.73ZM1094.09 247.503C1084.71 247.503 1075.28 248.806 1065.9 251.476L232.394 490.468C197.442 500.463 171.306 527.528 162.49 562.849C153.675 598.108 164.042 634.299 190.241 659.564L813.975 1261.89C840.112 1287.15 876.616 1296.22 911.568 1286.22C946.519 1276.23 972.656 1249.16 981.471 1213.84L1191.25 372.586C1200.06 337.327 1189.69 301.136 1163.49 275.871C1144.37 257.311 1119.67 247.503 1094.09 247.503Z" fill="url(#paint19_linear_390_4041)"/>
<path d="M703.407 1350.22C701.544 1350.22 699.62 1350.16 697.757 1350.1C660.136 1348.11 627.481 1326.94 610.408 1293.36L216.687 520.822C199.614 487.238 201.601 448.379 222.15 416.782C242.637 385.186 277.34 367.494 314.962 369.48L1180.88 414.858C1218.5 416.844 1251.15 438.012 1268.23 471.595C1285.3 505.178 1283.31 544.038 1262.76 575.635L790.507 1302.79C771.076 1332.78 738.793 1350.22 703.407 1350.22ZM219.915 519.208L613.575 1291.74C630.088 1324.15 661.626 1344.63 697.944 1346.56C734.323 1348.48 767.786 1331.41 787.59 1300.87L1259.84 573.71C1279.65 543.231 1281.64 505.675 1265.12 473.271C1248.61 440.868 1217.07 420.383 1180.75 418.458L314.776 373.081C278.458 371.218 244.934 388.227 225.13 418.769C205.326 449.248 203.401 486.804 219.915 519.208Z" fill="url(#paint20_linear_390_4041)"/>
<path d="M514.233 1345.07C501.072 1345.07 487.725 1342.52 474.874 1337.31C439.922 1323.22 415.958 1292.49 410.743 1255.24L290.057 396.67C284.842 359.363 299.431 323.297 329.106 300.08C358.781 276.864 397.334 271.463 432.286 285.554L1236.24 610.336C1271.2 624.427 1295.16 655.155 1300.37 692.401C1305.59 729.708 1291 765.775 1261.32 788.991L578.053 1322.78C559.305 1337.49 536.955 1345.07 514.233 1345.07ZM293.657 396.174L414.344 1254.75C419.435 1290.75 442.529 1320.36 476.302 1334.02C510.012 1347.61 547.261 1342.4 575.943 1319.99L1259.21 786.198C1287.9 763.788 1301.99 728.964 1296.9 692.959C1291.87 656.955 1268.71 627.345 1234.94 613.688L430.92 288.906C397.209 275.312 359.961 280.526 331.279 302.936C302.659 325.283 288.567 360.17 293.657 396.174Z" fill="url(#paint21_linear_390_4041)"/>
<path d="M336.312 1278.4C311.728 1278.4 287.764 1269.58 268.333 1252.7C239.899 1227.99 227.235 1191.18 234.436 1154.18L399.884 303.122C407.085 266.125 432.601 236.763 468.236 224.472C503.871 212.243 542.051 219.63 570.484 244.336L1224.89 813.139C1253.32 837.845 1265.99 874.657 1258.78 911.654C1251.58 948.651 1226.07 978.013 1190.43 990.304L370.643 1272.63C359.344 1276.54 347.797 1278.4 336.312 1278.4ZM401.684 303.495L403.422 303.867L237.975 1154.93C231.022 1190.62 243.252 1226.19 270.754 1250.03C298.194 1273.87 335.133 1281.07 369.526 1269.21L1189.38 986.952C1223.77 975.096 1248.42 946.727 1255.37 911.033C1262.32 875.339 1250.09 839.77 1222.59 815.933L568.187 247.13C540.747 223.293 503.808 216.092 469.415 227.948C435.022 239.805 410.376 268.174 403.422 303.867L401.684 303.495Z" fill="url(#paint22_linear_390_4041)"/>
<path d="M1058.02 1157.6H190.86C153.176 1157.6 119.466 1138.11 100.655 1105.52C81.8442 1072.93 81.8442 1033.94 100.655 1001.35L534.171 250.48C552.982 217.89 586.754 198.398 624.376 198.398C662.059 198.398 695.77 217.89 714.58 250.48L1148.16 1001.35C1166.97 1033.94 1166.97 1072.93 1148.16 1105.52C1129.41 1138.17 1095.64 1157.6 1058.02 1157.6ZM537.275 252.28L103.759 1003.15C85.5691 1034.62 85.5691 1072.24 103.759 1103.72C121.949 1135.19 154.48 1154 190.86 1154H1058.02C1094.4 1154 1126.93 1135.19 1145.12 1103.72C1163.31 1072.24 1163.31 1034.62 1145.12 1003.15L711.538 252.28C693.349 220.808 660.756 201.999 624.438 201.999C588.058 201.999 555.465 220.808 537.275 252.28Z" fill="url(#paint23_linear_390_4041)"/>
</g>
<defs>
<linearGradient id="paint0_linear_390_4041" x1="154.324" y1="762.458" x2="1192.07" y2="762.458" gradientUnits="userSpaceOnUse">
<stop stop-color="#83A4D4"/>
<stop offset="0.9543" stop-color="#B4F7FD"/>
<stop offset="0.9994" stop-color="#B6FBFF"/>
</linearGradient>
<linearGradient id="paint1_linear_390_4041" x1="201.647" y1="861.827" x2="1276.93" y2="861.827" gradientUnits="userSpaceOnUse">
<stop stop-color="#83A4D4"/>
<stop offset="0.9543" stop-color="#B4F7FD"/>
<stop offset="0.9994" stop-color="#B6FBFF"/>
</linearGradient>
<linearGradient id="paint2_linear_390_4041" x1="283.933" y1="814.415" x2="1301.91" y2="814.415" gradientUnits="userSpaceOnUse">
<stop stop-color="#83A4D4"/>
<stop offset="0.9543" stop-color="#B4F7FD"/>
<stop offset="0.9994" stop-color="#B6FBFF"/>
</linearGradient>
<linearGradient id="paint3_linear_390_4041" x1="241.211" y1="752.141" x2="1264.5" y2="752.141" gradientUnits="userSpaceOnUse">
<stop stop-color="#83A4D4"/>
<stop offset="0.9543" stop-color="#B4F7FD"/>
<stop offset="0.9994" stop-color="#B6FBFF"/>
</linearGradient>
<linearGradient id="paint4_linear_390_4041" x1="93.1367" y1="681.786" x2="1168.82" y2="681.786" gradientUnits="userSpaceOnUse">
<stop stop-color="#83A4D4"/>
<stop offset="0.9543" stop-color="#B4F7FD"/>
<stop offset="0.9994" stop-color="#B6FBFF"/>
</linearGradient>
<linearGradient id="paint5_linear_390_4041" x1="-8.20615" y1="744.988" x2="1024.97" y2="744.988" gradientUnits="userSpaceOnUse">
<stop stop-color="#83A4D4"/>
<stop offset="0.9543" stop-color="#B4F7FD"/>
<stop offset="0.9994" stop-color="#B6FBFF"/>
</linearGradient>
<linearGradient id="paint6_linear_390_4041" x1="-52" y1="808.452" x2="954.606" y2="808.452" gradientUnits="userSpaceOnUse">
<stop stop-color="#83A4D4"/>
<stop offset="0.9543" stop-color="#B4F7FD"/>
<stop offset="0.9994" stop-color="#B6FBFF"/>
</linearGradient>
<linearGradient id="paint7_linear_390_4041" x1="-33.6421" y1="857.705" x2="1040.05" y2="857.705" gradientUnits="userSpaceOnUse">
<stop stop-color="#83A4D4"/>
<stop offset="0.9543" stop-color="#B4F7FD"/>
<stop offset="0.9994" stop-color="#B6FBFF"/>
</linearGradient>
<linearGradient id="paint8_linear_390_4041" x1="45.2612" y1="775.173" x2="1091.39" y2="775.173" gradientUnits="userSpaceOnUse">
<stop stop-color="#83A4D4"/>
<stop offset="0.9543" stop-color="#B4F7FD"/>
<stop offset="0.9994" stop-color="#B6FBFF"/>
</linearGradient>
<linearGradient id="paint9_linear_390_4041" x1="115.452" y1="651.815" x2="1103.2" y2="651.815" gradientUnits="userSpaceOnUse">
<stop stop-color="#83A4D4"/>
<stop offset="0.9543" stop-color="#B4F7FD"/>
<stop offset="0.9994" stop-color="#B6FBFF"/>
</linearGradient>
<linearGradient id="paint10_linear_390_4041" x1="5.0692" y1="531.308" x2="1074.39" y2="531.308" gradientUnits="userSpaceOnUse">
<stop stop-color="#83A4D4"/>
<stop offset="0.9543" stop-color="#B4F7FD"/>
<stop offset="0.9994" stop-color="#B6FBFF"/>
</linearGradient>
<linearGradient id="paint11_linear_390_4041" x1="-49.0178" y1="516.92" x2="1007.75" y2="516.92" gradientUnits="userSpaceOnUse">
<stop stop-color="#83A4D4"/>
<stop offset="0.9543" stop-color="#B4F7FD"/>
<stop offset="0.9994" stop-color="#B6FBFF"/>
</linearGradient>
<linearGradient id="paint12_linear_390_4041" x1="-41.0016" y1="572.916" x2="925.759" y2="572.916" gradientUnits="userSpaceOnUse">
<stop stop-color="#83A4D4"/>
<stop offset="0.9543" stop-color="#B4F7FD"/>
<stop offset="0.9994" stop-color="#B6FBFF"/>
</linearGradient>
<linearGradient id="paint13_linear_390_4041" x1="27.9472" y1="640.365" x2="1090.52" y2="640.365" gradientUnits="userSpaceOnUse">
<stop stop-color="#83A4D4"/>
<stop offset="0.9543" stop-color="#B4F7FD"/>
<stop offset="0.9994" stop-color="#B6FBFF"/>
</linearGradient>
<linearGradient id="paint14_linear_390_4041" x1="150.627" y1="644.096" x2="1215.71" y2="644.096" gradientUnits="userSpaceOnUse">
<stop stop-color="#83A4D4"/>
<stop offset="0.9543" stop-color="#B4F7FD"/>
<stop offset="0.9994" stop-color="#B6FBFF"/>
</linearGradient>
<linearGradient id="paint15_linear_390_4041" x1="313.725" y1="576.24" x2="1287.71" y2="576.24" gradientUnits="userSpaceOnUse">
<stop stop-color="#83A4D4"/>
<stop offset="0.9543" stop-color="#B4F7FD"/>
<stop offset="0.9994" stop-color="#B6FBFF"/>
</linearGradient>
<linearGradient id="paint16_linear_390_4041" x1="245.565" y1="519.475" x2="1299.04" y2="519.475" gradientUnits="userSpaceOnUse">
<stop stop-color="#83A4D4"/>
<stop offset="0.9543" stop-color="#B4F7FD"/>
<stop offset="0.9994" stop-color="#B6FBFF"/>
</linearGradient>
<linearGradient id="paint17_linear_390_4041" x1="177.103" y1="525.301" x2="1248.14" y2="525.301" gradientUnits="userSpaceOnUse">
<stop stop-color="#83A4D4"/>
<stop offset="0.9543" stop-color="#B4F7FD"/>
<stop offset="0.9994" stop-color="#B6FBFF"/>
</linearGradient>
<linearGradient id="paint18_linear_390_4041" x1="146.159" y1="645.282" x2="1140.43" y2="645.282" gradientUnits="userSpaceOnUse">
<stop stop-color="#83A4D4"/>
<stop offset="0.9543" stop-color="#B4F7FD"/>
<stop offset="0.9994" stop-color="#B6FBFF"/>
</linearGradient>
<linearGradient id="paint19_linear_390_4041" x1="155.841" y1="768.832" x2="1197.9" y2="768.832" gradientUnits="userSpaceOnUse">
<stop stop-color="#83A4D4"/>
<stop offset="0.9543" stop-color="#B4F7FD"/>
<stop offset="0.9994" stop-color="#B6FBFF"/>
</linearGradient>
<linearGradient id="paint20_linear_390_4041" x1="205.184" y1="859.791" x2="1279.8" y2="859.791" gradientUnits="userSpaceOnUse">
<stop stop-color="#83A4D4"/>
<stop offset="0.9543" stop-color="#B4F7FD"/>
<stop offset="0.9994" stop-color="#B6FBFF"/>
</linearGradient>
<linearGradient id="paint21_linear_390_4041" x1="289.033" y1="811.454" x2="1301.45" y2="811.454" gradientUnits="userSpaceOnUse">
<stop stop-color="#83A4D4"/>
<stop offset="0.9543" stop-color="#B4F7FD"/>
<stop offset="0.9994" stop-color="#B6FBFF"/>
</linearGradient>
<linearGradient id="paint22_linear_390_4041" x1="232.481" y1="748.574" x2="1260.84" y2="748.574" gradientUnits="userSpaceOnUse">
<stop stop-color="#83A4D4"/>
<stop offset="0.9543" stop-color="#B4F7FD"/>
<stop offset="0.9994" stop-color="#B6FBFF"/>
</linearGradient>
<linearGradient id="paint23_linear_390_4041" x1="86.5214" y1="678.002" x2="1162.33" y2="678.002" gradientUnits="userSpaceOnUse">
<stop stop-color="#83A4D4"/>
<stop offset="0.9543" stop-color="#B4F7FD"/>
<stop offset="0.9994" stop-color="#B6FBFF"/>
</linearGradient>
</defs>
</svg>
