<svg width="74" height="73" viewBox="0 0 74 73" fill="none" xmlns="http://www.w3.org/2000/svg">
<g clip-path="url(#clip0_1617_5354)">
<path d="M0 33.1818H10.0909V39.8182H0V33.1818ZM13.1182 8.29545L8.40909 12.9409L15.4727 19.9091L20.1818 15.2636L13.1182 8.29545ZM40.3636 0H33.6364V9.95455H40.3636V0ZM63.9091 33.1818V39.8182H74V33.1818H63.9091ZM30.2727 69.6818C30.2727 71.6727 31.6182 73 33.6364 73H40.3636C42.3818 73 43.7273 71.6727 43.7273 69.6818V66.3636H30.2727V69.6818ZM60.8818 8.29545L53.8182 15.2636L58.5273 19.9091L65.5909 12.9409L60.8818 8.29545ZM57.1818 36.5C57.1818 43.8 53.1455 50.4364 47.0909 53.7545V59.7273C47.0909 61.7182 45.7455 63.0455 43.7273 63.0455H30.2727C28.2545 63.0455 26.9091 61.7182 26.9091 59.7273V53.7545C20.8545 50.4364 16.8182 43.8 16.8182 36.5C16.8182 25.55 25.9 16.5909 37 16.5909C48.1 16.5909 57.1818 25.55 57.1818 36.5ZM50.4545 36.5C50.4545 29.1668 44.4336 23.2273 37 23.2273C29.5664 23.2273 23.5455 29.1668 23.5455 36.5C23.5455 43.8332 29.5664 49.7727 37 49.7727C44.4336 49.7727 50.4545 43.8332 50.4545 36.5Z" fill="#FF8D7C"/>
</g>
<defs>
<clipPath id="clip0_1617_5354">
<rect width="73" height="73" fill="white" transform="translate(0.5)"/>
</clipPath>
</defs>
</svg>
