<svg width="442" height="404" viewBox="0 0 442 404" fill="none" xmlns="http://www.w3.org/2000/svg">
<g clip-path="url(#clip0_545_4325)">
<path d="M171.553 255.831C168.884 255.831 166.583 255.136 164.901 253.725C161.826 251.155 161.323 246.536 163.527 241.105L187.429 182.085C190.698 174.007 199.342 165.716 208.431 161.948C213.594 159.803 218.293 159.416 221.677 160.846L263.718 178.587C266.599 179.805 268.243 182.143 268.514 185.351C269.113 192.888 261.92 203.343 251.786 209.701L185.844 250.981C180.738 254.189 175.691 255.831 171.553 255.831ZM217.094 161.523C214.715 161.523 211.95 162.141 209.011 163.359C200.27 166.992 191.974 174.915 188.841 182.646L164.939 241.666C162.967 246.536 163.295 250.401 165.867 252.546C169.638 255.715 177.161 254.595 185.012 249.667L250.955 208.387C261.997 201.469 267.45 191.419 266.967 185.448C266.754 182.8 265.459 180.964 263.099 179.959L221.058 162.219C219.937 161.774 218.583 161.523 217.094 161.523Z" fill="url(#paint0_linear_545_4325)"/>
<path d="M170.076 263.06C167.562 263.06 165.357 262.441 163.636 261.185C160.213 258.673 159.343 254.112 161.219 248.314L181.949 184.231C186.745 169.408 206.451 155.416 217.686 158.856L265.935 173.602C269.261 174.626 271.311 176.964 271.871 180.366C273.148 188.193 266.205 199.749 255.705 207.267L186.726 256.605C180.808 260.818 174.872 263.06 170.076 263.06ZM213.934 159.842C203.26 159.842 187.461 172.172 183.4 184.695L162.669 248.778C161.006 253.899 161.664 257.861 164.526 259.948C168.935 263.156 177.482 261.32 185.817 255.349L254.796 206.011C266.263 197.817 271.369 186.801 270.344 180.598C269.88 177.757 268.236 175.882 265.47 175.051L217.222 160.306C216.216 159.997 215.114 159.842 213.934 159.842Z" fill="url(#paint1_linear_545_4325)"/>
<path d="M169.049 270.712C166.709 270.712 164.64 270.19 162.938 269.127C159.167 266.75 157.91 262.112 159.38 256.063L176.107 186.974C179.975 171.031 200.357 154.565 213.081 157.136L267.924 168.171C271.753 168.944 274.248 171.263 275.157 174.915C277.187 183.129 270.728 195.516 259.822 204.367L188.251 262.441C181.618 267.774 174.599 270.712 169.049 270.712ZM210.316 158.392C198.385 158.392 180.98 173.35 177.577 187.342L160.849 256.43C159.554 261.783 160.579 265.842 163.75 267.832C168.062 270.557 176.997 269.552 187.284 261.204L258.855 203.15C270.593 193.622 275.253 181.66 273.668 175.263C272.913 172.248 270.825 170.296 267.634 169.659L212.791 158.624C211.999 158.45 211.167 158.392 210.316 158.392Z" fill="url(#paint2_linear_545_4325)"/>
<path d="M168.717 278.887C166.551 278.887 164.578 278.443 162.896 277.554C158.777 275.331 157.056 270.655 158.061 264.393L169.896 190.396C172.623 173.331 193.547 154.238 207.838 155.745L269.604 162.296C273.993 162.76 276.991 165.06 278.286 168.964C281.071 177.39 275.096 190.84 264.073 200.928L190.472 268.374C183.104 275.119 175.06 278.887 168.717 278.887ZM206.213 157.175C192.87 157.175 173.88 175.128 171.405 190.628L159.57 264.625C158.68 270.21 160.111 274.326 163.631 276.201C168.659 278.907 178.599 277.187 189.447 267.234L263.048 199.788C274.922 188.908 279.021 176.017 276.836 169.408C275.753 166.123 273.2 164.19 269.449 163.784L207.683 157.233C207.2 157.194 206.697 157.175 206.213 157.175Z" fill="url(#paint3_linear_545_4325)"/>
<path d="M169.105 287.468C167.132 287.468 165.295 287.12 163.671 286.386C159.165 284.356 156.941 279.68 157.424 273.206L163.342 194.531C164.715 176.404 185.929 154.431 201.902 154.759L270.9 155.958C275.928 156.054 279.506 158.296 281.227 162.47C284.804 171.09 279.428 185.584 268.444 196.928L193.509 274.404C185.484 282.714 176.356 287.468 169.105 287.468ZM201.612 156.286C186.664 156.286 166.146 177.641 164.87 194.647L158.952 273.322C158.507 279.119 160.422 283.255 164.289 284.994C171.212 288.106 182.777 283.313 192.426 273.341L267.361 195.865C279.332 183.477 282.697 169.988 279.834 163.05C278.365 159.475 275.271 157.562 270.9 157.484L201.902 156.286C201.786 156.286 201.709 156.286 201.612 156.286Z" fill="url(#paint4_linear_545_4325)"/>
<path d="M170.345 296.454C168.585 296.454 166.922 296.184 165.394 295.623C160.443 293.826 157.678 289.188 157.581 282.52L156.518 199.479C156.266 180.366 177.635 155.455 195.252 154.276L271.753 149.213L271.811 149.967L271.753 149.213C277.4 148.846 281.732 151.068 283.936 155.474C288.404 164.384 283.878 179.535 272.914 192.348L197.476 280.453C188.87 290.541 178.583 296.454 170.345 296.454ZM272.991 150.701C272.624 150.701 272.237 150.72 271.85 150.74L195.349 155.803C178.718 156.905 157.794 181.39 158.026 199.459L159.09 282.501C159.167 288.569 161.526 292.608 165.897 294.193C173.903 297.092 186.414 291.043 196.335 279.467L271.773 191.362C283.55 177.602 286.141 163.243 282.583 156.17C280.784 152.576 277.478 150.701 272.991 150.701Z" fill="url(#paint5_linear_545_4325)"/>
<path d="M172.349 305.731C170.898 305.731 169.506 305.557 168.191 305.19C162.757 303.682 159.373 299.102 158.638 292.28L149.414 205.296C147.286 185.294 168.481 157.214 187.858 154.373L272.036 142.044C278.437 141.097 283.523 143.203 286.327 147.938C291.684 156.963 288.01 173.061 277.412 187.111L202.458 286.425C193.466 298.348 181.708 305.731 172.349 305.731ZM272.152 142.817L272.268 143.57L188.07 155.9C169.738 158.586 148.911 186.202 150.922 205.141L160.146 292.126C160.804 298.368 163.724 302.368 168.578 303.721C177.783 306.272 191.203 298.793 201.22 285.536L276.175 186.222C286.424 172.655 290.04 157.234 285.012 148.75C282.498 144.517 278.089 142.72 272.249 143.59L272.152 142.817Z" fill="url(#paint6_linear_545_4325)"/>
<path d="M175.548 315.296C174.427 315.296 173.344 315.2 172.28 314.987C166.305 313.828 162.205 309.363 160.774 302.426L142.132 212.059C137.839 191.285 158.55 159.919 179.686 155.184L271.678 134.545C278.91 132.921 284.828 134.835 288.347 139.917C294.613 149 291.963 166.007 281.888 181.274L208.558 292.28C199.276 306.31 186.184 315.296 175.548 315.296ZM271.852 135.279L272.026 136.033L180.035 156.673C159.981 161.175 139.579 192.058 143.64 211.75L162.282 302.116C163.597 308.513 167.155 312.456 172.589 313.499C183.109 315.528 197.381 306.445 207.282 291.449L280.612 180.443C290.358 165.678 293.027 149.387 287.09 140.787C283.899 136.168 278.678 134.526 272.006 136.033L271.852 135.279Z" fill="url(#paint7_linear_545_4325)"/>
<path d="M179.898 325.036C179.202 325.036 178.525 324.997 177.829 324.92C171.215 324.205 166.342 319.934 164.118 312.842L134.724 219.789C131.727 210.3 133.834 197.604 140.525 184.965C147.932 170.934 159.515 160.131 170.751 156.749L270.574 126.66L270.787 127.394L270.574 126.66C278.696 124.205 285.58 125.867 289.912 131.317C297.28 140.574 295.81 158.006 286.277 174.684L215.847 297.826C206.488 314.175 192.003 325.036 179.898 325.036ZM277.497 127.085C275.467 127.085 273.281 127.433 270.999 128.109L171.196 158.218C160.347 161.484 149.112 172.017 141.879 185.68C135.478 197.778 133.351 210.378 136.194 219.345L165.588 312.397C167.657 318.949 171.95 322.756 178.003 323.413C189.915 324.688 204.921 313.866 214.513 297.072L284.942 173.93C294.031 158.025 295.578 140.903 288.713 132.264C285.986 128.843 282.119 127.085 277.497 127.085Z" fill="url(#paint8_linear_545_4325)"/>
<path d="M185.514 334.853C185.359 334.853 185.224 334.853 185.069 334.853C177.74 334.699 171.978 330.679 168.845 323.49L127.287 228.601C123.207 219.306 124.116 206.3 129.743 192.907C136.492 176.867 148.482 163.958 161.013 159.203L268.571 118.504C277.641 115.064 285.569 116.378 290.887 122.214C299.299 131.433 299.145 149.599 290.462 167.397L224.442 302.985C215.295 321.828 199.341 334.853 185.514 334.853ZM268.842 119.238L269.113 119.953L161.554 160.634C149.391 165.233 137.749 177.833 131.155 193.506C125.682 206.493 124.793 219.074 128.699 227.983L170.256 322.871C173.196 329.577 178.34 333.191 185.127 333.326C198.49 333.578 214.096 320.842 223.107 302.328L289.128 166.74C297.52 149.483 297.791 132.012 289.785 123.258C284.912 117.924 277.583 116.745 269.132 119.953L268.842 119.238Z" fill="url(#paint9_linear_545_4325)"/>
<path d="M192.581 344.633C185.155 344.633 178.986 340.961 175.08 334.197L119.889 238.516C114.648 229.433 114.242 216.157 118.748 202.088C124.511 184.096 136.655 169.003 150.463 162.702L265.582 110.156L265.891 110.852L265.582 110.156C275.657 105.557 284.765 106.427 291.224 112.611C300.913 121.868 302.17 140.227 294.435 159.378L234.506 307.605C226.132 328.303 209.56 343.512 194.205 344.575C193.644 344.614 193.103 344.633 192.581 344.633ZM277.668 108.784C274.11 108.784 270.243 109.693 266.201 111.548L151.081 164.075C137.661 170.201 125.826 184.927 120.198 202.532C115.828 216.195 116.195 229.047 121.204 237.743L176.395 333.424C180.34 340.246 186.451 343.57 194.089 343.048C208.883 342.024 224.914 327.201 233.075 307.025L293.003 158.799C300.391 140.517 299.25 122.409 290.161 113.712C286.719 110.446 282.464 108.784 277.668 108.784Z" fill="url(#paint10_linear_545_4325)"/>
<path d="M201.202 354.256C193.892 354.256 187.549 351.01 183.005 344.864L112.653 249.589C106.136 240.777 104.318 227.23 107.644 212.446C112.034 192.946 124.391 175.225 139.107 167.321L261.44 101.672C272.366 95.8162 283.04 96.1254 290.737 102.541C301.644 111.624 304.506 130.505 298.008 150.623L246.027 311.547C238.853 333.771 222.164 351.184 205.437 353.909C204.006 354.14 202.594 354.256 201.202 354.256ZM261.807 102.329L262.175 103.005L139.842 168.654C125.493 176.365 113.426 193.681 109.133 212.755C105.904 227.114 107.625 240.197 113.89 248.662L184.242 343.937C189.367 350.855 196.599 353.773 205.205 352.382C221.391 349.734 237.577 332.747 244.577 311.045L296.558 150.121C302.862 130.602 300.193 112.359 289.77 103.682C282.48 97.5941 272.675 97.3429 262.175 102.986L261.807 102.329Z" fill="url(#paint11_linear_545_4325)"/>
<path d="M211.503 363.553C204.367 363.553 197.928 360.731 192.861 355.301L105.743 261.842C97.8146 253.32 94.4498 239.521 96.519 223.964C99.3423 202.861 111.313 182.936 127.034 173.177L256.077 93.1112L256.484 93.7683L256.077 93.1112C268.009 85.7095 280.153 85.2844 289.397 91.971C301.619 100.803 306.221 120.07 301.155 141.077L259.21 314.601C253.525 338.14 237.029 357.852 219.103 362.548C216.512 363.224 213.959 363.553 211.503 363.553ZM256.89 94.4254L127.847 174.472C112.492 183.999 100.793 203.499 98.0273 224.158C96.0162 239.251 99.2263 252.605 106.845 260.799L193.964 354.257C200.384 361.137 209.183 363.553 218.716 361.06C236.121 356.499 252.171 337.231 257.741 314.234L299.685 140.71C304.616 120.322 300.226 101.672 288.507 93.2078C279.786 86.9077 268.28 87.3522 256.89 94.4254Z" fill="url(#paint12_linear_545_4325)"/>
<path d="M223.522 372.384C216.618 372.384 210.179 370.007 204.725 365.35L99.2359 275.331C89.6829 267.176 84.6163 253.088 85.3705 236.7C86.3761 214.243 97.7082 192.154 114.223 180.443L249.299 84.6657L249.744 85.2841L249.299 84.6657C262.217 75.5054 275.947 74.1719 286.951 81.0132C300.797 89.5937 307.198 108.668 303.678 130.796L274.072 316.591C270.088 341.579 254.521 363.108 235.337 370.162C231.315 371.65 227.351 372.384 223.522 372.384ZM271.809 78.2303C264.789 78.2303 257.363 80.8006 250.189 85.9025L115.093 181.68C98.9459 193.14 87.8651 214.746 86.8789 236.758C86.1634 252.682 91.0172 266.326 100.222 274.172L205.692 364.19C213.756 371.07 224.083 372.674 234.796 368.732C253.476 361.852 268.657 340.806 272.544 316.34L302.15 130.544C305.573 109.054 299.443 90.56 286.119 82.308C281.749 79.5831 276.895 78.2303 271.809 78.2303Z" fill="url(#paint13_linear_545_4325)"/>
<path d="M237.404 380.558C230.829 380.558 224.524 378.626 218.839 374.799L93.3542 290.076C81.9448 282.365 74.9831 268.006 74.2676 250.633C73.2813 227.075 83.6852 202.957 100.761 189.235L241 76.4131C254.827 65.2816 270.24 62.8466 283.312 69.7071C298.705 77.7852 307.214 96.9754 305.512 119.799L290.757 317.344C288.824 343.105 274.223 366.856 254.421 376.442C248.697 379.186 242.954 380.558 237.404 380.558ZM241.465 76.9928L241.948 77.5919L101.708 190.414C85.0002 203.865 74.8284 227.461 75.7953 250.575C76.5108 267.446 83.2211 281.38 94.2245 288.801L219.709 373.524C229.726 380.288 241.813 380.829 253.744 375.05C273.082 365.697 287.354 342.448 289.23 317.209L303.985 119.664C305.648 97.4779 297.448 78.8481 282.597 71.0406C270.104 64.4699 255.291 66.8663 241.948 77.5919L241.465 76.9928Z" fill="url(#paint14_linear_545_4325)"/>
<path d="M253.232 387.883C247.083 387.883 241.049 386.395 235.364 383.4L88.2593 306.059C74.7226 298.947 65.5951 284.279 63.2551 265.823C60.1417 241.415 69.3466 215.461 86.6929 199.672L230.994 68.5095C245.613 55.2136 262.824 51.4064 278.198 58.0931C295.312 65.5141 306.122 84.6657 306.432 108.069L309.236 316.572C309.584 343.202 296.704 368.442 276.38 380.887C268.819 385.545 260.929 387.883 253.232 387.883ZM231.516 69.07L232.038 69.6304L87.7372 200.793C70.739 216.253 61.7274 241.686 64.7829 265.611C67.0648 283.564 75.9023 297.807 88.9941 304.687L236.099 382.027C248.417 388.501 262.457 387.632 275.607 379.573C295.467 367.398 308.075 342.681 307.727 316.572L304.923 108.088C304.614 85.2841 294.152 66.6736 277.598 59.4845C262.805 53.0684 246.193 56.7596 232.019 69.6304L231.516 69.07Z" fill="url(#paint15_linear_545_4325)"/>
<path d="M270.873 394.048C265.323 394.048 259.793 393.004 254.494 390.898L84.1835 323.278C68.1716 316.92 56.5881 302.001 52.3917 282.308C46.977 256.953 54.5576 229.974 72.1746 211.924L219.183 61.1466C234.208 45.7248 253.759 40.1784 271.434 46.2852C290.714 52.9525 303.767 71.4278 306.359 95.7006L329.661 314.098C332.523 340.864 321.423 367.978 301.408 383.168C291.932 390.337 281.355 394.048 270.873 394.048ZM219.724 61.6684L220.266 62.2095L73.2575 212.987C56.0079 230.689 48.5821 257.127 53.8807 281.999C57.9804 301.17 69.2158 315.702 84.7443 321.867L255.055 389.487C269.868 395.362 286.421 392.618 300.48 381.95C320.089 367.07 330.937 340.497 328.133 314.253L304.831 95.8552C302.298 72.1814 289.631 54.1894 270.931 47.7347C253.817 41.821 234.885 47.2322 220.266 62.2095L219.724 61.6684Z" fill="url(#paint16_linear_545_4325)"/>
<path d="M290.577 398.995C285.839 398.995 281.062 398.338 276.363 397.005L81.2998 341.714C62.4646 336.38 48.0383 321.229 41.7148 300.164C34.0182 274.5 39.9744 246.111 57.2433 226.07L205.354 54.479C220.785 36.5836 242.231 29.0853 262.691 34.3805C284.098 39.9269 299.936 57.9963 305.041 82.6943L351.994 309.576C357.583 336.612 348.939 364.673 329.427 382.8C318.056 393.41 304.403 398.995 290.577 398.995ZM205.934 55.0008L206.514 55.5033L58.4035 227.095C41.4441 246.729 35.6233 274.577 43.1651 299.739C49.334 320.302 63.3734 335.066 81.7059 340.265L276.769 395.555C294.657 400.618 313.473 395.594 328.383 381.718C347.508 363.939 355.978 336.438 350.486 309.924L303.533 83.0421C298.544 58.9239 283.131 41.299 262.285 35.9072C242.386 30.7473 221.54 38.0717 206.495 55.5226L205.934 55.0008Z" fill="url(#paint17_linear_545_4325)"/>
<path d="M312.197 402.397C308.542 402.397 304.868 402.069 301.155 401.392L79.8884 361.311C57.8043 357.311 40.1099 342.063 31.3304 319.491C21.3327 293.768 25.471 264.181 42.1211 242.305L189.439 48.7981L190.038 49.2619L189.439 48.7981C205.006 28.3517 228.269 18.573 251.688 22.6507C275.474 26.7863 294.406 44.1986 302.354 69.2445L376.322 302.851C384.753 329.463 378.662 358.837 360.426 379.535C347.334 394.377 330.2 402.397 312.197 402.397ZM241.245 23.2691C221.985 23.2691 203.594 32.7192 190.657 49.7257L43.3394 243.232C26.9987 264.703 22.9377 293.71 32.7615 318.93C41.3476 341 58.6165 355.9 80.1784 359.804L301.464 399.904C322.833 403.769 343.931 395.981 359.304 378.511C377.173 358.219 383.148 329.405 374.871 303.296L300.903 69.7083C293.149 45.2035 274.661 28.1778 251.436 24.158C248.033 23.559 244.61 23.2691 241.245 23.2691Z" fill="url(#paint18_linear_545_4325)"/>
<path d="M335.238 404C333.169 404 331.119 403.903 329.03 403.729L80.2073 381.988C54.8164 379.766 32.8096 364.209 21.3421 340.361C8.86908 314.426 10.9769 284.646 26.9309 260.701L171.251 44.2747L171.889 44.6999L171.251 44.2747C186.586 21.258 211.551 8.90904 238.025 11.2088C264.499 13.5278 286.931 30.0318 298.051 55.3483L402.554 293.535C414.118 319.895 411.004 349.579 394.219 372.963C380.064 392.695 358.347 404 335.238 404ZM231.74 12.4649C208.167 12.4649 186.354 24.3695 172.527 45.1251L28.2072 261.552C12.5433 285.051 10.4935 314.272 22.7151 339.704C33.9506 363.049 55.4739 378.297 80.3233 380.462L329.146 402.222C353.996 404.387 377.859 393.12 392.981 372.074C409.438 349.135 412.493 320.011 401.161 294.154L296.658 55.9667C285.771 31.1527 263.803 14.9966 237.909 12.7355C235.84 12.5616 233.771 12.4649 231.74 12.4649Z" fill="url(#paint19_linear_545_4325)"/>
<path d="M360.086 403.633H82.565C53.0744 403.633 26.678 388.405 11.9423 362.876C-2.79328 337.366 -2.79328 306.89 11.9423 281.38L150.693 41.2023C165.429 15.6733 191.845 0.444824 221.316 0.444824C250.806 0.444824 277.203 15.6733 291.938 41.2023L430.689 281.38C445.425 306.89 445.425 337.366 430.689 362.876C415.973 388.385 389.557 403.633 360.086 403.633ZM151.351 41.5695L152.008 41.956L13.2573 282.134C-1.20756 307.179 -1.20756 337.076 13.2573 362.103C27.7222 387.148 53.6352 402.087 82.565 402.087H360.086C389.016 402.087 414.929 387.129 429.393 362.103C443.858 337.057 443.858 307.16 429.393 282.134L290.623 41.956C276.159 16.9102 250.246 1.97154 221.316 1.97154C192.386 1.97154 166.473 16.9295 152.008 41.956L151.351 41.5695Z" fill="url(#paint20_linear_545_4325)"/>
</g>
<defs>
<linearGradient id="paint0_linear_545_4325" x1="162.182" y1="207.923" x2="268.55" y2="207.923" gradientUnits="userSpaceOnUse">
<stop stop-color="#83A4D4"/>
<stop offset="0.9543" stop-color="#B4F7FD"/>
<stop offset="0.9994" stop-color="#B6FBFF"/>
</linearGradient>
<linearGradient id="paint1_linear_545_4325" x1="160.252" y1="210.692" x2="272.025" y2="210.692" gradientUnits="userSpaceOnUse">
<stop stop-color="#83A4D4"/>
<stop offset="0.9543" stop-color="#B4F7FD"/>
<stop offset="0.9994" stop-color="#B6FBFF"/>
</linearGradient>
<linearGradient id="paint2_linear_545_4325" x1="158.773" y1="213.785" x2="275.516" y2="213.785" gradientUnits="userSpaceOnUse">
<stop stop-color="#83A4D4"/>
<stop offset="0.9543" stop-color="#B4F7FD"/>
<stop offset="0.9994" stop-color="#B6FBFF"/>
</linearGradient>
<linearGradient id="paint3_linear_545_4325" x1="157.783" y1="217.265" x2="278.96" y2="217.265" gradientUnits="userSpaceOnUse">
<stop stop-color="#83A4D4"/>
<stop offset="0.9543" stop-color="#B4F7FD"/>
<stop offset="0.9994" stop-color="#B6FBFF"/>
</linearGradient>
<linearGradient id="paint4_linear_545_4325" x1="157.361" y1="221.116" x2="282.333" y2="221.116" gradientUnits="userSpaceOnUse">
<stop stop-color="#83A4D4"/>
<stop offset="0.9543" stop-color="#B4F7FD"/>
<stop offset="0.9994" stop-color="#B6FBFF"/>
</linearGradient>
<linearGradient id="paint5_linear_545_4325" x1="156.511" y1="222.811" x2="285.651" y2="222.811" gradientUnits="userSpaceOnUse">
<stop stop-color="#83A4D4"/>
<stop offset="0.9543" stop-color="#B4F7FD"/>
<stop offset="0.9994" stop-color="#B6FBFF"/>
</linearGradient>
<linearGradient id="paint6_linear_545_4325" x1="149.269" y1="223.784" x2="288.773" y2="223.784" gradientUnits="userSpaceOnUse">
<stop stop-color="#83A4D4"/>
<stop offset="0.9543" stop-color="#B4F7FD"/>
<stop offset="0.9994" stop-color="#B6FBFF"/>
</linearGradient>
<linearGradient id="paint7_linear_545_4325" x1="141.573" y1="224.628" x2="291.732" y2="224.628" gradientUnits="userSpaceOnUse">
<stop stop-color="#83A4D4"/>
<stop offset="0.9543" stop-color="#B4F7FD"/>
<stop offset="0.9994" stop-color="#B6FBFF"/>
</linearGradient>
<linearGradient id="paint8_linear_545_4325" x1="133.398" y1="225.294" x2="294.57" y2="225.294" gradientUnits="userSpaceOnUse">
<stop stop-color="#83A4D4"/>
<stop offset="0.9543" stop-color="#B4F7FD"/>
<stop offset="0.9994" stop-color="#B6FBFF"/>
</linearGradient>
<linearGradient id="paint9_linear_545_4325" x1="124.767" y1="225.745" x2="297.101" y2="225.745" gradientUnits="userSpaceOnUse">
<stop stop-color="#83A4D4"/>
<stop offset="0.9543" stop-color="#B4F7FD"/>
<stop offset="0.9994" stop-color="#B6FBFF"/>
</linearGradient>
<linearGradient id="paint10_linear_545_4325" x1="115.635" y1="225.94" x2="299.46" y2="225.94" gradientUnits="userSpaceOnUse">
<stop stop-color="#83A4D4"/>
<stop offset="0.9543" stop-color="#B4F7FD"/>
<stop offset="0.9994" stop-color="#B6FBFF"/>
</linearGradient>
<linearGradient id="paint11_linear_545_4325" x1="106.015" y1="225.863" x2="301.455" y2="225.863" gradientUnits="userSpaceOnUse">
<stop stop-color="#83A4D4"/>
<stop offset="0.9543" stop-color="#B4F7FD"/>
<stop offset="0.9994" stop-color="#B6FBFF"/>
</linearGradient>
<linearGradient id="paint12_linear_545_4325" x1="95.9127" y1="225.404" x2="303.186" y2="225.404" gradientUnits="userSpaceOnUse">
<stop stop-color="#83A4D4"/>
<stop offset="0.9543" stop-color="#B4F7FD"/>
<stop offset="0.9994" stop-color="#B6FBFF"/>
</linearGradient>
<linearGradient id="paint13_linear_545_4325" x1="85.2916" y1="224.538" x2="304.635" y2="224.538" gradientUnits="userSpaceOnUse">
<stop stop-color="#83A4D4"/>
<stop offset="0.9543" stop-color="#B4F7FD"/>
<stop offset="0.9994" stop-color="#B6FBFF"/>
</linearGradient>
<linearGradient id="paint14_linear_545_4325" x1="74.197" y1="223.212" x2="305.71" y2="223.212" gradientUnits="userSpaceOnUse">
<stop stop-color="#83A4D4"/>
<stop offset="0.9543" stop-color="#B4F7FD"/>
<stop offset="0.9994" stop-color="#B6FBFF"/>
</linearGradient>
<linearGradient id="paint15_linear_545_4325" x1="62.6597" y1="221.368" x2="309.255" y2="221.368" gradientUnits="userSpaceOnUse">
<stop stop-color="#83A4D4"/>
<stop offset="0.9543" stop-color="#B4F7FD"/>
<stop offset="0.9994" stop-color="#B6FBFF"/>
</linearGradient>
<linearGradient id="paint16_linear_545_4325" x1="50.671" y1="218.941" x2="330.107" y2="218.941" gradientUnits="userSpaceOnUse">
<stop stop-color="#83A4D4"/>
<stop offset="0.9543" stop-color="#B4F7FD"/>
<stop offset="0.9994" stop-color="#B6FBFF"/>
</linearGradient>
<linearGradient id="paint17_linear_545_4325" x1="38.4029" y1="215.864" x2="353.687" y2="215.864" gradientUnits="userSpaceOnUse">
<stop stop-color="#83A4D4"/>
<stop offset="0.9543" stop-color="#B4F7FD"/>
<stop offset="0.9994" stop-color="#B6FBFF"/>
</linearGradient>
<linearGradient id="paint18_linear_545_4325" x1="25.9545" y1="212.067" x2="380.045" y2="212.067" gradientUnits="userSpaceOnUse">
<stop stop-color="#83A4D4"/>
<stop offset="0.9543" stop-color="#B4F7FD"/>
<stop offset="0.9994" stop-color="#B6FBFF"/>
</linearGradient>
<linearGradient id="paint19_linear_545_4325" x1="13.2915" y1="207.472" x2="409.453" y2="207.472" gradientUnits="userSpaceOnUse">
<stop stop-color="#83A4D4"/>
<stop offset="0.9543" stop-color="#B4F7FD"/>
<stop offset="0.9994" stop-color="#B6FBFF"/>
</linearGradient>
<linearGradient id="paint20_linear_545_4325" x1="0.880956" y1="202.036" x2="441.765" y2="202.036" gradientUnits="userSpaceOnUse">
<stop stop-color="#83A4D4"/>
<stop offset="0.9543" stop-color="#B4F7FD"/>
<stop offset="0.9994" stop-color="#B6FBFF"/>
</linearGradient>
<clipPath id="clip0_545_4325">
<rect width="440.889" height="403.556" fill="white" transform="translate(0.890625 0.444824)"/>
</clipPath>
</defs>
</svg>
