<svg width="74" height="74" viewBox="0 0 74 74" fill="none" xmlns="http://www.w3.org/2000/svg">
<path d="M13 69.543V26.9596H46.4583V20.8763C46.4583 18.3416 45.5712 16.1871 43.7969 14.4128C42.0226 12.6385 39.8681 11.7513 37.3333 11.7513C34.7986 11.7513 32.6441 12.6385 30.8698 14.4128C29.0955 16.1871 28.2083 18.3416 28.2083 20.8763H22.125C22.125 16.6687 23.6083 13.0815 26.575 10.1149C29.5396 7.15027 33.1257 5.66797 37.3333 5.66797C41.541 5.66797 45.1281 7.15027 48.0947 10.1149C51.0594 13.0815 52.5417 16.6687 52.5417 20.8763V26.9596H61.6667V69.543H13ZM19.0833 63.4596H55.5833V33.043H19.0833V63.4596ZM37.3333 54.3346C39.0063 54.3346 40.4389 53.7395 41.6312 52.5492C42.8215 51.3568 43.4167 49.9242 43.4167 48.2513C43.4167 46.5784 42.8215 45.1458 41.6312 43.9534C40.4389 42.7631 39.0063 42.168 37.3333 42.168C35.6604 42.168 34.2288 42.7631 33.0385 43.9534C31.8462 45.1458 31.25 46.5784 31.25 48.2513C31.25 49.9242 31.8462 51.3568 33.0385 52.5492C34.2288 53.7395 35.6604 54.3346 37.3333 54.3346Z" fill="#FF8D7C"/>
</svg>
