<svg width="105" height="17" viewBox="0 0 105 17" fill="none" xmlns="http://www.w3.org/2000/svg">
<path d="M0 13.1368V0.000976562H4.72747L7.34547 11.4479H7.68449V0.000976562H10.133V13.1368H5.40551L2.78751 1.68987H2.44849V13.1368H0Z" fill="white"/>
<path d="M16.9496 13.3995C16.0204 13.3995 15.198 13.2056 14.4823 12.8178C13.7791 12.4174 13.2266 11.8607 12.8248 11.1476C12.4356 10.422 12.241 9.57135 12.241 8.59554V8.37036C12.241 7.39456 12.4356 6.55011 12.8248 5.83703C13.2141 5.11143 13.7603 4.55472 14.4634 4.1669C15.1666 3.76657 15.9828 3.56641 16.9119 3.56641C17.8285 3.56641 18.6259 3.77283 19.3039 4.18567C19.982 4.586 20.5093 5.14896 20.886 5.87456C21.2627 6.58764 21.4511 7.41958 21.4511 8.37036V9.17727H14.6518C14.6769 9.8153 14.9155 10.3345 15.3675 10.7348C15.8195 11.1351 16.372 11.3353 17.0249 11.3353C17.6904 11.3353 18.1801 11.1914 18.494 10.9037C18.8079 10.616 19.0465 10.2969 19.2097 9.94666L21.1497 10.96C20.9739 11.2853 20.7165 11.6418 20.3775 12.0296C20.051 12.4049 19.6115 12.7302 19.0591 13.0054C18.5066 13.2681 17.8034 13.3995 16.9496 13.3995ZM14.6706 7.41332H19.0402C18.99 6.87538 18.7703 6.44378 18.381 6.11851C18.0043 5.79324 17.5084 5.63061 16.8931 5.63061C16.2527 5.63061 15.7442 5.79324 15.3675 6.11851C14.9908 6.44378 14.7585 6.87538 14.6706 7.41332Z" fill="white"/>
<path d="M27.123 13.2869C26.3948 13.2869 25.7544 13.1243 25.2019 12.799C24.662 12.4612 24.2414 11.9983 23.94 11.4104C23.6387 10.8224 23.488 10.1468 23.488 9.38369V3.82913H25.8611V9.19604C25.8611 9.89662 26.0306 10.422 26.3697 10.7723C26.7212 11.1226 27.2172 11.2978 27.8576 11.2978C28.5859 11.2978 29.1509 11.0601 29.5527 10.5847C29.9545 10.0968 30.1554 9.42122 30.1554 8.55801V3.82913H32.5286V13.1368H30.1931V11.917H29.854C29.7034 12.2298 29.4209 12.5363 29.0065 12.8365C28.5921 13.1368 27.9643 13.2869 27.123 13.2869Z" fill="white"/>
<path d="M35.1694 13.1368V3.82913H37.5048V4.87999H37.8439C37.982 4.50468 38.208 4.22945 38.5219 4.05431C38.8484 3.87917 39.2251 3.79159 39.652 3.79159H40.782V5.89332H39.6143C39.0116 5.89332 38.5156 6.05596 38.1264 6.38122C37.7371 6.69398 37.5425 7.18188 37.5425 7.84493V13.1368H35.1694Z" fill="white"/>
<path d="M45.3168 13.3995C44.6513 13.3995 44.0548 13.2869 43.5275 13.0617C43.0001 12.824 42.5795 12.4862 42.2656 12.0484C41.9642 11.598 41.8135 11.0538 41.8135 10.4158C41.8135 9.77777 41.9642 9.24608 42.2656 8.82073C42.5795 8.38287 43.0064 8.0576 43.5463 7.84493C44.0988 7.61974 44.7266 7.50715 45.4298 7.50715H47.9913V6.98172C47.9913 6.54386 47.8531 6.18731 47.5769 5.91209C47.3007 5.62435 46.8612 5.48048 46.2585 5.48048C45.6683 5.48048 45.2289 5.6181 44.9401 5.89332C44.6513 6.15604 44.4629 6.50007 44.375 6.92542L42.1902 6.19357C42.3409 5.71818 42.5795 5.28657 42.9059 4.89876C43.245 4.49843 43.6907 4.17941 44.2432 3.94172C44.8082 3.69151 45.4925 3.56641 46.2962 3.56641C47.5267 3.56641 48.4998 3.87291 49.2155 4.48592C49.9312 5.09892 50.2891 5.98715 50.2891 7.15061V10.6222C50.2891 10.9975 50.4649 11.1852 50.8164 11.1852H51.5698V13.1368H49.9877C49.5231 13.1368 49.1402 13.0242 48.8388 12.799C48.5375 12.5738 48.3868 12.2736 48.3868 11.8983V11.8795H48.0289C47.9787 12.0296 47.8657 12.2298 47.6899 12.48C47.5141 12.7177 47.2379 12.9304 46.8612 13.118C46.4845 13.3057 45.9697 13.3995 45.3168 13.3995ZM45.7311 11.4854C46.3966 11.4854 46.9365 11.304 47.3509 10.9412C47.7778 10.5659 47.9913 10.0718 47.9913 9.45876V9.2711H45.5993C45.1598 9.2711 44.8145 9.36493 44.5634 9.55258C44.3122 9.74024 44.1867 10.003 44.1867 10.3407C44.1867 10.6785 44.3185 10.9537 44.5822 11.1664C44.8459 11.3791 45.2289 11.4854 45.7311 11.4854Z" fill="white"/>
<path d="M53.3049 13.1368V0.000976562H55.6781V13.1368H53.3049Z" fill="white"/>
<path d="M63.0147 13.1368V0.000976562H65.5009V10.8849H71.5279V13.1368H63.0147Z" fill="white"/>
<path d="M77.5548 13.3995C76.6257 13.3995 75.8032 13.2056 75.0875 12.8178C74.3844 12.4174 73.8319 11.8607 73.4301 11.1476C73.0408 10.422 72.8462 9.57135 72.8462 8.59554V8.37036C72.8462 7.39456 73.0408 6.55011 73.4301 5.83703C73.8193 5.11143 74.3655 4.55472 75.0687 4.1669C75.7718 3.76657 76.588 3.56641 77.5172 3.56641C78.4338 3.56641 79.2311 3.77283 79.9092 4.18567C80.5872 4.586 81.1146 5.14896 81.4913 5.87456C81.868 6.58764 82.0563 7.41958 82.0563 8.37036V9.17727H75.257C75.2821 9.8153 75.5207 10.3345 75.9727 10.7348C76.4248 11.1351 76.9772 11.3353 77.6302 11.3353C78.2957 11.3353 78.7854 11.1914 79.0993 10.9037C79.4132 10.616 79.6517 10.2969 79.815 9.94666L81.7549 10.96C81.5791 11.2853 81.3217 11.6418 80.9827 12.0296C80.6563 12.4049 80.2168 12.7302 79.6643 13.0054C79.1118 13.2681 78.4087 13.3995 77.5548 13.3995ZM75.2759 7.41332H79.6455C79.5952 6.87538 79.3755 6.44378 78.9863 6.11851C78.6096 5.79324 78.1136 5.63061 77.4983 5.63061C76.858 5.63061 76.3494 5.79324 75.9727 6.11851C75.596 6.44378 75.3638 6.87538 75.2759 7.41332Z" fill="white"/>
<path d="M87.0691 13.3995C86.4036 13.3995 85.8072 13.2869 85.2798 13.0617C84.7524 12.824 84.3318 12.4862 84.0179 12.0484C83.7165 11.598 83.5658 11.0538 83.5658 10.4158C83.5658 9.77777 83.7165 9.24608 84.0179 8.82073C84.3318 8.38287 84.7587 8.0576 85.2986 7.84493C85.8511 7.61974 86.4789 7.50715 87.1821 7.50715H89.7436V6.98172C89.7436 6.54386 89.6055 6.18731 89.3292 5.91209C89.053 5.62435 88.6135 5.48048 88.0108 5.48048C87.4207 5.48048 86.9812 5.6181 86.6924 5.89332C86.4036 6.15604 86.2152 6.50007 86.1273 6.92542L83.9425 6.19357C84.0932 5.71818 84.3318 5.28657 84.6583 4.89876C84.9973 4.49843 85.443 4.17941 85.9955 3.94172C86.5605 3.69151 87.2449 3.56641 88.0485 3.56641C89.279 3.56641 90.2521 3.87291 90.9678 4.48592C91.6835 5.09892 92.0414 5.98715 92.0414 7.15061V10.6222C92.0414 10.9975 92.2172 11.1852 92.5687 11.1852H93.3221V13.1368H91.74C91.2755 13.1368 90.8925 13.0242 90.5911 12.799C90.2898 12.5738 90.1391 12.2736 90.1391 11.8983V11.8795H89.7812C89.731 12.0296 89.618 12.2298 89.4422 12.48C89.2664 12.7177 88.9902 12.9304 88.6135 13.118C88.2368 13.3057 87.722 13.3995 87.0691 13.3995ZM87.4834 11.4854C88.1489 11.4854 88.6888 11.304 89.1032 10.9412C89.5301 10.5659 89.7436 10.0718 89.7436 9.45876V9.2711H87.3516C86.9121 9.2711 86.5668 9.36493 86.3157 9.55258C86.0646 9.74024 85.939 10.003 85.939 10.3407C85.939 10.6785 86.0708 10.9537 86.3345 11.1664C86.5982 11.3791 86.9812 11.4854 87.4834 11.4854Z" fill="white"/>
<path d="M95.0573 16.8899V3.82913H97.3927V4.95505H97.7318C97.9452 4.59225 98.278 4.27324 98.73 3.99801C99.182 3.71028 99.8287 3.56641 100.67 3.56641C101.423 3.56641 102.12 3.75406 102.761 4.12937C103.401 4.49217 103.916 5.03011 104.305 5.7432C104.694 6.45629 104.889 7.3195 104.889 8.33283V8.63308C104.889 9.64641 104.694 10.5096 104.305 11.2227C103.916 11.9358 103.401 12.48 102.761 12.8553C102.12 13.2181 101.423 13.3995 100.67 13.3995C100.105 13.3995 99.6278 13.3307 99.2385 13.1931C98.8618 13.068 98.5542 12.9053 98.3156 12.7052C98.0896 12.4925 97.9076 12.2798 97.7694 12.0672H97.4304V16.8899H95.0573ZM99.9542 11.3353C100.695 11.3353 101.304 11.1039 101.781 10.641C102.271 10.1656 102.516 9.47752 102.516 8.57678V8.38912C102.516 7.48838 102.271 6.80657 101.781 6.34369C101.291 5.8683 100.683 5.63061 99.9542 5.63061C99.226 5.63061 98.617 5.8683 98.1273 6.34369C97.6376 6.80657 97.3927 7.48838 97.3927 8.38912V8.57678C97.3927 9.47752 97.6376 10.1656 98.1273 10.641C98.617 11.1039 99.226 11.3353 99.9542 11.3353Z" fill="white"/>
</svg>
