<svg width="106" height="18" viewBox="0 0 106 18" fill="none" xmlns="http://www.w3.org/2000/svg">
<path d="M0.335938 13.691V0.555176H5.0634L7.6814 12.0021H8.02043V0.555176H10.4689V13.691H5.74145L3.12345 2.24407H2.78443V13.691H0.335938Z" fill="#FF8D7C"/>
<path d="M17.2855 13.9537C16.3564 13.9537 15.5339 13.7598 14.8182 13.372C14.1151 12.9716 13.5626 12.4149 13.1608 11.7018C12.7715 10.9762 12.5769 10.1255 12.5769 9.14974V8.92456C12.5769 7.94876 12.7715 7.10431 13.1608 6.39123C13.55 5.66563 14.0962 5.10892 14.7994 4.7211C15.5025 4.32077 16.3187 4.12061 17.2479 4.12061C18.1645 4.12061 18.9618 4.32703 19.6399 4.73987C20.3179 5.1402 20.8453 5.70316 21.222 6.42876C21.5986 7.14184 21.787 7.97378 21.787 8.92456V9.73147H14.9877C15.0128 10.3695 15.2514 10.8887 15.7034 11.289C16.1555 11.6893 16.7079 11.8895 17.3609 11.8895C18.0264 11.8895 18.5161 11.7456 18.83 11.4579C19.1439 11.1702 19.3825 10.8511 19.5457 10.5009L21.4856 11.5142C21.3099 11.8395 21.0524 12.196 20.7134 12.5838C20.387 12.9591 19.9475 13.2844 19.395 13.5596C18.8425 13.8223 18.1394 13.9537 17.2855 13.9537ZM15.0066 7.96752H19.3762C19.3259 7.42958 19.1062 6.99797 18.717 6.67271C18.3403 6.34744 17.8443 6.18481 17.229 6.18481C16.5887 6.18481 16.0801 6.34744 15.7034 6.67271C15.3267 6.99797 15.0945 7.42958 15.0066 7.96752Z" fill="#FF8D7C"/>
<path d="M27.459 13.8411C26.7307 13.8411 26.0903 13.6785 25.5379 13.3532C24.9979 13.0154 24.5773 12.5525 24.2759 11.9646C23.9746 11.3766 23.8239 10.701 23.8239 9.93789V4.38332H26.1971V9.75024C26.1971 10.4508 26.3666 10.9762 26.7056 11.3265C27.0572 11.6768 27.5532 11.852 28.1935 11.852C28.9218 11.852 29.4868 11.6143 29.8886 11.1389C30.2904 10.651 30.4913 9.97542 30.4913 9.11221V4.38332H32.8645V13.691H30.529V12.4712H30.19C30.0393 12.784 29.7568 13.0905 29.3424 13.3907C28.9281 13.691 28.3003 13.8411 27.459 13.8411Z" fill="#FF8D7C"/>
<path d="M35.5053 13.691V4.38332H37.8408V5.43419H38.1798C38.3179 5.05888 38.5439 4.78365 38.8578 4.60851C39.1843 4.43337 39.561 4.34579 39.9879 4.34579H41.118V6.44752H39.9502C39.3475 6.44752 38.8516 6.61016 38.4623 6.93542C38.0731 7.24818 37.8784 7.73608 37.8784 8.39913V13.691H35.5053Z" fill="#FF8D7C"/>
<path d="M45.6527 13.9537C44.9872 13.9537 44.3908 13.8411 43.8634 13.6159C43.336 13.3782 42.9154 13.0404 42.6015 12.6026C42.3001 12.1522 42.1495 11.608 42.1495 10.97C42.1495 10.332 42.3001 9.80028 42.6015 9.37493C42.9154 8.93707 43.3423 8.6118 43.8822 8.39913C44.4347 8.17394 45.0625 8.06135 45.7657 8.06135H48.3272V7.53592C48.3272 7.09806 48.1891 6.74151 47.9128 6.46629C47.6366 6.17855 47.1971 6.03468 46.5944 6.03468C46.0043 6.03468 45.5648 6.1723 45.276 6.44752C44.9872 6.71024 44.7989 7.05427 44.711 7.47962L42.5262 6.74777C42.6768 6.27238 42.9154 5.84077 43.2419 5.45295C43.5809 5.05262 44.0266 4.73361 44.5791 4.49592C45.1442 4.24571 45.8285 4.12061 46.6321 4.12061C47.8626 4.12061 48.8357 4.42711 49.5514 5.04011C50.2672 5.65312 50.625 6.54135 50.625 7.70481V11.1764C50.625 11.5517 50.8008 11.7394 51.1524 11.7394H51.9058V13.691H50.3237C49.8591 13.691 49.4761 13.5784 49.1748 13.3532C48.8734 13.128 48.7227 12.8278 48.7227 12.4525V12.4337H48.3649C48.3146 12.5838 48.2016 12.784 48.0258 13.0342C47.8501 13.2719 47.5738 13.4846 47.1971 13.6722C46.8204 13.8599 46.3056 13.9537 45.6527 13.9537ZM46.0671 12.0396C46.7325 12.0396 47.2725 11.8582 47.6868 11.4954C48.1137 11.1201 48.3272 10.626 48.3272 10.013V9.8253H45.9352C45.4957 9.8253 45.1504 9.91913 44.8993 10.1068C44.6482 10.2944 44.5226 10.5572 44.5226 10.8949C44.5226 11.2327 44.6545 11.5079 44.9181 11.7206C45.1818 11.9333 45.5648 12.0396 46.0671 12.0396Z" fill="#FF8D7C"/>
<path d="M53.6409 13.691V0.555176H56.014V13.691H53.6409Z" fill="#FF8D7C"/>
<path d="M63.3507 13.691V0.555176H65.8368V11.4391H71.8639V13.691H63.3507Z" fill="#FF8D7C"/>
<path d="M77.8908 13.9537C76.9616 13.9537 76.1392 13.7598 75.4235 13.372C74.7203 12.9716 74.1678 12.4149 73.766 11.7018C73.3768 10.9762 73.1821 10.1255 73.1821 9.14974V8.92456C73.1821 7.94876 73.3768 7.10431 73.766 6.39123C74.1553 5.66563 74.7015 5.10892 75.4046 4.7211C76.1078 4.32077 76.9239 4.12061 77.8531 4.12061C78.7697 4.12061 79.5671 4.32703 80.2451 4.73987C80.9231 5.1402 81.4505 5.70316 81.8272 6.42876C82.2039 7.14184 82.3922 7.97378 82.3922 8.92456V9.73147H75.593C75.6181 10.3695 75.8567 10.8887 76.3087 11.289C76.7607 11.6893 77.3132 11.8895 77.9661 11.8895C78.6316 11.8895 79.1213 11.7456 79.4352 11.4579C79.7491 11.1702 79.9877 10.8511 80.1509 10.5009L82.0909 11.5142C81.9151 11.8395 81.6577 12.196 81.3187 12.5838C80.9922 12.9591 80.5527 13.2844 80.0003 13.5596C79.4478 13.8223 78.7446 13.9537 77.8908 13.9537ZM75.6118 7.96752H79.9814C79.9312 7.42958 79.7115 6.99797 79.3222 6.67271C78.9455 6.34744 78.4495 6.18481 77.8343 6.18481C77.1939 6.18481 76.6854 6.34744 76.3087 6.67271C75.932 6.99797 75.6997 7.42958 75.6118 7.96752Z" fill="#FF8D7C"/>
<path d="M87.405 13.9537C86.7395 13.9537 86.1431 13.8411 85.6157 13.6159C85.0884 13.3782 84.6677 13.0404 84.3538 12.6026C84.0525 12.1522 83.9018 11.608 83.9018 10.97C83.9018 10.332 84.0525 9.80028 84.3538 9.37493C84.6677 8.93707 85.0946 8.6118 85.6346 8.39913C86.187 8.17394 86.8149 8.06135 87.518 8.06135H90.0795V7.53592C90.0795 7.09806 89.9414 6.74151 89.6652 6.46629C89.3889 6.17855 88.9494 6.03468 88.3467 6.03468C87.7566 6.03468 87.3171 6.1723 87.0283 6.44752C86.7395 6.71024 86.5512 7.05427 86.4633 7.47962L84.2785 6.74777C84.4292 6.27238 84.6677 5.84077 84.9942 5.45295C85.3332 5.05262 85.779 4.73361 86.3314 4.49592C86.8965 4.24571 87.5808 4.12061 88.3844 4.12061C89.6149 4.12061 90.5881 4.42711 91.3038 5.04011C92.0195 5.65312 92.3773 6.54135 92.3773 7.70481V11.1764C92.3773 11.5517 92.5531 11.7394 92.9047 11.7394H93.6581V13.691H92.076C91.6114 13.691 91.2284 13.5784 90.9271 13.3532C90.6257 13.128 90.475 12.8278 90.475 12.4525V12.4337H90.1172C90.067 12.5838 89.954 12.784 89.7782 13.0342C89.6024 13.2719 89.3261 13.4846 88.9494 13.6722C88.5728 13.8599 88.0579 13.9537 87.405 13.9537ZM87.8194 12.0396C88.4849 12.0396 89.0248 11.8582 89.4391 11.4954C89.8661 11.1201 90.0795 10.626 90.0795 10.013V9.8253H87.6875C87.2481 9.8253 86.9028 9.91913 86.6516 10.1068C86.4005 10.2944 86.2749 10.5572 86.2749 10.8949C86.2749 11.2327 86.4068 11.5079 86.6705 11.7206C86.9341 11.9333 87.3171 12.0396 87.8194 12.0396Z" fill="#FF8D7C"/>
<path d="M95.3932 17.4441V4.38332H97.7287V5.50925H98.0677C98.2812 5.14645 98.6139 4.82744 99.0659 4.55221C99.518 4.26448 100.165 4.12061 101.006 4.12061C101.759 4.12061 102.456 4.30826 103.097 4.68357C103.737 5.04637 104.252 5.58431 104.641 6.2974C105.03 7.01049 105.225 7.87369 105.225 8.88703V9.18728C105.225 10.2006 105.03 11.0638 104.641 11.7769C104.252 12.49 103.737 13.0342 103.097 13.4095C102.456 13.7723 101.759 13.9537 101.006 13.9537C100.441 13.9537 99.9637 13.8849 99.5745 13.7473C99.1978 13.6222 98.8901 13.4595 98.6516 13.2594C98.4256 13.0467 98.2435 12.834 98.1054 12.6213H97.7664V17.4441H95.3932ZM100.29 11.8895C101.031 11.8895 101.64 11.6581 102.117 11.1952C102.607 10.7198 102.852 10.0317 102.852 9.13098V8.94332C102.852 8.04258 102.607 7.36077 102.117 6.89789C101.627 6.4225 101.018 6.18481 100.29 6.18481C99.5619 6.18481 98.9529 6.4225 98.4632 6.89789C97.9735 7.36077 97.7287 8.04258 97.7287 8.94332V9.13098C97.7287 10.0317 97.9735 10.7198 98.4632 11.1952C98.9529 11.6581 99.5619 11.8895 100.29 11.8895Z" fill="#FF8D7C"/>
</svg>
