<svg width="691" height="369" viewBox="0 0 691 369" fill="none" xmlns="http://www.w3.org/2000/svg">
<g opacity="0.2">
<path d="M481.585 336.966C468.42 336.966 455.635 332.03 445.603 322.632L122.308 21.2307C108.257 8.13048 102.466 -10.8554 106.769 -29.5565C111.073 -48.2576 124.618 -62.7818 143.004 -68.3826L565.7 -197.613C584.054 -203.214 603.39 -198.752 617.441 -185.684C631.492 -172.583 637.283 -153.598 632.979 -134.896L533.547 295.735C529.244 314.436 515.699 328.96 497.344 334.561C492.123 336.207 486.806 336.966 481.585 336.966ZM123.573 19.9017L446.837 321.334C460.382 333.991 479.085 338.295 496.806 332.884C514.528 327.473 527.598 313.455 531.775 295.387L631.207 -135.245C635.384 -153.313 629.783 -171.634 616.207 -184.291C602.662 -196.917 583.959 -201.252 566.238 -195.841L143.542 -66.6423C125.82 -61.2313 112.751 -47.2133 108.573 -29.1451C104.396 -11.0769 109.997 7.24448 123.573 19.9017Z" fill="url(#paint0_linear_597_5069)"/>
<path d="M390.319 367.375C389.686 367.375 389.021 367.375 388.388 367.344C369.211 366.679 352.375 356.142 343.356 339.213L135.821 -51.042C126.802 -68.0028 127.499 -87.843 137.689 -104.108C147.847 -120.404 165.347 -129.707 184.588 -129.042L626.334 -113.632C645.512 -112.968 662.348 -102.43 671.367 -85.5014C680.386 -68.5407 679.69 -48.7004 669.5 -32.4359L435.256 342.377C425.446 358.135 408.737 367.375 390.319 367.375ZM182.626 -127.239C164.841 -127.239 148.701 -118.315 139.208 -103.127C129.397 -87.4 128.701 -68.2559 137.435 -51.8964L344.938 338.327C353.641 354.686 369.907 364.844 388.42 365.508C406.933 366.173 423.863 357.154 433.705 341.428L667.949 -33.3852C677.759 -49.1118 678.455 -68.2559 669.753 -84.6154C661.05 -100.975 644.784 -111.132 626.271 -111.797L184.493 -127.207C183.892 -127.239 183.259 -127.239 182.626 -127.239Z" fill="url(#paint1_linear_597_5069)"/>
<path d="M293.912 366.425C287.488 366.425 281 365.254 274.703 362.817C256.791 355.951 244.291 340.509 241.285 321.555L172.138 -114.994C169.132 -133.948 176.252 -152.491 191.157 -164.579C206.094 -176.666 225.683 -179.767 243.595 -172.901L656.259 -14.527C674.17 -7.66043 686.67 7.78142 689.677 26.7357C692.683 45.6899 685.563 64.2328 670.658 76.3204L327.14 354.464C317.488 362.343 305.811 366.425 293.912 366.425ZM224.417 -174.641C212.93 -174.641 201.664 -170.718 192.297 -163.155C177.898 -151.478 171.031 -133.6 173.91 -115.279L243.057 321.238C245.968 339.56 258.025 354.432 275.336 361.077C292.646 367.722 311.57 364.716 325.969 353.071L669.487 74.9282C683.886 63.2518 690.753 45.3735 687.873 27.0521C684.962 8.73071 672.904 -6.14156 655.594 -12.7866L242.962 -171.161C236.918 -173.47 230.62 -174.641 224.417 -174.641Z" fill="url(#paint2_linear_597_5069)"/>
<path d="M202.642 334.023C190.427 334.023 178.497 329.751 168.686 321.524C153.971 309.183 147.199 290.545 150.522 271.623L227.295 -163.629C230.618 -182.52 243.403 -197.74 261.441 -204.322C279.479 -210.903 299.036 -207.454 313.752 -195.114L652.364 88.9786C667.079 101.319 673.851 119.957 670.529 138.88C667.206 157.771 654.421 172.991 636.383 179.573L220.997 330.764C214.953 332.947 208.782 334.023 202.642 334.023ZM279.764 -205.746C273.846 -205.746 267.865 -204.701 262.042 -202.581C244.637 -196.253 232.295 -181.57 229.099 -163.312L152.325 271.971C149.097 290.229 155.648 308.234 169.857 320.163C184.066 332.093 202.927 335.415 220.364 329.055L635.718 177.896C653.123 171.567 665.465 156.885 668.693 138.627C671.921 120.369 665.37 102.364 651.161 90.4341L312.549 -193.658C303.087 -201.6 291.568 -205.746 279.764 -205.746Z" fill="url(#paint3_linear_597_5069)"/>
<path d="M127.329 273.742C108.531 273.742 91.5689 264.154 81.8536 247.985C71.98 231.53 71.6319 211.69 80.9358 194.887L295.243 -191.665L296.034 -191.222L295.243 -191.665C304.546 -208.468 321.572 -218.688 340.749 -219.005C359.864 -219.321 377.301 -209.702 387.206 -193.247L614.867 185.584C624.741 202.039 625.089 221.879 615.785 238.681C606.481 255.484 589.455 265.705 570.278 266.021L128.342 273.742C127.993 273.742 127.677 273.742 127.329 273.742ZM341.73 -217.17C341.414 -217.17 341.098 -217.17 340.781 -217.17C322.237 -216.853 305.812 -206.98 296.825 -190.748L82.5498 195.773C73.5623 211.975 73.9104 231.15 83.4359 247.035C92.993 262.92 109.797 272.223 128.278 271.907L570.215 264.186C588.759 263.869 605.183 253.997 614.171 237.764C623.158 221.562 622.81 202.387 613.285 186.502L385.623 -192.33C376.256 -207.93 359.864 -217.17 341.73 -217.17Z" fill="url(#paint4_linear_597_5069)"/>
<path d="M496.302 328.895C490.764 328.895 485.162 328.009 479.688 326.237L59.2707 189.666C41.011 183.748 27.7197 168.971 23.7323 150.207C19.7449 131.442 25.8842 112.551 40.1565 99.7042L368.642 -196.033L369.243 -195.368L368.642 -196.033C382.914 -208.88 402.345 -212.993 420.573 -207.076C438.833 -201.159 452.124 -186.381 456.111 -167.617L548.011 264.691C551.999 283.456 545.859 302.347 531.587 315.194C521.619 324.181 509.15 328.895 496.302 328.895ZM403.959 -207.899C391.554 -207.899 379.497 -203.342 369.844 -194.672L41.3591 101.065C27.5931 113.469 21.6753 131.695 25.5044 149.827C29.3653 167.958 42.1819 182.198 59.8087 187.925L480.194 324.497C497.821 330.224 516.587 326.237 530.353 313.833C544.119 301.429 550.068 283.203 546.208 265.071L454.339 -167.237C450.478 -185.369 437.662 -199.608 420.035 -205.336C414.719 -207.044 409.307 -207.899 403.959 -207.899Z" fill="url(#paint5_linear_597_5069)"/>
<path d="M406.221 364.462C394.955 364.462 383.847 360.823 374.417 353.704L21.4056 87.7115C6.05726 76.1617 -1.69601 57.872 0.645792 38.8228C2.9876 19.7737 14.9181 3.92044 32.6082 -3.57898L439.481 -176.287C457.171 -183.787 476.855 -181.382 492.203 -169.8C507.551 -158.251 515.305 -139.961 512.963 -120.912L459.101 317.757C456.76 336.806 444.829 352.66 427.139 360.159C420.335 363.038 413.246 364.462 406.221 364.462ZM439.829 -175.433L440.177 -174.578L33.3045 -1.9019C16.2473 5.34439 4.69648 20.6597 2.44961 39.0443C0.202748 57.429 7.67121 75.0859 22.4815 86.2559L375.493 352.248C390.303 363.418 409.322 365.728 426.379 358.482C443.437 351.236 454.987 335.92 457.234 317.536L511.096 -121.133C513.343 -139.518 505.874 -157.175 491.064 -168.345C476.254 -179.483 457.234 -181.825 440.177 -174.578L439.829 -175.433Z" fill="url(#paint6_linear_597_5069)"/>
<path d="M309.78 368.768C292.122 368.768 275.919 360.193 265.887 345.352L18.7322 -21.0437C8.00418 -36.9602 6.61175 -56.7688 15.0296 -74.0143C23.4474 -91.2599 39.9033 -102.367 59.0492 -103.696L499.973 -134.516C519.119 -135.845 536.967 -127.143 547.695 -111.227C558.423 -95.3102 559.815 -75.5016 551.398 -58.2561L357.629 338.992C349.211 356.237 332.755 367.344 313.61 368.673C312.344 368.736 311.078 368.768 309.78 368.768ZM500.068 -133.63L500.131 -132.712L59.2074 -101.892C40.7261 -100.595 24.8082 -89.8676 16.7068 -73.2233C8.5738 -56.5473 9.93458 -37.4349 20.2828 -22.088L267.438 344.308C277.818 359.686 295.065 368.072 313.515 366.775C331.996 365.477 347.914 354.75 356.015 338.106L549.784 -59.1421C557.917 -75.818 556.587 -94.9305 546.208 -110.277C535.828 -125.656 518.612 -134.041 500.131 -132.744L500.068 -133.63Z" fill="url(#paint7_linear_597_5069)"/>
<path d="M217.596 341.585C212.944 341.585 208.26 340.983 203.608 339.718C185.064 334.75 171.013 320.7 166.045 302.157L51.6444 -124.74C46.676 -143.283 51.8026 -162.459 65.3788 -176.034C78.9549 -189.609 98.1324 -194.735 116.677 -189.767L543.645 -75.377C562.189 -70.409 576.24 -56.3595 581.208 -37.8166C586.177 -19.2737 581.05 -0.0979767 567.474 13.4769L254.938 325.984C244.748 336.142 231.425 341.585 217.596 341.585ZM102.721 -189.799C89.3664 -189.799 76.5182 -184.546 66.7079 -174.736C53.6065 -161.636 48.638 -143.125 53.4482 -125.215L167.849 301.683C172.659 319.593 186.203 333.136 204.115 337.946C222.026 342.755 240.539 337.787 253.641 324.687L566.177 12.1796C579.278 -0.920685 584.247 -19.4319 579.436 -37.3419C574.626 -55.252 561.082 -68.7952 543.17 -73.605L116.234 -187.995C111.74 -189.229 107.183 -189.799 102.721 -189.799Z" fill="url(#paint8_linear_597_5069)"/>
<path d="M138.631 285.735C128.283 285.735 118.029 282.665 109.01 276.558C93.0924 265.831 84.3897 247.984 85.7188 228.84L116.574 -212.075C117.903 -231.219 129.011 -247.674 146.289 -256.091C163.536 -264.508 183.347 -263.116 199.265 -252.389L565.694 -5.25565C581.612 5.47137 590.314 23.3181 588.985 42.4622C587.656 61.6063 576.548 78.0607 559.27 86.4778L161.986 280.26C154.517 283.899 146.542 285.735 138.631 285.735ZM169.612 -259.698C161.954 -259.698 154.264 -257.958 147.049 -254.445C130.403 -246.313 119.675 -230.428 118.378 -211.949L87.5543 228.935C86.2568 247.415 94.6747 264.66 110.023 275.008C125.403 285.387 144.517 286.716 161.195 278.583L558.478 84.8324C575.124 76.7001 585.852 60.8152 587.15 42.3356C588.447 23.856 580.029 6.61053 564.681 -3.73676L198.22 -250.87C189.518 -256.724 179.613 -259.698 169.612 -259.698Z" fill="url(#paint9_linear_597_5069)"/>
<path d="M82.2832 207.197C65.7007 207.197 50.2891 199.571 40.0675 186.027C28.5167 170.681 26.0799 150.998 33.58 133.31L206.336 -273.494C213.836 -291.151 229.69 -303.112 248.741 -305.454C267.824 -307.795 286.083 -300.043 297.634 -284.696L563.651 68.2833C575.201 83.6302 577.638 103.312 570.138 121.001C562.638 138.658 546.783 150.619 527.732 152.96L88.9605 206.785C86.7453 207.07 84.4985 207.197 82.2832 207.197ZM255.418 -304.03C253.298 -304.03 251.146 -303.903 248.963 -303.619C230.576 -301.372 215.26 -289.822 208.013 -272.766L35.2889 134.038C28.042 151.093 30.3838 170.111 41.5548 184.92C52.7259 199.729 70.3527 207.197 88.7707 204.95L527.479 151.093C545.865 148.847 561.182 137.297 568.429 120.241C575.676 103.186 573.334 84.1682 562.163 69.3592L296.147 -283.62C286.305 -296.689 271.431 -304.03 255.418 -304.03Z" fill="url(#paint10_linear_597_5069)"/>
<path d="M487.516 206.627C483.782 206.627 480.016 206.248 476.219 205.425L43.8712 113.565C25.1051 109.578 10.3264 96.2878 4.40864 78.0297C-1.54081 59.7716 2.60482 40.3427 15.4531 26.0717L311.217 -302.384C324.065 -316.655 342.958 -322.794 361.724 -318.807C380.49 -314.82 395.268 -301.53 401.186 -283.272L537.77 137.076C543.688 155.334 539.574 174.763 526.726 189.034C516.473 200.425 502.358 206.627 487.516 206.627ZM350.458 -318.142C336.122 -318.142 322.514 -312.162 312.577 -301.15L16.8139 27.3058C4.40864 41.0705 0.421245 59.8349 6.14917 77.4601C11.8771 95.0854 26.1178 107.901 44.251 111.761L476.599 203.653C494.732 207.513 512.96 201.596 525.365 187.8C537.77 174.035 541.758 155.271 536.03 137.645L399.446 -282.67C393.718 -300.296 379.477 -313.111 361.344 -316.972C357.705 -317.763 354.065 -318.142 350.458 -318.142Z" fill="url(#paint11_linear_597_5069)"/>
<path d="M437.784 246.023C428.354 246.023 418.955 243.459 410.442 238.365L31.576 10.7241C15.1201 0.851471 5.49971 -16.5206 5.81617 -35.728C6.16427 -54.9354 16.3859 -71.9277 33.1583 -81.2308L419.777 -295.518C436.582 -304.821 456.424 -304.473 472.879 -294.6C489.335 -284.728 498.956 -267.356 498.639 -248.148L490.918 193.748C490.57 212.955 480.348 229.948 463.576 239.251C455.443 243.776 446.613 246.023 437.784 246.023ZM445.537 -300.423C437.025 -300.423 428.48 -298.271 420.664 -293.904L34.076 -79.6487C17.8733 -70.662 7.99974 -54.2392 7.65163 -35.6964C7.33517 -17.1535 16.6074 -0.382599 32.5254 9.14197L411.391 236.783C427.278 246.339 446.455 246.655 462.658 237.669C478.861 228.682 488.734 212.259 489.082 193.716L490 193.748L489.082 193.716L496.804 -248.18C497.12 -266.723 487.848 -283.494 471.93 -293.018C463.734 -297.955 454.651 -300.423 445.537 -300.423Z" fill="url(#paint12_linear_597_5069)"/>
<path d="M378.024 267.034C362.485 267.034 347.865 260.294 337.58 248.048L53.4623 -90.5336C41.1204 -105.248 37.671 -124.803 44.2533 -142.84C50.8357 -160.876 66.0258 -173.629 84.9501 -176.983L520.241 -253.717C539.133 -257.04 557.805 -250.268 570.146 -235.554C582.488 -220.84 585.938 -201.285 579.355 -183.248L428.183 232.068C421.632 250.105 406.41 262.857 387.486 266.211C384.321 266.781 381.157 267.034 378.024 267.034ZM529.703 -252.705C526.697 -252.705 523.627 -252.452 520.557 -251.914L85.2665 -175.147C67.0068 -171.92 52.3231 -159.611 45.9939 -142.175C39.6647 -124.772 42.9875 -105.881 54.8864 -91.6728L339.004 246.909C350.935 261.116 368.941 267.667 387.201 264.439C405.461 261.211 420.144 248.902 426.474 231.467L427.328 231.783L426.474 231.467L577.647 -183.849C583.976 -201.253 580.653 -220.144 568.754 -234.352C558.817 -246.186 544.671 -252.705 529.703 -252.705Z" fill="url(#paint13_linear_597_5069)"/>
<path d="M315.327 267.604C312.511 267.604 309.663 267.383 306.783 266.94C287.827 263.934 272.384 251.435 265.516 233.525L107.128 -179.134C100.261 -197.044 103.362 -216.662 115.451 -231.598C127.54 -246.533 146.084 -253.621 165.04 -250.615L601.597 -181.475C620.553 -178.469 635.996 -165.97 642.863 -148.06C649.731 -130.15 646.629 -110.531 634.54 -95.6273L356.372 247.859L355.676 247.289L356.372 247.859C346.119 260.548 331.214 267.604 315.327 267.604ZM156.464 -249.445C141.148 -249.445 126.749 -242.641 116.844 -230.427C105.166 -216.029 102.191 -197.075 108.837 -179.798L267.225 232.828C273.871 250.137 288.776 262.193 307.068 265.104C325.359 268.016 343.271 261.149 354.948 246.72L633.116 -96.7665C644.794 -111.164 647.768 -130.118 641.123 -147.395C634.477 -164.704 619.572 -176.76 601.28 -179.671L164.724 -248.78C161.939 -249.223 159.186 -249.445 156.464 -249.445Z" fill="url(#paint14_linear_597_5069)"/>
<path d="M255.239 247.605C246.726 247.605 238.182 245.516 230.27 241.308C213.308 232.29 202.801 215.456 202.137 196.28L186.693 -245.427C186.029 -264.602 195.333 -282.133 211.631 -292.322C227.897 -302.479 247.739 -303.175 264.701 -294.189L654.959 -86.7048C671.922 -77.6865 682.428 -60.8524 683.093 -41.6766C683.757 -22.5009 674.453 -4.97058 658.156 5.21851L283.34 239.441C274.638 244.884 264.954 247.605 255.239 247.605ZM239.732 -298.651C230.333 -298.651 220.966 -296.024 212.612 -290.771C196.884 -280.962 187.896 -264.033 188.529 -245.49L203.941 196.216C204.573 214.728 214.732 230.992 231.124 239.694C247.485 248.396 266.663 247.732 282.359 237.891L282.834 238.682L282.359 237.891L657.206 3.668C672.934 -6.14136 681.922 -23.0704 681.289 -41.6133C680.656 -60.1245 670.497 -76.3891 654.105 -85.091L263.846 -292.543C256.188 -296.625 247.96 -298.651 239.732 -298.651Z" fill="url(#paint15_linear_597_5069)"/>
<path d="M204.827 209.095C190.333 209.095 176.472 203.146 166.25 192.166C153.149 178.116 148.687 158.782 154.288 140.429L283.499 -282.228C289.1 -300.581 303.625 -314.124 322.328 -318.428C341.031 -322.763 360.019 -316.94 373.12 -302.891L674.58 20.3437C687.681 34.3932 692.143 53.7272 686.542 72.0802C680.941 90.4332 666.415 103.977 647.712 108.312L217.01 207.703L216.82 206.817L217.01 207.703C212.928 208.652 208.846 209.095 204.827 209.095ZM334.544 -318.016C330.651 -318.016 326.695 -317.573 322.771 -316.656C304.701 -312.479 290.682 -299.41 285.271 -281.69L156.028 140.967C150.617 158.687 154.921 177.357 167.548 190.932C180.206 204.475 198.529 210.108 216.599 205.931L647.269 106.508C665.339 102.331 679.358 89.2624 684.77 71.5423C690.181 53.8221 685.877 35.1526 673.251 21.5778L371.791 -301.657C361.917 -312.257 348.531 -318.016 334.544 -318.016Z" fill="url(#paint16_linear_597_5069)"/>
<path d="M609.985 202.608C608.087 202.608 606.156 202.514 604.257 202.292L164.663 156.093C145.58 154.099 129.504 142.423 121.688 124.893C113.871 107.363 115.96 87.6173 127.226 72.0805L387.039 -285.487C398.337 -301.024 416.438 -309.093 435.553 -307.099C454.635 -305.106 470.711 -293.429 478.528 -275.899L658.309 127.867C666.125 145.398 664.037 165.143 652.771 180.68C642.612 194.666 626.916 202.608 609.985 202.608ZM429.825 -305.549C413.464 -305.549 398.305 -297.891 388.527 -284.411L128.713 73.1564C117.827 88.1552 115.801 107.204 123.365 124.165C130.897 141.094 146.403 152.359 164.853 154.289L604.447 200.488C622.865 202.419 640.397 194.634 651.283 179.636C662.17 164.637 664.195 145.588 656.632 128.627L476.851 -275.14C469.319 -292.069 453.812 -303.334 435.363 -305.264C433.496 -305.454 431.66 -305.549 429.825 -305.549Z" fill="url(#paint17_linear_597_5069)"/>
<path d="M555.063 282.095C547.437 282.095 539.778 280.418 532.531 277.032L131.925 90.243C114.519 82.1423 103.127 65.8777 101.45 46.7336C99.7723 27.6212 108.158 9.61627 123.887 -1.39554L485.98 -254.889C501.708 -265.901 521.487 -267.641 538.892 -259.509C556.297 -251.408 567.69 -235.143 569.367 -215.999L607.849 224.283C609.526 243.396 601.14 261.401 585.412 272.412C576.234 278.836 565.696 282.095 555.063 282.095ZM516.329 -262.736C506.044 -262.736 495.854 -259.572 487.024 -253.401L124.931 0.123322C109.741 10.7554 101.639 28.1275 103.253 46.6071C104.867 65.0867 115.88 80.7816 132.652 88.5975L533.259 275.387C550.063 283.234 569.146 281.557 584.336 270.925C599.526 260.293 607.627 242.921 606.013 224.441L567.5 -215.841C565.886 -234.321 554.873 -250.016 538.101 -257.832C531.107 -261.122 523.67 -262.736 516.329 -262.736Z" fill="url(#paint18_linear_597_5069)"/>
<path d="M477.029 339.306C463.516 339.306 450.478 334.116 440.383 324.339L122.436 17.3367C108.638 4.01497 103.163 -15.0975 107.784 -33.7037C112.436 -52.3415 126.233 -66.6125 144.683 -71.8969L569.562 -193.723C588.012 -199.007 607.284 -194.198 621.082 -180.876C634.879 -167.554 640.354 -148.473 635.734 -129.836L528.802 298.992C524.15 317.63 510.352 331.901 491.903 337.186C486.966 338.61 481.966 339.306 477.029 339.306ZM584.436 -194.008C579.657 -194.008 574.847 -193.343 570.068 -191.983L145.189 -70.1566C127.373 -65.062 114.05 -51.2656 109.556 -33.2607C105.062 -15.2874 110.347 3.16061 123.702 16.0394L441.649 323.073C454.972 335.952 473.58 340.571 491.396 335.477C509.213 330.382 522.536 316.586 527.03 298.581L633.962 -130.247C638.455 -148.22 633.17 -166.668 619.816 -179.547C610.069 -189.008 597.474 -194.008 584.436 -194.008Z" fill="url(#paint19_linear_597_5069)"/>
<path d="M385.298 368.102C384.349 368.102 383.368 368.07 382.419 368.039C363.241 367.026 346.595 356.236 337.893 339.117L137.194 -54.6818C128.491 -71.8007 129.504 -91.6093 139.979 -107.716C150.422 -123.822 168.112 -132.84 187.289 -131.828L628.688 -108.697C647.865 -107.684 664.511 -96.8937 673.214 -79.7748C681.916 -62.6558 680.904 -42.8472 670.429 -26.7409L429.698 343.927C419.793 359.21 403.337 368.102 385.298 368.102ZM138.839 -55.5045L339.507 338.294C347.924 354.812 364.001 365.254 382.514 366.235C401.058 367.216 418.115 358.514 428.21 342.946L668.941 -27.7218C679.037 -43.2586 680.049 -62.4027 671.631 -78.9204C663.214 -95.4381 647.137 -105.88 628.625 -106.861L187.194 -129.992C168.682 -130.942 151.593 -122.272 141.498 -106.703C131.403 -91.1663 130.422 -72.0222 138.839 -55.5045Z" fill="url(#paint20_linear_597_5069)"/>
<path d="M288.867 365.477C282.158 365.477 275.354 364.179 268.803 361.521C250.987 354.338 238.771 338.675 236.113 319.689L174.593 -117.967C171.935 -136.985 179.372 -155.369 194.498 -167.204C209.625 -179.038 229.277 -181.791 247.094 -174.608L656.91 -9.05138C674.726 -1.86838 686.942 13.795 689.6 32.7809C692.258 51.7984 684.822 70.183 669.695 82.0176L321.399 354.117C311.842 361.616 300.449 365.477 288.867 365.477ZM176.429 -118.22L237.948 319.436C240.543 337.789 252.316 352.883 269.531 359.844C286.715 366.774 305.702 364.116 320.323 352.693L668.619 80.5936C683.239 69.1704 690.423 51.4187 687.828 33.0656C685.265 14.7126 673.461 -0.381149 656.245 -7.34264L246.398 -172.9C229.214 -179.829 210.227 -177.171 195.606 -165.748C181.017 -154.357 173.834 -136.573 176.429 -118.22Z" fill="url(#paint21_linear_597_5069)"/>
<path d="M198.176 331.491C185.644 331.491 173.429 326.997 163.524 318.391C149.03 305.797 142.574 287.032 146.245 268.173L230.582 -165.655C234.253 -184.514 247.259 -199.481 265.424 -205.746C283.589 -211.98 303.051 -208.215 317.545 -195.621L651.125 94.3254C665.619 106.919 672.075 125.684 668.404 144.543C664.733 163.402 651.727 178.37 633.562 184.635L215.677 328.548C209.917 330.541 204.031 331.491 198.176 331.491ZM231.5 -165.465L232.386 -165.275L148.049 268.553C144.505 286.747 150.739 304.879 164.758 317.03C178.746 329.181 197.575 332.851 215.107 326.808L633.024 182.926C650.556 176.882 663.119 162.421 666.664 144.227C670.208 126.032 663.974 107.9 649.955 95.7494L316.374 -194.197C302.387 -206.348 283.557 -210.018 266.025 -203.974C248.493 -197.931 235.93 -183.47 232.386 -165.275L231.5 -165.465Z" fill="url(#paint22_linear_597_5069)"/>
<path d="M566.056 269.913H124.025C104.816 269.913 87.6319 259.977 78.0431 243.365C68.4544 226.752 68.4544 206.88 78.0431 190.268L299.027 -192.488C308.616 -209.1 325.831 -219.036 345.009 -219.036C364.218 -219.036 381.402 -209.1 390.99 -192.488L612.006 190.268C621.595 206.88 621.595 226.752 612.006 243.365C602.449 260.009 585.234 269.913 566.056 269.913ZM300.609 -191.57L79.6254 191.185C70.3531 207.228 70.3531 226.404 79.6254 242.447C88.8977 258.49 105.48 268.078 124.025 268.078H566.056C584.601 268.078 601.183 258.49 610.455 242.447C619.728 226.404 619.728 207.228 610.455 191.185L389.44 -191.57C380.167 -207.613 363.553 -217.201 345.04 -217.201C326.496 -217.201 309.882 -207.613 300.609 -191.57Z" fill="url(#paint23_linear_597_5069)"/>
</g>
<defs>
<linearGradient id="paint0_linear_597_5069" x1="105.389" y1="68.4923" x2="634.379" y2="68.4923" gradientUnits="userSpaceOnUse">
<stop stop-color="#83A4D4"/>
<stop offset="0.9543" stop-color="#B4F7FD"/>
<stop offset="0.9994" stop-color="#B6FBFF"/>
</linearGradient>
<linearGradient id="paint1_linear_597_5069" x1="129.523" y1="119.145" x2="677.646" y2="119.145" gradientUnits="userSpaceOnUse">
<stop stop-color="#83A4D4"/>
<stop offset="0.9543" stop-color="#B4F7FD"/>
<stop offset="0.9994" stop-color="#B6FBFF"/>
</linearGradient>
<linearGradient id="paint2_linear_597_5069" x1="171.467" y1="94.976" x2="690.378" y2="94.976" gradientUnits="userSpaceOnUse">
<stop stop-color="#83A4D4"/>
<stop offset="0.9543" stop-color="#B4F7FD"/>
<stop offset="0.9994" stop-color="#B6FBFF"/>
</linearGradient>
<linearGradient id="paint3_linear_597_5069" x1="149.695" y1="63.2321" x2="671.316" y2="63.2321" gradientUnits="userSpaceOnUse">
<stop stop-color="#83A4D4"/>
<stop offset="0.9543" stop-color="#B4F7FD"/>
<stop offset="0.9994" stop-color="#B6FBFF"/>
</linearGradient>
<linearGradient id="paint4_linear_597_5069" x1="74.1933" y1="27.3692" x2="622.519" y2="27.3692" gradientUnits="userSpaceOnUse">
<stop stop-color="#83A4D4"/>
<stop offset="0.9543" stop-color="#B4F7FD"/>
<stop offset="0.9994" stop-color="#B6FBFF"/>
</linearGradient>
<linearGradient id="paint5_linear_597_5069" x1="22.5535" y1="59.5841" x2="549.214" y2="59.5841" gradientUnits="userSpaceOnUse">
<stop stop-color="#83A4D4"/>
<stop offset="0.9543" stop-color="#B4F7FD"/>
<stop offset="0.9994" stop-color="#B6FBFF"/>
</linearGradient>
<linearGradient id="paint6_linear_597_5069" x1="0.234394" y1="91.9358" x2="513.35" y2="91.9358" gradientUnits="userSpaceOnUse">
<stop stop-color="#83A4D4"/>
<stop offset="0.9543" stop-color="#B4F7FD"/>
<stop offset="0.9994" stop-color="#B6FBFF"/>
</linearGradient>
<linearGradient id="paint7_linear_597_5069" x1="9.58141" y1="117.045" x2="556.892" y2="117.045" gradientUnits="userSpaceOnUse">
<stop stop-color="#83A4D4"/>
<stop offset="0.9543" stop-color="#B4F7FD"/>
<stop offset="0.9994" stop-color="#B6FBFF"/>
</linearGradient>
<linearGradient id="paint8_linear_597_5069" x1="49.7988" y1="74.9728" x2="583.059" y2="74.9728" gradientUnits="userSpaceOnUse">
<stop stop-color="#83A4D4"/>
<stop offset="0.9543" stop-color="#B4F7FD"/>
<stop offset="0.9994" stop-color="#B6FBFF"/>
</linearGradient>
<linearGradient id="paint9_linear_597_5069" x1="85.5932" y1="12.0908" x2="589.096" y2="12.0908" gradientUnits="userSpaceOnUse">
<stop stop-color="#83A4D4"/>
<stop offset="0.9543" stop-color="#B4F7FD"/>
<stop offset="0.9994" stop-color="#B6FBFF"/>
</linearGradient>
<linearGradient id="paint10_linear_597_5069" x1="29.3164" y1="-49.3371" x2="574.399" y2="-49.3371" gradientUnits="userSpaceOnUse">
<stop stop-color="#83A4D4"/>
<stop offset="0.9543" stop-color="#B4F7FD"/>
<stop offset="0.9994" stop-color="#B6FBFF"/>
</linearGradient>
<linearGradient id="paint11_linear_597_5069" x1="1.75702" y1="-56.6707" x2="540.443" y2="-56.6707" gradientUnits="userSpaceOnUse">
<stop stop-color="#83A4D4"/>
<stop offset="0.9543" stop-color="#B4F7FD"/>
<stop offset="0.9994" stop-color="#B6FBFF"/>
</linearGradient>
<linearGradient id="paint12_linear_597_5069" x1="5.83167" y1="-28.127" x2="498.636" y2="-28.127" gradientUnits="userSpaceOnUse">
<stop stop-color="#83A4D4"/>
<stop offset="0.9543" stop-color="#B4F7FD"/>
<stop offset="0.9994" stop-color="#B6FBFF"/>
</linearGradient>
<linearGradient id="paint13_linear_597_5069" x1="40.9856" y1="6.25415" x2="582.628" y2="6.25415" gradientUnits="userSpaceOnUse">
<stop stop-color="#83A4D4"/>
<stop offset="0.9543" stop-color="#B4F7FD"/>
<stop offset="0.9994" stop-color="#B6FBFF"/>
</linearGradient>
<linearGradient id="paint14_linear_597_5069" x1="103.516" y1="8.15679" x2="646.44" y2="8.15679" gradientUnits="userSpaceOnUse">
<stop stop-color="#83A4D4"/>
<stop offset="0.9543" stop-color="#B4F7FD"/>
<stop offset="0.9994" stop-color="#B6FBFF"/>
</linearGradient>
<linearGradient id="paint15_linear_597_5069" x1="186.655" y1="-26.4325" x2="683.144" y2="-26.4325" gradientUnits="userSpaceOnUse">
<stop stop-color="#83A4D4"/>
<stop offset="0.9543" stop-color="#B4F7FD"/>
<stop offset="0.9994" stop-color="#B6FBFF"/>
</linearGradient>
<linearGradient id="paint16_linear_597_5069" x1="151.903" y1="-55.3689" x2="688.911" y2="-55.3689" gradientUnits="userSpaceOnUse">
<stop stop-color="#83A4D4"/>
<stop offset="0.9543" stop-color="#B4F7FD"/>
<stop offset="0.9994" stop-color="#B6FBFF"/>
</linearGradient>
<linearGradient id="paint17_linear_597_5069" x1="117.005" y1="-52.3995" x2="662.965" y2="-52.3995" gradientUnits="userSpaceOnUse">
<stop stop-color="#83A4D4"/>
<stop offset="0.9543" stop-color="#B4F7FD"/>
<stop offset="0.9994" stop-color="#B6FBFF"/>
</linearGradient>
<linearGradient id="paint18_linear_597_5069" x1="101.24" y1="8.76062" x2="608.068" y2="8.76062" gradientUnits="userSpaceOnUse">
<stop stop-color="#83A4D4"/>
<stop offset="0.9543" stop-color="#B4F7FD"/>
<stop offset="0.9994" stop-color="#B6FBFF"/>
</linearGradient>
<linearGradient id="paint19_linear_597_5069" x1="106.166" y1="71.7386" x2="637.355" y2="71.7386" gradientUnits="userSpaceOnUse">
<stop stop-color="#83A4D4"/>
<stop offset="0.9543" stop-color="#B4F7FD"/>
<stop offset="0.9994" stop-color="#B6FBFF"/>
</linearGradient>
<linearGradient id="paint20_linear_597_5069" x1="131.33" y1="118.107" x2="679.115" y2="118.107" gradientUnits="userSpaceOnUse">
<stop stop-color="#83A4D4"/>
<stop offset="0.9543" stop-color="#B4F7FD"/>
<stop offset="0.9994" stop-color="#B6FBFF"/>
</linearGradient>
<linearGradient id="paint21_linear_597_5069" x1="174.072" y1="93.4679" x2="690.148" y2="93.4679" gradientUnits="userSpaceOnUse">
<stop stop-color="#83A4D4"/>
<stop offset="0.9543" stop-color="#B4F7FD"/>
<stop offset="0.9994" stop-color="#B6FBFF"/>
</linearGradient>
<linearGradient id="paint22_linear_597_5069" x1="145.249" y1="61.4135" x2="669.454" y2="61.4135" gradientUnits="userSpaceOnUse">
<stop stop-color="#83A4D4"/>
<stop offset="0.9543" stop-color="#B4F7FD"/>
<stop offset="0.9994" stop-color="#B6FBFF"/>
</linearGradient>
<linearGradient id="paint23_linear_597_5069" x1="70.8386" y1="25.4407" x2="619.231" y2="25.4407" gradientUnits="userSpaceOnUse">
<stop stop-color="#83A4D4"/>
<stop offset="0.9543" stop-color="#B4F7FD"/>
<stop offset="0.9994" stop-color="#B6FBFF"/>
</linearGradient>
</defs>
</svg>
