<svg width="529" height="888" viewBox="0 0 529 888" fill="none" xmlns="http://www.w3.org/2000/svg">
<circle cx="533.891" cy="429.778" r="399.556" fill="url(#paint0_radial_584_3265)" fill-opacity="0.2"/>
<path d="M636.243 845.964C618.846 845.964 601.95 839.441 588.693 827.021L161.455 428.717C142.887 411.405 135.233 386.315 140.921 361.601C146.609 336.887 164.508 317.694 188.805 310.292L747.402 139.512C771.658 132.111 797.21 138.007 815.778 155.277C834.347 172.589 842 197.68 836.312 222.393L704.912 791.477C699.225 816.191 681.325 835.385 657.07 842.786C650.169 844.961 643.143 845.964 636.243 845.964ZM163.128 426.961L590.324 825.307C608.223 842.034 632.939 847.721 656.359 840.57C679.778 833.419 697.05 814.894 702.57 791.017L833.97 221.933C839.491 198.056 832.088 173.844 814.147 157.117C796.248 140.432 771.532 134.704 748.113 141.854L189.516 312.592C166.097 319.743 148.825 338.267 143.305 362.145C137.784 386.022 145.187 410.234 163.128 426.961Z" fill="url(#paint1_linear_584_3265)"/>
<path d="M515.617 886.151C514.781 886.151 513.903 886.151 513.066 886.109C487.723 885.231 465.475 871.306 453.556 848.934L179.297 333.208C167.378 310.794 168.298 284.575 181.764 263.082C195.189 241.546 218.315 229.252 243.742 230.13L827.515 250.495C852.858 251.373 875.106 265.298 887.025 287.67C898.944 310.084 898.024 336.303 884.558 357.796L575.002 853.116C562.038 873.94 539.957 886.151 515.617 886.151ZM241.149 232.514C217.646 232.514 196.318 244.306 183.772 264.378C170.807 285.161 169.887 310.46 181.43 332.079L455.647 847.763C467.147 869.382 488.643 882.805 513.108 883.684C537.573 884.562 559.947 872.644 572.953 851.861L882.509 356.542C895.473 335.759 896.393 310.46 884.892 288.841C873.392 267.221 851.896 253.798 827.431 252.92L243.617 232.555C242.822 232.514 241.986 232.514 241.149 232.514Z" fill="url(#paint2_linear_584_3265)"/>
<path d="M388.211 884.897C379.721 884.897 371.148 883.349 362.826 880.13C339.155 871.055 322.636 850.649 318.663 825.601L227.286 248.697C223.313 223.649 232.722 199.144 252.42 183.17C272.159 167.196 298.046 163.098 321.716 172.172L867.056 381.465C890.726 390.539 907.245 410.946 911.218 435.994C915.191 461.042 905.782 485.547 886.084 501.521L432.122 869.09C419.367 879.502 403.935 884.897 388.211 884.897ZM296.373 169.872C281.192 169.872 266.304 175.058 253.925 185.052C234.897 200.482 225.822 224.109 229.628 248.321L321.005 825.182C324.853 849.394 340.786 869.048 363.662 877.83C386.538 886.611 411.547 882.639 430.575 867.25L884.537 499.681C903.565 484.251 912.64 460.624 908.834 436.412C904.987 412.2 889.053 392.547 866.178 383.765L320.88 174.472C312.892 171.42 304.57 169.872 296.373 169.872Z" fill="url(#paint3_linear_584_3265)"/>
<path d="M267.616 842.079C251.473 842.079 235.707 836.433 222.743 825.561C203.296 809.252 194.347 784.622 198.738 759.616L300.194 184.427C304.585 159.462 321.481 139.348 345.319 130.65C369.156 121.953 395.001 126.511 414.448 142.819L861.927 518.25C881.374 534.558 890.323 559.188 885.932 584.195C881.541 609.159 864.646 629.273 840.808 637.971L291.872 837.771C283.884 840.657 275.729 842.079 267.616 842.079ZM369.533 128.769C361.712 128.769 353.808 130.149 346.113 132.95C323.112 141.314 306.802 160.717 302.578 184.845L201.121 760.076C196.856 784.204 205.513 807.998 224.29 823.763C243.067 839.528 267.992 843.919 291.036 835.513L839.93 635.755C862.931 627.391 879.241 607.988 883.507 583.86C887.772 559.732 879.116 535.938 860.338 520.173L412.859 144.743C400.354 134.247 385.132 128.769 369.533 128.769Z" fill="url(#paint4_linear_584_3265)"/>
<path d="M168.092 762.414C143.25 762.414 120.834 749.744 107.995 728.376C94.9475 706.631 94.4874 680.412 106.783 658.207L389.991 147.374L391.037 147.959L389.991 147.374C402.286 125.169 424.786 111.663 450.129 111.244C475.389 110.826 498.432 123.538 511.521 145.283L812.378 645.913C825.426 667.658 825.886 693.877 813.591 716.082C801.296 738.286 778.796 751.793 753.453 752.211L169.43 762.414C168.97 762.414 168.552 762.414 168.092 762.414ZM451.425 113.67C451.007 113.67 450.589 113.67 450.171 113.67C425.664 114.088 403.959 127.135 392.082 148.587L108.916 659.378C97.0385 680.788 97.4985 706.129 110.086 727.121C122.716 748.113 144.923 760.407 169.346 759.989L753.369 749.786C777.876 749.368 799.581 736.321 811.458 714.869C823.335 693.459 822.875 668.118 810.287 647.126L509.43 146.496C497.052 125.88 475.389 113.67 451.425 113.67Z" fill="url(#paint5_linear_584_3265)"/>
<path d="M655.676 835.303C648.358 835.303 640.955 834.132 633.72 831.79L78.135 651.309C54.0046 643.489 36.44 623.961 31.1706 599.163C25.9012 574.366 34.0144 549.402 52.8754 532.424L486.972 141.605L487.767 142.483L486.972 141.605C505.833 124.627 531.511 119.191 555.6 127.011C579.73 134.831 597.295 154.359 602.564 179.156L724.011 750.456C729.28 775.254 721.167 800.218 702.306 817.196C689.133 829.072 672.655 835.303 655.676 835.303ZM533.644 125.924C517.25 125.924 501.317 131.945 488.561 143.403L54.4646 534.222C36.2727 550.614 28.4522 574.701 33.5125 598.662C38.6146 622.623 55.5519 641.44 78.846 649.009L634.39 829.49C657.684 837.059 682.483 831.79 700.675 815.398C718.867 799.006 726.729 774.919 721.627 750.958L600.222 179.658C595.12 155.697 578.183 136.88 554.889 129.311C547.863 127.053 540.712 125.924 533.644 125.924Z" fill="url(#paint6_linear_584_3265)"/>
<path d="M536.625 882.304C521.737 882.304 507.058 877.495 494.595 868.086L28.0873 516.575C7.80438 501.312 -2.44165 477.142 0.653067 451.968C3.74779 426.795 19.5141 405.844 42.8918 395.934L580.578 167.698C603.956 157.787 629.968 160.966 650.251 176.27C670.534 191.534 680.78 215.704 677.685 240.877L606.507 820.583C603.412 845.756 587.646 866.707 564.268 876.617C555.277 880.422 545.909 882.304 536.625 882.304ZM581.038 168.827L581.498 169.956L43.8118 398.15C21.2706 407.726 6.00609 427.965 3.03684 452.261C0.0675802 476.556 9.93722 499.89 29.5092 514.651L496.017 866.163C515.589 880.924 540.723 883.977 563.264 874.401C585.806 864.825 601.07 844.585 604.039 820.29L675.218 240.585C678.187 216.289 668.318 192.955 648.746 178.194C629.174 163.475 604.039 160.38 581.498 169.956L581.038 168.827Z" fill="url(#paint7_linear_584_3265)"/>
<path d="M409.194 887.99C385.858 887.99 364.446 876.658 351.189 857.046L24.5711 372.85C10.3939 351.816 8.55382 325.639 19.6781 302.849C30.8023 280.059 52.549 265.381 77.8504 263.625L660.536 222.895C685.837 221.139 709.424 232.639 723.601 253.672C737.778 274.706 739.618 300.884 728.494 323.674L472.427 848.641C461.303 871.431 439.556 886.109 414.255 887.865C412.582 887.949 410.909 887.99 409.194 887.99ZM660.661 224.066L660.745 225.279L78.0595 266.008C53.6363 267.723 32.6006 281.899 21.8946 303.894C11.1467 325.932 12.945 351.189 26.6203 371.47L353.238 855.666C366.956 875.989 389.748 887.07 414.129 885.356C438.552 883.641 459.588 869.466 470.294 847.47L726.361 322.503C737.109 300.465 735.352 275.208 721.635 254.927C707.918 234.604 685.168 223.523 660.745 225.237L660.661 224.066Z" fill="url(#paint8_linear_584_3265)"/>
<path d="M287.373 852.069C281.225 852.069 275.036 851.275 268.888 849.602C244.382 843.037 225.813 824.47 219.248 799.965L68.0664 235.816C61.5006 211.311 68.2755 185.97 86.2165 168.031C104.157 150.092 129.501 143.317 154.008 149.883L718.25 301.05C742.757 307.615 761.325 326.182 767.891 350.686C774.456 375.191 767.682 400.532 749.741 418.471L336.721 831.453C323.255 844.877 305.649 852.069 287.373 852.069ZM135.565 149.841C117.916 149.841 100.937 156.782 87.9729 169.746C70.6593 187.058 64.0934 211.52 70.4502 235.189L221.631 799.338C227.988 823.006 245.887 840.904 269.558 847.26C293.228 853.616 317.693 847.051 335.007 829.739L748.026 416.757C765.34 399.445 771.905 374.982 765.549 351.314C759.192 327.645 741.293 309.748 717.622 303.392L153.422 152.224C147.484 150.593 141.461 149.841 135.565 149.841Z" fill="url(#paint9_linear_584_3265)"/>
<path d="M182.99 778.264C169.315 778.264 155.765 774.208 143.846 766.137C122.81 751.961 111.31 728.377 113.066 703.077L153.841 120.403C155.598 95.104 170.277 73.3593 193.111 62.236C215.903 51.1128 242.083 52.9527 263.118 67.1286L747.358 393.717C768.394 407.893 779.894 431.478 778.138 456.777C776.381 482.076 761.702 503.821 738.868 514.944L213.854 771.03C203.984 775.839 193.445 778.264 182.99 778.264ZM223.932 57.4689C213.812 57.4689 203.649 59.7688 194.114 64.4105C172.117 75.1574 157.94 96.1494 156.225 120.57L115.492 703.203C113.777 727.624 124.901 750.414 145.184 764.088C165.509 777.804 190.769 779.56 212.808 768.813L737.823 512.769C759.82 502.023 773.998 481.031 775.712 456.61C777.427 432.189 766.303 409.399 746.02 395.724L261.738 69.1358C250.238 61.3997 237.148 57.4689 223.932 57.4689Z" fill="url(#paint10_linear_584_3265)"/>
<path d="M108.548 674.476C86.634 674.476 66.2674 664.399 52.7594 646.501C37.4949 626.22 34.2747 600.21 44.1862 576.834L272.484 39.2385C282.396 15.9048 303.348 0.0980422 328.524 -2.9964C353.742 -6.09083 377.872 4.15426 393.136 24.4354L744.68 490.901C759.944 511.182 763.164 537.192 753.253 560.568C743.341 583.901 722.389 599.708 697.213 602.803L117.372 673.933C114.445 674.309 111.475 674.476 108.548 674.476ZM337.348 -1.11464C334.546 -1.11464 331.702 -0.947376 328.817 -0.571026C304.519 2.39796 284.278 17.6611 274.701 40.2003L46.4445 577.796C36.8676 600.335 39.9623 625.467 54.725 645.037C69.4876 664.608 92.7816 674.476 117.121 671.507L696.879 600.335C721.177 597.366 741.418 582.103 750.995 559.564C760.572 537.025 757.477 511.893 742.714 492.323L391.171 25.8571C378.165 8.58684 358.509 -1.11464 337.348 -1.11464Z" fill="url(#paint11_linear_584_3265)"/>
<path d="M644.049 673.722C639.115 673.722 634.138 673.22 629.12 672.133L57.7677 550.739C32.9681 545.47 13.4379 527.907 5.6175 503.779C-2.24476 479.65 3.23373 453.975 20.2129 435.116L411.067 1.05789C428.047 -17.8015 453.013 -25.9139 477.813 -20.645C502.613 -15.3761 522.143 2.18694 529.963 26.3152L710.46 581.809C718.281 605.937 712.844 631.612 695.865 650.472C682.315 665.526 663.663 673.722 644.049 673.722ZM462.925 -19.7668C443.98 -19.7668 425.997 -11.8635 412.866 2.68874L22.0111 436.746C5.61749 454.937 0.34811 479.734 7.91762 503.026C15.4871 526.318 34.3064 543.254 58.2695 548.355L629.621 669.791C653.585 674.893 677.673 667.073 694.067 648.841C710.46 630.651 715.73 605.853 708.16 582.561L527.663 27.1097C520.094 3.81779 501.274 -13.118 477.311 -18.2196C472.502 -19.265 467.692 -19.7668 462.925 -19.7668Z" fill="url(#paint12_linear_584_3265)"/>
<path d="M578.344 725.784C565.882 725.784 553.461 722.397 542.211 715.664L41.5363 414.835C19.7896 401.788 7.07618 378.831 7.49438 353.448C7.95441 328.065 21.4624 305.609 43.6273 293.315L554.548 10.1324C576.755 -2.16167 602.977 -1.70169 624.723 11.3451C646.47 24.392 659.183 47.3493 658.765 72.7321L648.561 656.703C648.101 682.086 634.593 704.541 612.428 716.835C601.68 722.815 590.012 725.784 578.344 725.784ZM588.59 3.65085C577.341 3.65085 566.049 6.49439 555.719 12.2651L44.8401 295.406C23.428 307.282 10.38 328.985 9.91997 353.49C9.50176 377.994 21.7552 400.157 42.7909 412.744L543.466 713.573C564.46 726.202 589.803 726.62 611.215 714.744C632.627 702.868 645.675 681.166 646.135 656.661L647.348 656.703L646.135 656.661L656.34 72.6903C656.758 48.1857 644.504 26.0228 623.469 13.436C612.637 6.91256 600.635 3.65085 588.59 3.65085Z" fill="url(#paint13_linear_584_3265)"/>
<path d="M499.369 753.549C478.836 753.549 459.515 744.642 445.923 728.459L70.4583 281.02C54.1483 261.575 49.5899 235.733 58.2886 211.897C66.9872 188.062 87.0611 171.209 112.07 166.777L687.311 65.3714C712.278 60.9806 736.952 69.9294 753.262 89.3742C769.572 108.819 774.13 134.662 765.432 158.497L565.655 707.342C556.998 731.177 536.883 748.03 511.874 752.462C507.692 753.215 503.51 753.549 499.369 753.549ZM699.815 66.7095C695.842 66.7095 691.786 67.044 687.729 67.7549L112.488 169.202C88.3575 173.468 68.9528 189.734 60.5887 212.775C52.2246 235.775 56.6157 260.739 72.3403 279.515L447.805 726.954C463.571 745.73 487.367 754.386 511.497 750.12C535.628 745.855 555.033 729.588 563.397 706.547L564.526 706.965L563.397 706.547L763.173 157.703C771.537 134.703 767.146 109.739 751.422 90.9632C738.29 75.3237 719.596 66.7095 699.815 66.7095Z" fill="url(#paint14_linear_584_3265)"/>
<path d="M416.521 754.304C412.799 754.304 409.035 754.011 405.229 753.426C380.179 749.453 359.77 732.936 350.695 709.267L141.384 163.936C132.309 140.267 136.407 114.341 152.383 94.6034C168.358 74.8659 192.865 65.499 217.915 69.4716L794.829 160.841C819.88 164.814 840.288 181.331 849.363 205C858.438 228.668 854.34 254.594 838.364 274.29L470.762 728.21L469.842 727.458L470.762 728.21C457.212 744.979 437.515 754.304 416.521 754.304ZM206.582 71.0188C186.341 71.0188 167.312 80.0094 154.223 96.1506C138.791 115.177 134.86 140.225 143.642 163.057L352.954 708.347C361.736 731.221 381.434 747.153 405.606 751C429.778 754.848 453.448 745.773 468.88 726.705L836.483 272.784C851.914 253.758 855.845 228.71 847.063 205.878C838.281 183.004 818.583 167.072 794.411 163.225L217.497 71.8969C213.817 71.3115 210.179 71.0188 206.582 71.0188Z" fill="url(#paint15_linear_584_3265)"/>
<path d="M337.096 727.874C325.846 727.874 314.555 725.114 304.1 719.552C281.684 707.635 267.799 685.388 266.921 660.047L246.513 76.3275C245.635 50.9865 257.93 27.8201 279.467 14.3551C300.963 0.931894 327.185 0.0119256 349.6 11.8879L865.331 286.08C887.747 297.998 901.631 320.244 902.509 345.585C903.388 370.926 891.092 394.093 869.555 407.558L374.233 717.085C362.732 724.278 349.935 727.874 337.096 727.874ZM316.604 5.99172C304.183 5.99172 291.804 9.46251 280.764 16.4041C259.979 29.3673 248.102 51.7392 248.938 76.2438L269.305 659.964C270.141 684.426 283.566 705.92 305.229 717.42C326.85 728.919 352.193 728.041 372.936 715.036L373.564 716.082L372.936 715.036L868.3 405.509C889.085 392.546 900.962 370.174 900.126 345.669C899.289 321.206 885.865 299.712 864.202 288.213L348.471 14.0624C338.351 8.66799 327.477 5.99172 316.604 5.99172Z" fill="url(#paint16_linear_584_3265)"/>
<path d="M270.497 676.983C251.344 676.983 233.026 669.122 219.518 654.611C202.204 636.045 196.308 610.494 203.71 586.241L374.463 27.6948C381.865 3.44106 401.061 -14.4565 425.777 -20.1436C450.493 -25.8725 475.585 -18.1782 492.899 0.388438L891.281 427.546C908.595 446.113 914.491 471.663 907.089 495.917C899.687 520.17 880.491 538.068 855.775 543.797L286.598 675.143L286.347 673.972L286.598 675.143C281.203 676.398 275.809 676.983 270.497 676.983ZM441.92 -19.6C436.776 -19.6 431.548 -19.0145 426.362 -17.8018C402.483 -12.282 383.956 4.98828 376.805 28.4056L206.01 586.952C198.859 610.369 204.546 635.041 221.233 652.98C237.961 670.878 262.175 678.321 286.055 672.801L855.19 541.413C879.069 535.893 897.596 518.623 904.747 495.206C911.898 471.788 906.211 447.117 889.524 429.177L491.142 2.01929C478.094 -11.9893 460.404 -19.6 441.92 -19.6Z" fill="url(#paint17_linear_584_3265)"/>
<path d="M805.918 668.411C803.408 668.411 800.857 668.286 798.348 667.993L217.419 606.941C192.202 604.306 170.957 588.876 160.627 565.709C150.298 542.543 153.058 516.449 167.946 495.917L511.292 23.3883C526.222 2.85627 550.143 -7.807 575.403 -5.17254C600.621 -2.53809 621.866 12.8923 632.195 36.0587L869.777 569.64C880.107 592.807 877.347 618.9 862.459 639.432C849.034 657.915 828.292 668.411 805.918 668.411ZM567.833 -3.12353C546.212 -3.12353 526.18 6.99612 513.258 24.81L169.911 497.339C155.525 517.16 152.849 542.334 162.844 564.748C172.797 587.12 193.289 602.006 217.67 604.557L798.599 665.61C822.938 668.16 846.107 657.873 860.493 638.052C874.88 618.231 877.556 593.058 867.561 570.644L629.979 37.0623C620.025 14.6904 599.533 -0.196354 575.152 -2.74717C572.685 -2.99807 570.259 -3.12353 567.833 -3.12353Z" fill="url(#paint18_linear_584_3265)"/>
<path d="M733.328 773.454C723.249 773.454 713.129 771.238 703.552 766.764L174.146 519.92C151.145 509.214 136.089 487.721 133.873 462.422C131.656 437.164 142.739 413.371 163.524 398.818L642.034 63.8246C662.819 49.2723 688.957 46.9724 711.958 57.7193C734.959 68.4244 750.015 89.9182 752.231 115.217L803.085 697.055C805.301 722.312 794.219 746.106 773.434 760.658C761.306 769.147 747.38 773.454 733.328 773.454ZM682.14 53.454C668.548 53.454 655.082 57.6357 643.414 65.79L164.904 400.826C144.83 414.876 134.124 437.833 136.257 462.254C138.39 486.675 152.943 507.416 175.108 517.745L704.514 764.589C726.72 774.96 751.938 772.743 772.012 758.693C792.086 744.643 802.792 721.685 800.659 697.264L749.764 115.426C747.631 91.0054 733.077 70.2643 710.912 59.9356C701.67 55.5867 691.842 53.454 682.14 53.454Z" fill="url(#paint19_linear_584_3265)"/>
<path d="M630.227 849.059C612.37 849.059 595.14 842.201 581.799 829.28L161.628 423.574C143.395 405.969 136.16 380.712 142.265 356.124C148.413 331.494 166.647 312.634 191.028 305.651L752.51 144.657C776.892 137.673 802.36 144.029 820.594 161.634C838.828 179.239 846.063 204.455 839.957 229.085L698.645 795.785C692.498 820.415 674.264 839.274 649.883 846.258C643.359 848.139 636.751 849.059 630.227 849.059ZM772.166 144.28C765.851 144.28 759.494 145.158 753.179 146.957L191.697 307.951C168.152 314.683 150.546 332.915 144.607 356.709C138.669 380.461 145.653 404.84 163.301 421.86L583.472 827.607C601.078 844.627 625.669 850.732 649.214 844C672.759 837.267 690.365 819.035 696.304 795.241L837.615 228.541C843.554 204.789 836.569 180.41 818.921 163.39C806.041 150.887 789.396 144.28 772.166 144.28Z" fill="url(#paint20_linear_584_3265)"/>
<path d="M508.973 887.112C507.719 887.112 506.422 887.07 505.168 887.028C479.824 885.69 457.827 871.431 446.326 848.808L181.1 328.399C169.6 305.776 170.938 279.599 184.781 258.314C198.581 237.029 221.959 225.111 247.302 226.449L830.615 257.017C855.958 258.356 877.956 272.615 889.456 295.238C900.957 317.861 899.619 344.038 885.776 365.323L567.647 855.164C554.558 875.361 532.811 887.112 508.973 887.112ZM183.275 327.311L448.459 847.721C459.583 869.549 480.828 883.348 505.293 884.645C529.8 885.941 552.341 874.441 565.682 853.868L883.81 364.027C897.151 343.494 898.489 318.195 887.365 296.367C876.241 274.539 854.996 260.739 830.531 259.443L247.177 228.875C222.712 227.62 200.129 239.078 186.788 259.652C173.447 280.184 172.151 305.483 183.275 327.311Z" fill="url(#paint21_linear_584_3265)"/>
<path d="M381.543 883.641C372.677 883.641 363.686 881.927 355.029 878.414C331.484 868.922 315.341 848.222 311.828 823.132L230.529 244.765C227.016 219.633 236.844 195.338 256.834 179.698C276.825 164.059 302.795 160.421 326.34 169.913L867.916 388.698C891.461 398.191 907.603 418.89 911.116 443.98C914.629 469.112 904.801 493.407 884.811 509.047L424.535 868.629C411.905 878.54 396.849 883.641 381.543 883.641ZM232.955 244.431L314.254 822.798C317.683 847.052 333.24 866.998 355.991 876.198C378.699 885.356 403.792 881.843 423.113 866.747L883.389 507.165C902.71 492.069 912.204 468.61 908.774 444.356C905.387 420.103 889.788 400.156 867.037 390.957L325.42 172.171C302.712 163.014 277.619 166.526 258.298 181.622C239.019 196.676 229.526 220.177 232.955 244.431Z" fill="url(#paint22_linear_584_3265)"/>
<path d="M261.698 838.731C245.137 838.731 228.994 832.793 215.904 821.418C196.75 804.775 188.219 779.978 193.07 755.055L304.522 181.748C309.373 156.825 326.561 137.046 350.566 128.766C374.571 120.528 400.291 125.504 419.445 142.147L860.275 525.314C879.428 541.957 887.96 566.755 883.109 591.677C878.257 616.6 861.069 636.379 837.064 644.659L284.824 834.842C277.213 837.476 269.434 838.731 261.698 838.731ZM305.735 181.999L306.906 182.25L195.454 755.557C190.77 779.602 199.009 803.563 217.535 819.62C236.02 835.678 260.903 840.529 284.072 832.542L836.353 642.401C859.522 634.414 876.125 615.304 880.808 591.259C885.492 567.215 877.254 543.254 858.727 527.196L417.897 144.029C399.413 127.972 374.529 123.121 351.361 131.108C328.192 139.095 311.59 158.205 306.906 182.25L305.735 181.999Z" fill="url(#paint23_linear_584_3265)"/>
<path d="M747.855 757.353H163.706C138.321 757.353 115.613 744.223 102.941 722.269C90.2696 700.315 90.2696 674.054 102.941 652.101L394.974 146.285C407.645 124.332 430.396 111.201 455.739 111.201C481.124 111.201 503.833 124.332 516.504 146.285L808.579 652.101C821.25 674.054 821.25 700.315 808.579 722.269C795.949 744.265 773.198 757.353 747.855 757.353ZM397.065 147.498L105.032 653.313C92.7788 674.514 92.7788 699.855 105.032 721.056C117.286 742.257 139.2 754.928 163.706 754.928H747.855C772.362 754.928 794.276 742.257 806.529 721.056C818.783 699.855 818.783 674.514 806.529 653.313L514.455 147.498C502.202 126.297 480.246 113.627 455.781 113.627C431.274 113.627 409.318 126.297 397.065 147.498Z" fill="url(#paint24_linear_584_3265)"/>
<defs>
<radialGradient id="paint0_radial_584_3265" cx="0" cy="0" r="1" gradientUnits="userSpaceOnUse" gradientTransform="translate(533.891 429.778) rotate(90) scale(399.556)">
<stop stop-color="#FF8D7C"/>
<stop offset="1" stop-color="#FF8D7C" stop-opacity="0"/>
</radialGradient>
<linearGradient id="paint1_linear_584_3265" x1="139.097" y1="491.174" x2="838.163" y2="491.174" gradientUnits="userSpaceOnUse">
<stop stop-color="#83A4D4"/>
<stop offset="0.9543" stop-color="#B4F7FD"/>
<stop offset="0.9994" stop-color="#B6FBFF"/>
</linearGradient>
<linearGradient id="paint2_linear_584_3265" x1="170.973" y1="558.112" x2="895.324" y2="558.112" gradientUnits="userSpaceOnUse">
<stop stop-color="#83A4D4"/>
<stop offset="0.9543" stop-color="#B4F7FD"/>
<stop offset="0.9994" stop-color="#B6FBFF"/>
</linearGradient>
<linearGradient id="paint3_linear_584_3265" x1="226.398" y1="526.174" x2="912.145" y2="526.174" gradientUnits="userSpaceOnUse">
<stop stop-color="#83A4D4"/>
<stop offset="0.9543" stop-color="#B4F7FD"/>
<stop offset="0.9994" stop-color="#B6FBFF"/>
</linearGradient>
<linearGradient id="paint4_linear_584_3265" x1="197.646" y1="484.226" x2="886.973" y2="484.226" gradientUnits="userSpaceOnUse">
<stop stop-color="#83A4D4"/>
<stop offset="0.9543" stop-color="#B4F7FD"/>
<stop offset="0.9994" stop-color="#B6FBFF"/>
</linearGradient>
<linearGradient id="paint5_linear_584_3265" x1="97.8724" y1="436.83" x2="822.49" y2="436.83" gradientUnits="userSpaceOnUse">
<stop stop-color="#83A4D4"/>
<stop offset="0.9543" stop-color="#B4F7FD"/>
<stop offset="0.9994" stop-color="#B6FBFF"/>
</linearGradient>
<linearGradient id="paint6_linear_584_3265" x1="29.6128" y1="479.405" x2="725.6" y2="479.405" gradientUnits="userSpaceOnUse">
<stop stop-color="#83A4D4"/>
<stop offset="0.9543" stop-color="#B4F7FD"/>
<stop offset="0.9994" stop-color="#B6FBFF"/>
</linearGradient>
<linearGradient id="paint7_linear_584_3265" x1="0.109401" y1="522.158" x2="678.196" y2="522.158" gradientUnits="userSpaceOnUse">
<stop stop-color="#83A4D4"/>
<stop offset="0.9543" stop-color="#B4F7FD"/>
<stop offset="0.9994" stop-color="#B6FBFF"/>
</linearGradient>
<linearGradient id="paint8_linear_584_3265" x1="12.4783" y1="555.335" x2="735.755" y2="555.335" gradientUnits="userSpaceOnUse">
<stop stop-color="#83A4D4"/>
<stop offset="0.9543" stop-color="#B4F7FD"/>
<stop offset="0.9994" stop-color="#B6FBFF"/>
</linearGradient>
<linearGradient id="paint9_linear_584_3265" x1="65.6274" y1="499.739" x2="770.336" y2="499.739" gradientUnits="userSpaceOnUse">
<stop stop-color="#83A4D4"/>
<stop offset="0.9543" stop-color="#B4F7FD"/>
<stop offset="0.9994" stop-color="#B6FBFF"/>
</linearGradient>
<linearGradient id="paint10_linear_584_3265" x1="112.9" y1="416.641" x2="778.284" y2="416.641" gradientUnits="userSpaceOnUse">
<stop stop-color="#83A4D4"/>
<stop offset="0.9543" stop-color="#B4F7FD"/>
<stop offset="0.9994" stop-color="#B6FBFF"/>
</linearGradient>
<linearGradient id="paint11_linear_584_3265" x1="38.5517" y1="335.464" x2="758.884" y2="335.464" gradientUnits="userSpaceOnUse">
<stop stop-color="#83A4D4"/>
<stop offset="0.9543" stop-color="#B4F7FD"/>
<stop offset="0.9994" stop-color="#B6FBFF"/>
</linearGradient>
<linearGradient id="paint12_linear_584_3265" x1="2.11335" y1="325.771" x2="713.992" y2="325.771" gradientUnits="userSpaceOnUse">
<stop stop-color="#83A4D4"/>
<stop offset="0.9543" stop-color="#B4F7FD"/>
<stop offset="0.9994" stop-color="#B6FBFF"/>
</linearGradient>
<linearGradient id="paint13_linear_584_3265" x1="7.51487" y1="363.493" x2="658.761" y2="363.493" gradientUnits="userSpaceOnUse">
<stop stop-color="#83A4D4"/>
<stop offset="0.9543" stop-color="#B4F7FD"/>
<stop offset="0.9994" stop-color="#B6FBFF"/>
</linearGradient>
<linearGradient id="paint14_linear_584_3265" x1="53.9702" y1="408.926" x2="769.757" y2="408.926" gradientUnits="userSpaceOnUse">
<stop stop-color="#83A4D4"/>
<stop offset="0.9543" stop-color="#B4F7FD"/>
<stop offset="0.9994" stop-color="#B6FBFF"/>
</linearGradient>
<linearGradient id="paint15_linear_584_3265" x1="136.61" y1="411.442" x2="854.09" y2="411.442" gradientUnits="userSpaceOnUse">
<stop stop-color="#83A4D4"/>
<stop offset="0.9543" stop-color="#B4F7FD"/>
<stop offset="0.9994" stop-color="#B6FBFF"/>
</linearGradient>
<linearGradient id="paint16_linear_584_3265" x1="246.462" y1="365.731" x2="902.578" y2="365.731" gradientUnits="userSpaceOnUse">
<stop stop-color="#83A4D4"/>
<stop offset="0.9543" stop-color="#B4F7FD"/>
<stop offset="0.9994" stop-color="#B6FBFF"/>
</linearGradient>
<linearGradient id="paint17_linear_584_3265" x1="200.558" y1="327.491" x2="910.22" y2="327.491" gradientUnits="userSpaceOnUse">
<stop stop-color="#83A4D4"/>
<stop offset="0.9543" stop-color="#B4F7FD"/>
<stop offset="0.9994" stop-color="#B6FBFF"/>
</linearGradient>
<linearGradient id="paint18_linear_584_3265" x1="154.439" y1="331.416" x2="875.931" y2="331.416" gradientUnits="userSpaceOnUse">
<stop stop-color="#83A4D4"/>
<stop offset="0.9543" stop-color="#B4F7FD"/>
<stop offset="0.9994" stop-color="#B6FBFF"/>
</linearGradient>
<linearGradient id="paint19_linear_584_3265" x1="133.596" y1="412.24" x2="803.375" y2="412.24" gradientUnits="userSpaceOnUse">
<stop stop-color="#83A4D4"/>
<stop offset="0.9543" stop-color="#B4F7FD"/>
<stop offset="0.9994" stop-color="#B6FBFF"/>
</linearGradient>
<linearGradient id="paint20_linear_584_3265" x1="140.128" y1="495.467" x2="842.1" y2="495.467" gradientUnits="userSpaceOnUse">
<stop stop-color="#83A4D4"/>
<stop offset="0.9543" stop-color="#B4F7FD"/>
<stop offset="0.9994" stop-color="#B6FBFF"/>
</linearGradient>
<linearGradient id="paint21_linear_584_3265" x1="173.352" y1="556.741" x2="897.255" y2="556.741" gradientUnits="userSpaceOnUse">
<stop stop-color="#83A4D4"/>
<stop offset="0.9543" stop-color="#B4F7FD"/>
<stop offset="0.9994" stop-color="#B6FBFF"/>
</linearGradient>
<linearGradient id="paint22_linear_584_3265" x1="229.84" y1="524.179" x2="911.84" y2="524.179" gradientUnits="userSpaceOnUse">
<stop stop-color="#83A4D4"/>
<stop offset="0.9543" stop-color="#B4F7FD"/>
<stop offset="0.9994" stop-color="#B6FBFF"/>
</linearGradient>
<linearGradient id="paint23_linear_584_3265" x1="191.753" y1="481.821" x2="884.496" y2="481.821" gradientUnits="userSpaceOnUse">
<stop stop-color="#83A4D4"/>
<stop offset="0.9543" stop-color="#B4F7FD"/>
<stop offset="0.9994" stop-color="#B6FBFF"/>
</linearGradient>
<linearGradient id="paint24_linear_584_3265" x1="93.4204" y1="434.28" x2="818.127" y2="434.28" gradientUnits="userSpaceOnUse">
<stop stop-color="#83A4D4"/>
<stop offset="0.9543" stop-color="#B4F7FD"/>
<stop offset="0.9994" stop-color="#B6FBFF"/>
</linearGradient>
</defs>
</svg>
