<svg width="819" height="775" viewBox="0 0 819 775" fill="none" xmlns="http://www.w3.org/2000/svg">
<g opacity="0.2" clip-path="url(#clip0_1617_13747)">
<path d="M283.401 -30.7422L818.671 490.39L816.797 490.931L99.6484 693.313L100.106 691.44L283.401 -30.7422ZM814.341 489.307L284.609 -26.4539L102.771 690.107L814.341 489.307Z" fill="url(#paint0_linear_1617_13747)"/>
<path d="M64.7109 668.083L310.881 -37.1953L798.64 528.61L64.7109 668.083ZM311.714 -32.8238L68.0837 665.169L794.435 527.152L311.714 -32.8238Z" fill="url(#paint1_linear_1617_13747)"/>
<path d="M32.1016 639.855L32.8927 638.107L338.815 -41.2754L775.4 564.873L32.1016 639.855ZM339.273 -36.8206L35.7242 637.274L771.361 563.083L339.273 -36.8206Z" fill="url(#paint2_linear_1617_13747)"/>
<path d="M2.08594 608.963L367.01 -42.8574L368.01 -41.1921L749.132 599.054L747.216 599.096L2.08594 608.963ZM367.052 -38.4026L5.8751 606.673L745.176 596.848L367.052 -38.4026Z" fill="url(#paint3_linear_1617_13747)"/>
<path d="M-25.1484 575.53L395.198 -42.0254L719.899 630.737L-25.1484 575.53ZM394.864 -37.5706L-21.1511 573.574L716.193 628.239L394.864 -37.5706Z" fill="url(#paint4_linear_1617_13747)"/>
<path d="M-49.3438 539.85L-48.1362 538.351L423.217 -38.6953L688.042 659.797L-49.3438 539.85ZM422.51 -34.3238L-45.1798 538.268L684.586 656.966L422.51 -34.3238Z" fill="url(#paint5_linear_1617_13747)"/>
<path d="M-70.3672 502.213L450.87 -32.9492L653.777 685.944L651.903 685.486L-70.3672 502.213ZM449.746 -28.6609L-66.0784 501.006L650.571 682.863L449.746 -28.6609Z" fill="url(#paint6_linear_1617_13747)"/>
<path d="M-87.9766 462.87L477.898 -24.8301L617.388 709.009L-87.9766 462.87ZM476.399 -20.6251L-83.6045 462.037L614.474 705.637L476.399 -20.6251Z" fill="url(#paint7_linear_1617_13747)"/>
<path d="M-102.133 422.151L504.09 -14.3809L579.082 728.826L577.333 728.035L-102.133 422.151ZM502.258 -10.3424L-97.7191 421.693L576.458 725.204L502.258 -10.3424Z" fill="url(#paint8_linear_1617_13747)"/>
<path d="M-112.68 380.35L-111.014 379.351L529.311 -1.72461L539.221 745.188L-112.68 380.35ZM527.104 2.18897L-108.224 380.308L536.931 741.399L527.104 2.18897Z" fill="url(#paint9_linear_1617_13747)"/>
<path d="M-119.539 337.8L553.306 13.1387L498.093 758.094L-119.539 337.8ZM550.807 16.8441L-115.084 338.133L496.135 754.097L550.807 16.8441Z" fill="url(#paint10_linear_1617_13747)"/>
<path d="M-122.664 294.835L575.914 30.043L455.952 767.338L-122.664 294.835ZM573.082 33.4986L-118.25 295.542L454.411 763.174L573.082 33.4986Z" fill="url(#paint11_linear_1617_13747)"/>
<path d="M-122.039 251.701L-120.165 251.16L596.984 48.7773L413.231 772.874L411.857 771.542L-122.039 251.701ZM593.861 52.0248L-117.709 252.825L412.023 768.586L593.861 52.0248Z" fill="url(#paint12_linear_1617_13747)"/>
<path d="M-117.625 208.819L616.346 69.3457L370.176 774.624L-117.625 208.819ZM612.932 72.2601L-113.419 210.318L369.302 770.294L612.932 72.2601Z" fill="url(#paint13_linear_1617_13747)"/>
<path d="M-109.508 166.52L633.79 91.5371L327.077 772.668L-109.508 166.52ZM630.168 94.1184L-105.469 168.352L326.619 768.255L630.168 94.1184Z" fill="url(#paint14_linear_1617_13747)"/>
<path d="M-97.7734 125.052L-95.858 125.01L649.231 115.102L284.348 766.922L-97.7734 125.052ZM645.442 117.391L-93.8594 127.217L284.306 762.509L645.442 117.391Z" fill="url(#paint15_linear_1617_13747)"/>
<path d="M-82.4062 84.75L662.641 139.957L242.295 757.512L-82.4062 84.75ZM658.602 141.913L-78.742 87.248L242.586 753.057L658.602 141.913Z" fill="url(#paint16_linear_1617_13747)"/>
<path d="M-63.625 45.9473L673.76 165.895L201.199 744.44L-63.625 45.9473ZM669.596 167.477L-60.169 48.7784L201.907 740.068L669.596 167.477Z" fill="url(#paint17_linear_1617_13747)"/>
<path d="M-41.5078 8.97656L-39.6341 9.43454L682.636 192.707L161.399 727.869L-41.5078 8.97656ZM678.347 193.914L-38.3432 12.0575L162.523 723.539L678.347 193.914Z" fill="url(#paint18_linear_1617_13747)"/>
<path d="M-16.2812 -25.9961L689.084 220.144L123.209 707.885L-16.2812 -25.9961ZM684.712 220.976L-13.3665 -22.6237L124.667 703.68L684.712 220.976Z" fill="url(#paint19_linear_1617_13747)"/>
<path d="M11.9062 -58.5957L13.6551 -57.8047L693.121 248.08L86.8981 684.653L11.9062 -58.5957ZM688.707 248.538L14.5295 -54.9736L88.7302 680.573L688.707 248.538Z" fill="url(#paint20_linear_1617_13747)"/>
<path d="M42.8438 -88.6133L694.744 276.266L693.079 277.266L52.7538 658.299L52.7122 656.384L42.8438 -88.6133ZM690.289 276.308L45.1339 -84.783L54.9607 654.427L690.289 276.308Z" fill="url(#paint21_linear_1617_13747)"/>
<path d="M76.2836 -115.842L693.874 304.453L21.0703 629.114L76.2836 -115.842ZM689.46 304.119L78.1991 -111.803L23.5686 625.45L689.46 304.119Z" fill="url(#paint22_linear_1617_13747)"/>
<path d="M111.97 -140.031L113.469 -138.824L690.586 332.472L-7.99219 597.264L111.97 -140.031ZM686.172 331.764L113.51 -135.868L-5.16074 593.808L686.172 331.764Z" fill="url(#paint23_linear_1617_13747)"/>
<path d="M149.605 -161.016L684.832 360.116L682.959 360.657L-34.1484 562.998L-33.6904 561.125L149.605 -161.016ZM680.502 359.034L150.812 -156.727L-31.0672 559.834L680.502 359.034Z" fill="url(#paint24_linear_1617_13747)"/>
<path d="M-57.25 526.611L188.92 -178.668L676.679 387.137L-57.25 526.611ZM189.753 -174.296L-53.8772 523.696L672.474 385.68L189.753 -174.296Z" fill="url(#paint25_linear_1617_13747)"/>
</g>
<defs>
<linearGradient id="paint0_linear_1617_13747" x1="99.6543" y1="331.281" x2="818.655" y2="331.281" gradientUnits="userSpaceOnUse">
<stop stop-color="#83A4D4"/>
<stop offset="0.9543" stop-color="#B4F7FD"/>
<stop offset="0.9994" stop-color="#B6FBFF"/>
</linearGradient>
<linearGradient id="paint1_linear_1617_13747" x1="64.7084" y1="315.423" x2="798.659" y2="315.423" gradientUnits="userSpaceOnUse">
<stop stop-color="#83A4D4"/>
<stop offset="0.9543" stop-color="#B4F7FD"/>
<stop offset="0.9994" stop-color="#B6FBFF"/>
</linearGradient>
<linearGradient id="paint2_linear_1617_13747" x1="32.0907" y1="299.301" x2="775.405" y2="299.301" gradientUnits="userSpaceOnUse">
<stop stop-color="#83A4D4"/>
<stop offset="0.9543" stop-color="#B4F7FD"/>
<stop offset="0.9994" stop-color="#B6FBFF"/>
</linearGradient>
<linearGradient id="paint3_linear_1617_13747" x1="2.0672" y1="283.036" x2="749.09" y2="283.036" gradientUnits="userSpaceOnUse">
<stop stop-color="#83A4D4"/>
<stop offset="0.9543" stop-color="#B4F7FD"/>
<stop offset="0.9994" stop-color="#B6FBFF"/>
</linearGradient>
<linearGradient id="paint4_linear_1617_13747" x1="-25.1547" y1="294.358" x2="719.89" y2="294.358" gradientUnits="userSpaceOnUse">
<stop stop-color="#83A4D4"/>
<stop offset="0.9543" stop-color="#B4F7FD"/>
<stop offset="0.9994" stop-color="#B6FBFF"/>
</linearGradient>
<linearGradient id="paint5_linear_1617_13747" x1="-49.3608" y1="310.537" x2="688.037" y2="310.537" gradientUnits="userSpaceOnUse">
<stop stop-color="#83A4D4"/>
<stop offset="0.9543" stop-color="#B4F7FD"/>
<stop offset="0.9994" stop-color="#B6FBFF"/>
</linearGradient>
<linearGradient id="paint6_linear_1617_13747" x1="-70.3576" y1="326.49" x2="653.779" y2="326.49" gradientUnits="userSpaceOnUse">
<stop stop-color="#83A4D4"/>
<stop offset="0.9543" stop-color="#B4F7FD"/>
<stop offset="0.9994" stop-color="#B6FBFF"/>
</linearGradient>
<linearGradient id="paint7_linear_1617_13747" x1="-87.9932" y1="342.091" x2="617.371" y2="342.091" gradientUnits="userSpaceOnUse">
<stop stop-color="#83A4D4"/>
<stop offset="0.9543" stop-color="#B4F7FD"/>
<stop offset="0.9994" stop-color="#B6FBFF"/>
</linearGradient>
<linearGradient id="paint8_linear_1617_13747" x1="-102.137" y1="357.224" x2="579.088" y2="357.224" gradientUnits="userSpaceOnUse">
<stop stop-color="#83A4D4"/>
<stop offset="0.9543" stop-color="#B4F7FD"/>
<stop offset="0.9994" stop-color="#B6FBFF"/>
</linearGradient>
<linearGradient id="paint9_linear_1617_13747" x1="-112.691" y1="371.772" x2="539.211" y2="371.772" gradientUnits="userSpaceOnUse">
<stop stop-color="#83A4D4"/>
<stop offset="0.9543" stop-color="#B4F7FD"/>
<stop offset="0.9994" stop-color="#B6FBFF"/>
</linearGradient>
<linearGradient id="paint10_linear_1617_13747" x1="-119.538" y1="385.627" x2="553.301" y2="385.627" gradientUnits="userSpaceOnUse">
<stop stop-color="#83A4D4"/>
<stop offset="0.9543" stop-color="#B4F7FD"/>
<stop offset="0.9994" stop-color="#B6FBFF"/>
</linearGradient>
<linearGradient id="paint11_linear_1617_13747" x1="-122.664" y1="398.684" x2="575.915" y2="398.684" gradientUnits="userSpaceOnUse">
<stop stop-color="#83A4D4"/>
<stop offset="0.9543" stop-color="#B4F7FD"/>
<stop offset="0.9994" stop-color="#B6FBFF"/>
</linearGradient>
<linearGradient id="paint12_linear_1617_13747" x1="-122.027" y1="410.84" x2="596.974" y2="410.84" gradientUnits="userSpaceOnUse">
<stop stop-color="#83A4D4"/>
<stop offset="0.9543" stop-color="#B4F7FD"/>
<stop offset="0.9994" stop-color="#B6FBFF"/>
</linearGradient>
<linearGradient id="paint13_linear_1617_13747" x1="-117.636" y1="422.006" x2="616.315" y2="422.006" gradientUnits="userSpaceOnUse">
<stop stop-color="#83A4D4"/>
<stop offset="0.9543" stop-color="#B4F7FD"/>
<stop offset="0.9994" stop-color="#B6FBFF"/>
</linearGradient>
<linearGradient id="paint14_linear_1617_13747" x1="-109.526" y1="432.095" x2="633.788" y2="432.095" gradientUnits="userSpaceOnUse">
<stop stop-color="#83A4D4"/>
<stop offset="0.9543" stop-color="#B4F7FD"/>
<stop offset="0.9994" stop-color="#B6FBFF"/>
</linearGradient>
<linearGradient id="paint15_linear_1617_13747" x1="-97.7639" y1="441.031" x2="649.259" y2="441.031" gradientUnits="userSpaceOnUse">
<stop stop-color="#83A4D4"/>
<stop offset="0.9543" stop-color="#B4F7FD"/>
<stop offset="0.9994" stop-color="#B6FBFF"/>
</linearGradient>
<linearGradient id="paint16_linear_1617_13747" x1="-82.4204" y1="421.136" x2="662.623" y2="421.136" gradientUnits="userSpaceOnUse">
<stop stop-color="#83A4D4"/>
<stop offset="0.9543" stop-color="#B4F7FD"/>
<stop offset="0.9994" stop-color="#B6FBFF"/>
</linearGradient>
<linearGradient id="paint17_linear_1617_13747" x1="-63.625" y1="395.212" x2="673.771" y2="395.212" gradientUnits="userSpaceOnUse">
<stop stop-color="#83A4D4"/>
<stop offset="0.9543" stop-color="#B4F7FD"/>
<stop offset="0.9994" stop-color="#B6FBFF"/>
</linearGradient>
<linearGradient id="paint18_linear_1617_13747" x1="-41.5153" y1="368.414" x2="682.621" y2="368.414" gradientUnits="userSpaceOnUse">
<stop stop-color="#83A4D4"/>
<stop offset="0.9543" stop-color="#B4F7FD"/>
<stop offset="0.9994" stop-color="#B6FBFF"/>
</linearGradient>
<linearGradient id="paint19_linear_1617_13747" x1="-16.2779" y1="340.949" x2="689.088" y2="340.949" gradientUnits="userSpaceOnUse">
<stop stop-color="#83A4D4"/>
<stop offset="0.9543" stop-color="#B4F7FD"/>
<stop offset="0.9994" stop-color="#B6FBFF"/>
</linearGradient>
<linearGradient id="paint20_linear_1617_13747" x1="11.9154" y1="313.022" x2="693.141" y2="313.022" gradientUnits="userSpaceOnUse">
<stop stop-color="#83A4D4"/>
<stop offset="0.9543" stop-color="#B4F7FD"/>
<stop offset="0.9994" stop-color="#B6FBFF"/>
</linearGradient>
<linearGradient id="paint21_linear_1617_13747" x1="42.8438" y1="284.851" x2="694.746" y2="284.851" gradientUnits="userSpaceOnUse">
<stop stop-color="#83A4D4"/>
<stop offset="0.9543" stop-color="#B4F7FD"/>
<stop offset="0.9994" stop-color="#B6FBFF"/>
</linearGradient>
<linearGradient id="paint22_linear_1617_13747" x1="21.0537" y1="256.646" x2="693.893" y2="256.646" gradientUnits="userSpaceOnUse">
<stop stop-color="#83A4D4"/>
<stop offset="0.9543" stop-color="#B4F7FD"/>
<stop offset="0.9994" stop-color="#B6FBFF"/>
</linearGradient>
<linearGradient id="paint23_linear_1617_13747" x1="-7.9951" y1="228.623" x2="690.583" y2="228.623" gradientUnits="userSpaceOnUse">
<stop stop-color="#83A4D4"/>
<stop offset="0.9543" stop-color="#B4F7FD"/>
<stop offset="0.9994" stop-color="#B6FBFF"/>
</linearGradient>
<linearGradient id="paint24_linear_1617_13747" x1="-34.1668" y1="200.993" x2="684.834" y2="200.993" gradientUnits="userSpaceOnUse">
<stop stop-color="#83A4D4"/>
<stop offset="0.9543" stop-color="#B4F7FD"/>
<stop offset="0.9994" stop-color="#B6FBFF"/>
</linearGradient>
<linearGradient id="paint25_linear_1617_13747" x1="-57.2371" y1="173.972" x2="676.714" y2="173.972" gradientUnits="userSpaceOnUse">
<stop stop-color="#83A4D4"/>
<stop offset="0.9543" stop-color="#B4F7FD"/>
<stop offset="0.9994" stop-color="#B6FBFF"/>
</linearGradient>
<clipPath id="clip0_1617_13747">
<rect width="941.333" height="953.333" fill="white" transform="translate(-122.668 -178.668)"/>
</clipPath>
</defs>
</svg>
